<svg width="302" height="125" viewBox="0 0 302 125" fill="none" xmlns="http://www.w3.org/2000/svg">
    <path
        d="M106.879 20.2723C106.606 20.5856 106.45 20.9942 106.45 21.4164V39.8295L106.838 40.422L107.778 40.0338C108.84 36.772 110.14 33.7962 111.707 31.1269C113.382 28.2804 115.329 25.7745 117.57 23.6295C130.488 13.061 143.739 8.52576 157.324 10.0307C168.724 11.6105 177.351 16.9492 183.187 26.0333C184.018 27.3203 184.808 28.7026 185.509 30.1531C187.001 33.1153 188.233 36.4179 189.241 40.027C190.773 66.8228 176.609 82.0764 146.749 85.8285V93.8093C171.992 95.3142 187.225 85.522 192.435 64.419C195.186 49.2064 193.333 36.2 186.871 25.4136C186.054 24.0449 185.155 22.7034 184.175 21.4027C183.303 20.2247 182.363 19.0807 181.369 17.9571C154.417 -6.08085 129.296 -5.30456 106.872 20.2723H106.879ZM106.45 39.278L106.681 40.1564C116.521 57.2553 130.671 63.7789 149.132 59.7204C167.212 54.5315 179.34 44.6712 185.509 30.1599C185.645 29.8535 185.775 29.5538 185.897 29.2338C186.258 27.9468 186.592 26.6734 186.878 25.4136C186.061 24.0449 185.162 22.7034 184.181 21.4027C183.957 22.9689 183.63 24.5147 183.187 26.0333C181.097 33.1561 176.561 39.8363 169.588 46.0603C147.178 58.7739 127.886 53.7892 111.7 31.12C111.033 30.1803 110.372 29.2134 109.705 28.2123C108.962 26.5236 106.443 27.0479 106.443 28.8933V39.2712L106.45 39.278ZM218.958 93.9659H208.458V13.3265C208.069 9.10458 207.518 5.58401 206.816 2.77164C210.337 2.07025 213.504 2.07025 216.316 2.77164L215.785 5.46825L215.315 8.51895L214.198 82.5735L283.282 26.6393H301.695L218.951 93.9591L218.958 93.9659ZM244.331 2.2473L236.445 10.1328L244.331 18.0184L252.216 10.1328L244.331 2.2473ZM0.424072 26.6461H18.8373L87.9207 82.5803L86.804 8.52576L86.3341 5.47506L85.8029 2.77845C88.6153 2.07706 91.7818 2.07706 95.3023 2.77845C94.601 5.59082 94.0494 9.11139 93.6612 13.3333V93.9659H83.1608L0.424072 26.6461ZM49.9095 10.1328L57.795 18.0184L65.6805 10.1328L57.795 2.2473L49.9095 10.1328Z"
        fill="url(#paint0_linear_2_310)" />
    <g clip-path="url(#clip0_2_310)">
        <path
            d="M68.9495 120.849C66.5969 120.849 65.4243 119.809 65.4243 117.72C65.4243 116.775 65.7028 115.99 66.2598 115.382C66.8681 114.715 67.7183 114.385 68.8103 114.385C69.7923 114.385 70.6938 114.539 71.5146 114.854V119.86H73.0024V120.842H68.9495V120.849ZM70.298 115.675C69.8583 115.463 69.3233 115.36 68.6783 115.36C68.0334 115.36 67.5643 115.565 67.2052 115.968C66.8461 116.372 66.6702 116.907 66.6702 117.573C66.6702 119.098 67.4837 119.86 69.1181 119.86H70.298V115.675ZM67.2052 113.096C67.0733 112.956 67 112.78 67 112.568C67 112.377 67.066 112.209 67.2052 112.069C67.3445 111.93 67.513 111.857 67.7109 111.857C67.9088 111.857 68.0774 111.923 68.2166 112.062C68.3559 112.201 68.4292 112.37 68.4292 112.568C68.4292 112.766 68.3559 112.942 68.2166 113.088C68.0774 113.227 67.9088 113.301 67.7109 113.301C67.513 113.301 67.3445 113.235 67.2052 113.096ZM69.184 113.096C69.0448 112.956 68.9715 112.78 68.9715 112.568C68.9715 112.377 69.0448 112.209 69.184 112.069C69.3233 111.93 69.4918 111.857 69.6971 111.857C69.9023 111.857 70.0635 111.923 70.1954 112.062C70.3347 112.201 70.4006 112.37 70.4006 112.568C70.4006 112.766 70.3347 112.949 70.1954 113.088C70.0635 113.227 69.8949 113.301 69.6971 113.301C69.4992 113.301 69.3233 113.235 69.184 113.096Z"
            fill="#F9C39D" />
        <path d="M72.7971 119.867H75.78V120.849H72.7971V119.867Z" fill="#F9C39D" />
        <path d="M75.5967 119.867H78.5795V120.849H75.5967V119.867Z" fill="#F9C39D" />
        <path d="M78.3892 119.867H81.372V120.849H78.3892V119.867Z" fill="#F9C39D" />
        <path d="M81.1885 119.867H84.1713V120.849H81.1885V119.867Z" fill="#F9C39D" />
        <path d="M83.981 119.867H86.9638V120.849H83.981V119.867Z" fill="#F9C39D" />
        <path d="M86.7805 119.867H89.7634V120.849H86.7805V119.867Z" fill="#F9C39D" />
        <path d="M89.573 119.867H92.5559V120.849H89.573V119.867Z" fill="#F9C39D" />
        <path d="M92.365 119.867H95.3478V120.849H92.365V119.867Z" fill="#F9C39D" />
        <path d="M95.165 119.867H98.1479V120.849H95.165V119.867Z" fill="#F9C39D" />
        <path d="M97.957 119.867H100.94V120.849H97.957V119.867Z" fill="#F9C39D" />
        <path d="M100.757 119.867H103.74V120.849H100.757V119.867Z" fill="#F9C39D" />
        <path
            d="M103.549 119.867H105.513V114.532H106.744V119.867H108.833V120.849H103.549V119.867ZM105.198 123.363C105.059 123.51 104.89 123.576 104.692 123.576C104.494 123.576 104.326 123.502 104.187 123.363C104.055 123.224 103.981 123.055 103.981 122.843C103.981 122.645 104.047 122.476 104.187 122.344C104.326 122.205 104.494 122.132 104.692 122.132C104.89 122.132 105.059 122.198 105.198 122.337C105.337 122.476 105.411 122.645 105.411 122.843C105.411 123.041 105.337 123.217 105.198 123.356V123.363ZM107.177 123.363C107.045 123.51 106.876 123.576 106.679 123.576C106.481 123.576 106.305 123.502 106.165 123.363C106.026 123.224 105.953 123.048 105.953 122.843C105.953 122.638 106.026 122.476 106.165 122.344C106.305 122.205 106.473 122.132 106.679 122.132C106.884 122.132 107.045 122.198 107.177 122.337C107.309 122.476 107.382 122.645 107.382 122.843C107.382 123.041 107.316 123.217 107.177 123.356V123.363Z"
            fill="#F9C39D" />
        <path
            d="M108.643 119.867H109.222C109.72 119.867 110.072 119.735 110.277 119.479C110.497 119.2 110.607 118.717 110.607 118.028V115.338H111.838V117.786C111.838 118.585 111.897 119.12 111.999 119.391C112.153 119.772 112.476 119.962 112.967 119.962C113.89 119.962 114.352 119.244 114.352 117.793V114.796H115.554V118.24C115.554 118.922 115.701 119.369 115.986 119.589C116.243 119.772 116.749 119.867 117.518 119.867H117.958C118.031 119.252 118.068 118.636 118.068 118.006C118.068 116.664 117.921 115.433 117.621 114.297L118.815 114.085C119.138 115.235 119.299 116.503 119.299 117.896C119.299 118.907 119.226 119.889 119.086 120.857H117.555C116.697 120.857 116.074 120.783 115.686 120.637C115.283 120.483 114.982 120.197 114.784 119.787C114.484 120.563 113.81 120.952 112.754 120.952C111.809 120.952 111.23 120.571 111.017 119.794C110.761 120.505 110.16 120.857 109.222 120.857H108.643V119.875V119.867Z"
            fill="#F9C39D" />
        <path
            d="M121.08 119.867H125.389C125.374 118.629 125.103 117.654 124.575 116.943C124.04 116.225 123.183 115.683 122.003 115.316L122.311 114.268C123.762 114.722 124.817 115.367 125.492 116.218C126.202 117.112 126.576 118.328 126.613 119.875H127.646V120.857H121.08V119.875V119.867Z"
            fill="#F9C39D" />
        <path
            d="M127.463 119.867H129.427V114.532H130.659V119.867H132.154V120.849H127.463V119.867ZM129.53 112.883C129.391 112.744 129.317 112.575 129.317 112.37C129.317 112.165 129.383 111.989 129.53 111.842C129.669 111.695 129.838 111.63 130.043 111.63C130.248 111.63 130.424 111.703 130.571 111.842C130.717 111.981 130.783 112.157 130.783 112.37C130.783 112.582 130.71 112.744 130.571 112.883C130.424 113.022 130.248 113.095 130.043 113.095C129.838 113.095 129.669 113.029 129.53 112.883Z"
            fill="#F9C39D" />
        <path
            d="M131.948 119.868H133.495C133.612 119.868 133.729 119.875 133.861 119.897L134.023 119.919C133.678 119.743 133.502 119.347 133.502 118.732C133.502 118.057 133.729 117.522 134.176 117.119C134.624 116.716 135.232 116.518 135.979 116.518C137.57 116.518 138.361 117.464 138.361 119.347V119.882H140.04V119.618C140.04 117.962 139.71 116.767 139.065 116.02C138.427 115.287 137.409 114.921 136.016 114.921C135.056 114.921 134.103 115.074 133.158 115.39L133.026 114.481C134.074 114.158 135.122 113.997 136.185 113.997C137.856 113.997 139.101 114.429 139.922 115.294C140.794 116.21 141.234 117.654 141.234 119.618V119.882H142.414V120.864H131.934V119.882L131.948 119.868ZM137.284 119.376C137.284 118.021 136.822 117.339 135.899 117.339C135.027 117.339 134.594 117.749 134.594 118.563C134.594 119.003 134.748 119.347 135.049 119.582C135.312 119.794 135.664 119.897 136.104 119.897H137.284V119.369V119.376Z"
            fill="#F9C39D" />
        <path d="M142.231 119.867H144.114V111.373H145.345V120.849H142.231V119.867Z" fill="#F9C39D" />
        <path d="M147.889 111.373H149.12V120.849H147.889V111.373Z" fill="#F9C39D" />
        <path
            d="M158.574 120.849C156.911 120.849 155.701 120.52 154.939 119.853C154.221 119.222 153.854 118.255 153.854 116.936C153.854 116.086 154.001 115.345 154.302 114.708L155.613 114.481C155.269 115.177 155.1 115.946 155.1 116.797C155.1 117.867 155.35 118.629 155.855 119.098C156.412 119.611 157.365 119.867 158.714 119.867H161V114.532H162.231V120.849H158.567H158.574ZM156.918 113.096C156.786 112.956 156.713 112.78 156.713 112.568C156.713 112.377 156.779 112.209 156.918 112.069C157.057 111.93 157.226 111.857 157.431 111.857C157.636 111.857 157.797 111.923 157.929 112.062C158.061 112.201 158.142 112.37 158.142 112.568C158.142 112.766 158.069 112.942 157.929 113.088C157.79 113.227 157.622 113.301 157.431 113.301C157.24 113.301 157.057 113.235 156.918 113.096ZM158.911 113.096C158.765 112.956 158.699 112.78 158.699 112.568C158.699 112.377 158.772 112.209 158.911 112.069C159.051 111.93 159.219 111.857 159.424 111.857C159.63 111.857 159.784 111.923 159.915 112.062C160.055 112.201 160.121 112.37 160.121 112.568C160.121 112.766 160.055 112.949 159.915 113.088C159.784 113.227 159.615 113.301 159.424 113.301C159.219 113.301 159.051 113.235 158.911 113.096Z"
            fill="#F9C39D" />
        <path d="M164.694 111.373H165.925V120.849H164.694V111.373Z" fill="#F9C39D" />
        <path
            d="M166.233 124.118L166.365 123.092C166.783 123.246 167.23 123.319 167.721 123.319C168.314 123.319 168.754 123.158 169.033 122.828C169.355 122.462 169.509 121.861 169.509 121.025V114.532H170.74V120.915C170.74 123.173 169.699 124.301 167.625 124.301C167.164 124.301 166.702 124.243 166.226 124.118H166.233Z"
            fill="#F9C39D" />
        <path d="M173.181 111.373H174.412V119.867H175.892V120.849H173.173V111.373H173.181Z"
            fill="#F9C39D" />
        <path d="M175.694 119.867H178.677V120.849H175.694V119.867Z" fill="#F9C39D" />
        <path d="M178.494 119.867H181.477V120.849H178.494V119.867Z" fill="#F9C39D" />
        <path d="M181.286 119.867H184.269V120.849H181.286V119.867Z" fill="#F9C39D" />
        <path d="M184.086 119.867H187.069V120.849H184.086V119.867Z" fill="#F9C39D" />
        <path d="M186.879 119.867H189.862V120.849H186.879V119.867Z" fill="#F9C39D" />
        <path d="M189.67 119.867H192.653V120.849H189.67V119.867Z" fill="#F9C39D" />
        <path d="M192.47 119.867H195.453V120.849H192.47V119.867Z" fill="#F9C39D" />
        <path d="M195.263 119.867H198.246V120.849H195.263V119.867Z" fill="#F9C39D" />
        <path
            d="M206.974 120.849C206.116 120.849 205.493 120.776 205.105 120.63C204.702 120.476 204.401 120.19 204.204 119.779C203.903 120.556 203.229 120.945 202.174 120.945C201.228 120.945 200.649 120.564 200.437 119.787C200.18 120.498 199.579 120.849 198.641 120.849H198.062V119.867H198.641C199.139 119.867 199.491 119.735 199.696 119.479C199.916 119.2 200.026 118.717 200.026 118.028V115.338H201.257V117.786C201.257 118.585 201.316 119.12 201.419 119.391C201.573 119.772 201.895 119.963 202.386 119.963C203.309 119.963 203.771 119.244 203.771 117.793V114.796H204.973V118.24C204.973 118.922 205.12 119.369 205.406 119.589C205.662 119.772 206.168 119.867 206.937 119.867H207.377C207.45 119.252 207.487 118.636 207.487 118.006C207.487 116.665 207.34 115.433 207.04 114.297L208.234 114.085C208.557 115.236 208.718 116.503 208.718 117.896C208.718 118.446 208.689 119.105 208.63 119.875H210.103V120.857H206.974V120.849ZM202.826 113.096C202.687 112.956 202.613 112.78 202.613 112.568C202.613 112.377 202.687 112.209 202.826 112.069C202.958 111.93 203.126 111.857 203.331 111.857C203.537 111.857 203.698 111.923 203.837 112.062C203.969 112.194 204.042 112.37 204.042 112.568C204.042 112.766 203.976 112.949 203.837 113.088C203.698 113.227 203.529 113.301 203.331 113.301C203.134 113.301 202.965 113.235 202.826 113.096ZM203.837 111.498C203.705 111.366 203.639 111.205 203.639 111.014C203.639 110.824 203.705 110.648 203.837 110.516C203.969 110.384 204.13 110.311 204.321 110.311C204.511 110.311 204.665 110.377 204.797 110.516C204.929 110.655 204.995 110.816 204.995 111.014C204.995 111.212 204.929 111.366 204.797 111.498C204.665 111.63 204.504 111.696 204.321 111.696C204.138 111.696 203.969 111.63 203.837 111.498ZM204.812 113.096C204.673 112.956 204.599 112.78 204.599 112.568C204.599 112.377 204.673 112.209 204.812 112.069C204.944 111.93 205.12 111.857 205.318 111.857C205.515 111.857 205.684 111.923 205.816 112.062C205.955 112.201 206.029 112.37 206.029 112.568C206.029 112.766 205.955 112.942 205.816 113.088C205.677 113.227 205.515 113.301 205.318 113.301C205.12 113.301 204.951 113.235 204.812 113.096Z"
            fill="#F9C39D" />
        <path
            d="M209.913 119.867H211.877V114.532H213.108V119.867H214.493V120.849H209.913V119.867ZM210.778 113.096C210.638 112.956 210.565 112.78 210.565 112.568C210.565 112.377 210.638 112.209 210.778 112.069C210.917 111.93 211.085 111.857 211.283 111.857C211.481 111.857 211.65 111.923 211.782 112.062C211.914 112.201 211.994 112.37 211.994 112.568C211.994 112.766 211.921 112.942 211.782 113.088C211.65 113.227 211.481 113.301 211.283 113.301C211.085 113.301 210.917 113.235 210.778 113.096ZM212.756 113.096C212.61 112.956 212.544 112.78 212.544 112.568C212.544 112.377 212.617 112.209 212.756 112.069C212.896 111.93 213.064 111.857 213.269 111.857C213.475 111.857 213.636 111.923 213.768 112.062C213.9 112.201 213.966 112.37 213.966 112.568C213.966 112.766 213.9 112.949 213.768 113.088C213.636 113.227 213.467 113.301 213.269 113.301C213.072 113.301 212.896 113.235 212.756 113.096Z"
            fill="#F9C39D" />
        <path
            d="M214.289 119.867H214.868C215.366 119.867 215.718 119.735 215.923 119.479C216.143 119.2 216.253 118.717 216.253 118.028V115.338H217.484V117.786C217.484 118.585 217.543 119.12 217.645 119.391C217.799 119.772 218.122 119.962 218.613 119.962C219.536 119.962 219.998 119.244 219.998 117.793V114.796H221.2V118.24C221.2 118.922 221.346 119.369 221.632 119.589C221.889 119.772 222.394 119.867 223.164 119.867H223.604C223.677 119.252 223.714 118.636 223.714 118.006C223.714 116.664 223.567 115.433 223.266 114.297L224.461 114.085C224.784 115.235 224.945 116.503 224.945 117.896C224.945 118.907 224.871 119.889 224.732 120.857H223.2C222.343 120.857 221.72 120.783 221.332 120.637C220.929 120.483 220.628 120.197 220.43 119.787C220.13 120.563 219.455 120.952 218.4 120.952C217.455 120.952 216.876 120.571 216.663 119.794C216.407 120.505 215.806 120.857 214.868 120.857H214.289V119.875V119.867Z"
            fill="#F9C39D" />
        <path
            d="M229.071 118.658H227.825L225.685 111.468L226.916 111.3L229.071 118.665V118.658ZM226.264 119.867H230.419V111.373H231.665V119.867H233.131V120.849H226.264V119.867ZM227.099 123.517C227.495 123.517 227.759 123.532 227.905 123.554C227.722 123.444 227.634 123.268 227.634 123.019C227.634 122.696 227.766 122.425 228.037 122.213C228.323 121.978 228.719 121.868 229.21 121.868C229.467 121.868 229.716 121.897 229.943 121.949L229.826 122.66C229.613 122.608 229.393 122.579 229.173 122.579C228.748 122.579 228.528 122.733 228.528 123.041C228.528 123.363 228.829 123.524 229.43 123.524H230.236V124.235H227.092V123.524L227.099 123.517Z"
            fill="#F9C39D" />
        <path d="M232.94 119.867H234.823V111.373H236.055V120.849H232.94V119.867Z" fill="#F9C39D" />
    </g>
    <defs>
        <linearGradient id="paint0_linear_2_310" x1="0.424072" y1="47.2248" x2="301.702"
            y2="47.2248" gradientUnits="userSpaceOnUse">
            <stop stop-color="#FEC9A7" />
            <stop offset="1" stop-color="#BE7B2D" />
        </linearGradient>
        <clipPath id="clip0_2_310">
            <rect width="170.631" height="13.9908" fill="white"
                transform="translate(65.4241 110.311)" />
        </clipPath>
    </defs>
</svg>
    