<svg width="557" height="173" viewBox="0 0 557 173" fill="none" xmlns="http://www.w3.org/2000/svg">
    <g clip-path="url(#clip0_244_26470)">
        <path
            d="M0 0.942413H18.7626L22.6592 1.665C24.8203 4.6539 107.664 97.2769 107.664 97.2769L106.289 9.33432L105.716 5.57357L105.061 2.23979C108.532 1.3694 112.428 1.3694 116.75 2.23979C115.883 5.72137 115.211 10.0569 114.737 15.2629L112.788 114.783H101.819L14.866 16.5767V82.2996C13.5726 83.5477 11.8371 84.8615 9.67599 86.2082V10.6481C7.49849 7.6428 4.50237 4.85097 0.65489 2.23979L0 0.942413ZM556.345 2.23979C552.498 4.85097 549.485 7.6428 547.324 10.6317V86.1917C545.163 84.8451 543.427 83.5313 542.134 82.2832V16.5767L455.181 114.8H444.212L442.263 15.2793C441.789 10.0733 441.101 5.72137 440.25 2.25622C444.572 1.38582 448.468 1.38582 451.939 2.25622L451.284 5.58999L450.711 9.35075L449.336 97.2934C449.336 97.2934 532.18 4.6539 534.341 1.665L538.237 0.942413H557L556.345 2.23979ZM212.201 2.23979L238.183 2.81458C295.404 52.4599 248.825 132.109 180.962 115.292C153.293 108.444 140.457 88.4088 142.422 55.2189H152.884C162.724 134.031 246.402 121.976 252.247 69.1123C256.766 28.1381 212.201 2.23979 212.201 2.23979ZM346.076 116.918L320.094 116.343C262.873 66.6982 309.452 -12.951 377.315 3.86562C404.984 10.7138 417.82 30.7493 415.855 63.9392H405.393C392.115 -42.2981 249.955 24.9357 323.859 102.302C329.295 108.001 346.076 116.918 346.076 116.918Z"
            fill="url(#paint0_linear_244_26470)" />
    </g>
    <g clip-path="url(#clip1_244_26470)">
        <path
            d="M164.015 173C162.599 173 161.347 172.659 160.272 171.991C159.197 171.323 158.367 170.383 157.768 169.184C157.169 167.971 156.87 166.568 156.87 164.973C156.87 163.379 157.169 161.975 157.768 160.762C158.367 159.55 159.197 158.623 160.272 157.969C161.347 157.301 162.599 156.96 164.015 156.96C165.566 156.96 166.913 157.342 168.057 158.119C169.2 158.895 170.016 159.958 170.52 161.321L168.696 162.016C168.315 161.008 167.716 160.231 166.913 159.672C166.11 159.113 165.144 158.841 164.001 158.841C162.953 158.841 162.028 159.086 161.252 159.59C160.476 160.095 159.864 160.803 159.442 161.716C159.02 162.629 158.816 163.719 158.816 164.973C158.816 166.227 159.034 167.317 159.442 168.244C159.864 169.157 160.463 169.879 161.252 170.383C162.041 170.887 162.953 171.133 164.001 171.133C165.144 171.133 166.11 170.846 166.913 170.288C167.716 169.729 168.302 168.952 168.696 167.958L170.52 168.625C170.016 169.974 169.2 171.037 168.057 171.828C166.913 172.618 165.566 173.013 164.015 173.013V173Z"
            fill="#F9C39D" />
        <path
            d="M188.539 173C187.124 173 185.872 172.66 184.797 171.992C183.721 171.324 182.891 170.397 182.293 169.185C181.694 167.972 181.394 166.582 181.394 164.974C181.394 163.366 181.694 161.949 182.293 160.749C182.891 159.55 183.735 158.61 184.797 157.942C185.872 157.274 187.124 156.934 188.539 156.934C189.954 156.934 191.261 157.274 192.336 157.942C193.411 158.61 194.255 159.537 194.854 160.749C195.452 161.962 195.752 163.366 195.752 164.974C195.752 166.582 195.452 167.972 194.84 169.185C194.228 170.397 193.384 171.324 192.309 171.992C191.234 172.66 189.968 173 188.525 173H188.539ZM188.539 171.133C189.614 171.133 190.553 170.888 191.329 170.384C192.105 169.88 192.703 169.171 193.139 168.244C193.574 167.331 193.779 166.241 193.779 165.001C193.779 163.761 193.561 162.657 193.139 161.731C192.703 160.817 192.105 160.095 191.329 159.591C190.553 159.087 189.628 158.842 188.539 158.842C187.45 158.842 186.566 159.087 185.79 159.591C185.001 160.082 184.402 160.79 183.98 161.717C183.558 162.63 183.354 163.734 183.354 165.015C183.354 166.296 183.572 167.372 183.98 168.285C184.402 169.198 185.001 169.907 185.79 170.411C186.579 170.915 187.491 171.161 188.539 171.161V171.133Z"
            fill="#F9C39D" />
        <path
            d="M207.537 172.741V157.234H209.606L217.54 170.207H217.091V157.234H219.05V172.741H216.941L209.048 159.755H209.497V172.741H207.537Z"
            fill="#F9C39D" />
        <path
            d="M236.172 172.972C234.621 172.972 233.341 172.564 232.348 171.746C231.354 170.928 230.742 169.852 230.524 168.503L232.43 168.039C232.593 169.075 233.015 169.865 233.709 170.41C234.403 170.956 235.233 171.228 236.226 171.228C236.798 171.228 237.315 171.119 237.778 170.887C238.241 170.669 238.594 170.356 238.867 169.947C239.139 169.538 239.261 169.075 239.261 168.557C239.261 168.012 239.112 167.562 238.812 167.194C238.513 166.84 238.105 166.527 237.574 166.254C237.043 165.982 236.431 165.723 235.737 165.45C234.879 165.123 234.131 164.769 233.477 164.387C232.824 164.006 232.334 163.542 231.98 162.997C231.627 162.452 231.45 161.798 231.45 161.008C231.45 160.217 231.64 159.522 232.021 158.909C232.402 158.296 232.947 157.819 233.641 157.478C234.335 157.137 235.138 156.96 236.063 156.96C237.043 156.96 237.914 157.178 238.663 157.628C239.425 158.078 240.023 158.732 240.486 159.604L238.935 160.558C238.594 159.945 238.186 159.481 237.696 159.168C237.206 158.855 236.648 158.691 236.009 158.691C235.505 158.691 235.056 158.786 234.661 158.977C234.267 159.168 233.967 159.44 233.736 159.781C233.518 160.122 233.396 160.517 233.396 160.967C233.396 161.444 233.532 161.853 233.79 162.18C234.063 162.507 234.444 162.806 234.947 163.052C235.451 163.297 236.063 163.57 236.771 163.828C237.669 164.169 238.458 164.537 239.098 164.946C239.751 165.341 240.255 165.818 240.622 166.377C240.99 166.935 241.167 167.617 241.167 168.434C241.167 169.307 240.949 170.083 240.527 170.765C240.091 171.446 239.506 171.991 238.744 172.373C237.996 172.768 237.111 172.959 236.118 172.959L236.172 172.972Z"
            fill="#F9C39D" />
        <path
            d="M258.368 173C256.531 173 255.129 172.496 254.163 171.515C253.197 170.52 252.707 169.062 252.707 167.127V157.234H254.667V166.909C254.667 167.849 254.789 168.626 255.034 169.267C255.279 169.907 255.674 170.384 256.218 170.711C256.762 171.038 257.484 171.202 258.368 171.202C259.253 171.202 259.974 171.038 260.532 170.697C261.09 170.37 261.485 169.88 261.743 169.239C261.988 168.599 262.124 167.822 262.124 166.882V157.234H264.057V167.018C264.057 168.98 263.567 170.466 262.601 171.474C261.634 172.496 260.219 173 258.368 173Z"
            fill="#F9C39D" />
        <path d="M276.32 172.741V157.234H278.28V170.984H285.207V172.741H276.32Z" fill="#F9C39D" />
        <path
            d="M297.345 172.741V158.992H292.146V157.234H304.503V158.992H299.332V172.741H297.358H297.345Z"
            fill="#F9C39D" />
        <path
            d="M312 172.741L317.92 157.234H319.471L325.377 172.741H323.241L318.709 160.041L314.15 172.741H312ZM315.293 169.089L315.892 167.331H321.485L322.125 169.089H315.279H315.293Z"
            fill="#F9C39D" />
        <path
            d="M336.429 172.741V157.234H338.497L346.431 170.207H345.982V157.234H347.942V172.741H345.832L337.939 159.755H338.388V172.741H336.429Z"
            fill="#F9C39D" />
        <path
            d="M364.111 172.741V158.992H358.913V157.234H371.27V158.992H366.098V172.741H364.125H364.111Z"
            fill="#F9C39D" />
        <path
            d="M386.565 172.972C385.013 172.972 383.734 172.564 382.741 171.746C381.747 170.928 381.135 169.852 380.917 168.503L382.822 168.039C382.986 169.075 383.408 169.865 384.102 170.41C384.796 170.956 385.626 171.228 386.619 171.228C387.191 171.228 387.708 171.119 388.171 170.887C388.633 170.669 388.987 170.356 389.259 169.947C389.532 169.538 389.654 169.075 389.654 168.557C389.654 168.012 389.504 167.562 389.205 167.194C388.906 166.84 388.497 166.527 387.967 166.254C387.436 165.982 386.823 165.723 386.129 165.45C385.272 165.123 384.523 164.769 383.87 164.387C383.217 164.006 382.727 163.542 382.373 162.997C382.019 162.452 381.842 161.798 381.842 161.008C381.842 160.217 382.033 159.522 382.414 158.909C382.795 158.296 383.339 157.819 384.034 157.478C384.728 157.137 385.531 156.96 386.456 156.96C387.436 156.96 388.307 157.178 389.055 157.628C389.817 158.078 390.416 158.732 390.879 159.604L389.327 160.558C388.987 159.945 388.579 159.481 388.089 159.168C387.599 158.855 387.041 158.691 386.402 158.691C385.898 158.691 385.449 158.786 385.054 158.977C384.66 159.168 384.36 159.44 384.129 159.781C383.911 160.122 383.789 160.517 383.789 160.967C383.789 161.444 383.925 161.853 384.183 162.18C384.455 162.507 384.836 162.806 385.34 163.052C385.844 163.297 386.456 163.57 387.164 163.828C388.062 164.169 388.851 164.537 389.491 164.946C390.144 165.341 390.648 165.818 391.015 166.377C391.382 166.935 391.559 167.617 391.559 168.434C391.559 169.307 391.342 170.083 390.92 170.765C390.484 171.446 389.899 171.991 389.137 172.373C388.388 172.768 387.504 172.959 386.51 172.959L386.565 172.972Z"
            fill="#F9C39D" />
    </g>
    <defs>
        <linearGradient id="paint0_linear_244_26470" x1="557" y1="59.2627" x2="0" y2="59.2627"
            gradientUnits="userSpaceOnUse">
            <stop stop-color="#BE7B2C" />
            <stop offset="1" stop-color="#F9C39D" />
        </linearGradient>
        <clipPath id="clip0_244_26470">
            <rect width="557" height="116.649" fill="white" transform="translate(0 0.942413)" />
        </clipPath>
        <clipPath id="clip1_244_26470">
            <rect width="234.757" height="16.0393" fill="white"
                transform="translate(156.856 156.961)" />
        </clipPath>
    </defs>
</svg>
    