<svg width="394" height="127" viewBox="0 0 394 127" fill="none" xmlns="http://www.w3.org/2000/svg">
    <g clipPath="url(#clip0_2_294)">
        <path
            d="M0.444092 0.53772H13.686L16.4361 1.04613C17.9613 3.14912 76.429 68.3187 76.429 68.3187L75.4584 6.44227L75.054 3.7962L74.5918 1.45056C77.0414 0.838147 79.7915 0.838147 82.842 1.45056C82.2296 3.90019 81.7558 6.95068 81.4207 10.6136L80.0457 80.6362H72.3039L10.9359 11.538V57.7806C10.0231 58.6588 8.79827 59.5832 7.27303 60.5307V7.36666C5.73623 5.25211 3.62169 3.28778 0.906287 1.45056L0.444092 0.53772ZM393.091 1.45056C390.375 3.28778 388.249 5.25211 386.724 7.3551V60.5191C385.199 59.5716 383.974 58.6472 383.061 57.7691V11.538L321.693 80.6478H313.951L312.576 10.6251C312.241 6.96224 311.756 3.90019 311.155 1.46211C314.206 0.849702 316.956 0.849702 319.405 1.46211L318.943 3.80775L318.539 6.45382L317.568 68.3302C317.568 68.3302 376.036 3.14912 377.561 1.04613L380.311 0.53772H393.553L393.091 1.45056ZM150.207 1.45056L168.545 1.85498C208.929 36.7854 176.055 92.8266 128.16 80.9944C108.632 76.176 99.5735 62.079 100.96 38.7266H108.344C115.288 94.1785 174.345 85.6972 178.47 48.502C181.659 19.6726 150.207 1.45056 150.207 1.45056ZM244.691 82.1383L226.354 81.7339C185.969 46.8035 218.843 -9.23771 266.738 2.59449C286.266 7.41288 295.325 21.5098 293.938 44.8623H286.555C277.184 -29.8863 176.853 17.4194 229.011 71.8545C232.848 75.864 244.691 82.1383 244.691 82.1383Z"
            fill="url(#paint0_linear_2_294)" />
    </g>
    <g clipPath="url(#clip1_2_294)">
        <path
            d="M103.416 126.255C102.214 126.255 101.151 125.966 100.238 125.399C99.3253 124.833 98.6204 124.036 98.112 123.019C97.6036 121.991 97.3494 120.801 97.3494 119.449C97.3494 118.097 97.6036 116.907 98.112 115.878C98.6204 114.85 99.3253 114.064 100.238 113.509C101.151 112.943 102.214 112.654 103.416 112.654C104.733 112.654 105.877 112.978 106.847 113.637C107.818 114.295 108.511 115.196 108.939 116.352L107.391 116.941C107.067 116.086 106.559 115.428 105.877 114.954C105.195 114.48 104.375 114.249 103.404 114.249C102.514 114.249 101.729 114.457 101.07 114.885C100.411 115.312 99.8914 115.913 99.5332 116.687C99.175 117.461 99.0017 118.386 99.0017 119.449C99.0017 120.512 99.1866 121.436 99.5332 122.222C99.8914 122.996 100.4 123.608 101.07 124.036C101.74 124.464 102.514 124.672 103.404 124.672C104.375 124.672 105.195 124.429 105.877 123.955C106.559 123.481 107.055 122.823 107.391 121.979L108.939 122.545C108.511 123.689 107.818 124.591 106.847 125.261C105.877 125.931 104.733 126.266 103.416 126.266V126.255Z"
            fill="#F9C39D" />
        <path
            d="M124.238 126.255C123.037 126.255 121.974 125.966 121.061 125.4C120.148 124.834 119.443 124.048 118.935 123.02C118.426 121.991 118.172 120.813 118.172 119.449C118.172 118.086 118.426 116.884 118.935 115.867C119.443 114.85 120.16 114.053 121.061 113.487C121.974 112.921 123.037 112.632 124.238 112.632C125.44 112.632 126.549 112.921 127.462 113.487C128.375 114.053 129.091 114.839 129.6 115.867C130.108 116.896 130.363 118.086 130.363 119.449C130.363 120.813 130.108 121.991 129.588 123.02C129.068 124.048 128.352 124.834 127.439 125.4C126.526 125.966 125.452 126.255 124.227 126.255H124.238ZM124.238 124.672C125.151 124.672 125.949 124.464 126.607 124.037C127.266 123.609 127.774 123.008 128.144 122.223C128.514 121.448 128.687 120.524 128.687 119.472C128.687 118.421 128.502 117.485 128.144 116.699C127.774 115.925 127.266 115.313 126.607 114.885C125.949 114.458 125.163 114.25 124.238 114.25C123.314 114.25 122.563 114.458 121.904 114.885C121.234 115.301 120.726 115.902 120.368 116.688C120.009 117.462 119.836 118.398 119.836 119.484C119.836 120.57 120.021 121.483 120.368 122.257C120.726 123.031 121.234 123.632 121.904 124.06C122.575 124.487 123.349 124.695 124.238 124.695V124.672Z"
            fill="#F9C39D" />
        <path
            d="M140.369 126.036V112.886H142.125L148.862 123.886H148.48V112.886H150.144V126.036H148.353L141.651 115.024H142.033V126.036H140.369Z"
            fill="#F9C39D" />
        <path
            d="M164.682 126.231C163.364 126.231 162.278 125.885 161.435 125.191C160.591 124.498 160.071 123.585 159.886 122.441L161.504 122.049C161.643 122.927 162.001 123.597 162.59 124.059C163.179 124.521 163.884 124.752 164.728 124.752C165.213 124.752 165.652 124.66 166.045 124.464C166.438 124.279 166.738 124.013 166.969 123.666C167.2 123.32 167.304 122.927 167.304 122.488C167.304 122.025 167.177 121.644 166.923 121.332C166.669 121.032 166.322 120.766 165.872 120.535C165.421 120.304 164.901 120.084 164.312 119.853C163.584 119.576 162.948 119.275 162.394 118.952C161.839 118.628 161.423 118.235 161.123 117.773C160.822 117.311 160.672 116.756 160.672 116.086C160.672 115.416 160.834 114.827 161.157 114.307C161.481 113.787 161.943 113.382 162.532 113.094C163.122 112.805 163.803 112.654 164.589 112.654C165.421 112.654 166.161 112.839 166.796 113.221C167.443 113.602 167.952 114.157 168.344 114.896L167.027 115.705C166.738 115.185 166.392 114.792 165.976 114.526C165.56 114.261 165.086 114.122 164.543 114.122C164.115 114.122 163.734 114.203 163.399 114.365C163.064 114.526 162.81 114.757 162.613 115.046C162.428 115.335 162.324 115.67 162.324 116.052C162.324 116.456 162.44 116.803 162.659 117.08C162.89 117.357 163.214 117.611 163.642 117.819C164.069 118.027 164.589 118.259 165.19 118.478C165.953 118.767 166.623 119.079 167.166 119.426C167.72 119.761 168.148 120.165 168.46 120.639C168.772 121.113 168.922 121.69 168.922 122.384C168.922 123.123 168.737 123.782 168.379 124.36C168.009 124.937 167.512 125.399 166.865 125.723C166.23 126.058 165.479 126.22 164.635 126.22L164.682 126.231Z"
            fill="#F9C39D" />
        <path
            d="M183.528 126.255C181.968 126.255 180.777 125.828 179.957 124.996C179.137 124.152 178.721 122.916 178.721 121.275V112.886H180.385V121.09C180.385 121.887 180.489 122.546 180.697 123.089C180.905 123.632 181.24 124.037 181.702 124.314C182.164 124.591 182.776 124.73 183.528 124.73C184.279 124.73 184.891 124.591 185.365 124.302C185.839 124.025 186.174 123.609 186.393 123.066C186.601 122.523 186.717 121.864 186.717 121.067V112.886H188.357V121.183C188.357 122.847 187.941 124.106 187.121 124.961C186.301 125.828 185.099 126.255 183.528 126.255Z"
            fill="#F9C39D" />
        <path d="M198.77 126.036V112.886H200.434V124.545H206.315V126.036H198.77Z" fill="#F9C39D" />
        <path
            d="M216.621 126.036V114.377H212.207V112.886H222.699V114.377H218.308V126.036H216.632H216.621Z"
            fill="#F9C39D" />
        <path
            d="M229.063 126.036L234.09 112.886H235.407L240.422 126.036H238.608L234.76 115.267L230.889 126.036H229.063ZM231.86 122.939L232.368 121.448H237.117L237.66 122.939H231.848H231.86Z"
            fill="#F9C39D" />
        <path
            d="M249.805 126.036V112.886H251.562L258.298 123.886H257.917V112.886H259.581V126.036H257.79L251.088 115.024H251.469V126.036H249.805Z"
            fill="#F9C39D" />
        <path
            d="M273.309 126.036V114.377H268.895V112.886H279.387V114.377H274.996V126.036H273.321H273.309Z"
            fill="#F9C39D" />
        <path
            d="M292.374 126.231C291.056 126.231 289.97 125.885 289.127 125.191C288.283 124.498 287.763 123.585 287.578 122.441L289.196 122.049C289.335 122.927 289.693 123.597 290.282 124.059C290.872 124.521 291.576 124.752 292.42 124.752C292.905 124.752 293.344 124.66 293.737 124.464C294.13 124.279 294.43 124.013 294.662 123.666C294.893 123.32 294.997 122.927 294.997 122.488C294.997 122.025 294.869 121.644 294.615 121.332C294.361 121.032 294.014 120.766 293.564 120.535C293.113 120.304 292.593 120.084 292.004 119.853C291.276 119.576 290.64 119.275 290.086 118.952C289.531 118.628 289.115 118.235 288.815 117.773C288.514 117.311 288.364 116.756 288.364 116.086C288.364 115.416 288.526 114.827 288.849 114.307C289.173 113.787 289.635 113.382 290.224 113.094C290.814 112.805 291.495 112.654 292.281 112.654C293.113 112.654 293.853 112.839 294.488 113.221C295.135 113.602 295.644 114.157 296.037 114.896L294.719 115.705C294.43 115.185 294.084 114.792 293.668 114.526C293.252 114.261 292.778 114.122 292.235 114.122C291.807 114.122 291.426 114.203 291.091 114.365C290.756 114.526 290.502 114.757 290.305 115.046C290.12 115.335 290.016 115.67 290.016 116.052C290.016 116.456 290.132 116.803 290.352 117.08C290.583 117.357 290.906 117.611 291.334 117.819C291.761 118.027 292.281 118.259 292.882 118.478C293.645 118.767 294.315 119.079 294.858 119.426C295.413 119.761 295.84 120.165 296.152 120.639C296.464 121.113 296.614 121.69 296.614 122.384C296.614 123.123 296.429 123.782 296.071 124.36C295.701 124.937 295.205 125.399 294.558 125.723C293.922 126.058 293.171 126.22 292.327 126.22L292.374 126.231Z"
            fill="#F9C39D" />
    </g>
    <defs>
        <linearGradient id="paint0_linear_2_294" x1="393.553" y1="41.5719" x2="0.444092"
            y2="41.5719" gradientUnits="userSpaceOnUse">
            <stop stop-color="#BE7B2C" />
            <stop offset="1" stop-color="#F9C39D" />
        </linearGradient>
        <clipPath id="clip0_2_294">
            <rect width="393.109" height="82.0744" fill="white"
                transform="translate(0.444092 0.53772)" />
        </clipPath>
        <clipPath id="clip1_2_294">
            <rect width="199.322" height="13.6001" fill="white"
                transform="translate(97.3376 112.655)" />
        </clipPath>
    </defs>
</svg>