<svg width="81" height="53" viewBox="0 0 81 53" fill="none" xmlns="http://www.w3.org/2000/svg">
    <path
        d="M57.5312 36.0042L57.7414 35.6985L40.6052 23.5389V24.4559L80.6851 52.892H80.943V52.1756L57.5312 36.0042Z"
        fill="url(#paint0_linear_439_663)" />
    <path
        d="M57.5312 33.3296L57.7414 33.024L40.6052 20.8644V21.7813L80.943 50.3989V49.501L57.5312 33.3296Z"
        fill="url(#paint1_linear_439_663)" />
    <path
        d="M57.5312 30.6551L57.7414 30.3494L40.6052 18.1994V19.1068L80.943 47.7244V46.8265L57.5312 30.6551Z"
        fill="url(#paint2_linear_439_663)" />
    <path
        d="M57.5312 27.9805L57.7414 27.6844L40.6052 15.5248V16.4323L80.943 45.0594V44.1519L57.5312 27.9805Z"
        fill="url(#paint3_linear_439_663)" />
    <path
        d="M57.5312 25.306L57.7414 25.0003L40.6052 12.8503V13.7577L80.943 42.3848V41.4774L57.5312 25.306Z"
        fill="url(#paint4_linear_439_663)" />
    <path
        d="M57.5312 22.6315L57.7414 22.3353L40.6052 10.1757V11.0832L80.943 39.7103V38.8029L57.5312 22.6315Z"
        fill="url(#paint5_linear_439_663)" />
    <path
        d="M57.5312 19.9569L57.7414 19.6513L40.6052 7.50121V8.40864L80.943 37.0358V36.1283L57.5312 19.9569Z"
        fill="url(#paint6_linear_439_663)" />
    <path
        d="M57.5312 17.2824L57.7414 16.9767L40.6052 4.82667V5.73411L80.943 34.3517V33.4538L57.5312 17.2824Z"
        fill="url(#paint7_linear_439_663)" />
    <path
        d="M57.5312 14.6079L57.7414 14.3022L40.6052 2.1426V3.05958L80.943 31.6867V30.7793L57.5312 14.6079Z"
        fill="url(#paint8_linear_439_663)" />
    <path
        d="M57.5981 11.9906L57.8178 11.685L41.5031 0.108032H40.6052V0.385037L80.943 29.0121V28.1047L57.5981 11.9906Z"
        fill="url(#paint9_linear_439_663)" />
    <path
        d="M80.943 25.4302V26.3376L43.977 0.108032H45.2666L59.9956 10.5578L59.7855 10.8635L80.943 25.4302Z"
        fill="url(#paint10_linear_439_663)" />
    <path
        d="M80.943 22.7556V23.6631L47.75 0.108032H49.0396L62.1735 9.43071L61.9633 9.73637L80.943 22.7556Z"
        fill="url(#paint11_linear_439_663)" />
    <path
        d="M80.943 20.0811V20.9885L51.5135 0.108032H52.803L64.3608 8.30358L64.1411 8.60924L80.943 20.0811Z"
        fill="url(#paint12_linear_439_663)" />
    <path
        d="M80.943 17.4066V18.314L55.2865 0.108032H56.576L66.5387 7.17645L66.319 7.48211L80.943 17.4066Z"
        fill="url(#paint13_linear_439_663)" />
    <path
        d="M80.943 14.7416V15.6395L59.05 0.108032H60.3395L68.7165 6.04933L68.4969 6.35499L80.943 14.7416Z"
        fill="url(#paint14_linear_439_663)" />
    <path
        d="M80.943 12.067V12.9554L62.823 0.108032H64.1125L70.8944 4.91265L70.6747 5.21831L80.943 12.067Z"
        fill="url(#paint15_linear_439_663)" />
    <path
        d="M80.943 9.40205V10.2904L66.5865 0.108032H67.876L73.0722 3.78552L72.8525 4.09118L80.943 9.40205Z"
        fill="url(#paint16_linear_439_663)" />
    <path
        d="M80.943 6.69886V7.61584L76.4822 4.4446L76.6924 4.13894L70.3595 0.108032H71.649L80.943 6.69886Z"
        fill="url(#paint17_linear_439_663)" />
    <path
        d="M80.943 4.02432V4.9413L78.0679 2.89719L78.2876 2.59153L74.1229 0.108032H75.4124L80.943 4.02432Z"
        fill="url(#paint18_linear_439_663)" />
    <path
        d="M80.943 1.34978V2.26676L79.6535 1.34978L79.8732 1.05367L77.8959 0.108032H79.1854L80.943 1.34978Z"
        fill="url(#paint19_linear_439_663)" />
    <path
        d="M0.89788 51.9845L1.10802 51.6789L0 50.8956V51.803L1.53786 52.8919H2.71275L0.89788 51.9845Z"
        fill="url(#paint20_linear_439_663)" />
    <path
        d="M2.4835 50.4371L2.70319 50.1314L0 48.2211V49.1285L5.31087 52.8919H6.54307L2.4835 50.4371Z"
        fill="url(#paint21_linear_439_663)" />
    <path
        d="M4.06912 48.8897L4.28881 48.584L0 45.5465V46.454L9.07433 52.8919H10.3352L4.06912 48.8897Z"
        fill="url(#paint22_linear_439_663)" />
    <path
        d="M5.66429 47.3423L5.87443 47.0366L0 42.872V43.7794L12.8473 52.8919H14.1082L5.66429 47.3423Z"
        fill="url(#paint23_linear_439_663)" />
    <path
        d="M7.24991 45.7949L7.4696 45.4892L0 40.1974V41.1049L16.6108 52.8919H17.8812L7.24991 45.7949Z"
        fill="url(#paint24_linear_439_663)" />
    <path
        d="M8.84508 44.2475L9.05522 43.9418L0 37.5229V38.4303L20.3838 52.8919H21.6542L8.84508 44.2475Z"
        fill="url(#paint25_linear_439_663)" />
    <path d="M10.4307 42.7L10.6408 42.3944L0 34.8484V35.7558L24.1473 52.8919H25.4272L10.4307 42.7Z"
        fill="url(#paint26_linear_439_663)" />
    <path
        d="M12.0163 41.1526L12.236 40.847L0 32.1738V33.0813L27.9203 52.8919H29.1907L12.0163 41.1526Z"
        fill="url(#paint27_linear_439_663)" />
    <path
        d="M13.6115 39.6052L13.8216 39.3091L0 29.4993V30.4067L31.6837 52.8919H32.9637L13.6115 39.6052Z"
        fill="url(#paint28_linear_439_663)" />
    <path
        d="M15.1971 38.0578L15.4073 37.7617L0 26.8248V27.7322L35.4567 52.8919H36.7367L15.1971 38.0578Z"
        fill="url(#paint29_linear_439_663)" />
    <path
        d="M40.0512 52.5767L16.6681 36.434L16.8878 36.1283L0 24.1502V25.0576L39.2297 52.8919H40.0512V52.5767Z"
        fill="url(#paint30_linear_439_663)" />
    <path
        d="M40.0512 49.9117L16.6681 33.7594L16.8878 33.4538L0 21.4757V22.3831L40.0512 50.8096V49.9117Z"
        fill="url(#paint31_linear_439_663)" />
    <path
        d="M40.0512 47.2277L16.6681 31.0849L16.8878 30.7792L0 18.8011V19.7086L40.0512 48.1351V47.2277Z"
        fill="url(#paint32_linear_439_663)" />
    <path
        d="M40.0512 44.5531L16.6681 28.4104L16.8878 28.1047L0 16.1266V17.034L40.0512 45.4606V44.5531Z"
        fill="url(#paint33_linear_439_663)" />
    <path
        d="M40.0512 41.8786L16.6681 25.7358L16.8878 25.4302L0 13.4521V14.3595L40.0512 42.786V41.8786Z"
        fill="url(#paint34_linear_439_663)" />
    <path
        d="M40.0512 39.204L16.6681 23.0613L16.8878 22.7556L0 10.7775V11.685L40.0512 40.1115V39.204Z"
        fill="url(#paint35_linear_439_663)" />
    <path
        d="M40.0512 36.5391L16.6681 20.3868L16.8878 20.0811L0 8.10299V9.01042L40.0512 37.4369V36.5391Z"
        fill="url(#paint36_linear_439_663)" />
    <path
        d="M40.0512 33.855L16.6681 17.7122L16.8878 17.4066L0 5.42845V6.33588L40.0512 34.7624V33.855Z"
        fill="url(#paint37_linear_439_663)" />
    <path d="M40.0512 31.19L16.6681 15.0377L16.8878 14.732L0 2.75391V3.66134L40.0512 32.0879V31.19Z"
        fill="url(#paint38_linear_439_663)" />
    <path
        d="M40.0512 28.5059L16.6681 12.3631L16.8878 12.0575L0.0382071 0.108032H0V0.986807L40.0512 29.4133V28.5059Z"
        fill="url(#paint39_linear_439_663)" />
    <path
        d="M78.087 52.892H76.8357L2.45486 0.108032H3.73482L34.3583 21.8291L34.1386 22.1348L78.087 52.892Z"
        fill="url(#paint40_linear_439_663)" />
    <defs>
        <linearGradient id="paint0_linear_439_663" x1="80.943" y1="26.5" x2="0" y2="26.5"
            gradientUnits="userSpaceOnUse">
            <stop stop-color="#BE7B2C" />
            <stop offset="1" stop-color="#F9C39D" />
        </linearGradient>
        <linearGradient id="paint1_linear_439_663" x1="80.943" y1="26.5" x2="0" y2="26.5"
            gradientUnits="userSpaceOnUse">
            <stop stop-color="#BE7B2C" />
            <stop offset="1" stop-color="#F9C39D" />
        </linearGradient>
        <linearGradient id="paint2_linear_439_663" x1="80.943" y1="26.5" x2="0" y2="26.5"
            gradientUnits="userSpaceOnUse">
            <stop stop-color="#BE7B2C" />
            <stop offset="1" stop-color="#F9C39D" />
        </linearGradient>
        <linearGradient id="paint3_linear_439_663" x1="80.943" y1="26.5" x2="0" y2="26.5"
            gradientUnits="userSpaceOnUse">
            <stop stop-color="#BE7B2C" />
            <stop offset="1" stop-color="#F9C39D" />
        </linearGradient>
        <linearGradient id="paint4_linear_439_663" x1="80.943" y1="26.5" x2="0" y2="26.5"
            gradientUnits="userSpaceOnUse">
            <stop stop-color="#BE7B2C" />
            <stop offset="1" stop-color="#F9C39D" />
        </linearGradient>
        <linearGradient id="paint5_linear_439_663" x1="80.943" y1="26.5" x2="0" y2="26.5"
            gradientUnits="userSpaceOnUse">
            <stop stop-color="#BE7B2C" />
            <stop offset="1" stop-color="#F9C39D" />
        </linearGradient>
        <linearGradient id="paint6_linear_439_663" x1="80.943" y1="26.5" x2="0" y2="26.5"
            gradientUnits="userSpaceOnUse">
            <stop stop-color="#BE7B2C" />
            <stop offset="1" stop-color="#F9C39D" />
        </linearGradient>
        <linearGradient id="paint7_linear_439_663" x1="80.943" y1="26.5" x2="0" y2="26.5"
            gradientUnits="userSpaceOnUse">
            <stop stop-color="#BE7B2C" />
            <stop offset="1" stop-color="#F9C39D" />
        </linearGradient>
        <linearGradient id="paint8_linear_439_663" x1="80.943" y1="26.5" x2="0" y2="26.5"
            gradientUnits="userSpaceOnUse">
            <stop stop-color="#BE7B2C" />
            <stop offset="1" stop-color="#F9C39D" />
        </linearGradient>
        <linearGradient id="paint9_linear_439_663" x1="80.943" y1="26.5" x2="0" y2="26.5"
            gradientUnits="userSpaceOnUse">
            <stop stop-color="#BE7B2C" />
            <stop offset="1" stop-color="#F9C39D" />
        </linearGradient>
        <linearGradient id="paint10_linear_439_663" x1="80.943" y1="26.5" x2="0" y2="26.5"
            gradientUnits="userSpaceOnUse">
            <stop stop-color="#BE7B2C" />
            <stop offset="1" stop-color="#F9C39D" />
        </linearGradient>
        <linearGradient id="paint11_linear_439_663" x1="80.943" y1="26.5" x2="0" y2="26.5"
            gradientUnits="userSpaceOnUse">
            <stop stop-color="#BE7B2C" />
            <stop offset="1" stop-color="#F9C39D" />
        </linearGradient>
        <linearGradient id="paint12_linear_439_663" x1="80.943" y1="26.5" x2="0" y2="26.5"
            gradientUnits="userSpaceOnUse">
            <stop stop-color="#BE7B2C" />
            <stop offset="1" stop-color="#F9C39D" />
        </linearGradient>
        <linearGradient id="paint13_linear_439_663" x1="80.943" y1="26.5" x2="0" y2="26.5"
            gradientUnits="userSpaceOnUse">
            <stop stop-color="#BE7B2C" />
            <stop offset="1" stop-color="#F9C39D" />
        </linearGradient>
        <linearGradient id="paint14_linear_439_663" x1="80.943" y1="26.5" x2="0" y2="26.5"
            gradientUnits="userSpaceOnUse">
            <stop stop-color="#BE7B2C" />
            <stop offset="1" stop-color="#F9C39D" />
        </linearGradient>
        <linearGradient id="paint15_linear_439_663" x1="80.943" y1="26.5" x2="0" y2="26.5"
            gradientUnits="userSpaceOnUse">
            <stop stop-color="#BE7B2C" />
            <stop offset="1" stop-color="#F9C39D" />
        </linearGradient>
        <linearGradient id="paint16_linear_439_663" x1="80.943" y1="26.5" x2="0" y2="26.5"
            gradientUnits="userSpaceOnUse">
            <stop stop-color="#BE7B2C" />
            <stop offset="1" stop-color="#F9C39D" />
        </linearGradient>
        <linearGradient id="paint17_linear_439_663" x1="80.943" y1="26.5" x2="0" y2="26.5"
            gradientUnits="userSpaceOnUse">
            <stop stop-color="#BE7B2C" />
            <stop offset="1" stop-color="#F9C39D" />
        </linearGradient>
        <linearGradient id="paint18_linear_439_663" x1="80.943" y1="26.5" x2="0" y2="26.5"
            gradientUnits="userSpaceOnUse">
            <stop stop-color="#BE7B2C" />
            <stop offset="1" stop-color="#F9C39D" />
        </linearGradient>
        <linearGradient id="paint19_linear_439_663" x1="80.943" y1="26.5" x2="0" y2="26.5"
            gradientUnits="userSpaceOnUse">
            <stop stop-color="#BE7B2C" />
            <stop offset="1" stop-color="#F9C39D" />
        </linearGradient>
        <linearGradient id="paint20_linear_439_663" x1="80.943" y1="26.5" x2="0" y2="26.5"
            gradientUnits="userSpaceOnUse">
            <stop stop-color="#BE7B2C" />
            <stop offset="1" stop-color="#F9C39D" />
        </linearGradient>
        <linearGradient id="paint21_linear_439_663" x1="80.943" y1="26.5" x2="0" y2="26.5"
            gradientUnits="userSpaceOnUse">
            <stop stop-color="#BE7B2C" />
            <stop offset="1" stop-color="#F9C39D" />
        </linearGradient>
        <linearGradient id="paint22_linear_439_663" x1="80.943" y1="26.5" x2="0" y2="26.5"
            gradientUnits="userSpaceOnUse">
            <stop stop-color="#BE7B2C" />
            <stop offset="1" stop-color="#F9C39D" />
        </linearGradient>
        <linearGradient id="paint23_linear_439_663" x1="80.943" y1="26.5" x2="0" y2="26.5"
            gradientUnits="userSpaceOnUse">
            <stop stop-color="#BE7B2C" />
            <stop offset="1" stop-color="#F9C39D" />
        </linearGradient>
        <linearGradient id="paint24_linear_439_663" x1="80.943" y1="26.5" x2="0" y2="26.5"
            gradientUnits="userSpaceOnUse">
            <stop stop-color="#BE7B2C" />
            <stop offset="1" stop-color="#F9C39D" />
        </linearGradient>
        <linearGradient id="paint25_linear_439_663" x1="80.943" y1="26.5" x2="0" y2="26.5"
            gradientUnits="userSpaceOnUse">
            <stop stop-color="#BE7B2C" />
            <stop offset="1" stop-color="#F9C39D" />
        </linearGradient>
        <linearGradient id="paint26_linear_439_663" x1="80.943" y1="26.5" x2="0" y2="26.5"
            gradientUnits="userSpaceOnUse">
            <stop stop-color="#BE7B2C" />
            <stop offset="1" stop-color="#F9C39D" />
        </linearGradient>
        <linearGradient id="paint27_linear_439_663" x1="80.943" y1="26.5" x2="0" y2="26.5"
            gradientUnits="userSpaceOnUse">
            <stop stop-color="#BE7B2C" />
            <stop offset="1" stop-color="#F9C39D" />
        </linearGradient>
        <linearGradient id="paint28_linear_439_663" x1="80.943" y1="26.5" x2="0" y2="26.5"
            gradientUnits="userSpaceOnUse">
            <stop stop-color="#BE7B2C" />
            <stop offset="1" stop-color="#F9C39D" />
        </linearGradient>
        <linearGradient id="paint29_linear_439_663" x1="80.943" y1="26.5" x2="0" y2="26.5"
            gradientUnits="userSpaceOnUse">
            <stop stop-color="#BE7B2C" />
            <stop offset="1" stop-color="#F9C39D" />
        </linearGradient>
        <linearGradient id="paint30_linear_439_663" x1="80.943" y1="26.5" x2="0" y2="26.5"
            gradientUnits="userSpaceOnUse">
            <stop stop-color="#BE7B2C" />
            <stop offset="1" stop-color="#F9C39D" />
        </linearGradient>
        <linearGradient id="paint31_linear_439_663" x1="80.943" y1="26.5" x2="0" y2="26.5"
            gradientUnits="userSpaceOnUse">
            <stop stop-color="#BE7B2C" />
            <stop offset="1" stop-color="#F9C39D" />
        </linearGradient>
        <linearGradient id="paint32_linear_439_663" x1="80.943" y1="26.5" x2="0" y2="26.5"
            gradientUnits="userSpaceOnUse">
            <stop stop-color="#BE7B2C" />
            <stop offset="1" stop-color="#F9C39D" />
        </linearGradient>
        <linearGradient id="paint33_linear_439_663" x1="80.943" y1="26.5" x2="0" y2="26.5"
            gradientUnits="userSpaceOnUse">
            <stop stop-color="#BE7B2C" />
            <stop offset="1" stop-color="#F9C39D" />
        </linearGradient>
        <linearGradient id="paint34_linear_439_663" x1="80.943" y1="26.5" x2="0" y2="26.5"
            gradientUnits="userSpaceOnUse">
            <stop stop-color="#BE7B2C" />
            <stop offset="1" stop-color="#F9C39D" />
        </linearGradient>
        <linearGradient id="paint35_linear_439_663" x1="80.943" y1="26.5" x2="0" y2="26.5"
            gradientUnits="userSpaceOnUse">
            <stop stop-color="#BE7B2C" />
            <stop offset="1" stop-color="#F9C39D" />
        </linearGradient>
        <linearGradient id="paint36_linear_439_663" x1="80.943" y1="26.5" x2="0" y2="26.5"
            gradientUnits="userSpaceOnUse">
            <stop stop-color="#BE7B2C" />
            <stop offset="1" stop-color="#F9C39D" />
        </linearGradient>
        <linearGradient id="paint37_linear_439_663" x1="80.943" y1="26.5" x2="0" y2="26.5"
            gradientUnits="userSpaceOnUse">
            <stop stop-color="#BE7B2C" />
            <stop offset="1" stop-color="#F9C39D" />
        </linearGradient>
        <linearGradient id="paint38_linear_439_663" x1="80.943" y1="26.5" x2="0" y2="26.5"
            gradientUnits="userSpaceOnUse">
            <stop stop-color="#BE7B2C" />
            <stop offset="1" stop-color="#F9C39D" />
        </linearGradient>
        <linearGradient id="paint39_linear_439_663" x1="80.943" y1="26.5" x2="0" y2="26.5"
            gradientUnits="userSpaceOnUse">
            <stop stop-color="#BE7B2C" />
            <stop offset="1" stop-color="#F9C39D" />
        </linearGradient>
        <linearGradient id="paint40_linear_439_663" x1="80.943" y1="26.5" x2="0" y2="26.5"
            gradientUnits="userSpaceOnUse">
            <stop stop-color="#BE7B2C" />
            <stop offset="1" stop-color="#F9C39D" />
        </linearGradient>
    </defs>
</svg>