<svg width="20" height="19" viewBox="0 0 20 19" fill="none" xmlns="http://www.w3.org/2000/svg">
    <rect x="0.98083" y="1.14561" width="18.0383" height="17.5844"
        stroke="url(#paint0_linear_543_737)" stroke-width="0.348837" />
    <g clip-path="url(#clip0_543_737)">
        <path
            d="M6.45372 12.538C6.64894 12.3011 6.82684 12.0831 7.00678 11.8672C7.30283 11.5124 7.17042 11.5766 7.64029 11.5708C7.85486 11.5681 8.06943 11.5698 8.284 11.5708C8.38449 11.5708 8.49517 11.5518 8.54915 11.6699C8.60313 11.7877 8.51486 11.8617 8.45239 11.9381C8.09251 12.3805 7.72992 12.8205 7.36869 13.2619C7.31878 13.323 7.27023 13.3848 7.20946 13.4605C7.24443 13.5104 7.276 13.5613 7.31369 13.6075C7.68443 14.0628 8.05619 14.5173 8.42727 14.9723C8.45952 15.0117 8.50162 15.0473 8.51995 15.0925C8.54745 15.1614 8.59057 15.251 8.5668 15.3057C8.54406 15.3583 8.44798 15.3892 8.37804 15.4079C8.31455 15.4245 8.24359 15.4119 8.17569 15.4119C7.96113 15.4119 7.74588 15.4024 7.53233 15.415C7.35171 15.4255 7.2244 15.3698 7.11508 15.2208C6.94125 14.9845 6.74774 14.7628 6.56169 14.5357C6.53011 14.497 6.49446 14.4613 6.44727 14.4094C6.40314 14.4566 6.36409 14.4939 6.33014 14.5353C6.13323 14.7754 5.9336 15.0134 5.74348 15.2588C5.65962 15.3671 5.56354 15.4164 5.42638 15.4136C5.13848 15.4075 4.85058 15.4123 4.56268 15.4116C4.4666 15.4116 4.36271 15.4191 4.31484 15.3094C4.27139 15.2096 4.33623 15.1383 4.39429 15.0673C4.79049 14.5819 5.18669 14.0964 5.58255 13.6105C5.69595 13.4713 5.69595 13.4703 5.58052 13.3287C5.2057 12.8694 4.83055 12.4104 4.45574 11.951C4.42722 11.9161 4.39666 11.8821 4.37324 11.8437C4.28904 11.7059 4.35253 11.5813 4.51549 11.5725C4.65061 11.5654 4.78641 11.5704 4.92188 11.5704C5.10827 11.5704 5.29465 11.5762 5.4807 11.5684C5.607 11.563 5.69187 11.6108 5.76792 11.7086C5.9482 11.9402 6.13697 12.1653 6.32301 12.3924C6.35798 12.4352 6.39669 12.4749 6.45372 12.5384V12.538Z"
            fill="url(#paint1_linear_543_737)" />
        <path
            d="M5.85344 7.21724C5.52582 7.21724 5.22739 7.21724 4.92897 7.21724C4.76533 7.21724 4.60135 7.21351 4.43771 7.2186C4.33484 7.22165 4.29545 7.17752 4.29579 7.07872C4.29749 6.77962 4.29953 6.48017 4.29477 6.18107C4.29274 6.05817 4.35249 6.02863 4.46147 6.02965C4.80573 6.03305 5.15033 6.03067 5.49458 6.03067C5.6056 6.03067 5.71696 6.03067 5.84054 6.03067C5.84563 5.94002 5.85242 5.87416 5.85276 5.80795C5.85378 5.42397 5.85242 5.03999 5.85412 4.65635C5.85514 4.47608 5.86872 4.46284 6.04662 4.46148C6.31211 4.45978 6.57727 4.45978 6.84276 4.46148C7.02779 4.4625 7.03967 4.4754 7.04035 4.66892C7.04137 5.0641 7.03967 5.45928 7.04137 5.85447C7.04205 6.01913 7.05088 6.02897 7.2135 6.02965C7.61445 6.03169 8.01507 6.02965 8.41603 6.03135C8.58849 6.03203 8.60275 6.04527 8.60411 6.21264C8.60649 6.48934 8.60683 6.76604 8.60411 7.0424C8.60241 7.2023 8.58612 7.21656 8.42757 7.2169C8.04359 7.21826 7.65995 7.21724 7.27597 7.21724C7.1198 7.21724 7.0416 7.29838 7.04137 7.46067C7.04137 7.8331 7.04205 8.20588 7.04069 8.57832C7.04001 8.76912 7.0322 8.77557 6.83733 8.77591C6.57761 8.77659 6.31788 8.77659 6.05816 8.77591C5.86193 8.77523 5.85548 8.77014 5.8548 8.57899C5.8531 8.20079 5.85412 7.82258 5.85412 7.44437C5.85412 7.37749 5.85412 7.31094 5.85412 7.21724H5.85344Z"
            fill="url(#paint2_linear_543_737)" />
        <path
            d="M11.4348 6.04094C11.5 6.03721 11.5665 6.03076 11.6327 6.03042C12.9133 6.02974 14.1939 6.02974 15.4742 6.03042C15.7024 6.03042 15.7034 6.03144 15.704 6.25177C15.7051 6.51693 15.7061 6.78208 15.703 7.04723C15.7013 7.20409 15.6894 7.21631 15.5421 7.21631C14.2163 7.21733 12.8909 7.21631 11.5651 7.21767C11.4779 7.21767 11.4056 7.21257 11.4063 7.09816C11.4083 6.77122 11.4083 6.44393 11.4103 6.11665C11.4103 6.0956 11.4232 6.07455 11.4344 6.0406L11.4348 6.04094Z"
            fill="url(#paint3_linear_543_737)" />
        <path
            d="M13.5673 11.7657C14.2045 11.7657 14.8418 11.7653 15.479 11.7657C15.7001 11.7657 15.7035 11.7698 15.7045 11.9952C15.7052 12.2434 15.7055 12.4915 15.7045 12.7397C15.7035 12.9536 15.6987 12.959 15.4869 12.959C14.4096 12.9597 13.3324 12.9594 12.2554 12.9594C12.0354 12.9594 11.8154 12.9604 11.5954 12.9587C11.4155 12.9573 11.4074 12.9492 11.406 12.7642C11.4043 12.5048 11.405 12.2454 11.406 11.986C11.4067 11.7708 11.4111 11.7657 11.6219 11.7657C12.2704 11.765 12.9192 11.7657 13.5676 11.7657H13.5673Z"
            fill="url(#paint4_linear_543_737)" />
        <path
            d="M13.5581 15.2099C12.909 15.2099 12.2599 15.2099 11.6104 15.2099C11.407 15.2099 11.4063 15.2089 11.4057 15.0004C11.4046 14.7577 11.4053 14.5149 11.4057 14.2722C11.4057 14.0281 11.406 14.0277 11.6433 14.0274C12.5464 14.0274 13.4498 14.0274 14.3529 14.0274C14.7423 14.0274 15.1321 14.0264 15.5215 14.0281C15.6929 14.0288 15.7024 14.0386 15.7038 14.2124C15.7062 14.4776 15.7055 14.7431 15.7041 15.0082C15.7031 15.2034 15.6973 15.2092 15.5055 15.2096C14.8564 15.2102 14.2073 15.2096 13.5578 15.2096L13.5581 15.2099Z"
            fill="url(#paint5_linear_543_737)" />
    </g>
    <defs>
        <linearGradient id="paint0_linear_543_737" x1="19.1936" y1="9.93782" x2="0.806412"
            y2="9.93782" gradientUnits="userSpaceOnUse">
            <stop stop-color="#BE7B2C" />
            <stop offset="1" stop-color="#F9C39D" />
        </linearGradient>
        <linearGradient id="paint1_linear_543_737" x1="8.5737" y1="13.4922" x2="4.30064"
            y2="13.4922" gradientUnits="userSpaceOnUse">
            <stop stop-color="#BE7B2C" />
            <stop offset="1" stop-color="#F9C39D" />
        </linearGradient>
        <linearGradient id="paint2_linear_543_737" x1="8.60602" y1="6.61831" x2="4.29472"
            y2="6.61831" gradientUnits="userSpaceOnUse">
            <stop stop-color="#BE7B2C" />
            <stop offset="1" stop-color="#F9C39D" />
        </linearGradient>
        <linearGradient id="paint3_linear_543_737" x1="15.7051" y1="6.62379" x2="11.4062"
            y2="6.62379" gradientUnits="userSpaceOnUse">
            <stop stop-color="#BE7B2C" />
            <stop offset="1" stop-color="#F9C39D" />
        </linearGradient>
        <linearGradient id="paint4_linear_543_737" x1="15.7051" y1="12.3625" x2="11.405"
            y2="12.3625" gradientUnits="userSpaceOnUse">
            <stop stop-color="#BE7B2C" />
            <stop offset="1" stop-color="#F9C39D" />
        </linearGradient>
        <linearGradient id="paint5_linear_543_737" x1="15.7054" y1="14.6185" x2="11.4051"
            y2="14.6185" gradientUnits="userSpaceOnUse">
            <stop stop-color="#BE7B2C" />
            <stop offset="1" stop-color="#F9C39D" />
        </linearGradient>
        <clipPath id="clip0_543_737">
            <rect width="11.4104" height="10.9565" fill="white"
                transform="translate(4.29478 4.45959)" />
        </clipPath>
    </defs>
</svg>
    