<svg width="16" height="16" viewBox="0 0 16 16" fill="none" xmlns="http://www.w3.org/2000/svg">
<path d="M1.75078 11.6986C1.75078 13.1787 2.95677 14.3847 4.43684 14.3847H11.5582C13.0432 14.3847 14.2442 13.1787 14.2442 11.6986V4.5773C14.2442 3.09723 13.0382 1.89124 11.5582 1.89124H4.43684C2.95677 1.89124 1.75078 3.09723 1.75078 4.5773V11.6986ZM4.43684 0.814819H11.5582C13.2127 0.814819 14.623 1.89124 15.1263 3.38128C15.2559 3.75504 15.3256 4.1587 15.3256 4.5773V11.6986C15.3256 12.1172 15.2559 12.5209 15.1263 12.8946C14.623 14.3847 13.2127 15.4611 11.5582 15.4611H4.43684C2.36374 15.4611 0.674359 13.7717 0.674359 11.6986V4.5773C0.674359 2.5042 2.36374 0.814819 4.43684 0.814819Z" fill="url(#paint0_linear_543_727)"/>
<path d="M7.9999 10.7716C9.45506 10.7716 10.6361 9.59056 10.6361 8.1354C10.6361 6.68024 9.45506 5.49917 7.9999 5.49917C6.54474 5.49917 5.36368 6.68024 5.36368 8.1354C5.36368 9.59056 6.54474 10.7716 7.9999 10.7716ZM7.9999 4.42773C10.0481 4.42773 11.7126 6.0922 11.7126 8.14038C11.7126 10.1886 10.0481 11.8481 7.9999 11.8481C5.95172 11.8481 4.28725 10.1836 4.28725 8.14038C4.28725 6.09718 5.95172 4.42773 7.9999 4.42773Z" fill="url(#paint1_linear_543_727)"/>
<path d="M3.01157 4.25828C3.01157 4.71675 3.38533 5.08553 3.83882 5.08553C4.29231 5.08553 4.67105 4.71675 4.67105 4.25828C4.67105 3.7998 4.2973 3.43103 3.83882 3.43103C3.38035 3.43103 3.01157 3.7998 3.01157 4.25828Z" fill="url(#paint2_linear_543_727)"/>
<defs>
<linearGradient id="paint0_linear_543_727" x1="0.674359" y1="8.13796" x2="15.3256" y2="8.13796" gradientUnits="userSpaceOnUse">
<stop stop-color="#BE7B2C"/>
<stop offset="1" stop-color="#F9C39D"/>
</linearGradient>
<linearGradient id="paint1_linear_543_727" x1="4.28725" y1="8.13789" x2="11.7126" y2="8.13789" gradientUnits="userSpaceOnUse">
<stop stop-color="#BE7B2C"/>
<stop offset="1" stop-color="#F9C39D"/>
</linearGradient>
<linearGradient id="paint2_linear_543_727" x1="3.01157" y1="4.25828" x2="4.67105" y2="4.25828" gradientUnits="userSpaceOnUse">
<stop stop-color="#BE7B2C"/>
<stop offset="1" stop-color="#F9C39D"/>
</linearGradient>
</defs>
</svg>
