<svg width="12" height="12" viewBox="0 0 12 12" fill="none" xmlns="http://www.w3.org/2000/svg">
    <g clip-path="url(#clip0_543_732)">
        <path
            d="M3.0907 1.60606C3.0907 2.40141 2.44884 3.00839 1.69535 3.00839C0.941863 3.00839 0.300003 2.40141 0.300003 1.60606C0.300003 0.810712 0.920933 0.203735 1.70233 0.203735C2.48372 0.203735 3.09768 0.824666 3.09768 1.60606"
            fill="url(#paint0_linear_543_732)" />
        <path
            d="M6.64186 4.94791V3.76186H4.38139V11.4363H6.64186C6.64186 10.3758 6.64186 9.30837 6.64186 8.24791C6.64186 7.97581 6.64186 7.69674 6.64884 7.42465C6.66279 7.20139 6.6907 6.98512 6.76744 6.77581C6.87907 6.46186 7.06744 6.2107 7.36046 6.05721C7.58372 5.9386 7.82791 5.90372 8.07907 5.90372C8.25349 5.90372 8.42093 5.93163 8.58139 5.99442C8.88837 6.12 9.07674 6.36419 9.19535 6.66419C9.3 6.95023 9.33488 7.25023 9.33488 7.55721C9.33488 8.84791 9.33488 10.1386 9.33488 11.4293H11.686V6.85953C11.686 6.65023 11.6791 6.43395 11.6512 6.22465C11.6163 5.91767 11.5465 5.6107 11.4279 5.32465C11.2046 4.77349 10.8488 4.34791 10.3186 4.06884C9.90697 3.85256 9.46744 3.76884 9.00697 3.75488C8.80465 3.75488 8.6093 3.76186 8.42093 3.79674C7.84884 3.89442 7.36744 4.15953 6.96279 4.57116C6.83721 4.69674 6.73256 4.8293 6.63488 4.98977V4.93395L6.64186 4.94791Z"
            fill="url(#paint1_linear_543_732)" />
        <path d="M2.88837 3.76196H0.530228V11.4364H2.88837V7.79452V3.76196Z"
            fill="url(#paint2_linear_543_732)" />
    </g>
    <defs>
        <linearGradient id="paint0_linear_543_732" x1="3.09768" y1="1.60606" x2="0.300003"
            y2="1.60606" gradientUnits="userSpaceOnUse">
            <stop stop-color="#BE7B2C" />
            <stop offset="1" stop-color="#F9C39D" />
        </linearGradient>
        <linearGradient id="paint1_linear_543_732" x1="11.686" y1="7.59558" x2="4.38139"
            y2="7.59558" gradientUnits="userSpaceOnUse">
            <stop stop-color="#BE7B2C" />
            <stop offset="1" stop-color="#F9C39D" />
        </linearGradient>
        <linearGradient id="paint2_linear_543_732" x1="2.88837" y1="7.59917" x2="0.530228"
            y2="7.59917" gradientUnits="userSpaceOnUse">
            <stop stop-color="#BE7B2C" />
            <stop offset="1" stop-color="#F9C39D" />
        </linearGradient>
        <clipPath id="clip0_543_732">
            <rect width="11.386" height="11.2326" fill="white"
                transform="translate(0.306976 0.203735)" />
        </clipPath>
    </defs>
</svg>
    