<svg width="1815" height="1376" viewBox="0 0 1815 1376" fill="none"
    xmlns="http://www.w3.org/2000/svg">
    <path
        d="M1729.55 1394.59L1764.75 1345.03L1765.58 1345.61L1813.01 1277.07L1814.63 1278.18L1731.16 1395.74L1729.55 1394.59Z"
        fill="url(#paint0_linear_740_4253)" />
    <path
        d="M1638.27 1394.59L1711.98 1290.81L1712.76 1291.39L1813.02 1148.46L1814.64 1149.61L1639.88 1395.74L1638.27 1394.59Z"
        fill="url(#paint1_linear_740_4253)" />
    <path
        d="M1547.09 1394.59L1659.23 1236.56L1660.05 1237.13L1813.02 1019.85L1814.64 1021L1548.7 1395.74L1547.09 1394.59Z"
        fill="url(#paint2_linear_740_4253)" />
    <path
        d="M1455.87 1394.59L1606.48 1182.37L1607.3 1182.94L1813.02 891.352L1814.64 892.5L1457.48 1395.74L1455.87 1394.59Z"
        fill="url(#paint3_linear_740_4253)" />
    <path
        d="M1364.58 1394.59L1553.68 1128.15L1554.51 1128.72L1813.02 762.744L1814.63 763.892L1366.19 1395.74L1364.58 1394.59Z"
        fill="url(#paint4_linear_740_4253)" />
    <path
        d="M1273.39 1394.59L1500.93 1073.93L1501.76 1074.5L1813.02 634.136L1814.63 635.284L1275.01 1395.74L1273.39 1394.59Z"
        fill="url(#paint5_linear_740_4253)" />
    <path
        d="M1182.11 1394.59L1448.16 1019.75L1448.95 1020.32L1813.02 505.636L1814.64 506.784L1183.73 1395.74L1182.11 1394.59Z"
        fill="url(#paint6_linear_740_4253)" />
    <path
        d="M1090.89 1394.59L1395.4 965.488L1396.23 966.062L1813.02 377.027L1814.63 378.175L1092.5 1395.74L1090.89 1394.59Z"
        fill="url(#paint7_linear_740_4253)" />
    <path
        d="M999.672 1394.59L1342.65 911.303L1343.48 911.877L1813.02 248.526L1814.63 249.675L1001.29 1395.74L999.672 1394.59Z"
        fill="url(#paint8_linear_740_4253)" />
    <path
        d="M908.49 1394.59L1289.94 857.083L1290.73 857.657L1813.02 119.919L1814.63 121.067L910.105 1395.74L908.49 1394.59Z"
        fill="url(#paint9_linear_740_4253)" />
    <path
        d="M817.21 1394.59L1234.29 806.845L1235.11 807.42L1806.31 0.820312L1807.93 1.93271L818.825 1395.74L817.21 1394.59Z"
        fill="url(#paint10_linear_740_4253)" />
    <path
        d="M725.915 1394.59L1143.03 806.845L1143.86 807.42L1715.09 0.820312L1716.71 1.93271L727.53 1395.74L725.915 1394.59Z"
        fill="url(#paint11_linear_740_4253)" />
    <path
        d="M634.698 1394.59L1051.81 806.845L1052.6 807.42L1623.8 0.820312L1625.42 1.93271L636.313 1395.74L634.698 1394.59Z"
        fill="url(#paint12_linear_740_4253)" />
    <path
        d="M543.41 1394.59L960.561 806.845L961.35 807.42L1532.62 0.820312L1534.24 1.93271L545.025 1395.74L543.41 1394.59Z"
        fill="url(#paint13_linear_740_4253)" />
    <path
        d="M452.229 1394.59L869.308 806.845L870.133 807.42L1441.33 0.820312L1442.95 1.93271L453.843 1395.74L452.229 1394.59Z"
        fill="url(#paint14_linear_740_4253)" />
    <path
        d="M361.012 1394.59L778.127 806.845L778.916 807.42L1350.12 0.820312L1351.73 1.93271L362.626 1395.74L361.012 1394.59Z"
        fill="url(#paint15_linear_740_4253)" />
    <path
        d="M269.724 1394.59L686.874 806.845L687.664 807.42L1258.94 0.820312L1260.55 1.93271L271.338 1395.74L269.724 1394.59Z"
        fill="url(#paint16_linear_740_4253)" />
    <path
        d="M178.437 1394.59L595.551 806.845L596.377 807.42L1167.61 0.820312L1169.23 1.93271L180.051 1395.74L178.437 1394.59Z"
        fill="url(#paint17_linear_740_4253)" />
    <path
        d="M87.2188 1394.59L504.37 806.845L505.159 807.42L1076.43 0.820312L1078.05 1.93271L88.8336 1395.74L87.2188 1394.59Z"
        fill="url(#paint18_linear_740_4253)" />
    <path
        d="M-3.96289 1394.59L413.116 806.845L413.942 807.42L985.142 0.820312L986.757 1.93271L-2.34812 1395.74L-3.96289 1394.59Z"
        fill="url(#paint19_linear_740_4253)" />
    <defs>
        <linearGradient id="paint0_linear_740_4253" x1="1741.21" y1="1433.88" x2="1812.5"
            y2="1380.7" gradientUnits="userSpaceOnUse">
            <stop stop-color="#BE7B2D" />
            <stop offset="0.5294" stop-color="#5C3B16" stop-opacity="0.4706" />
            <stop offset="1" stop-color="#050301" stop-opacity="0" />
        </linearGradient>
        <linearGradient id="paint1_linear_740_4253" x1="1662.44" y1="1475.21" x2="1810.76"
            y2="1365.14" gradientUnits="userSpaceOnUse">
            <stop stop-color="#BE7B2D" />
            <stop offset="0.5294" stop-color="#5C3B16" stop-opacity="0.4706" />
            <stop offset="1" stop-color="#050301" stop-opacity="0" />
        </linearGradient>
        <linearGradient id="paint2_linear_740_4253" x1="1583.76" y1="1516.55" x2="1809.09"
            y2="1349.67" gradientUnits="userSpaceOnUse">
            <stop stop-color="#BE7B2D" />
            <stop offset="0.5294" stop-color="#5C3B16" stop-opacity="0.4706" />
            <stop offset="1" stop-color="#050301" stop-opacity="0" />
        </linearGradient>
        <linearGradient id="paint3_linear_740_4253" x1="1505.04" y1="1557.84" x2="1807.34"
            y2="1334.12" gradientUnits="userSpaceOnUse">
            <stop stop-color="#BE7B2D" />
            <stop offset="0.5294" stop-color="#5C3B16" stop-opacity="0.4706" />
            <stop offset="1" stop-color="#050301" stop-opacity="0" />
        </linearGradient>
        <linearGradient id="paint4_linear_740_4253" x1="1426.26" y1="1599.18" x2="1805.59"
            y2="1318.57" gradientUnits="userSpaceOnUse">
            <stop stop-color="#BE7B2D" />
            <stop offset="0.5294" stop-color="#5C3B16" stop-opacity="0.4706" />
            <stop offset="1" stop-color="#050301" stop-opacity="0" />
        </linearGradient>
        <linearGradient id="paint5_linear_740_4253" x1="1347.57" y1="1640.51" x2="1803.91"
            y2="1303.1" gradientUnits="userSpaceOnUse">
            <stop stop-color="#BE7B2D" />
            <stop offset="0.5294" stop-color="#5C3B16" stop-opacity="0.4706" />
            <stop offset="1" stop-color="#050301" stop-opacity="0" />
        </linearGradient>
        <linearGradient id="paint6_linear_740_4253" x1="1268.8" y1="1681.81" x2="1802.13"
            y2="1287.49" gradientUnits="userSpaceOnUse">
            <stop stop-color="#BE7B2D" />
            <stop offset="0.5294" stop-color="#5C3B16" stop-opacity="0.4706" />
            <stop offset="1" stop-color="#050301" stop-opacity="0" />
        </linearGradient>
        <linearGradient id="paint7_linear_740_4253" x1="1190.08" y1="1723.15" x2="1800.43"
            y2="1271.99" gradientUnits="userSpaceOnUse">
            <stop stop-color="#BE7B2D" />
            <stop offset="0.5294" stop-color="#5C3B16" stop-opacity="0.4706" />
            <stop offset="1" stop-color="#050301" stop-opacity="0" />
        </linearGradient>
        <linearGradient id="paint8_linear_740_4253" x1="1111.37" y1="1764.45" x2="1798.68"
            y2="1256.44" gradientUnits="userSpaceOnUse">
            <stop stop-color="#BE7B2D" />
            <stop offset="0.5294" stop-color="#5C3B16" stop-opacity="0.4706" />
            <stop offset="1" stop-color="#050301" stop-opacity="0" />
        </linearGradient>
        <linearGradient id="paint9_linear_740_4253" x1="1032.68" y1="1805.78" x2="1797" y2="1240.97"
            gradientUnits="userSpaceOnUse">
            <stop stop-color="#BE7B2D" />
            <stop offset="0.5294" stop-color="#5C3B16" stop-opacity="0.4706" />
            <stop offset="1" stop-color="#050301" stop-opacity="0" />
        </linearGradient>
        <linearGradient id="paint10_linear_740_4253" x1="952.993" y1="1844.06" x2="1788.66"
            y2="1226.53" gradientUnits="userSpaceOnUse">
            <stop stop-color="#BE7B2D" />
            <stop offset="0.5294" stop-color="#5C3B16" stop-opacity="0.4706" />
            <stop offset="1" stop-color="#050301" stop-opacity="0" />
        </linearGradient>
        <linearGradient id="paint11_linear_740_4253" x1="861.708" y1="1844.06" x2="1697.4"
            y2="1226.48" gradientUnits="userSpaceOnUse">
            <stop stop-color="#BE7B2D" />
            <stop offset="0.5294" stop-color="#5C3B16" stop-opacity="0.4706" />
            <stop offset="1" stop-color="#050301" stop-opacity="0" />
        </linearGradient>
        <linearGradient id="paint12_linear_740_4253" x1="770.481" y1="1844.06" x2="1606.15"
            y2="1226.53" gradientUnits="userSpaceOnUse">
            <stop stop-color="#BE7B2D" />
            <stop offset="0.5294" stop-color="#5C3B16" stop-opacity="0.4706" />
            <stop offset="1" stop-color="#050301" stop-opacity="0" />
        </linearGradient>
        <linearGradient id="paint13_linear_740_4253" x1="679.208" y1="1844.06" x2="1514.9"
            y2="1226.45" gradientUnits="userSpaceOnUse">
            <stop stop-color="#BE7B2D" />
            <stop offset="0.5294" stop-color="#5C3B16" stop-opacity="0.4706" />
            <stop offset="1" stop-color="#050301" stop-opacity="0" />
        </linearGradient>
        <linearGradient id="paint14_linear_740_4253" x1="588.011" y1="1844.06" x2="1423.68"
            y2="1226.53" gradientUnits="userSpaceOnUse">
            <stop stop-color="#BE7B2D" />
            <stop offset="0.5294" stop-color="#5C3B16" stop-opacity="0.4706" />
            <stop offset="1" stop-color="#050301" stop-opacity="0" />
        </linearGradient>
        <linearGradient id="paint15_linear_740_4253" x1="496.795" y1="1844.06" x2="1332.46"
            y2="1226.53" gradientUnits="userSpaceOnUse">
            <stop stop-color="#BE7B2D" />
            <stop offset="0.5294" stop-color="#5C3B16" stop-opacity="0.4706" />
            <stop offset="1" stop-color="#050301" stop-opacity="0" />
        </linearGradient>
        <linearGradient id="paint16_linear_740_4253" x1="405.521" y1="1844.06" x2="1241.22"
            y2="1226.45" gradientUnits="userSpaceOnUse">
            <stop stop-color="#BE7B2D" />
            <stop offset="0.5294" stop-color="#5C3B16" stop-opacity="0.4706" />
            <stop offset="1" stop-color="#050301" stop-opacity="0" />
        </linearGradient>
        <linearGradient id="paint17_linear_740_4253" x1="314.229" y1="1844.06" x2="1149.92"
            y2="1226.48" gradientUnits="userSpaceOnUse">
            <stop stop-color="#BE7B2D" />
            <stop offset="0.5294" stop-color="#5C3B16" stop-opacity="0.4706" />
            <stop offset="1" stop-color="#050301" stop-opacity="0" />
        </linearGradient>
        <linearGradient id="paint18_linear_740_4253" x1="223.016" y1="1844.06" x2="1058.71"
            y2="1226.45" gradientUnits="userSpaceOnUse">
            <stop stop-color="#BE7B2D" />
            <stop offset="0.5294" stop-color="#5C3B16" stop-opacity="0.4706" />
            <stop offset="1" stop-color="#050301" stop-opacity="0" />
        </linearGradient>
        <linearGradient id="paint19_linear_740_4253" x1="131.82" y1="1844.06" x2="967.49"
            y2="1226.53" gradientUnits="userSpaceOnUse">
            <stop stop-color="#BE7B2D" />
            <stop offset="0.5294" stop-color="#5C3B16" stop-opacity="0.4706" />
            <stop offset="1" stop-color="#050301" stop-opacity="0" />
        </linearGradient>
    </defs>
</svg>
    