<svg width="14" height="14" viewBox="0 0 14 14" fill="none" xmlns="http://www.w3.org/2000/svg">
    <path
        d="M9.56635 13.813C4.88156 13.6528 1.34461 10.5964 0.503748 6.29865C0.410319 5.81816 0.370278 5.32433 0.330237 4.83049C0.250155 3.8962 0.743994 3.18881 1.33126 2.5615C1.69163 2.16109 2.18547 1.8808 2.62592 1.54713C2.94625 1.30688 3.26657 1.29354 3.62694 1.49374C4.74809 2.09436 5.45548 3.04199 5.89593 4.20318C6.0294 4.5502 5.97601 4.85718 5.64234 5.07073C5.60229 5.09743 5.54891 5.13747 5.50887 5.16416C4.4945 6.04506 4.40107 6.44547 5.04172 7.63335C5.5756 8.64772 6.4832 9.19495 7.5643 9.44854C7.7912 9.50193 8.09818 9.38181 8.32508 9.26168C8.55198 9.12821 8.73884 8.90132 8.91235 8.70111C9.44623 8.11384 9.553 8.0738 10.2337 8.36744C11.2214 8.79454 12.0222 9.42185 12.5561 10.3695C12.7296 10.6631 12.8497 10.9701 12.6762 11.3038C12.0889 12.4383 11.2614 13.3058 10.0201 13.7329C9.84663 13.7997 9.64643 13.7997 9.553 13.813H9.56635ZM9.67312 9.27503C9.44623 9.52862 9.21933 9.78222 9.00578 10.0225C8.57867 10.503 8.04479 10.6097 7.43083 10.503C5.46882 10.1426 3.89388 8.5276 3.61359 6.56559C3.54686 6.07176 3.62694 5.64465 3.98731 5.27094C4.2676 4.9773 4.54788 4.68367 4.84152 4.36334C4.58792 3.65595 4.10743 3.13542 3.57355 2.65493C3.29327 2.40134 3.02633 2.44138 2.75939 2.65493C1.83845 3.37567 1.05097 4.16314 1.45138 5.49784C1.47808 5.60461 1.47808 5.71139 1.49142 5.81816C1.71832 7.47319 2.38567 8.92801 3.53351 10.1426C4.9216 11.6108 6.61667 12.4116 8.63206 12.7186C9.99345 12.9321 10.7542 12.3048 11.4883 11.3972C11.7286 11.1036 11.7152 10.8099 11.4483 10.5163C10.9678 10.0225 10.514 9.50193 9.69982 9.28838L9.67312 9.27503ZM8.57867 0.439331C8.11153 0.452678 7.87128 0.639535 7.89798 0.959862C7.92467 1.34692 8.19161 1.44036 8.52528 1.46705C8.57867 1.46705 8.63206 1.46705 8.68545 1.46705C10.1136 1.58717 11.208 2.28122 11.9955 3.48244C12.4359 4.13645 12.6362 4.87053 12.6628 5.64465C12.6628 5.97833 12.823 6.24527 13.1967 6.23192C13.5838 6.20523 13.6906 5.92494 13.6772 5.59127C13.6505 5.27094 13.5971 4.93726 13.5304 4.61694C12.9965 2.17444 11.0345 0.692924 8.69879 0.439331C8.6721 0.439331 8.61871 0.439331 8.56532 0.439331H8.57867ZM7.89798 3.50914C7.84459 3.88285 8.07149 4.05636 8.41851 4.10975C9.36614 4.22987 9.88668 4.76375 10.0201 5.69804C10.0735 6.04506 10.2203 6.28531 10.5941 6.23192C10.9678 6.17853 11.0479 5.8849 11.0345 5.55122C11.0078 4.37669 9.75321 3.10873 8.56532 3.06868C8.245 3.06868 7.93802 3.12207 7.88463 3.49579L7.89798 3.50914Z"
        fill="url(#paint0_linear_543_744)" />
    <defs>
        <linearGradient id="paint0_linear_543_744" x1="0.31689" y1="7.12617" x2="13.6906"
            y2="7.12617" gradientUnits="userSpaceOnUse">
            <stop stop-color="#FEC9A7" />
            <stop offset="1" stop-color="#BE7B2D" />
        </linearGradient>
    </defs>
</svg>
    