<svg width="16" height="16" viewBox="0 0 16 16" fill="none" xmlns="http://www.w3.org/2000/svg">
    <path
        d="M8 1.5C5.79086 1.5 4 3.29086 4 5.5V9C4 10.3807 2.88071 11.5 1.5 11.5C1.22386 11.5 1 11.7239 1 12C1 12.2761 1.22386 12.5 1.5 12.5C3.433 12.5 5 10.933 5 9V5.5C5 3.84315 6.34315 2.5 8 2.5C9.65685 2.5 11 3.84315 11 5.5V9C11 10.933 12.567 12.5 14.5 12.5C14.7761 12.5 15 12.2761 15 12C15 11.7239 14.7761 11.5 14.5 11.5C13.1193 11.5 12 10.3807 12 9V5.5C12 3.29086 10.2091 1.5 8 1.5Z"
        fill="url(#paint0_linear_snapchat)" />
    <path
        d="M6.5 5.5C6.5 5.22386 6.72386 5 7 5C7.27614 5 7.5 5.22386 7.5 5.5C7.5 5.77614 7.27614 6 7 6C6.72386 6 6.5 5.77614 6.5 5.5Z"
        fill="url(#paint1_linear_snapchat)" />
    <path
        d="M8.5 5.5C8.5 5.22386 8.72386 5 9 5C9.27614 5 9.5 5.22386 9.5 5.5C9.5 5.77614 9.27614 6 9 6C8.72386 6 8.5 5.77614 8.5 5.5Z"
        fill="url(#paint2_linear_snapchat)" />
    <path
        d="M4.5 13C4.5 13.2761 4.27614 13.5 4 13.5L3 13.5C2.72386 13.5 2.5 13.2761 2.5 13C2.5 12.7239 2.72386 12.5 3 12.5L4 12.5C4.27614 12.5 4.5 12.7239 4.5 13Z"
        fill="url(#paint3_linear_snapchat)" />
    <path
        d="M6.5 14C6.5 14.2761 6.27614 14.5 6 14.5L5 14.5C4.72386 14.5 4.5 14.2761 4.5 14C4.5 13.7239 4.72386 13.5 5 13.5L6 13.5C6.27614 13.5 6.5 13.7239 6.5 14Z"
        fill="url(#paint4_linear_snapchat)" />
    <path
        d="M11 14.5C11.2761 14.5 11.5 14.2761 11.5 14C11.5 13.7239 11.2761 13.5 11 13.5L10 13.5C9.72386 13.5 9.5 13.7239 9.5 14C9.5 14.2761 9.72386 14.5 10 14.5L11 14.5Z"
        fill="url(#paint5_linear_snapchat)" />
    <path
        d="M13 13.5C13.2761 13.5 13.5 13.2761 13.5 13C13.5 12.7239 13.2761 12.5 13 12.5L12 12.5C11.7239 12.5 11.5 12.7239 11.5 13C11.5 13.2761 11.7239 13.5 12 13.5L13 13.5Z"
        fill="url(#paint6_linear_snapchat)" />
    <defs>
        <linearGradient id="paint0_linear_snapchat" x1="1" y1="7" x2="15" y2="7"
            gradientUnits="userSpaceOnUse">
            <stop stop-color="#BE7B2C" />
            <stop offset="1" stop-color="#F9C39D" />
        </linearGradient>
        <linearGradient id="paint1_linear_snapchat" x1="6.5" y1="5.5" x2="7.5" y2="5.5"
            gradientUnits="userSpaceOnUse">
            <stop stop-color="#BE7B2C" />
            <stop offset="1" stop-color="#F9C39D" />
        </linearGradient>
        <linearGradient id="paint2_linear_snapchat" x1="8.5" y1="5.5" x2="9.5" y2="5.5"
            gradientUnits="userSpaceOnUse">
            <stop stop-color="#BE7B2C" />
            <stop offset="1" stop-color="#F9C39D" />
        </linearGradient>
        <linearGradient id="paint3_linear_snapchat" x1="2.5" y1="13" x2="4.5" y2="13"
            gradientUnits="userSpaceOnUse">
            <stop stop-color="#BE7B2C" />
            <stop offset="1" stop-color="#F9C39D" />
        </linearGradient>
        <linearGradient id="paint4_linear_snapchat" x1="4.5" y1="14" x2="6.5" y2="14"
            gradientUnits="userSpaceOnUse">
            <stop stop-color="#BE7B2C" />
            <stop offset="1" stop-color="#F9C39D" />
        </linearGradient>
        <linearGradient id="paint5_linear_snapchat" x1="9.5" y1="14" x2="11.5" y2="14"
            gradientUnits="userSpaceOnUse">
            <stop stop-color="#BE7B2C" />
            <stop offset="1" stop-color="#F9C39D" />
        </linearGradient>
        <linearGradient id="paint6_linear_snapchat" x1="11.5" y1="13" x2="13.5" y2="13"
            gradientUnits="userSpaceOnUse">
            <stop stop-color="#BE7B2C" />
            <stop offset="1" stop-color="#F9C39D" />
        </linearGradient>
    </defs>
</svg> 