<svg width="1920" height="1080" viewBox="0 0 1920 1080" fill="none"
    xmlns="http://www.w3.org/2000/svg">
    <path opacity="0.3"
        d="M-211.556 1570.5L-158.774 1540.03L-105.993 1570.5H-103.682L-157.619 1539.36L0.979126 1447.79L159.582 1539.36L105.651 1570.5H107.967L160.743 1540.03L213.519 1570.5H215.835L161.904 1539.36L320.502 1447.79L479.105 1539.36L425.178 1570.49H427.489L480.26 1540.03L533.031 1570.49H535.347L481.421 1539.36L640.019 1447.79L798.622 1539.36L744.701 1570.49H747.012L799.778 1540.03L852.543 1570.49H854.854L800.933 1539.36L959.531 1447.79L1118.13 1539.36L1064.22 1570.49H1066.53L1119.29 1540.03L1172.06 1570.49H1174.37L1120.46 1539.36L1279.05 1447.79L1437.66 1539.36L1383.74 1570.49H1386.06L1438.81 1540.03L1491.57 1570.49H1493.88L1439.97 1539.36L1598.57 1447.79L1757.17 1539.36L1703.26 1570.48H1705.57L1758.32 1540.03L1811.07 1570.48H1813.39L1759.48 1539.36L1918.08 1447.79L2076.68 1539.36L2022.78 1570.48H2025.09L2077.83 1540.03L2130.58 1570.48H2132.89L2078.99 1539.36L2203 1467.76V1466.42L2077.83 1538.69L1919.22 1447.12L2077.82 1355.56L2203 1427.83V1426.49L2078.98 1354.89L2203 1283.28V1281.95L2077.82 1354.22L1919.22 1262.65L2077.82 1171.08L2203 1243.36V1242.02L2078.98 1170.41L2203 1098.81V1097.47L2077.82 1169.75L1919.21 1078.18L2077.81 986.609L2202.99 1058.89V1057.55L2078.97 985.941L2202.99 914.331V912.994L2077.81 985.273L1919.21 893.704L2077.81 802.136L2202.99 874.415V873.078L2078.96 801.468L2202.99 729.858V728.521L2077.81 800.799L1919.2 709.231L2077.8 617.663L2202.99 689.947V688.61L2078.96 616.995L2202.99 545.379V544.043L2077.8 616.326L1919.2 524.758L2077.8 433.19L2202.99 505.473V504.137L2078.95 432.521L2202.99 360.906V359.569L2077.8 431.853L1919.19 340.285L2077.79 248.717L2202.99 321.005V319.669L2078.95 248.048L2202.99 176.428V175.091L2077.79 247.38L1919.19 155.812L2077.78 64.2433L2202.99 136.532V135.195L2078.94 63.575L2202.99 -8.04547V-9.3822L2077.78 62.9066L1919.18 -28.6617L2077.78 -120.23L2202.99 -47.9359V-49.2726L2078.93 -120.898L2202.99 -192.524V-193.861L2077.78 -121.567L1919.18 -213.135L2077.77 -304.703L2202.99 -232.409V-233.746L2078.93 -305.371L2202.99 -376.997V-378.334L2077.77 -306.04L1919.17 -397.608L2077.77 -489.176L2202.99 -416.877V-418.214L2078.93 -489.845L2100.04 -502.031H2097.73L2077.77 -490.513L2057.82 -502.031H2055.51L2076.62 -489.845L1918.02 -398.276L1759.42 -489.845L1780.52 -502.031H1778.2L1758.26 -490.513L1738.31 -502.031H1735.99L1757.1 -489.845L1598.5 -398.276L1439.9 -489.845L1460.99 -502.026H1458.68L1438.74 -490.513L1418.8 -502.026H1416.48L1437.58 -489.845L1278.98 -398.276L1120.38 -489.845L1141.47 -502.021H1139.15L1119.22 -490.508L1099.28 -502.021H1096.96L1118.06 -489.845L959.458 -398.276L800.855 -489.845L821.943 -502.021H819.627L799.695 -490.513L779.762 -502.021H777.446L798.534 -489.845L639.936 -398.276L481.359 -489.824L502.441 -502H500.125L480.198 -490.492L460.271 -502H457.955L479.043 -489.824L320.445 -398.256L161.847 -489.829L182.924 -502H180.608L160.686 -490.498L140.764 -502H138.448L159.531 -489.829L0.932465 -398.261L-157.671 -489.834L-136.593 -502H-138.909L-158.826 -490.503L-178.748 -502H-181.064L-159.987 -489.834L-284 -418.229V-416.893L-158.826 -489.166L-0.222931 -397.598L-158.821 -306.029L-284 -378.298V-376.961L-159.982 -305.356L-284 -233.756V-232.419L-158.821 -304.693L-0.217743 -213.125L-158.816 -121.556L-284 -193.83V-192.493L-159.976 -120.888L-284 -49.283V-47.9463L-158.816 -120.22L-0.212585 -28.6513L-158.811 62.917L-284 -9.36148V-8.02472L-159.971 63.5853L-284 135.19V136.527L-158.816 64.2485L-0.212585 155.817L-158.811 247.385L-284 175.107V176.443L-159.966 248.053L-284 319.669V321.005L-158.811 248.727L-0.207397 340.295L-158.805 431.863L-284 359.58V360.917L-159.961 432.532L-284 504.142V505.479L-158.805 433.195L-0.202209 524.763L-158.8 616.331L-284 544.048V545.385L-159.956 617L-284 688.615V689.952L-158.8 617.668L-0.197021 709.236L-158.795 800.805L-284 728.516V729.853L-159.951 801.473L-284 873.094V874.43L-158.795 802.141L-0.191833 893.71L-158.79 985.278L-284 912.984V914.321L-159.945 985.941L-284 1057.57V1058.9L-158.79 986.615L-0.186646 1078.18L-158.785 1169.75L-284 1097.46V1098.79L-159.94 1170.42L-284 1242.04V1243.38L-158.785 1171.08L-0.181488 1262.65L-158.78 1354.22L-284 1281.93V1283.26L-159.94 1354.89L-284 1426.51V1427.85L-158.78 1355.56L-0.176331 1447.12L-158.774 1538.69L-284 1466.39V1467.73L-159.935 1539.36L-213.872 1570.5H-211.556ZM160.738 1538.69L2.13452 1447.12L160.733 1355.56L319.336 1447.12L160.738 1538.69ZM958.345 709.247L799.746 800.815L641.143 709.247L799.741 617.679L958.345 709.247ZM641.143 524.768L799.741 433.2L958.345 524.768L799.746 616.337L641.143 524.768ZM800.902 617.01L959.5 525.442L1118.1 617.01L959.505 708.578L800.902 617.01ZM960.655 524.774L1119.25 433.205L1277.86 524.774L1119.26 616.342L960.655 524.774ZM1119.26 617.679L1277.86 709.247L1119.26 800.815L960.661 709.247L1119.26 617.679ZM1120.41 617.01L1279.01 525.442L1437.62 617.01L1279.02 708.578L1120.41 617.01ZM1279.01 524.105L1120.41 432.537L1279.01 340.969L1437.61 432.537L1279.01 524.105ZM1119.25 431.869L960.65 340.3L1119.25 248.732L1277.85 340.3L1119.25 431.869ZM1118.1 432.537L959.5 524.105L800.897 432.537L959.495 340.969L1118.1 432.537ZM799.741 431.869L641.138 340.3L799.736 248.732L958.339 340.3L799.741 431.869ZM798.586 432.537L639.988 524.105L481.385 432.537L639.983 340.969L798.586 432.537ZM798.586 617.01L639.988 708.578L481.385 617.01L639.983 525.442L798.586 617.01ZM798.591 801.478L639.993 893.047L481.39 801.478L639.988 709.91L798.591 801.478ZM799.752 802.147L958.355 893.715L799.757 985.283L641.154 893.715L799.752 802.147ZM800.907 801.478L959.505 709.91L1118.11 801.478L959.51 893.047L800.907 801.478ZM1119.26 802.152L1277.87 893.72L1119.27 985.288L960.666 893.72L1119.26 802.152ZM1120.42 801.483L1279.02 709.915L1437.62 801.483L1279.02 893.052L1120.42 801.483ZM1438.78 802.152L1597.38 893.72L1438.79 985.288L1280.18 893.72L1438.78 802.152ZM1280.18 709.247L1438.78 617.679L1597.38 709.247L1438.78 800.815L1280.18 709.247ZM1438.78 616.347L1280.17 524.779L1438.77 433.211L1597.37 524.779L1438.78 616.347ZM1438.77 431.874L1280.17 340.306L1438.77 248.737L1597.37 340.306L1438.77 431.874ZM1280.16 155.832L1438.76 64.2641L1597.36 155.832L1438.77 247.401L1280.16 155.832ZM1437.61 248.069L1279.01 339.637L1120.41 248.069L1279.01 156.501L1437.61 248.069ZM1119.25 247.401L960.645 155.832L1119.24 64.2641L1277.85 155.832L1119.25 247.401ZM1118.09 248.064L959.495 339.632L800.891 248.064L959.49 156.496L1118.09 248.064ZM799.736 247.395L641.133 155.827L799.731 64.2589L958.334 155.827L799.736 247.395ZM798.581 248.064L639.983 339.632L481.379 248.064L639.978 156.496L798.581 248.064ZM480.219 247.395L321.616 155.827L480.214 64.2589L638.817 155.827L480.219 247.395ZM638.822 340.3L480.224 431.869L321.621 340.3L480.219 248.732L638.822 340.3ZM638.827 524.768L480.229 616.337L321.626 524.768L480.224 433.2L638.827 524.768ZM638.832 709.242L480.234 800.81L321.631 709.242L480.229 617.673L638.832 709.242ZM638.838 893.715L480.24 985.283L321.636 893.715L480.234 802.147L638.838 893.715ZM480.24 986.615L638.843 1078.18L480.245 1169.75L321.641 1078.18L480.24 986.615ZM481.395 985.952L639.993 894.383L798.596 985.952L639.998 1077.52L481.395 985.952ZM799.757 986.62L958.36 1078.19L799.762 1169.76L641.159 1078.19L799.757 986.62ZM800.912 985.952L959.51 894.383L1118.11 985.952L959.516 1077.52L800.912 985.952ZM1119.27 986.62L1277.87 1078.19L1119.27 1169.76L960.671 1078.19L1119.27 986.62ZM1120.42 985.957L1279.02 894.388L1437.63 985.957L1279.03 1077.52L1120.42 985.957ZM1438.78 986.625L1597.38 1078.19L1438.79 1169.76L1280.18 1078.19L1438.78 986.625ZM1439.94 985.957L1598.54 894.388L1757.14 985.957L1598.54 1077.52L1439.94 985.957ZM1598.54 893.057L1439.94 801.489L1598.53 709.92L1757.14 801.489L1598.54 893.057ZM1439.93 617.015L1598.53 525.447L1757.13 617.015L1598.53 708.584L1439.93 617.015ZM1598.53 524.11L1439.93 432.542L1598.52 340.974L1757.13 432.542L1598.53 524.11ZM1439.92 248.069L1598.52 156.501L1757.12 248.069L1598.52 339.637L1439.92 248.069ZM1439.92 63.5957L1598.51 -27.9725L1757.12 63.5957L1598.52 155.164L1439.92 63.5957ZM1438.76 62.9273L1280.16 -28.6409L1438.76 -120.209L1597.36 -28.6409L1438.76 62.9273ZM1437.6 63.5957L1279.01 155.164L1120.4 63.5957L1279 -27.9725L1437.6 63.5957ZM1119.25 62.9273L960.645 -28.6409L1119.24 -120.209L1277.85 -28.6409L1119.25 62.9273ZM1118.09 63.5957L959.49 155.164L800.886 63.5957L959.484 -27.9725L1118.09 63.5957ZM799.731 62.9221L641.128 -28.6461L799.726 -120.214L958.329 -28.6461L799.731 62.9221ZM798.576 63.5905L639.978 155.159L481.374 63.5905L639.972 -27.9777L798.576 63.5905ZM480.219 62.9221L321.616 -28.6461L480.214 -120.214L638.817 -28.6461L480.219 62.9221ZM479.058 63.5905L320.46 155.159L161.857 63.5905L320.455 -27.9777L479.058 63.5905ZM479.063 248.064L320.465 339.632L161.862 248.064L320.46 156.496L479.063 248.064ZM479.069 432.532L320.471 524.1L161.867 432.532L320.465 340.964L479.069 432.532ZM479.074 617.005L320.476 708.573L161.872 617.005L320.471 525.437L479.074 617.005ZM479.079 801.478L320.481 893.047L161.878 801.478L320.476 709.91L479.079 801.478ZM479.084 985.946L320.486 1077.51L161.883 985.946L320.481 894.378L479.084 985.946ZM320.486 1078.85L479.089 1170.42L320.491 1261.99L161.888 1170.42L320.486 1078.85ZM480.245 1171.09L638.848 1262.66L480.25 1354.22L321.647 1262.66L480.245 1171.09ZM481.4 1170.42L639.998 1078.85L798.601 1170.42L640.003 1261.99L481.4 1170.42ZM799.757 1171.09L958.36 1262.66L799.762 1354.23L641.159 1262.66L799.757 1171.09ZM800.917 1170.42L959.516 1078.86L1118.12 1170.42L959.521 1261.99L800.917 1170.42ZM1119.27 1171.09L1277.88 1262.66L1119.28 1354.23L960.676 1262.66L1119.27 1171.09ZM1120.43 1170.42L1279.03 1078.86L1437.63 1170.42L1279.03 1261.99L1120.43 1170.42ZM1438.79 1171.1L1597.39 1262.67L1438.79 1354.23L1280.19 1262.67L1438.79 1171.1ZM1439.95 1170.43L1598.54 1078.86L1757.15 1170.43L1598.55 1262L1439.95 1170.43ZM1758.3 1171.1L1916.91 1262.67L1758.31 1354.23L1599.71 1262.67L1758.3 1171.1ZM1599.7 1078.19L1758.3 986.625L1916.9 1078.19L1758.3 1169.76L1599.7 1078.19ZM1599.7 893.72L1758.29 802.152L1916.9 893.72L1758.3 985.288L1599.7 893.72ZM1758.29 800.82L1599.69 709.252L1758.29 617.684L1916.89 709.252L1758.29 800.82ZM1599.68 524.779L1758.28 433.211L1916.89 524.779L1758.29 616.347L1599.68 524.779ZM1599.68 340.306L1758.28 248.737L1916.88 340.306L1758.28 431.874L1599.68 340.306ZM1599.68 155.832L1758.28 64.2641L1916.88 155.832L1758.28 247.401L1599.68 155.832ZM1599.67 -28.6357L1758.27 -120.204L1916.88 -28.6357L1758.28 62.9325L1599.67 -28.6357ZM1599.67 -213.109L1758.27 -304.677L1916.87 -213.109L1758.27 -121.541L1599.67 -213.109ZM1757.11 -120.872L1598.51 -29.3041L1439.91 -120.872L1598.51 -212.441L1757.11 -120.872ZM1438.76 -121.541L1280.15 -213.109L1438.75 -304.677L1597.35 -213.109L1438.76 -121.541ZM1437.6 -120.872L1279 -29.3041L1120.4 -120.872L1279 -212.441L1437.6 -120.872ZM1119.24 -121.546L960.64 -213.114L1119.24 -304.682L1277.84 -213.114L1119.24 -121.546ZM1118.08 -120.878L959.484 -29.3093L800.881 -120.878L959.479 -212.446L1118.08 -120.878ZM799.726 -121.546L641.123 -213.114L799.721 -304.682L958.324 -213.114L799.726 -121.546ZM798.57 -120.878L639.972 -29.3093L481.369 -120.878L639.967 -212.446L798.57 -120.878ZM480.214 -121.551L321.61 -213.119L480.208 -304.688L638.812 -213.119L480.214 -121.551ZM479.053 -120.883L320.455 -29.3145L161.852 -120.883L320.45 -212.451L479.053 -120.883ZM160.696 -121.556L2.09308 -213.125L160.691 -304.693L319.294 -213.125L160.696 -121.556ZM160.696 -120.22L319.3 -28.6513L160.702 62.917L2.09827 -28.6513L160.696 -120.22ZM319.305 155.822L160.707 247.39L2.10345 155.822L160.702 64.2537L319.305 155.822ZM319.31 340.295L160.712 431.863L2.10864 340.295L160.707 248.727L319.31 340.295ZM319.315 524.768L160.717 616.337L2.11383 524.768L160.712 433.2L319.315 524.768ZM319.32 709.242L160.722 800.81L2.11896 709.242L160.717 617.673L319.32 709.242ZM319.325 893.71L160.727 985.278L2.12415 893.71L160.722 802.141L319.325 893.71ZM319.325 1078.18L160.727 1169.75L2.12415 1078.18L160.722 986.615L319.325 1078.18ZM160.727 1171.09L319.331 1262.66L160.733 1354.22L2.12933 1262.66L160.727 1171.09ZM161.893 1354.89L320.491 1263.32L479.095 1354.89L320.496 1446.46L161.893 1354.89ZM480.255 1538.7L321.652 1447.13L480.25 1355.56L638.853 1447.13L480.255 1538.7ZM481.405 1354.89L640.003 1263.32L798.607 1354.89L640.009 1446.46L481.405 1354.89ZM799.767 1538.7L641.164 1447.13L799.762 1355.56L958.365 1447.13L799.767 1538.7ZM800.917 1354.9L959.516 1263.33L1118.12 1354.9L959.521 1446.47L800.917 1354.9ZM1119.28 1538.7L960.681 1447.13L1119.28 1355.57L1277.88 1447.13L1119.28 1538.7ZM1120.43 1354.9L1279.03 1263.33L1437.64 1354.9L1279.04 1446.47L1120.43 1354.9ZM1438.8 1538.7L1280.19 1447.13L1438.79 1355.57L1597.39 1447.13L1438.8 1538.7ZM1598.55 1446.47L1439.95 1354.9L1598.54 1263.33L1757.15 1354.9L1598.55 1446.47ZM1758.31 1538.71L1599.71 1447.14L1758.31 1355.57L1916.91 1447.14L1758.31 1538.71ZM2076.67 1354.91L1918.07 1446.48L1759.46 1354.91L1918.06 1263.34L2076.67 1354.91ZM2076.66 1170.44L1918.06 1262L1759.46 1170.44L1918.06 1078.87L2076.66 1170.44ZM2076.66 985.962L1918.06 1077.53L1759.45 985.962L1918.05 894.394L2076.66 985.962ZM2076.65 801.489L1918.05 893.057L1759.45 801.489L1918.05 709.92L2076.65 801.489ZM2076.64 617.021L1918.05 708.589L1759.44 617.021L1918.04 525.452L2076.64 617.021ZM2076.64 432.547L1918.05 524.116L1759.44 432.547L1918.04 340.979L2076.64 432.547ZM2076.64 248.074L1918.04 339.642L1759.44 248.074L1918.04 156.506L2076.64 248.074ZM2076.63 63.6009L1918.04 155.169L1759.43 63.6009L1918.03 -27.9673L2076.63 63.6009ZM2076.63 -120.867L1918.03 -29.2989L1759.43 -120.867L1918.03 -212.435L2076.63 -120.867ZM2076.62 -305.34L1918.03 -213.772L1759.42 -305.34L1918.02 -396.909L2076.62 -305.34ZM1758.26 -489.15L1916.87 -397.582L1758.27 -306.014L1599.66 -397.582L1758.26 -489.15ZM1757.11 -305.346L1598.51 -213.777L1439.91 -305.346L1598.5 -396.914L1757.11 -305.346ZM1438.74 -489.15L1597.35 -397.582L1438.75 -306.014L1280.15 -397.582L1438.74 -489.15ZM1437.59 -305.346L1279 -213.777L1120.39 -305.346L1278.99 -396.914L1437.59 -305.346ZM1119.23 -489.156L1277.84 -397.587L1119.24 -306.019L960.635 -397.587L1119.23 -489.156ZM1118.08 -305.351L959.479 -213.783L800.876 -305.351L959.474 -396.919L1118.08 -305.351ZM799.715 -489.156L958.319 -397.587L799.721 -306.019L641.117 -397.587L799.715 -489.156ZM639.962 -396.919L798.565 -305.351L639.967 -213.783L481.364 -305.351L639.962 -396.919ZM480.203 -489.161L638.807 -397.593L480.208 -306.024L321.605 -397.593L480.203 -489.161ZM479.048 -305.356L320.45 -213.788L161.847 -305.356L320.445 -396.924L479.048 -305.356ZM160.686 -489.161L319.289 -397.593L160.691 -306.024L2.08789 -397.593L160.686 -489.161ZM-157.666 -305.361L0.932465 -396.929L159.536 -305.361L0.937653 -213.793L-157.666 -305.361ZM-157.66 -120.888L0.937653 -212.456L159.541 -120.888L0.942841 -29.3197L-157.66 -120.888ZM-157.655 63.5853L0.942841 -27.9829L159.546 63.5853L0.948029 155.154L-157.655 63.5853ZM-157.65 248.053L0.948029 156.485L159.551 248.053L0.953186 339.622L-157.65 248.053ZM-157.645 432.527L0.953186 340.958L159.556 432.527L0.958374 524.095L-157.645 432.527ZM-157.64 617L0.958374 525.432L159.562 617L0.963562 708.568L-157.64 617ZM-157.64 801.473L0.958374 709.905L159.562 801.473L0.963562 893.041L-157.64 801.473ZM-157.634 985.946L0.963562 894.378L159.567 985.946L0.96875 1077.51L-157.634 985.946ZM-157.629 1170.41L0.96875 1078.85L159.572 1170.41L0.973938 1261.98L-157.629 1170.41ZM-157.624 1354.89L0.973938 1263.32L159.577 1354.89L0.979126 1446.46L-157.624 1354.89Z"
        fill="url(#paint0_radial_2_774)" />
    <defs>
        <radialGradient id="paint0_radial_2_774" cx="0" cy="0" r="1" gradientUnits="userSpaceOnUse"
            gradientTransform="translate(959.5 534.25) scale(1144.57 1144.57)">
            <stop />
            <stop offset="0.12" stop-color="#3A3A3A" />
            <stop offset="0.25" stop-color="#6E6E6E" />
            <stop offset="0.37" stop-color="#9A9A9A" />
            <stop offset="0.5" stop-color="#BEBEBE" />
            <stop offset="0.62" stop-color="#DADADA" />
            <stop offset="0.75" stop-color="#EFEFEF" />
            <stop offset="0.87" stop-color="#FBFBFB" />
            <stop offset="1" stop-color="white" />
        </radialGradient>
    </defs>
</svg>