<svg width="16" height="16" viewBox="0 0 16 16" fill="none" xmlns="http://www.w3.org/2000/svg">
    <path
        d="M8.64001 1.33337H10.64C10.7067 2.13337 11.04 2.86671 11.5733 3.40004C12.1067 3.93337 12.84 4.26671 13.64 4.33337V6.33337C12.7067 6.30004 11.8133 5.98671 11.08 5.44004C10.7733 5.22671 10.5067 4.96004 10.2933 4.66671V10.0000C10.2933 11.8334 8.79335 13.3334 6.96001 13.3334C5.12668 13.3334 3.62668 11.8334 3.62668 10.0000C3.62668 8.16671 5.12668 6.66671 6.96001 6.66671C7.16001 6.66671 7.35335 6.69337 7.54668 6.73337V8.78671C7.36001 8.74004 7.16668 8.71337 6.96001 8.71337C6.25335 8.71337 5.67335 9.29337 5.67335 10.0000C5.67335 10.7067 6.25335 11.2867 6.96001 11.2867C7.66668 11.2867 8.24668 10.7067 8.24668 10.0000L8.25335 1.33337H8.64001Z"
        fill="url(#paint0_linear_tiktok)" />
    <defs>
        <linearGradient id="paint0_linear_tiktok" x1="3.62668" y1="7.33337" x2="13.64" y2="7.33337"
            gradientUnits="userSpaceOnUse">
            <stop stop-color="#BE7B2C" />
            <stop offset="1" stop-color="#F9C39D" />
        </linearGradient>
    </defs>
</svg> 