<svg width="91" height="77" viewBox="0 0 91 77" fill="none" xmlns="http://www.w3.org/2000/svg">
<path d="M1.89401 16.1935C1.91263 15.7174 1.87273 15.2333 1.89135 14.7573C2.1254 9.06828 4.21056 3.93251 9.67081 1.5282C14.5619 -0.626114 22.3414 -0.562283 27.0383 2.10002C35.7992 7.06823 35.8444 21.9197 26.025 25.6379L23.7563 26.2762C24.751 26.4278 25.7483 26.5687 26.7191 26.84C33.3044 28.6645 35.8124 34.0663 35.464 40.5824C35.0757 47.8645 30.049 52.6439 23.1526 54.1652C16.155 55.7078 6.85691 54.2929 2.55626 47.9789C0.47908 44.9283 -0.159232 41.3244 0.0322626 37.6727H6.93139C6.72926 41.3963 8.04047 45.2873 11.4528 47.1464C14.6843 48.9071 20.0807 48.822 23.4212 47.3804C26.2803 46.1464 28.4426 43.633 28.6421 40.4308C28.9107 36.1036 27.7271 32.4492 23.5754 30.6061C19.953 28.997 15.913 29.5608 12.0485 29.4598V23.4117H18.2136C23.7616 23.1591 27.3521 18.4941 26.7032 13.0604C26.2165 8.98318 23.2536 6.64535 19.2987 6.19853C15.0247 5.71713 10.3517 7.33952 9.13888 11.8583C8.85962 12.9035 8.78249 14.0072 8.71068 15.0764C8.6894 15.4115 8.87559 15.8318 8.79315 16.2014H1.89401V16.1935Z" fill="#C39D70"/>
<path d="M61.5847 7.50958V53.6358H54.8026C54.8026 53.6358 54.6856 53.5267 54.6856 53.5187V7.50958H40.616C40.616 7.50958 40.499 7.40053 40.499 7.39255V1.19027C40.499 1.19027 40.6081 1.07324 40.616 1.07324H75.6568C75.6568 1.07324 75.7739 1.18229 75.7739 1.19027V7.39255C75.7739 7.39255 75.6648 7.50958 75.6568 7.50958H61.5873H61.5847Z" fill="#C39D70"/>
<path d="M90.3454 1.07617H83.3691V53.636H90.3454V1.07617Z" fill="#C39D70"/>
<path d="M30.7113 61.4843C33.8736 61.2928 36.4136 63.4923 37.1476 66.4844C38.1237 70.4552 36.8391 75.716 32.3018 76.6416C28.5916 77.3969 25.5755 75.0378 24.7829 71.4845C23.7723 66.9552 25.4771 61.8034 30.7113 61.4843ZM28.1154 73.7718C29.8575 75.5139 32.7858 75.2479 34.2539 73.3223C35.7353 71.3781 35.7673 67.4339 34.5438 65.3673C32.8576 62.5135 28.94 62.6944 27.3335 65.5509C26.1128 67.7211 26.2883 71.95 28.1154 73.7745V73.7718Z" fill="#C39D70"/>
<path d="M51.4302 66.0378H49.4142C49.3371 64.9261 48.228 63.7984 47.1854 63.4978C45.1481 62.9127 43.055 63.8915 42.1374 65.7771C40.9326 68.2533 41.1826 72.4395 43.6508 74.0885C45.3316 75.2136 47.9674 74.9715 49.6137 73.8704C49.736 72.788 49.7413 71.7055 49.7254 70.6124H46.5072C46.5072 70.6124 46.3902 70.5033 46.3902 70.4954V68.8278H51.5845V74.7588C50.9701 75.2375 50.26 75.6657 49.5445 75.9769C46.4593 77.3147 42.5842 76.7668 40.664 73.8199C38.7251 70.8464 39.0017 65.4234 41.7757 63.0164C44.2173 60.8967 48.9222 60.8861 50.7174 63.8436C51.0978 64.4713 51.401 65.3064 51.4275 66.0405L51.4302 66.0378Z" fill="#C39D70"/>
<path d="M17.9026 61.7737C18.4052 61.8162 19.1605 61.9971 19.6473 62.1992C21.6925 63.0476 22.1952 65.1195 21.7218 67.1435C21.4346 68.3669 20.4957 69.6834 19.227 69.992C19.1393 70.0132 19.1738 70.1409 19.1818 70.1436C19.2324 70.1834 19.493 70.242 19.5675 70.3404L23.4452 76.423H21.0808L17.5541 70.5319H15.1498V76.423H13.2109V61.771H17.8999L17.9026 61.7737ZM15.1498 68.7526H17.36C17.4078 68.7526 17.8653 68.6887 17.977 68.6701C19.5435 68.4281 20.11 66.6248 19.7856 65.2392C19.6393 64.6168 19.1792 64.0397 18.5621 63.8269C18.4611 63.7923 17.8759 63.6354 17.8254 63.6354H15.1498V68.7526Z" fill="#C39D70"/>
<path d="M63.4457 61.7739V63.6357H56.4694V67.8991H62.9031V69.7608H56.4694V74.5668H63.4856C63.4856 74.5668 63.6026 74.6759 63.6026 74.6838V76.4286H54.5332V61.7766H63.4483L63.4457 61.7739Z" fill="#C39D70"/>
<path d="M3.3676 70.8458V76.4283H1.42871V61.7764H6.50862C8.54059 61.9625 10.3731 62.678 10.8651 64.8589C11.4928 67.6435 10.3252 70.4787 7.34109 71.0612C6.62299 71.1995 4.66283 71.258 3.95005 71.1543C3.6761 71.1144 3.61229 70.875 3.3676 70.8458ZM3.3676 69.3723H6.74001C6.85704 69.3723 7.48207 69.1622 7.62569 69.0957C9.38372 68.2765 9.57787 64.8802 7.78793 63.9812C7.60441 63.8881 6.90491 63.6355 6.74001 63.6355H3.3676V69.3723Z" fill="#C39D70"/>
<path d="M74.7659 61.7739V63.6357H70.8882V76.4259H68.8722V63.6357H64.9199V61.7739H74.7659Z" fill="#C39D70"/>
<path d="M85.928 61.7739V63.6357H81.9731V76.4259H80.0369V63.6357H76.082V61.7739H85.928Z" fill="#C39D70"/>
<path d="M89.9594 61.7739H87.9434V76.4259H89.9594V61.7739Z" fill="#C39D70"/>
</svg>
