<svg width="73" height="70" viewBox="0 0 73 70" fill="none" xmlns="http://www.w3.org/2000/svg">
<path d="M71.6107 10.3342V19.9301H44.6644L27.6847 8.85747H0C1.38408 6.14492 0.522124 2.94426 0.738387 0H28.4231L43.926 10.3342H71.6107Z" fill="#C39D70"/>
<path d="M71.611 50.9395V59.7969H45.4031C45.2517 59.7969 44.8377 60.5539 44.3125 60.1769L27.685 49.4596H0.738667C0.695415 47.368 0.794267 45.2548 0.766462 43.154C0.751015 41.9893 -0.57438 40.3889 1.17735 39.9317C2.92907 39.4745 8.52411 39.7432 10.7269 39.8421C14.7895 40.0275 16.0995 40.114 20.2826 39.8421C30.5397 39.1779 36.2119 46.4196 44.6647 50.9364H71.611V50.9395Z" fill="#C39D70"/>
<path d="M72.349 31.0063C70.9649 33.7188 71.8269 36.9195 71.6106 39.8637H43.9259L26.9462 28.7911H0.738281V19.9336H27.6846L44.6643 31.0063H72.349Z" fill="#C39D70"/>
<path d="M28.0523 69.3927H0.738387C0.522124 66.4484 1.38408 63.2446 0 60.5352H26.9463C28.7197 60.5352 27.8886 67.8047 28.0523 69.3927Z" fill="#C39D70"/>
</svg>
