<svg width="167" height="83" viewBox="0 0 167 83" fill="none" xmlns="http://www.w3.org/2000/svg">
<path d="M65.8645 27.8869C66.7538 32.6645 67.5604 37.0904 68.3877 41.5163C68.6359 42.8813 68.9461 44.2463 69.2977 45.5906C69.8147 47.6381 71.2625 48.6515 73.2479 48.8997C74.6336 49.0858 76.0193 49.1479 77.405 49.2099C78.3977 49.2513 79.4111 49.1893 80.4245 49.2306C81.3552 49.2927 81.6448 49.5409 81.6655 50.4715C81.7068 52.1468 81.6655 53.822 81.6655 55.4972C81.6655 56.2418 81.2518 56.6554 80.5279 56.6554C76.3502 56.6554 72.1725 56.9656 68.0982 55.58C63.9411 54.1736 61.5627 51.2161 60.6113 47.1004C58.9154 39.8411 57.3436 32.5404 55.7304 25.2603C55.6683 24.9915 55.5856 24.7226 55.5443 24.4538C55.2547 22.3028 56.4336 20.7517 58.6052 20.4622C58.9981 20.4001 59.3911 20.4208 59.784 20.4208C66.3609 20.4208 72.9584 20.4208 79.5352 20.4208C79.8041 20.4208 80.0936 20.4208 80.3625 20.4208C81.3759 20.5242 81.6448 20.7517 81.6861 21.7651C81.7275 23.3783 81.7275 25.0122 81.6861 26.6253C81.6655 27.5354 81.3759 27.7835 80.4659 27.8869C80.0729 27.9283 79.68 27.8869 79.287 27.8869C75.4402 27.8869 71.5934 27.8869 67.7466 27.8869C67.2088 27.8869 66.6504 27.8869 65.8852 27.8869H65.8645Z" fill="#C39D70"/>
<path d="M100.692 27.9895C99.8651 27.9481 99.2654 27.8861 98.6863 27.8861C94.9429 27.8861 91.2201 27.8861 87.4767 27.8861C87.0217 27.8861 86.5874 27.8861 86.1324 27.8861C85.4085 27.8654 84.9742 27.4931 84.9742 26.7486C84.9742 25.0113 84.9742 23.2947 84.9742 21.5574C84.9742 20.8956 85.3465 20.5233 86.0083 20.4613C86.4013 20.4199 86.7942 20.4199 87.1872 20.4199C93.7226 20.4199 100.237 20.4199 106.773 20.4199C107.373 20.4199 108.014 20.4199 108.593 20.5854C110.516 21.1024 111.468 22.757 111.033 24.7011C109.937 29.582 108.841 34.4836 107.724 39.3645C107.124 41.9704 106.483 44.5557 105.925 47.1616C104.849 52.0632 101.768 54.8552 96.9904 56.0341C94.6947 56.6132 92.3783 56.7166 90.0206 56.6959C88.8417 56.6959 87.6835 56.7166 86.5047 56.6959C85.2637 56.6545 85.0156 56.427 84.9949 55.2275C84.9535 53.7177 84.9535 52.2079 84.9949 50.7189C85.0156 49.5193 85.2844 49.3125 86.5253 49.2504C88.5728 49.147 90.641 49.1057 92.6885 48.9816C96.2251 48.7748 97.1351 47.0788 97.7142 44.3695C98.5002 40.7295 99.0999 37.0481 99.7617 33.3874C100.072 31.6915 100.382 30.0163 100.734 28.0308L100.692 27.9895Z" fill="#C39D70"/>
<path d="M132.418 76.7995C131.819 81.7631 130.764 82.6938 126.565 81.9286C126.524 81.122 126.483 80.274 126.462 79.5295C126.689 79.3433 126.772 79.2192 126.876 79.1986C128.227 78.9642 128.902 78.1645 128.902 76.7995C128.902 73.5731 128.902 70.326 128.902 67.0997C128.902 65.0108 129.026 64.8867 131.053 64.9694C131.384 64.9694 131.694 65.0522 132.211 65.1349C132.336 67.8235 132.211 70.4915 132.294 73.0974C133.659 73.4283 145.344 73.5524 148.736 73.2629C148.612 72.3529 148.55 71.4222 148.364 70.5329C148.012 68.7335 147.578 68.3819 145.799 68.3613C143.855 68.3406 141.891 68.3613 139.947 68.3613C138.002 68.3613 137.734 68.0097 137.92 66.1069C138.002 65.3624 138.313 64.9694 139.057 64.9694C140.071 64.9694 141.063 64.9694 142.077 64.9694C143.69 64.9694 145.324 64.9281 146.937 64.9694C149.398 65.0315 150.846 66.2724 151.404 68.6715C151.756 70.1813 152.066 71.691 152.397 73.2629H157.96V60.0472C158.602 59.9644 159.077 59.9024 159.553 59.861C161.063 59.7369 161.311 59.9231 161.311 61.4742C161.311 65.9415 161.311 70.4088 161.311 74.8761C161.311 76.6754 161.207 76.7788 159.429 76.7788C151.053 76.7788 142.697 76.7788 134.321 76.7788C133.721 76.7788 133.121 76.7788 132.418 76.7788V76.7995Z" fill="#C39D70"/>
<path d="M81.0252 17.6278C76.7233 17.1108 72.8145 15.9112 69.6915 12.7676C67.5406 10.596 66.4858 7.96941 66.2583 4.99122C66.1342 3.39872 66.0929 1.76485 66.7754 0.0275758C67.1476 0.0275758 67.582 -0.0344698 67.9749 0.0275758C71.0565 0.62735 74.014 1.62008 76.5993 3.46077C79.8256 5.73577 81.4595 8.9001 81.625 12.809C81.687 14.3601 81.8111 15.9319 81.0045 17.6072L81.0252 17.6278Z" fill="#C39D70"/>
<path d="M104.437 65.135V73.0562C105.74 73.4284 117.073 73.5319 119.7 73.2216C119.741 72.7666 119.803 72.2909 119.824 71.8153C119.824 69.9746 119.824 68.1339 119.824 66.2932C119.824 65.1971 120.051 65.0109 121.086 64.9696C121.685 64.9282 122.285 64.9696 122.823 64.9696C123.257 66.2725 123.361 74.2764 123.009 76.6548C122.471 76.6962 121.892 76.7996 121.313 76.7996C116.411 76.7996 111.489 76.7996 106.588 76.7996C105.967 76.7996 105.367 76.7996 104.581 76.7996C104.54 77.3373 104.478 77.813 104.457 78.2887C104.354 80.9773 103.175 82.1355 100.507 82.1562C100.011 82.1562 99.5144 82.1148 99.018 82.0941C98.4803 81.1428 98.625 80.2535 98.8319 79.3848C99.018 79.2814 99.1007 79.178 99.2041 79.178C100.817 79.0332 101.128 79.178 101.107 77.0271C101.107 73.7387 101.107 70.4502 101.107 67.1411C101.107 65.0109 101.252 64.8868 103.403 64.9902C103.671 64.9902 103.94 65.073 104.457 65.1557L104.437 65.135Z" fill="#C39D70"/>
<path d="M77.0133 65.5272C77.8613 64.7 78.8954 64.9481 79.8674 65.0309C80.4879 65.0929 80.612 65.6306 80.612 66.1684C80.612 67.2231 80.612 68.2779 80.612 69.3534C80.612 71.2561 80.612 73.1382 80.612 75.0409C80.612 76.6748 80.4258 76.8402 78.7506 76.7988C78.3163 76.7988 77.8199 76.7782 77.4683 76.5713C77.1167 76.3438 76.9099 76.4059 76.5997 76.5713C73.7249 78.0191 70.3951 76.5713 69.0508 73.6552C67.6031 70.5529 68.8853 66.7681 71.8635 65.3411C73.5801 64.5138 75.3174 64.6793 77.0133 65.5686V65.5272ZM77.2408 70.9459C77.2408 68.9604 76.3929 68.0297 74.5729 68.0297C73.001 68.0297 71.7808 69.2706 71.7394 70.9045C71.6774 72.6004 72.8976 73.7793 74.6969 73.7379C76.5997 73.7172 77.2408 72.9934 77.2615 70.9252L77.2408 70.9459Z" fill="#C39D70"/>
<path d="M32.7531 65.2796C33.3942 64.6798 34.4283 64.9073 35.3797 65.0728C36.1656 65.1969 36.0622 65.9828 36.0622 66.5825C36.0622 69.4366 36.0622 72.2701 36.0622 75.1242C36.0622 75.2896 36.0622 75.4551 36.0622 75.6205C35.9588 76.5512 35.7519 76.8408 34.8006 76.7787C33.2081 76.696 31.6776 76.8201 30.0851 77.0269C27.3965 77.3785 24.9974 75.5378 24.2115 72.8078C23.136 69.0644 25.3697 65.2589 28.989 64.9073C30.1058 64.8039 31.264 65.1348 32.7531 65.3003V65.2796ZM32.7117 70.9464C32.7117 68.961 31.8638 68.0303 30.0438 68.0303C28.4306 68.0303 27.3551 69.2092 27.3551 70.9671C27.3551 72.7251 28.4099 73.8626 30.0438 73.9039C31.8431 73.9453 32.691 72.9939 32.7117 70.9464Z" fill="#C39D70"/>
<path d="M8.57656 65.5682C9.58998 64.6582 10.6861 64.9477 11.7202 65.0925C12.0925 66.3541 12.1752 74.482 11.8443 76.5089C11.0377 77.0052 10.107 76.9018 9.30044 76.6743C8.70067 76.5089 8.24566 76.5709 7.72862 76.7364C4.97793 77.605 2.59952 76.7571 1.0277 74.42C-0.544124 72.0623 -0.233907 68.8979 1.42064 66.9332C3.15792 64.8857 5.39156 64.0377 8.57656 65.5682ZM8.65929 70.9661C8.65929 68.8773 8.05952 68.1948 6.36361 68.0293C4.15065 67.8225 2.78566 70.2009 3.46816 72.0209C4.00589 73.4273 5.24679 74.0684 6.8393 73.7582C8.39044 73.448 8.65929 73.0757 8.65929 71.1523C8.65929 71.0902 8.65929 71.0489 8.65929 70.9868V70.9661Z" fill="#C39D70"/>
<path d="M51.5947 72.0622C52.4634 74.5441 54.4488 74.7509 57.6752 72.7241C58.1716 73.2204 58.6886 73.7582 59.185 74.2752C56.9927 78.06 51.3466 78.0186 49.1129 74.3373C47.5825 71.8141 47.8927 68.6084 49.9195 66.4575C51.4086 64.8856 53.787 64.2859 56.062 65.2993C58.0888 66.2093 59.5572 69.022 59.2677 71.0902C59.1643 71.8141 58.73 72.0002 58.1095 72.0002C56.4963 72.0002 54.8831 72.0002 53.27 72.0002C52.7322 72.0002 52.1945 72.0416 51.6154 72.0622H51.5947ZM55.9172 69.3116C55.3382 68.112 54.635 67.6777 53.6836 67.6984C52.7529 67.7191 52.0084 68.112 51.6568 69.2081C52.0497 69.2495 52.36 69.2909 52.6702 69.2909C53.6629 69.2909 54.635 69.2909 55.9172 69.2909V69.3116Z" fill="#C39D70"/>
<path d="M92.0277 77.067C88.6979 77.067 86.0713 74.3784 85.9472 71.0073C85.8438 68.3186 88.5531 64.8647 91.9656 64.8647C95.4402 64.8647 98.1288 67.967 98.0254 70.9245C97.9013 74.8127 95.0472 77.0257 92.0277 77.067ZM89.3597 70.9659C89.3597 72.5998 90.5179 73.7166 92.0897 73.6752C93.5788 73.6339 94.675 72.4964 94.675 70.9659C94.675 69.4561 93.372 68.0704 91.9863 68.0911C90.4558 68.1118 89.339 69.332 89.3597 70.9659Z" fill="#C39D70"/>
<path d="M83.3612 43.5638C81.5619 43.4397 79.9694 42.8606 78.7699 41.5163C76.9705 39.5102 77.3221 36.3872 79.6385 34.7947C82.1203 33.0781 84.6435 33.1195 87.1047 34.8775C89.7726 36.7802 89.6485 40.4822 86.9806 42.385C85.9051 43.1502 84.6642 43.4397 83.3819 43.5845L83.3612 43.5638Z" fill="#C39D70"/>
<path d="M37.7581 76.7787C37.1997 75.4757 37.6133 74.6278 38.2545 73.8005C39.7022 71.9805 41.1499 70.1398 42.7631 68.0923C41.6049 67.9269 40.6329 68.0303 39.6815 67.9889C38.2752 67.9475 37.5513 66.7066 38.2752 65.4864C38.4199 65.2382 38.7922 65.0107 39.0611 65.0107C41.7911 64.9694 44.5004 64.99 47.2511 64.99C47.6647 66.1069 47.6441 66.9755 46.8995 67.8648C45.6379 69.3539 44.459 70.905 43.2595 72.4355C42.9286 72.8698 42.6184 73.3248 42.3081 73.7798C44.1281 73.8626 45.8861 73.966 47.7475 74.0487V76.6339C44.4384 76.9235 41.1086 76.7167 37.7581 76.758V76.7787Z" fill="#C39D70"/>
<path d="M22.3301 65.176C22.3715 65.7344 22.4335 66.2101 22.4335 66.7065C22.4335 70.4913 22.4335 74.276 22.4335 78.0608C22.4335 78.5158 22.4335 78.9501 22.3715 79.3845C22.144 80.8529 21.0685 81.9076 19.6001 82.0938C19.1037 82.1558 18.6074 82.1558 18.0903 82.1351C17.718 82.1351 17.3251 82.0731 16.746 82.0111C16.7046 81.3492 16.6426 80.7081 16.6426 80.067C16.6426 79.4672 16.9942 79.219 17.5733 79.0949C19.1037 78.764 19.2485 78.5985 19.2485 76.9854C19.2485 73.6969 19.2485 70.4085 19.2485 67.1408C19.2485 64.8658 19.2899 64.8244 21.6269 64.9899C21.7924 64.9899 21.9371 65.0726 22.3301 65.176Z" fill="#C39D70"/>
<path d="M166.233 76.5917C163.359 77.1088 163.09 76.902 163.09 74.1926C163.09 70.2424 163.09 66.2922 163.09 62.3419C163.09 61.9076 163.09 61.4526 163.131 61.0183C163.297 59.9635 163.566 59.7774 164.703 59.8601C165.199 59.9015 165.675 59.9428 166.13 59.9842C166.523 61.2458 166.585 74.7097 166.233 76.5711V76.5917Z" fill="#C39D70"/>
<path d="M14.0576 76.7784V60.1916C14.3058 60.0675 14.4506 59.9434 14.5954 59.9434C17.6356 59.7366 17.3254 60.0675 17.3254 62.4459C17.3254 66.4582 17.3254 70.4705 17.3254 74.4621C17.3254 74.9171 17.3254 75.3514 17.3047 75.8064C17.2633 76.3648 16.9531 76.7578 16.3533 76.7784C15.6501 76.7991 14.9469 76.7784 14.0576 76.7784Z" fill="#C39D70"/>
<path d="M63.5065 76.5299C63.1549 76.6746 63.0722 76.7367 62.9688 76.7574C59.9493 76.9435 60.2181 76.654 60.2181 74.2755C60.2181 71.8764 60.2181 69.498 60.2181 67.0989C60.2181 66.4164 59.9079 65.4857 60.7352 65.1548C61.5831 64.8239 62.5759 64.7619 63.4445 65.2789C63.5893 65.3617 63.6927 65.4857 63.7961 65.5685C64.4993 65.3203 65.1818 65.0307 65.8643 64.8653C67.6636 64.431 68.4495 65.1962 68.0565 66.9542C67.9945 67.2644 67.8704 67.5746 67.7256 68.0503C67.1672 68.0503 66.6295 68.0296 66.0918 68.0503C64.4786 68.1537 63.5893 69.1258 63.5686 70.7183C63.5686 72.1039 63.5686 73.4896 63.5686 74.896C63.5686 75.4337 63.5272 75.9715 63.4859 76.5299H63.5065Z" fill="#C39D70"/>
<path d="M22.7223 61.8873C22.681 63.0455 21.8123 63.79 20.5921 63.6866C19.5373 63.6039 18.8962 62.7766 18.9582 61.5771C19.0203 60.4809 19.8682 59.7571 20.9644 59.8191C22.0192 59.8812 22.7637 60.7498 22.7223 61.8666V61.8873Z" fill="#C39D70"/>
<path d="M130.557 63.7081C129.399 63.7081 128.758 62.9843 128.779 61.764C128.799 60.5645 129.461 59.9233 130.661 59.9233C131.798 59.9233 132.543 60.6472 132.564 61.764C132.584 62.9222 131.757 63.7288 130.557 63.7081Z" fill="#C39D70"/>
<path d="M142.265 80.2528C142.265 79.1566 143.03 78.3914 144.167 78.3501C145.326 78.3087 146.174 79.1773 146.132 80.3355C146.091 81.4316 145.284 82.1762 144.167 82.1555C143.03 82.1142 142.265 81.3489 142.265 80.2528Z" fill="#C39D70"/>
<path d="M96.081 61.7019C96.081 62.8601 95.4192 63.646 94.3023 63.6873C93.1235 63.7494 92.2755 62.9221 92.3169 61.7432C92.3376 60.6471 93.1442 59.8198 94.1783 59.8198C95.2744 59.8198 96.0603 60.5851 96.0603 61.7019H96.081Z" fill="#C39D70"/>
<path d="M91.7377 61.7017C91.7377 62.9012 90.9725 63.7078 89.8143 63.6871C88.7182 63.6664 87.9736 62.8805 87.9736 61.7637C87.9736 60.6262 88.6975 59.9023 89.835 59.9023C91.0345 59.9023 91.717 60.5435 91.7377 61.7017Z" fill="#C39D70"/>
<path d="M116.763 82.1351C115.687 82.0937 114.922 81.2664 114.964 80.1703C115.005 79.0741 115.791 78.3296 116.887 78.3296C117.983 78.3296 118.893 79.3223 118.81 80.3771C118.728 81.3698 117.797 82.1557 116.763 82.1144V82.1351Z" fill="#C39D70"/>
<path d="M121.272 82.1355C120.176 82.1768 119.369 81.4116 119.328 80.3155C119.286 79.2193 120.052 78.3714 121.106 78.33C122.223 78.2886 123.195 79.178 123.195 80.2327C123.195 81.2255 122.306 82.0941 121.272 82.1355Z" fill="#C39D70"/>
</svg>
