<svg width="112" height="70" viewBox="0 0 112 70" fill="none" xmlns="http://www.w3.org/2000/svg">
<path d="M49.3567 39.184C48.0938 37.3423 46.6555 35.6058 45.5856 33.6589C43.6913 30.2562 42.7265 26.5377 42.6739 22.6087C42.6564 20.9424 41.5163 19.8023 40.7621 18.5044C40.4288 17.908 39.2186 18.1711 38.8152 18.8552C38.4994 19.3989 38.3416 20.0304 38.0434 20.5741C37.2892 21.9422 36.6051 23.3805 34.7459 23.7664C35.4299 22.8017 36.2543 21.8896 36.763 20.8372C37.2892 19.7322 37.5172 18.4868 37.9031 17.259C40.9199 16.5224 41.3058 16.6627 42.6739 19.5392C42.6739 18.1536 42.6739 17.224 42.6739 16.2943C42.6739 15.3998 42.8669 14.4 41.4462 14.2422C41.2708 14.593 41.0954 14.9262 40.9024 15.277C38.6924 14.7333 36.9208 13.8037 35.6755 11.7515C34.9037 10.4886 33.5532 9.61161 32.3429 8.43643C32.7288 7.82254 33.5181 7.5419 34.3074 7.4542C35.0265 7.38404 35.7983 7.9804 36.5525 7.15602C36.0088 5.71774 34.3249 5.92822 33.4304 5.12138C32.3955 4.19176 31.273 3.63048 29.8347 3.36739C29.6593 2.80611 29.4839 2.24483 29.2559 1.56077C29.6417 1.59585 29.8698 1.56077 29.9926 1.64847C30.6415 2.17467 31.4659 2.40269 32.1499 2.78857C34.0443 3.84096 35.9561 4.89336 37.9732 5.63004C37.5698 6.82276 37.2541 7.78746 36.8858 8.91001C36.0965 8.75215 35.3072 8.5943 34.2548 8.36628C34.5529 8.82232 34.7108 9.13804 34.9388 9.41868C35.2545 9.78701 35.6755 10.0677 35.9737 10.4711C37.1489 12.0497 38.2714 13.4353 40.4113 11.6638C41.0778 11.1201 42.1127 11.3832 42.6564 12.1549C44.2526 14.4 46.3047 15.0315 48.9883 14.4877C50.3564 14.2071 51.8474 14.4351 53.3909 14.4351C52.9699 15.6103 52.2157 15.6804 51.4264 15.6804C50.1635 15.6804 48.9006 15.6629 47.6378 15.7331C46.4626 15.8032 45.3049 16.0137 43.9894 16.1716C43.9543 21.2055 43.5685 26.0115 45.4628 30.7648C47.2343 35.1673 50.0934 38.4999 53.7768 41.3063C54.9519 42.2009 55.8991 42.1833 57.162 41.3765C62.2661 38.1141 65.1602 33.3081 66.8616 27.6778C67.1773 26.6254 67.3176 25.4853 67.3527 24.3627C67.4228 21.7142 67.3702 19.0657 67.3702 16.4873C65.7741 15.5927 64.1429 15.7155 62.5467 15.698C61.6347 15.698 60.7226 15.7331 59.8105 15.6454C59.1791 15.5752 58.5476 15.3296 57.9162 15.1542C57.9162 15.0139 57.9162 14.8736 57.9162 14.7157C58.1968 14.6105 58.4775 14.4176 58.7581 14.4176C60.705 14.4702 62.6695 14.4877 64.6165 14.6807C65.5636 14.7684 66.2652 14.4702 66.8966 13.8914C67.4579 13.3652 68.0017 12.8214 68.5103 12.2426C69.2821 11.3656 70.1065 11.3305 71.1413 11.8041C73.4215 12.8565 73.404 12.8039 74.8949 10.8219C75.5088 10.015 76.2981 9.33097 77.2628 8.29612C76.3858 8.52413 75.8245 8.66446 75.2632 8.78724C74.281 8.99771 74.0705 8.82232 73.8951 7.82254C73.7723 7.15602 73.6145 6.4895 73.4391 5.68266C76.1928 4.297 78.9817 2.89381 81.8758 1.43799C81.8758 2.52547 81.7355 3.40247 80.42 3.54279C79.9464 3.59541 79.3851 3.73572 79.0694 4.05144C78.0696 4.9986 76.8769 5.48972 75.6315 5.99838C75.2106 6.17378 74.9124 6.68244 74.3862 7.20864C76.0525 7.9804 77.8065 7.05078 78.9817 8.45398C77.2803 9.83963 75.5965 11.2604 74.4564 13.2424C74.1231 13.8212 73.2461 14.1545 72.5621 14.4702C71.878 14.7859 71.1238 14.9613 70.4046 15.1893C70.1941 14.8034 70.0188 14.4702 69.7381 13.9615C67.3878 15.277 68.7734 17.3818 68.2297 19.2761C69.1418 18.3465 69.703 17.3818 70.545 17.031C71.3693 16.6802 72.4568 16.9609 73.6145 16.9609C73.7723 19.662 74.5441 21.9773 76.7541 23.6436C75.8421 24.3452 75.3334 23.9067 75.0001 23.398C74.2985 22.3632 73.7022 21.2406 73.0181 20.1882C72.5621 19.4515 72.527 18.2939 71.3342 18.2588C70.1766 18.2237 70.0363 19.3638 69.4926 20.0304C68.7208 20.9775 68.3174 22.0124 68.2999 23.2928C68.2297 28.9757 66.2652 33.9395 62.4766 38.1842C62.3363 38.3421 62.2485 38.5175 62.0205 38.8507C63.2483 39.4646 64.4937 39.1138 65.6689 39.1665C66.844 39.2191 68.0368 39.1665 69.0716 39.1665C69.2996 38.8858 69.44 38.7806 69.4575 38.6578C69.7732 37.1844 70.6327 36.3074 71.9833 35.5883C74.3512 34.3254 74.4388 33.8694 73.9302 31.1682C73.4917 28.8354 74.1231 26.4324 75.7368 24.6434C75.5965 28.8354 78.438 30.7297 81.4022 32.6767C81.069 32.6241 80.7357 32.589 80.42 32.5188C79.9464 32.396 79.4903 32.2382 79.0168 32.0803C78.6133 31.9575 78.2275 31.8348 77.6838 31.6594C77.4031 32.1505 76.9646 32.6065 76.8944 33.0976C76.719 34.5534 75.8947 35.2375 74.6143 35.7637C73.825 36.097 73.1058 36.7986 72.5621 37.5002C71.8429 38.4122 72.1762 39.0788 73.3689 39.1489C74.4914 39.2191 75.614 39.1489 76.7366 39.184C77.0698 39.184 77.4031 39.3068 78.1573 39.4471C77.5785 39.9382 77.2978 40.3066 76.947 40.4293C76.491 40.5697 75.9824 40.4995 75.4913 40.4995C71.3518 40.4995 67.2124 40.4995 63.0905 40.4995C62.2661 40.4995 61.4417 40.3592 60.6524 40.2715C59.3895 41.1485 58.1091 41.9729 56.8638 42.8849C55.8464 43.6392 54.9168 43.4287 53.9872 42.7622C52.7419 41.8676 51.4965 40.9731 50.2512 40.0961L49.3391 39.1665L49.3567 39.184Z" fill="#C39D70"/>
<path d="M102.731 53.7243H92.4877C92.4351 54.2329 92.3474 54.6364 92.3474 55.0222C92.3474 58.7407 92.2947 62.4592 92.3824 66.1601C92.4 67.1424 92.821 68.107 93.0841 69.2471C91.7511 69.7207 90.2251 69.5804 88.4886 69.2647C89.5059 67.1599 89.2779 65.0551 89.2779 62.9678C89.2779 59.951 89.2779 56.9516 89.2779 53.8646C87.3836 53.3033 85.6647 53.4963 83.7002 54.8644C84.0159 53.4787 84.2088 52.5666 84.4018 51.7072C86.1032 51.2687 105.345 51.1108 111.291 51.4616C111.291 52.514 111.466 53.584 110.782 54.5662C109.461 53.8178 107.935 53.5664 106.204 53.812C105.502 56.2676 105.923 58.8635 105.888 61.4068C105.853 63.9501 105.432 66.6161 107.204 68.8613C106.116 69.633 105.116 69.7207 102.117 69.2822C103.187 67.4055 102.801 65.3884 102.836 63.4239C102.871 60.8981 102.836 58.3724 102.836 55.8466C102.836 55.1626 102.766 54.496 102.731 53.7067V53.7243Z" fill="#C39D70"/>
<path d="M57.3908 27.889C57.5837 27.5207 57.7591 27.1699 57.9521 26.8015C59.671 23.2935 62.3195 21.1361 66.4589 20.873C66.5466 21.3466 66.6519 21.7325 66.6694 22.1359C66.7045 23.7496 66.5642 23.8899 64.9681 24.1354C62.1441 24.5739 60.127 26.1701 58.6361 28.5029C58.4432 28.8186 58.3905 29.2396 58.373 29.6605C60.3726 27.2926 62.7755 25.8719 66.0906 25.7316C66.1432 26.4332 66.2485 26.9594 66.2309 27.4856C66.1959 28.31 65.7222 28.7309 64.8803 28.766C64.1787 28.8011 63.4947 28.8712 62.8106 28.994C60.9514 29.3448 59.4956 30.3797 58.1625 32.0986C57.6188 31.3444 57.1627 30.7305 56.8295 30.2569C56.2156 30.3621 55.4965 30.5025 54.7247 30.6428C54.4967 29.9763 54.2862 29.3624 54.0582 28.7309C53.6548 24.0828 50.9185 21.1536 46.937 19.1716C46.3231 18.8735 45.6214 18.7156 44.8848 18.47V16.8739C45.1479 16.7511 45.3233 16.6459 45.5162 16.5933C45.7092 16.5406 45.9372 16.5757 46.1476 16.5231C49.0067 15.9267 50.8484 17.4527 52.1814 19.6277C53.5671 21.8903 54.7773 24.2582 55.0053 27.1523C55.4789 24.6616 54.9352 22.0482 52.8479 16.7511C53.76 15.9443 54.7247 15.0848 55.7946 14.1201C56.4787 14.8042 57.2855 15.5409 58.0047 16.3477C58.5133 16.9265 58.1275 17.4878 57.8468 18.0842C56.812 20.1889 56.1805 23.2234 56.2857 25.7491C56.7067 24.6441 56.9347 23.8197 57.303 23.083C57.8819 21.8903 58.4607 20.6801 59.2149 19.5926C61.5302 16.26 61.8635 16.0846 66.5466 16.8388C66.5642 17.3299 66.5992 17.8386 66.6343 18.4525C61.7231 19.8908 58.1976 22.6095 57.4258 27.9241L57.0224 28.7134C57.1101 28.7484 57.1978 28.766 57.2855 28.8011C57.3206 28.5029 57.3732 28.2047 57.4083 27.9065L57.3908 27.889Z" fill="#C39D70"/>
<path d="M70.1059 69.668C65.5806 70.1065 61.0903 66.1249 60.3887 61.5645C60.1081 59.7754 60.3887 58.039 61.2131 56.4779C62.704 53.6189 64.9666 51.5843 68.2641 51.1282C71.5266 50.6897 74.6838 50.8827 77.2622 53.3909C79.9282 55.9517 80.7877 59.0738 79.9633 62.5818C79.1039 66.2301 76.508 68.4051 73.0175 69.4575C72.1054 69.7381 71.0706 69.6154 70.1059 69.6855V69.668ZM76.7184 60.2315C76.7184 60.0385 76.771 59.4773 76.7184 58.916C76.2799 54.3731 71.0004 51.8123 67.0714 54.11C63.3705 56.2674 63.1951 60.5472 64.5808 63.4238C65.6683 65.6513 67.4047 67.0721 69.8603 67.3527C73.6138 67.7737 77.192 64.8094 76.7184 60.2139V60.2315Z" fill="#C39D70"/>
<path d="M18.4871 69.02C16.8559 69.441 15.2598 69.8269 13.5935 69.2656C14.6459 66.7749 12.5937 65.0911 12.2078 62.7933C11.0151 62.7933 9.91009 62.7933 8.80507 62.7933C7.75267 62.7933 6.7178 62.7933 5.6654 62.7933C5.12166 64.2316 4.54285 65.4945 4.19205 66.8275C4.01665 67.494 4.29729 68.2658 4.38499 69.1077C2.99933 69.1077 1.54352 70.0198 0 69.1428C2.43806 65.5296 3.59568 61.4252 5.19182 57.5313C5.54262 56.6894 5.99866 55.9001 6.26176 55.0407C6.59501 53.9357 6.78797 52.7956 7.06861 51.5151H10.8222C11.2957 52.6552 11.7518 53.7252 12.1903 54.8302C13.6636 58.5311 15.1019 62.2496 16.6279 65.933C17.0664 67.0029 17.8206 67.9501 18.4696 69.0376L18.4871 69.02ZM6.61258 60.1623H11.1203C10.3486 58.2329 9.64699 56.479 8.85769 54.5145C8.06839 56.5316 7.36679 58.268 6.61258 60.1623Z" fill="#C39D70"/>
<path d="M21.5928 65.4941C23.2591 66.1607 24.5746 66.8272 25.9602 67.2131C28.293 67.8796 29.9067 67.1078 31.1521 64.8802C30.7662 63.3718 29.9067 62.4422 28.3457 61.8634C26.5391 61.1969 24.7149 60.4076 23.3468 58.8991C21.0666 56.3909 21.8559 52.7075 24.978 51.5148C26.96 50.7606 30.5908 50.8132 32.8885 51.6902V54.7246C31.6958 54.2159 30.696 53.7774 29.6787 53.374C28.6263 52.9531 27.5914 53.2337 26.6267 53.6722C25.3112 54.2686 25.0306 55.7419 26.0304 56.7943C26.539 57.3381 27.2407 57.7415 27.9072 58.0923C29.2578 58.829 30.6785 59.4078 32.0115 60.1795C35.2389 62.0739 35.3266 65.8625 32.2922 68.0725C30.889 69.0898 29.3981 69.7213 27.6265 69.5985C26.7144 69.5283 25.8024 69.5985 24.8903 69.5459C22.768 69.4406 22.3821 69.1249 21.8909 67.1078C21.7857 66.6518 21.7331 66.1782 21.6103 65.4591L21.5928 65.4941Z" fill="#C39D70"/>
<path d="M54.6192 54.9697C53.7598 54.6189 53.0933 54.3207 52.4092 54.0401C49.8659 53.0403 46.849 53.4788 45.1126 55.5836C43.2007 57.8989 43.2358 60.4773 44.3233 63.0732C45.3581 65.5288 47.2174 66.967 49.9887 67.0021C51.5497 67.0197 53.0407 66.7741 54.4439 66.0374C54.8297 65.8269 55.3208 65.8269 55.8295 65.7217C54.9876 69.1595 54.4965 69.563 51.3042 69.6156C50.3921 69.6156 49.48 69.6156 48.568 69.598C44.8846 69.4577 41.5519 66.7566 40.5872 63.231C39.5699 59.4775 40.3768 56.1975 43.0253 53.356C44.3934 51.9002 46.1825 51.2162 48.0768 51.0934C49.7958 50.9706 51.5673 51.1635 53.2862 51.3916C54.7596 51.5845 54.8648 51.8301 54.8472 53.321C54.8472 53.777 54.7245 54.2506 54.6017 54.9872L54.6192 54.9697Z" fill="#C39D70"/>
<path d="M47.2003 11.4884C46.4285 10.0501 45.7445 8.7697 45.0078 7.41912C45.7796 6.19132 46.5162 7.38404 47.4108 7.55944C47.9194 6.91046 48.0247 5.59496 49.235 5.7002C49.7436 5.73528 50.1996 6.29656 50.8135 6.69998C50.2698 7.12094 49.9716 7.34896 49.6383 7.61206C50.3399 8.66446 51.3047 8.71708 52.2518 8.27858C53.0762 7.8927 53.4621 7.15602 52.9008 6.12116C52.4272 6.3141 52.0063 6.47196 51.5853 6.64736C51.0942 5.92823 51.4275 5.33186 51.7607 4.84075C52.55 3.68311 53.6199 3.75327 55.6896 5.0863C56.5842 4.70042 57.3033 3.38493 58.5837 4.12161C59.2853 4.52503 60.1623 4.89337 59.8642 6.01592C59.7589 6.10362 59.6712 6.26148 59.566 6.26148C58.917 6.24394 58.0926 5.84053 57.9348 6.928C57.812 7.84008 58.5838 8.10318 59.2152 8.3312C59.9519 8.5943 60.7236 8.61184 61.4954 7.92778C61.2498 7.47174 61.0218 7.03324 60.7762 6.61228C62.2496 5.27925 62.5478 5.3494 63.9159 7.47174C64.2492 7.33142 64.6175 7.15602 64.9858 7.03324C65.3015 6.94554 65.6348 6.94554 66.2312 6.87538C65.477 8.43644 64.8981 9.8221 64.1439 11.085C63.951 11.4182 63.1442 11.4884 62.618 11.4884C59.6011 11.5059 56.6017 11.4884 53.5848 11.4709C51.48 11.4709 49.3928 11.4709 47.1828 11.4709L47.2003 11.4884ZM56.6368 8.55922C56.1808 8.22596 55.9001 7.91024 55.5669 7.84008C55.409 7.805 54.9354 8.34874 54.9705 8.4189C55.1284 8.73462 55.409 9.06788 55.7247 9.2082C55.865 9.26082 56.1983 8.87494 56.6193 8.55922H56.6368Z" fill="#C39D70"/>
<path d="M49.3563 39.1839L50.2685 40.1135C49.8124 40.2539 49.3739 40.4994 48.9179 40.517C44.4978 40.552 40.0953 40.5345 35.6752 40.517C35.0087 40.517 34.2369 40.6397 33.9563 39.5523C35.4296 38.7279 37.1135 39.5698 38.8324 38.9033C38.7447 38.4472 38.7798 37.8333 38.4992 37.5001C37.9203 36.8336 37.2362 36.0443 36.4294 35.7987C34.9911 35.3427 34.4825 34.378 34.2369 33.08C34.1317 32.5538 33.9212 32.0452 33.7458 31.4663C32.4128 31.975 31.2025 32.431 30.0098 32.9046C32.4654 30.5718 35.8155 28.9932 35.2893 24.5205C38.1132 27.3269 37.1836 30.5192 37.0082 33.7115C37.9028 34.7112 38.8324 35.8338 40.3233 36.3249C40.7618 36.4828 41.1652 36.9914 41.4283 37.4299C41.7089 37.886 41.8317 38.4648 42.0948 39.1839H49.3739H49.3563Z" fill="#C39D70"/>
<path d="M52.3568 31.6942C52.2866 30.712 51.585 30.1858 50.7957 29.8876C49.5679 29.4315 48.2875 29.0281 47.0071 28.7826C45.3759 28.4844 45.3584 28.5721 45.1304 26.8882C45.0953 26.6076 45.0602 26.327 45.0076 25.8358C48.5857 25.5903 50.901 27.5197 52.9005 30.0454C52.6901 26.9409 50.0766 24.8711 44.8848 23.8363V20.8545C48.1823 21.3807 51.0062 22.3629 52.5147 25.5727C53.0058 26.6251 53.5144 27.6951 54.0231 28.7475C54.0231 29.3438 54.1283 29.9753 54.0406 30.5892C53.9179 31.5363 53.5144 31.7468 52.3393 31.6767H52.3568V31.6942Z" fill="#C39D70"/>
<path d="M52.7598 32.9568C54.7009 31.4484 56.5894 31.5712 58.4253 33.3252C58.6182 33.5181 58.8638 33.6409 59.0918 33.7987H59.0742C59.1795 34.2548 59.2847 34.7108 59.4251 35.2546C58.1973 36.4297 57.3378 37.7628 57.2852 39.5869C57.2852 40.1833 56.4608 40.7621 56.0574 41.2883C54.6542 41.0778 54.1631 40.4113 53.8824 39.2186C53.5667 37.8329 52.8651 36.535 52.3389 35.2019H51.9004C52.1986 34.4653 52.4792 33.6935 52.7774 32.9393L52.7598 32.9568ZM56.4959 34.36C56.1275 34.1495 55.8995 33.9215 55.7066 33.9391C55.4961 33.9391 55.3031 34.2197 55.1102 34.36C55.3382 34.553 55.5487 34.8161 55.7943 34.9038C55.9346 34.9388 56.1626 34.6231 56.4959 34.36Z" fill="#C39D70"/>
<path d="M91.5938 23.2922C90.1556 22.6082 89.682 21.4505 88.9278 20.3455C89.1383 21.7136 89.3838 23.0993 89.5416 24.4849C89.6293 25.2918 89.6644 26.1512 89.5592 26.9581C89.454 27.7825 89.2084 28.6244 88.2086 28.8875C87.472 29.0804 87.0861 28.8349 86.0161 27.4317H87.7C88.3314 26.5196 87.8228 25.8531 87.5421 25.1515C86.9282 23.6606 86.2792 22.2047 85.7706 20.6788C85.3671 19.5211 85.4549 18.346 86.0688 17.2409C86.5774 16.3464 87.3492 16.0482 88.3489 16.0833C89.2961 16.1184 89.6995 16.6972 89.9977 17.4514C90.2257 18.0302 90.4186 18.6266 90.5765 19.2405C90.9098 20.5034 91.208 21.7663 91.5938 23.3098V23.2922Z" fill="#C39D70"/>
<path d="M23.2754 27.467C24.1349 27.3617 24.5909 27.2916 25.0645 27.239C25.0821 27.3617 25.1522 27.5196 25.1171 27.6073C24.7839 28.4668 24.2051 29.028 23.2053 28.8526C22.3458 28.6948 21.6442 27.9055 21.6617 26.8706C21.6968 25.4148 21.9073 23.959 22.0827 22.5207C22.1704 21.784 22.3809 21.0649 22.6089 19.9949C21.0829 20.8193 21.346 22.7663 19.6973 23.1872C20.1358 21.3455 20.4866 19.6617 20.9601 18.0129C21.3986 16.522 22.3458 15.8906 23.5561 16.1186C24.2752 16.2589 24.819 16.5747 25.1171 17.3464C25.6083 18.6444 25.6609 19.9423 25.2224 21.2403C24.7313 22.6961 24.1524 24.1168 23.6613 25.5727C23.4859 26.0638 23.4508 26.6075 23.293 27.467H23.2754Z" fill="#C39D70"/>
<path d="M83.1736 30.2214C84.0155 30.73 84.7171 31.151 85.6467 31.7123C85.5064 32.2736 85.3661 32.905 85.2082 33.554C84.9276 34.6941 84.4716 35.8166 84.3839 36.9567C84.1558 39.6754 84.0682 39.8508 81.1214 40.377C80.8233 38.851 82.0861 37.8337 82.3843 36.5358C82.6825 35.2554 83.2613 34.0451 83.7524 32.7121C82.8404 31.9754 81.9458 31.2562 80.8232 30.3617C81.3845 29.8881 81.788 29.4496 82.2791 29.1514C84.2786 27.9938 85.2083 25.0296 83.3315 22.5915C81.9458 20.8024 81.9984 20.7673 81.8757 19.3115C82.928 20.7498 83.8752 22.0302 84.7873 23.3457C86.0326 25.1348 85.7695 26.9063 84.5768 28.6077C84.226 29.1164 83.77 29.5549 83.1736 30.2214Z" fill="#C39D70"/>
<path d="M30.5367 30.2211C29.4668 31.1156 28.5371 31.9049 27.4321 32.8345C28.4319 35.3252 29.4141 37.7808 30.3964 40.2715C28.239 40.6223 26.8709 39.3419 26.7832 37.6054C26.6779 35.6058 26.2745 33.7641 25.415 31.9049C26.2745 31.3261 27.0638 30.7999 27.9584 30.186C27.5023 29.6949 27.0463 29.3441 26.7832 28.888C25.6957 26.9411 25.2923 24.9415 26.6429 22.9595C27.4848 21.7142 28.4319 20.5215 29.4317 19.1709C29.7474 20.1005 29.2563 20.6618 28.9055 21.2231C28.6073 21.6967 28.2215 22.1001 27.9057 22.5561C25.9939 25.2748 26.5026 27.7479 29.344 29.4318C29.6948 29.6423 30.0105 29.8703 30.5367 30.2211Z" fill="#C39D70"/>
<path d="M81.7887 3.5957C84.8932 3.71848 86.2614 5.71804 85.1914 8.0684C84.788 8.9454 84.3144 9.83993 83.6655 10.5591C82.0342 12.3832 81.4378 14.5231 81.3677 16.891C81.3677 17.0839 81.2625 17.2769 81.1748 17.6452C80.2627 16.3999 80.3854 15.1195 80.6661 13.9443C80.9467 12.8042 81.3852 11.6466 82.0518 10.6819C83.6479 8.3315 83.9285 6.08638 81.7887 3.5957Z" fill="#C39D70"/>
<path d="M30.2215 17.8734C30.0987 16.821 30.0636 16.2247 29.9409 15.6283C29.5374 13.5235 28.5376 11.7344 27.1871 10.0681C25.626 8.12121 25.4681 6.33214 26.4679 4.66584C27.0292 3.71868 27.8361 3.36788 29.0639 3.56082C28.6604 4.42028 28.1518 5.13942 28.029 5.89364C27.801 7.34946 27.8361 8.78773 28.8358 10.0857C30.5021 12.2606 30.888 14.7338 30.2039 17.8734H30.2215Z" fill="#C39D70"/>
<path d="M59.0911 33.7994C58.9683 33.3258 58.8631 32.8522 58.7578 32.4137C60.5644 30.2738 62.6517 29.6599 65.0196 30.7474C64.7916 31.3262 64.5635 31.9226 64.3355 32.5014C62.7394 32.5014 61.2836 31.5893 59.6874 32.7996C61.0029 33.0451 62.3184 32.8873 63.3357 34.1151C63.0025 34.6764 62.6517 35.2727 62.2482 35.9743C61.0906 35.0973 60.6171 33.6415 59.0911 33.7818H59.1086L59.0911 33.7994Z" fill="#C39D70"/>
<path d="M52.3394 31.6766C52.4797 32.0976 52.62 32.5361 52.7603 32.957C52.4797 32.9395 52.1815 32.957 51.9009 32.957C50.8836 32.2203 49.7786 32.0625 48.5508 32.3256C46.7792 32.7115 46.7792 32.6764 46.2881 30.6593C47.7088 29.6946 49.0945 30.2909 50.4626 30.7821C51.1116 31.0276 51.708 31.4135 52.3394 31.7292H52.3218L52.3394 31.6766Z" fill="#C39D70"/>
<path d="M55.6199 0C56.1636 1.06994 56.5495 1.78908 56.9705 2.59591C56.5846 3.17473 56.2162 3.71847 55.6725 4.52531C55.1112 3.78863 54.6727 3.20982 54.1641 2.56084C54.585 1.82416 54.9709 1.12256 55.6024 0H55.6199Z" fill="#C39D70"/>
<path d="M51.9182 32.9395C51.4446 34.255 50.0239 34.6584 49.3398 35.7809C48.5154 35.4301 47.9717 34.8513 48.2348 34.1497C48.4102 33.6761 49.0942 33.2552 49.638 33.0973C50.3571 32.9044 51.1464 32.9745 51.9182 32.9395Z" fill="#C39D70"/>
</svg>
