<svg width="139" height="34" viewBox="0 0 139 34" fill="none" xmlns="http://www.w3.org/2000/svg">
<path d="M0.00309248 1.08398H9.30547C13.0962 1.40838 16.4545 3.64206 17.2485 7.50389C17.8293 10.3184 17.1249 13.1453 14.8603 14.9928C14.4618 15.3172 13.9211 15.5211 13.5628 15.8794C14.4124 16.1297 15.2774 16.59 16.0034 17.106C18.8272 19.1141 19.7911 22.2159 19.1022 25.5896C18.2124 29.9396 14.4216 32.3061 10.1921 32.6769H0V1.08398H0.00309248ZM2.15026 14.7703H9.0058C9.78126 14.6529 10.5722 14.588 11.3229 14.3471C16.9025 12.5706 16.1857 5.04468 10.7483 3.56173C10.4733 3.48759 9.75652 3.30222 9.52481 3.30222H2.15026V14.7703ZM2.15026 30.5297C4.34687 30.4648 6.5929 30.6131 8.78642 30.5328C11.2364 30.4432 13.9829 29.8654 15.6389 27.9036C16.8808 26.4331 17.3937 23.9399 16.9395 22.0924C16.0807 18.6013 11.9593 17.3284 8.78642 16.9886H2.15026V30.5297Z" fill="#C39D70"/>
<path d="M72.1825 28.0854V1.0835H74.4069V32.7474H72.961L51.656 5.44891V32.6733H49.4316V1.0835H51.1L72.1825 28.0854Z" fill="#C39D70"/>
<path d="M42.4644 1.0835V3.30173H27.5701V15.5082L42.0195 15.5824V17.7295H27.5701V30.5292H42.3903V32.7474H25.3457V1.0835H42.4644Z" fill="#C39D70"/>
<path d="M116.832 1.08414L126.539 15.9537C126.687 15.9846 126.628 15.9105 126.665 15.858C127.051 15.305 127.419 14.7334 127.793 14.1711C130.672 9.81497 133.487 5.41866 136.394 1.08105H138.952C138.98 1.20154 138.93 1.25406 138.881 1.34366C138.693 1.70513 138.331 2.19017 138.093 2.55473C134.639 7.89333 131.062 13.1578 127.614 18.5026V32.745H125.389V18.2801L114.434 1.47342L114.273 1.08105H116.832V1.08414Z" fill="#C39D70"/>
<path d="M98.5661 0.0459643C105.048 0.512474 110.856 5.00455 113.019 11.1032C116.306 20.3746 110.871 30.6101 101.31 32.9302C89.5881 35.7725 79.019 26.6215 80.4155 14.6591C81.3269 6.84279 87.8024 0.558815 95.6774 0.0428742C96.5054 -0.0127362 97.7412 -0.0158257 98.5692 0.0428742L98.5661 0.0459643ZM111.95 16.7445C111.95 8.65012 105.375 2.08501 97.2654 2.08501C89.1556 2.08501 82.5812 8.64704 82.5812 16.7445C82.5812 24.842 89.1556 31.404 97.2654 31.404C105.375 31.404 111.95 24.842 111.95 16.7445Z" fill="#C39D70"/>
</svg>
