<svg width="99" height="107" viewBox="0 0 99 107" fill="none" xmlns="http://www.w3.org/2000/svg">
<path d="M64.7569 46.8493C64.2834 47.7613 63.8449 48.9541 63.1082 49.9363C61.2314 52.4445 59.0915 54.7072 56.5658 56.5839C55.0223 57.724 53.6366 59.0746 52.0756 60.1796C50.5847 61.2496 48.971 62.1441 47.3748 63.0913C45.6208 64.1261 43.8493 65.1434 42.0778 66.1608C39.9028 67.4061 37.7278 68.6163 35.5353 69.8441C35.2547 70.002 34.9565 70.1423 34.6408 70.2651C34.5531 70.3002 34.3251 70.23 34.29 70.1599C34.2374 70.002 34.1848 69.7565 34.2725 69.6337C34.4479 69.353 34.711 69.125 34.9566 68.897C35.7634 68.2129 36.6228 67.5815 37.3595 66.8273C39.5696 64.5822 42.0252 62.6177 44.3755 60.5304C45.8489 59.2325 47.2871 57.917 48.6202 56.4612C50.0585 54.8826 51.7949 53.5846 53.2683 52.0411C54.3557 50.901 55.2854 49.603 56.2325 48.3402C57.2148 47.0247 58.1444 45.6565 59.074 44.306C59.6353 43.4816 59.6353 43.3237 58.8811 42.6221C57.969 41.7627 57.0394 40.9032 56.022 40.1665C52.7596 37.8337 50.0409 34.9045 47.1819 32.1157C45.7436 30.7125 44.5158 29.169 43.4108 27.5202C42.2356 25.7838 40.9728 24.0999 39.8502 22.3108C38.7276 20.5218 38.1313 18.4871 37.7805 16.4349C37.57 15.1545 37.7629 13.8741 38.4119 12.5937C39.5695 10.3135 40.3764 7.87544 41.4112 5.52509C41.8848 4.43761 42.7618 3.49045 43.0425 2.38543C43.288 1.42074 43.8668 0.876998 44.4807 0.263099C44.6386 0.105239 44.9368 0.0876998 45.1648 0C45.235 0.24556 45.3753 0.473579 45.3928 0.719138C45.4104 1.78908 45.4104 2.85901 45.3928 3.92895C45.3753 6.05129 45.691 8.121 46.1997 10.1732C46.4277 11.1203 46.6908 12.085 47.0942 12.962C48.6903 16.5753 50.3391 20.1534 52.6018 23.4334C53.7594 25.1172 54.6364 26.9765 55.794 28.6428C57.5831 31.2387 59.1617 33.9925 61.4244 36.2727C62.0207 36.869 62.582 37.5706 62.9854 38.3073C63.4941 39.2194 63.915 40.1314 63.9501 41.2715C63.9852 42.8326 64.3711 44.3761 64.6166 45.9196C64.6517 46.1126 64.6868 46.3055 64.7745 46.7966L64.7569 46.8493Z" fill="#C39D70"/>
<path d="M36.659 71.5103C36.5537 71.4753 36.3959 71.4577 36.3257 71.37C36.2907 71.3349 36.3608 71.1245 36.431 71.0718C36.7642 70.8614 37.0975 70.6333 37.4483 70.4755C40.851 68.9144 44.324 67.4586 47.639 65.7572C50.0244 64.5294 52.1994 62.8807 54.5322 61.5301C56.6019 60.3374 58.4612 58.864 60.2327 57.2854C62.32 55.4262 63.7583 53.1986 64.3371 50.4448C64.9685 50.1993 64.2494 49.0592 65.179 49.1469C65.3193 49.1469 65.4245 50.059 65.4772 50.5501C65.635 52.0585 65.2491 53.5845 65.8104 55.0929C66.0034 55.6191 65.635 56.3558 65.4772 56.9873C65.0913 58.5659 64.8983 60.2146 63.8459 61.5476C63.5653 61.916 63.3022 62.3369 62.9163 62.5825C61.1097 63.7752 59.3557 65.1433 57.4088 66.0379C54.7427 67.2657 51.9187 68.1251 49.1299 69.1074C47.2707 69.7564 45.3413 70.0545 43.3943 70.3352C41.2018 70.6509 39.0269 71.1069 36.8344 71.4928C36.7642 71.4928 36.6941 71.4928 36.6239 71.4928L36.659 71.5103Z" fill="#C39D70"/>
<path d="M34.2043 90.8217C31.5382 90.8217 28.8546 90.8217 26.1886 90.8217C25.8027 90.8217 25.1888 90.8042 25.066 90.9971C24.4696 92.0144 23.9961 91.5759 23.312 91.0848C22.6455 90.6112 21.9965 90.1902 20.9616 90.6989C20.2074 91.0672 19.1199 90.8217 18.1903 90.7866C17.5764 90.7691 17.2432 90.3481 17.2432 89.7342C17.2432 88.0679 17.2432 86.3841 17.2432 84.7178C17.2432 84.2091 17.4887 83.9986 17.9097 83.8759C18.0851 83.8232 18.3482 83.7005 18.4008 83.7706C18.5411 83.9285 18.6639 84.174 18.6639 84.3845C18.6288 85.5772 18.506 86.77 18.506 87.9627C18.506 88.9274 18.7516 89.1554 19.6637 89.1905C20.5056 89.2256 21.2598 89.2957 21.8211 88.2433C22.207 87.5593 23.2769 87.1909 24.1188 86.8226C24.6626 86.577 25.1712 87.0681 25.3116 87.8048C25.5747 89.1729 25.5746 89.1203 26.7674 89.1905C27.6093 89.2431 28.0829 89.0677 28.2583 88.1381C28.381 87.5417 28.8195 87.5943 29.2405 88.1381C29.5036 88.4889 29.7492 88.9975 30.1 89.1203C30.5735 89.2957 31.1699 89.2256 31.6785 89.1203C31.8715 89.0852 31.9592 88.6292 32.1521 88.4012C32.3802 88.1205 32.6783 87.875 32.9414 87.6294C33.0817 87.8925 33.2747 88.1205 33.3624 88.4012C33.5729 88.9975 33.9938 89.208 34.5902 89.1905C35.3269 89.1729 36.0635 89.1905 36.8002 89.1905C37.572 89.1905 38.0105 89.0852 37.4667 88.1732C37.379 88.0153 37.7123 87.4365 37.9929 87.2786C38.3613 87.0506 38.5192 87.454 38.6595 87.7697C38.8173 88.1381 38.9576 88.559 39.2383 88.7871C39.5014 89.0151 39.975 89.1905 40.2907 89.1028C40.7116 88.9975 40.4661 88.6117 40.3608 88.2959C40.2907 88.0504 40.3784 87.6294 40.5538 87.4716C40.7292 87.3137 41.1501 87.3137 41.3781 87.4189C41.5711 87.5066 41.6237 87.875 41.8166 88.0504C42.1499 88.3836 41.9745 89.1905 42.7814 89.0852C42.7287 88.7344 42.5709 88.3661 42.6586 88.0504C42.7463 87.6996 43.0445 87.3839 43.29 87.0857C43.6408 86.6472 43.9916 86.998 44.0267 87.2611C44.1495 88.0328 44.2372 88.8397 44.167 89.629C44.0793 90.4534 43.5531 90.7866 42.6586 90.7866C39.8522 90.7866 37.0458 90.7866 34.2394 90.7866L34.2043 90.8217ZM24.6275 89.1554C23.9084 88.752 23.6452 88.559 23.3471 88.4538C23.2594 88.4187 23.084 88.6643 22.9612 88.7695C23.2418 88.9975 23.5049 89.2431 23.8207 89.436C23.9084 89.4887 24.1188 89.3308 24.6275 89.1554Z" fill="#C39D70"/>
<path d="M48.2531 73.6501C45.8852 73.4747 43.5173 73.2993 41.1319 73.1239C40.9916 73.1239 40.8513 72.9661 40.7109 72.8784C40.8513 72.7381 40.9565 72.4925 41.1143 72.4574C42.2018 72.2469 43.3244 72.1417 44.3943 71.8961C47.9549 71.1068 51.6033 70.5456 55.0411 69.3879C57.9878 68.3881 60.8994 66.9674 62.7236 64.161C62.8113 64.0382 63.0919 63.9155 63.1972 63.9681C63.3375 64.0207 63.4778 64.3013 63.4427 64.4417C63.0393 66.2132 62.6359 68.0023 62.1448 69.7563C61.9518 70.4579 61.4432 70.9314 60.7416 71.2998C58.6719 72.4048 56.4618 72.8258 54.1816 73.1766C52.1996 73.4923 50.2351 73.4747 48.2356 73.6326L48.2531 73.6501Z" fill="#C39D70"/>
<path d="M45.5872 83.6831C47.0255 84.5426 47.3938 86.0335 47.8499 87.4893C47.9025 87.6822 48.1656 87.805 48.3234 87.9453C48.4111 87.7875 48.569 87.6296 48.5865 87.4717C48.6216 86.6649 48.5865 85.8756 48.6216 85.0688C48.6392 84.6829 48.7444 84.297 48.9198 83.9637C49.0075 83.7883 49.3408 83.7182 49.5863 83.6831C49.6389 83.6831 49.8143 83.9813 49.8319 84.1567C49.867 85.1565 49.8494 86.1562 49.8494 87.156C49.8494 87.6296 49.7793 88.1032 49.8845 88.5592C49.9371 88.8048 50.2002 89.0854 50.4458 89.1731C50.7439 89.2784 51.1123 89.2082 51.4456 89.2082C53.2171 89.2082 53.1996 89.2082 52.7961 87.4717C52.5857 86.5772 52.4103 85.6827 52.3226 84.7881C52.2875 84.4549 52.533 84.0339 52.7786 83.7883C52.9189 83.6656 53.3574 83.8234 53.6381 83.9111C53.8836 83.9813 54.1818 84.0865 54.3221 84.2795C54.48 84.5075 54.6378 84.9811 54.5151 85.1038C54.0064 85.6476 53.9362 86.1036 54.2169 86.8403C54.4624 87.4893 54.3397 88.2961 54.2695 89.0153C54.0941 90.6114 53.7959 90.8219 52.1647 90.8394C51.4982 90.8394 50.8141 90.7342 50.1651 90.8745C49.2004 91.085 48.8672 90.3308 48.341 89.8747C48.0779 90.7342 47.4289 90.9096 46.6221 90.857C45.9555 90.8219 45.289 90.857 44.6225 90.8219C44.5348 90.8219 44.377 90.664 44.377 90.6114C44.3945 90.4886 44.4997 90.3308 44.5874 90.2957C45.2539 90.0501 45.938 89.8396 46.6221 89.6292C47.2535 89.4187 47.3412 89.138 47.0957 88.454C46.7624 87.577 46.5344 86.8228 45.6047 86.279C44.2366 85.4897 44.3243 84.9986 45.6047 83.7006L45.5872 83.6831Z" fill="#C39D70"/>
<path d="M80.5781 103.626H78.0875C78.8943 102.398 79.0171 101.17 78.4558 99.8899C78.8417 99.1532 78.3856 98.9076 77.8068 98.8725C77.1929 98.8375 76.772 99.2233 76.7895 99.8372C76.8246 100.89 76.9123 101.942 77.0526 102.977C77.1052 103.38 77.0877 103.538 76.6667 103.678C75.6319 104.012 74.5619 103.626 73.4744 103.977C72.7202 104.222 71.966 103.24 71.9309 102.31C71.8958 101.504 71.9309 100.714 71.9309 99.9074C71.9309 99.6443 71.966 99.3461 71.8608 99.1181C71.7029 98.8024 71.1943 98.3814 71.2644 98.2937C71.6503 97.7851 72.1063 97.3466 72.5974 96.9256C72.6676 96.873 73.071 97.0133 73.071 97.0835C73.1587 97.6623 73.2464 98.1534 74.0182 98.0832C74.1059 98.0832 74.2988 98.3639 74.2813 98.5042C74.2638 98.627 74.0357 98.7498 73.8954 98.8375C73.6849 98.9602 73.2464 99.0304 73.2464 99.1532C73.1938 100.293 73.1763 101.416 73.264 102.556C73.264 102.696 73.9305 102.801 74.2813 102.872C75.4214 103.1 75.5793 103.03 75.5442 101.995C75.4916 100.907 76.0002 99.6969 74.9829 98.7673C74.9829 98.7673 75.1232 98.5042 75.246 98.434C75.4564 98.2937 75.7547 98.0306 75.9301 98.0832C76.9474 98.4165 77.9998 97.75 78.9645 98.1359C79.438 98.3288 79.7538 98.3814 80.2273 98.1359C80.6132 97.9429 81.1394 97.9955 81.5955 98.0131C82.49 98.0482 82.7706 98.3288 82.8057 99.2233C82.8583 100.03 82.8057 100.819 82.8232 101.626C82.8232 102.135 82.6479 102.731 83.3845 102.959C83.4547 102.977 83.4547 103.415 83.3845 103.626C83.3319 103.766 83.0863 103.924 82.9285 103.907C82.5426 103.871 82.1743 103.714 81.7884 103.661C81.3674 103.608 81.1745 103.503 81.5253 103.1C82.5426 101.942 81.6656 100.609 81.8059 99.3637C81.8059 99.2233 81.0693 98.7848 80.8763 98.8901C80.3852 99.1532 79.631 99.6969 79.6836 100.013C79.859 101.17 79.0697 102.521 80.5957 103.608L80.5781 103.626Z" fill="#C39D70"/>
<path d="M62.5476 83.7006C63.1264 85.174 62.5826 86.6649 62.6879 88.1383C62.7756 89.1556 62.723 89.1556 63.6526 89.1907C64.3191 89.2082 64.9856 89.1907 65.6346 89.1907C65.6872 88.454 65.161 87.7699 65.7574 87.1209C66.0906 86.7701 66.4239 86.7526 66.687 87.1736C67.336 88.1909 67.2307 89.2082 66.6344 90.1554C66.4239 90.4886 65.9152 90.6991 65.5118 90.7868C65.0032 90.892 64.4419 90.8394 63.9157 90.8043C63.0211 90.7517 62.5651 90.9797 62.1968 91.9795C61.7407 93.2599 60.32 93.1196 59.1448 93.2249C58.5134 93.2775 58.145 92.9442 57.7942 92.5233C57.6363 92.3303 57.4785 92.0672 57.4609 91.8392C57.4259 91.1025 57.4083 90.3658 57.4609 89.6292C57.496 89.1205 58.1976 88.6118 58.3906 88.8749C58.5134 89.0503 58.4081 89.4362 58.3555 89.7169C58.2152 90.5237 58.6712 91.3481 59.4254 91.5761C60.1797 91.8041 61.2671 91.1551 61.425 90.3658C61.4952 89.98 61.4425 89.559 61.4425 89.1731C61.4425 87.9629 61.4776 86.7701 61.4425 85.5599C61.4074 84.6653 61.7056 84.0339 62.53 83.6831L62.5476 83.7006Z" fill="#C39D70"/>
<path d="M5.21041 97.645C5.17533 97.7678 5.2104 98.2063 5.01746 98.3817C4.28079 99.0482 4.33341 99.5744 5.10517 100.136C5.82431 100.662 5.80677 101.521 5.54367 102.135C5.21041 102.872 4.66668 103.626 3.63182 103.696C2.50926 103.749 1.40424 103.854 0.281679 103.889C0.193979 103.889 -0.0165072 103.398 0.00103279 103.381C0.878031 102.679 0.702633 101.784 0.632473 100.837C0.544773 99.855 0.702645 98.8553 0.755265 97.873C0.755265 97.7503 0.755241 97.6099 0.702621 97.4872C0.492141 96.9434 0.26414 96.4172 0.0361202 95.8735C0.737719 95.7858 1.45684 95.6981 2.15844 95.6455C2.61448 95.6104 3.08806 95.6104 3.56164 95.6455C4.61404 95.7332 5.22794 96.3997 5.22794 97.6625L5.21041 97.645ZM2.64956 100.066C1.63224 100.066 1.57962 100.066 1.71994 101.1C1.77256 101.486 2.01812 101.784 1.71994 102.188C1.47438 102.539 1.63226 102.819 2.07076 102.854C2.33386 102.889 2.59696 102.872 2.86006 102.854C4.08785 102.819 4.40356 102.504 4.35094 101.328C4.31586 100.276 4.00015 100.048 2.6145 100.048L2.64956 100.066ZM1.8252 97.7678C1.79012 98.0484 1.61472 98.4869 1.7375 98.6273C1.9129 98.8202 2.33384 98.8553 2.64956 98.8377C3.66688 98.8202 4.03522 98.4519 4.00014 97.5573C3.94752 96.6628 3.45641 96.3295 2.28123 96.4523C1.22884 96.5575 1.63226 97.2065 1.84273 97.7678H1.8252Z" fill="#C39D70"/>
<path d="M77.1584 89.5591C77.1584 89.7345 77.1584 89.9275 77.1584 90.138C77.1233 90.6817 77.1584 91.2254 77.7197 91.5236C78.3511 91.8393 79.3684 91.6113 79.9122 91.0851C80.4384 90.5765 80.4559 90.0678 80.0525 89.489C79.8595 89.2259 79.6315 88.9102 79.6315 88.612C79.6315 88.3489 79.8245 87.9455 80.0349 87.8227C80.2279 87.7174 80.6313 87.8227 80.8593 87.9981C81.0347 88.1209 81.1224 88.4541 81.1575 88.6997C81.2277 89.1206 81.4732 89.2434 81.8416 89.2434C82.3151 89.2434 82.7712 89.2434 83.2448 89.2434C84.1919 89.2259 84.2095 89.2259 83.999 88.2086C83.8937 87.6824 83.999 87.2965 84.5778 87.1386C84.8058 87.0685 84.9637 86.8404 85.1741 87.2088C85.7003 88.1384 85.7004 89.8749 85.0514 90.594C84.9111 90.7519 84.5778 90.822 84.3322 90.822C83.6657 90.8571 82.9992 90.8746 82.3327 90.822C81.5609 90.7694 81.1049 90.9448 81.0698 91.8744C81.0698 92.1901 80.491 92.4883 80.1753 92.7865C79.3158 93.5933 78.2809 93.2776 77.3338 93.1198C76.9304 93.0496 76.4217 92.4182 76.3515 91.9797C76.1761 91.015 76.1411 89.9801 76.755 89.1031C76.8427 88.9803 77.0707 88.9452 77.2461 88.8751C77.2461 89.0329 77.2461 89.2083 77.2285 89.3662C77.2285 89.4364 77.1759 89.489 77.1233 89.5767L77.1584 89.5591Z" fill="#C39D70"/>
<path d="M20.1549 103.696C19.8918 103.696 19.6287 103.696 19.3481 103.696C18.6348 103.684 18.4243 103.351 18.7167 102.696C18.7167 102.696 18.8044 102.573 18.8044 102.521C18.8044 100.591 18.8044 98.6444 18.7693 96.715C18.7693 96.6273 18.5588 96.5571 18.4887 96.4694C18.0151 95.8204 18.0501 95.6801 18.6465 95.6626C19.6463 95.6275 20.6636 95.5924 21.6458 95.6626C22.593 95.7327 23.2946 96.1537 23.8208 97.1009C25.4169 99.9423 24.3645 101.854 22.7684 103.205C22.3708 103.544 21.488 103.713 20.1199 103.713L20.1549 103.696ZM19.5937 100.276C19.5937 100.276 19.6638 100.276 19.6989 100.276C19.6989 100.609 19.6989 100.942 19.6989 101.275C19.6989 102.977 20.2602 103.275 21.8739 102.538C22.3825 102.293 22.7333 102.012 22.9613 101.468C23.5051 100.17 23.47 98.8899 22.8912 97.6446C22.7333 97.2938 22.4702 96.8728 22.1545 96.7501C21.6283 96.5396 20.9793 96.3817 20.4707 96.5045C20.0672 96.6097 19.8743 97.1359 19.9094 97.7498C19.962 98.5742 19.7164 99.4161 19.6112 100.258L19.5937 100.276Z" fill="#C39D70"/>
<path d="M53.4097 103.679C54.655 102.381 54.199 100.942 54.1815 99.6094C54.1815 98.9078 53.2168 98.6271 52.6379 99.1007C52.1644 99.469 51.7609 99.89 51.8486 100.609C51.9714 101.574 51.568 102.626 52.4976 103.416C52.4976 103.416 52.2345 103.942 52.0942 103.942C51.6557 103.942 51.2172 103.766 50.7787 103.696C50.3577 103.626 50.2174 103.433 50.3578 103.03C50.8313 101.749 50.8313 100.451 50.3578 99.1709C50.1297 98.5219 50.5682 98.3289 50.9366 98.1009C51.4277 97.8027 51.989 98.7148 52.5327 98.0132C52.9712 97.4519 53.4974 98.0834 53.971 98.1009C54.9708 98.1711 55.3742 98.8201 55.4619 99.8374C55.5671 100.942 55.1111 102.1 55.7951 103.17C55.8302 103.24 55.5496 103.644 55.3917 103.661C54.8129 103.731 54.2165 103.679 53.4097 103.679Z" fill="#C39D70"/>
<path d="M8.8584 103.696C9.96342 102.24 9.71784 100.749 9.41966 99.2937C9.29688 98.6973 9.54244 97.9431 9.91078 98.136C10.7878 98.5921 11.542 97.9957 12.3489 98.0308C13.5065 98.0659 13.9099 98.329 14.0502 99.4515C14.1204 100.048 14.0502 100.644 14.0678 101.258C14.0678 101.977 13.9099 102.749 14.6115 103.275C14.6817 103.328 14.6466 103.644 14.5589 103.731C14.4712 103.837 14.2432 103.889 14.0853 103.872C13.6994 103.837 13.3135 103.731 12.9277 103.661C12.4892 103.591 12.5067 103.363 12.5593 102.96C12.6997 101.784 12.7873 100.609 12.8224 99.434C12.8224 98.9429 12.2261 98.6272 11.8402 98.9604C11.4543 99.2937 10.9281 99.7322 10.9106 100.153C10.858 101.065 10.3668 102.047 11.0684 102.96C11.4368 103.433 11.086 103.679 10.5949 103.696C10.0687 103.714 9.54245 103.696 8.87593 103.696H8.8584Z" fill="#C39D70"/>
<path d="M94.8571 103.574C94.2256 103.679 93.7872 103.767 93.3311 103.819C93.1206 103.837 92.8926 103.767 92.6821 103.732C92.7347 103.521 92.7172 103.24 92.84 103.1C93.4188 102.469 93.3136 101.732 93.0856 101.048C92.9628 100.645 92.84 100.364 93.0856 99.9429C93.1908 99.75 93.0154 99.2413 92.84 99.1361C92.5418 98.9782 92.0332 98.8905 91.7701 99.0484C91.2614 99.329 90.7703 99.75 90.8404 100.469C90.9281 101.311 90.9807 102.171 91.1211 102.995C91.1912 103.398 91.1912 103.626 90.7352 103.679C90.4019 103.732 90.0862 103.784 89.7529 103.802C89.5249 103.802 89.3145 103.767 89.0864 103.749C89.1215 103.539 89.0864 103.293 89.1917 103.118C89.788 101.978 89.8231 100.153 89.1391 99.0133C88.8409 98.5222 89.0864 98.5047 89.4197 98.3994C89.7179 98.2942 90.0862 98.0135 90.3142 98.1012C91.3491 98.4696 92.3839 97.7154 93.3486 98.1363C93.6819 98.2766 93.9625 98.8204 94.0327 99.2238C94.1379 99.8728 94.1029 100.557 94.0502 101.223C93.9801 102.1 94.0678 102.907 94.8746 103.574H94.8571Z" fill="#C39D70"/>
<path d="M29.7666 98.0483C30.3279 98.0483 30.7138 98.0483 31.0996 98.0483C31.7135 98.0483 32.1169 97.9255 31.9766 98.9955C31.8538 99.89 32.5905 100.925 33.0641 102.188C33.4851 100.977 33.8534 100.083 34.1341 99.1533C34.4498 98.1185 34.4147 98.1009 35.6249 98.1886C34.9409 99.7321 34.2393 101.276 33.5903 102.854C33.1869 103.819 32.9589 104.854 32.5028 105.783C32.0643 106.713 30.7138 106.836 29.9771 106.099C29.8543 105.976 29.7666 105.713 29.8192 105.573C29.8718 105.433 30.0998 105.31 30.2752 105.292C31.696 105.222 32.152 104.924 32.4677 103.836C32.5379 103.591 32.573 103.223 32.4502 103.082C31.6609 102.205 31.6083 101.03 31.1347 100.048C30.819 99.3989 30.3454 98.8376 29.8017 98.0308L29.7666 98.0483Z" fill="#C39D70"/>
<path d="M27.257 98.0314C28.7303 98.0314 29.2741 98.5927 29.3267 99.9608C29.3442 100.768 29.3091 101.557 29.3442 102.364C29.3793 102.908 28.9408 103.399 28.3795 103.434C28.0814 103.451 27.7306 103.592 27.5025 103.785C26.7308 104.416 26.0993 103.732 25.5205 103.521C24.8189 103.258 24.7838 102.083 25.2925 101.469C25.9064 100.768 26.6431 100.224 27.5902 100.013C27.8007 99.9783 27.9235 99.5749 28.0813 99.3469C27.8533 99.189 27.6253 98.9435 27.3797 98.8733C26.7658 98.6979 26.4326 99.189 26.0116 99.5048C25.8888 99.5925 25.6608 99.5398 25.4854 99.5574C25.4854 99.3294 25.3977 99.0312 25.503 98.8733C25.9415 98.2243 26.5554 97.856 27.257 98.0314ZM28.1164 101.013C27.6253 101.136 27.2043 101.136 26.9062 101.329C26.608 101.504 26.2046 101.855 26.2046 102.136C26.2046 102.644 26.6606 102.872 27.1868 102.89C27.8358 102.925 28.2041 102.732 28.134 101.995C28.0989 101.68 28.134 101.364 28.134 101.013H28.1164Z" fill="#C39D70"/>
<path d="M86.034 98.0313C87.56 98.0489 87.9985 98.3646 88.3668 99.5047C88.665 100.417 88.3668 100.838 87.3846 100.873C86.6654 100.89 85.9463 100.803 85.2622 101.224C84.929 101.417 84.964 101.522 85.0868 101.802C85.613 102.943 86.2094 103.188 87.2618 102.627C87.4372 102.539 87.5424 102.294 87.7178 102.258C87.9283 102.223 88.3142 102.258 88.3493 102.364C88.437 102.574 88.4019 103.03 88.2791 103.083C87.56 103.434 86.9812 104.205 85.9989 103.89C84.9641 103.556 84.1221 103.223 83.9117 101.873C83.7713 100.925 83.6836 100.171 84.1397 99.2767C84.6308 98.312 85.2096 97.7682 86.034 98.0489V98.0313ZM85.8235 100.048C86.0866 100.048 86.3497 100.084 86.6128 100.048C86.7882 100.031 87.1039 99.8906 87.1039 99.8379C87.0689 99.5924 87.0162 99.2942 86.8408 99.1539C86.1392 98.6102 85.5253 98.7505 85.1044 99.5047C84.9816 99.7327 84.7887 99.9607 85.2272 100.048C85.4201 100.084 85.6306 100.048 85.8235 100.048Z" fill="#C39D70"/>
<path d="M37.9929 101.17C37.8175 101.083 37.6421 100.942 37.4843 100.942C37.3264 100.942 37.0107 101.135 37.0282 101.17C37.1861 101.714 37.2913 102.328 37.6421 102.767C37.8351 103.012 38.3437 103.38 38.8348 102.907C39.1681 102.591 39.5891 102.381 39.9925 102.17C40.0451 102.135 40.2205 102.293 40.2907 102.398C40.3784 102.486 40.4836 102.644 40.4661 102.714C40.01 103.801 38.7822 104.24 37.6772 103.836C36.0284 103.24 35.1164 101.013 36.1688 99.1884C36.73 98.1886 37.4317 97.8904 38.677 98.0307C39.6592 98.1535 40.1328 98.8902 40.5538 99.6444C40.8344 100.171 40.5011 100.697 39.8171 100.872C39.2383 101.03 38.6244 101.065 38.028 101.153L37.9929 101.17ZM37.0282 100.065C37.6421 100.065 38.028 100.083 38.4139 100.065C38.7647 100.048 39.3435 100.206 39.2558 99.5918C39.2207 99.3111 38.7647 98.9954 38.4314 98.9077C37.5895 98.6622 37.2738 99.2585 37.0107 100.083L37.0282 100.065Z" fill="#C39D70"/>
<path d="M61.4785 100.363C61.5136 98.9777 62.5485 97.9429 64.1621 98.0306C65.2145 98.0832 66.2845 99.1707 66.2669 100.258C66.2669 100.486 65.9337 100.802 65.6881 100.907C65.004 101.17 64.32 101.293 63.5658 100.925C62.9694 100.644 62.6011 101.083 62.6888 101.784C62.8291 102.784 63.7938 103.328 64.6883 102.837C65.0391 102.644 65.3198 102.345 65.6706 102.17C65.7933 102.1 66.0915 102.152 66.1792 102.258C66.2669 102.363 66.2319 102.644 66.1442 102.784C65.618 103.538 64.2323 104.17 63.6184 103.942C62.4783 103.521 61.7592 102.714 61.5136 101.521C61.461 101.258 61.5136 100.995 61.5136 100.363H61.4785ZM63.4079 100.048C64.0043 100.048 64.2674 100.083 64.5305 100.048C64.7059 100.013 65.004 99.8723 64.9865 99.8197C64.9514 99.5916 64.8813 99.2759 64.7234 99.1531C64.092 98.6445 63.3202 98.7497 62.8642 99.3812C62.7765 99.5039 62.8642 99.9249 62.987 99.9951C63.1799 100.118 63.4956 100.065 63.4255 100.048H63.4079Z" fill="#C39D70"/>
<path d="M68.9507 98.0479C70.0733 98.0479 70.4943 98.3285 70.6521 99.2055C70.6697 99.3107 70.5995 99.4686 70.5118 99.5387C70.4241 99.6089 70.2312 99.644 70.1435 99.5914C69.6874 99.3633 69.2665 99.0301 68.7754 98.8722C68.5649 98.8021 68.2316 99.0652 67.951 99.188C68.0738 99.416 68.1264 99.7141 68.3193 99.8369C68.7578 100.118 69.3366 100.223 69.705 100.574C70.1259 100.942 70.5644 101.451 70.6697 101.977C70.9328 103.292 69.4068 104.467 68.0913 103.976C67.53 103.766 66.7407 103.608 66.6881 102.766C66.6881 102.591 66.7232 102.345 66.8459 102.24C66.9336 102.152 67.2844 102.187 67.3371 102.275C67.5475 102.626 67.7229 102.941 68.2316 102.906C68.7578 102.871 69.4419 103.047 69.6524 102.468C69.8628 101.872 69.1963 101.626 68.7929 101.345C68.3544 101.047 67.8282 100.907 67.4072 100.609C66.9863 100.311 66.4951 99.9071 66.7056 99.2932C66.9336 98.6442 67.3721 98.1355 68.1264 98.0829C68.3895 98.0654 68.6526 98.0829 68.9332 98.0829L68.9507 98.0479Z" fill="#C39D70"/>
<path d="M58.5294 104.345C57.8103 102.696 57.2315 101.399 56.6702 100.083C56.6176 99.9602 56.6702 99.8024 56.6176 99.6971C56.3896 99.2411 56.144 98.8026 55.8984 98.3466C56.5299 98.2589 57.1438 98.1536 57.7752 98.0834C57.8805 98.0834 58.0208 98.1712 58.1611 98.2413C57.9682 98.5044 57.5472 98.8552 57.6174 99.0306C57.9682 99.9076 57.9331 101.013 58.8452 101.609C59.1083 100.978 59.3889 100.381 59.5994 99.7673C59.6871 99.4866 59.7748 99.1183 59.652 98.8903C59.3012 98.1711 59.7046 98.0835 60.2484 98.0659C60.5816 98.0659 60.8973 98.0659 61.2832 98.0659C60.3887 100.118 59.5292 102.1 58.547 104.363L58.5294 104.345Z" fill="#C39D70"/>
<path d="M49.9535 95.6284C49.094 96.4352 48.9537 97.207 49.0063 98.084C49.059 99.2767 49.0063 100.487 49.0239 101.697C49.0239 102.083 49.1116 102.469 49.2168 102.855C49.3045 103.171 49.9886 103.276 49.515 103.802C49.094 104.258 48.8134 103.644 48.445 103.697C48.1293 103.749 47.7785 103.732 47.4453 103.679C47.0068 103.609 46.8665 103.223 47.2348 103.013C47.6382 102.767 47.8136 102.539 47.7961 102.083C47.7961 100.469 47.7961 98.8733 47.7961 97.2596C47.7961 97.0141 47.7084 96.751 47.5856 96.5229C47.112 95.6635 47.0945 95.6635 47.8662 95.6284C48.4626 95.6109 49.059 95.6284 49.971 95.6284H49.9535Z" fill="#C39D70"/>
<path d="M42.991 99.1887C43.2015 100.346 42.6227 101.767 43.3067 103.1C43.3593 103.205 43.1138 103.626 42.9735 103.644C42.4473 103.714 41.9035 103.732 41.3949 103.644C40.9213 103.574 40.9037 103.1 41.237 102.96C41.8509 102.714 41.7632 102.276 41.7807 101.82C41.7807 100.364 41.7807 98.8905 41.7807 97.4347C41.7807 97.1716 41.7807 96.9085 41.6755 96.6629C41.5527 96.3472 40.7459 96.3823 41.1142 95.8386C41.2896 95.5755 41.8334 95.593 42.1666 95.4176C42.8507 95.0493 42.9734 95.4176 42.991 95.9789C42.991 96.9787 42.991 97.9784 42.991 99.1712V99.1887Z" fill="#C39D70"/>
<path d="M98.4349 103.118C97.8385 103.591 97.4352 104.153 96.5406 103.732C95.9092 103.433 95.611 103.065 95.6285 102.381C95.6461 101.522 95.6285 100.662 95.6285 99.7851C95.6285 99.3992 95.6811 99.0133 95.1725 98.8028C94.7691 98.645 94.7866 98.3468 95.1374 98.0662C95.4356 97.8206 95.7513 97.5926 95.9969 97.312C96.1723 97.119 96.2424 96.8384 96.3652 96.6104C96.5231 96.8033 96.8037 97.0138 96.8212 97.2242C96.8563 97.8031 97.0668 98.0662 97.6456 98.0837C97.7684 98.0837 97.9789 98.3117 97.9789 98.452C97.9789 98.5748 97.786 98.8204 97.6632 98.8204C97.1019 98.8555 96.8212 99.0835 96.8563 99.6798C96.8914 100.136 96.8563 100.609 96.8563 101.083C96.8563 102.171 97.3825 102.855 98.4349 103.135V103.118Z" fill="#C39D70"/>
<path d="M16.5752 89.8222C16.1894 90.8395 15.8912 91.8393 15.4527 92.7689C15.137 93.4179 14.4178 93.3477 13.8565 93.2074C13.4882 93.1197 13.0672 92.7689 12.8743 92.4181C12.6989 92.1024 12.7866 91.6814 13.418 91.6814C14.6985 91.6639 15.365 90.8044 15.0668 89.6643C14.9791 89.3486 14.8037 89.0153 14.8563 88.7347C14.9265 88.3839 15.1896 88.0682 15.3825 87.7524C15.6105 87.9629 15.9087 88.1208 16.0315 88.3663C16.2595 88.8224 16.3998 89.3135 16.5752 89.8222Z" fill="#C39D70"/>
<path d="M67.8967 91.4534C67.8967 89.9976 67.9318 88.9277 67.8967 87.8753C67.8616 87.2965 67.6862 86.7352 67.5809 86.1563C67.4582 85.56 67.4055 84.9286 67.9668 84.5251C68.3176 84.2796 68.2475 83.4026 68.8438 83.7008C69.1771 83.8762 69.3525 84.5953 69.3525 85.0689C69.3525 86.1739 69.142 87.2965 69.142 88.4015C69.142 89.4363 68.9491 90.3484 67.8967 91.4534Z" fill="#C39D70"/>
<path d="M70.738 90.8215C70.738 90.8215 70.1591 90.7163 69.9662 90.4006C69.6154 89.8744 70.0364 89.278 70.7204 89.2078C70.9134 89.1903 71.1238 89.2078 71.3168 89.2078C71.8605 89.1728 72.0359 88.9447 71.7202 88.4361C71.5097 88.1028 71.194 87.8046 71.1414 87.4363C71.1063 87.1907 71.3519 86.8399 71.5623 86.6119C71.615 86.5593 72.0008 86.7172 72.1762 86.8575C72.8077 87.3837 73.2286 87.9625 73.1585 88.9097C73.0357 90.5233 72.7551 90.8566 70.7204 90.8215H70.738Z" fill="#C39D70"/>
<path d="M8.20916 103.503C8.29686 103.416 8.20914 103.609 8.05128 103.644C7.68294 103.749 7.27954 103.784 6.89366 103.819C6.68318 103.819 6.45514 103.749 6.24466 103.714C6.29728 103.503 6.29728 103.275 6.40252 103.082C6.91118 102.118 7.06904 99.9778 6.4376 99.1534C5.89387 98.4694 6.40254 98.4694 6.75334 98.2764C6.87612 98.2063 6.96381 98.1186 7.10413 98.0835C7.63033 97.9256 7.98112 98.1712 7.99866 98.75C8.03374 99.4867 7.99866 100.206 7.99866 100.943C8.03374 101.714 8.1039 102.486 8.1916 103.503H8.20916Z" fill="#C39D70"/>
<path d="M29.0116 84.4898C28.5731 85.2966 28.6783 85.6649 29.4851 85.7176C29.5553 85.7176 29.7132 86.3139 29.6255 86.5595C29.5553 86.77 29.1694 86.9804 28.9414 86.9804C28.4327 86.9629 27.9241 86.8226 27.433 86.6647C26.9769 86.5244 26.8892 85.9807 27.3277 85.8228C28.0469 85.5597 27.9416 85.2264 27.7311 84.7002C27.6785 84.5424 28.0293 84.0513 28.1696 84.0513C28.4503 84.0688 28.7309 84.3319 28.994 84.4898H29.0116Z" fill="#C39D70"/>
<path d="M43.7793 93.1367C43.7793 92.0667 43.9898 91.751 45.0071 91.4177C45.1474 91.3651 45.3579 91.4528 45.4807 91.5405C45.7789 91.751 45.6911 91.979 45.4456 92.1544C45.2877 92.2597 45.0948 92.3298 44.9369 92.4526C44.516 92.8209 44.9369 92.7332 45.1299 92.8209C45.9192 93.1893 45.9192 93.1893 45.2526 93.6804C45.0422 93.8383 44.8492 94.0312 44.6387 94.1715C44.095 94.5399 43.8319 94.4171 43.7968 93.7506C43.7968 93.5576 43.7968 93.3471 43.7968 93.1542L43.7793 93.1367Z" fill="#C39D70"/>
<path d="M65.686 92.9614C65.458 93.0491 65.1949 93.242 65.1072 93.1719C64.809 92.9789 64.4758 92.7334 64.3705 92.4176C64.3179 92.2598 64.6687 91.7862 64.8967 91.7336C65.3879 91.6108 65.9491 91.5757 66.4227 91.7336C66.6858 91.8037 66.8437 92.2949 67.0542 92.6106C66.756 92.8035 66.4578 93.0491 66.1245 93.1894C66.0193 93.242 65.8088 93.0491 65.686 92.9789V92.9614Z" fill="#C39D70"/>
<path d="M32.3963 85.5781C32.5366 85.5781 32.6594 85.5781 32.7997 85.5781C33.3434 85.5781 34.0275 85.6307 33.9749 86.2622C33.9222 86.8585 33.2031 86.8585 32.6594 86.8059C32.3963 86.7884 32.0806 86.8059 31.9052 86.6831C31.6771 86.5077 31.5543 86.192 31.3965 85.9289C31.607 85.8061 31.7999 85.6834 32.0104 85.5957C32.1156 85.543 32.2735 85.5957 32.3963 85.5957V85.5781Z" fill="#C39D70"/>
<path d="M84.2955 93.4702C83.9798 92.9089 83.7167 92.5581 83.629 92.1547C83.5939 92.0319 84.0149 91.646 84.2429 91.6285C84.7516 91.5934 85.1901 91.9267 85.1199 92.4353C85.0848 92.7335 84.6814 92.9966 84.2955 93.4527V93.4702Z" fill="#C39D70"/>
<path d="M79.5449 87.2619C79.3169 87.4197 78.9836 87.8056 78.738 87.7705C78.3697 87.7179 78.054 87.332 77.7207 87.104C77.8961 86.876 78.0364 86.5427 78.282 86.4375C78.7556 86.2445 79.4572 86.6655 79.5624 87.2619H79.5449Z" fill="#C39D70"/>
<path d="M7.0695 97.9612C6.92918 97.2947 6.8064 96.9615 6.82394 96.6107C6.82394 96.4353 7.08705 96.2599 7.24491 96.0845C7.49047 96.3476 7.91143 96.6107 7.92897 96.8738C7.92897 97.1544 7.50802 97.4175 7.08706 97.9437L7.0695 97.9612Z" fill="#C39D70"/>
</svg>
