<svg width="246" height="69" viewBox="0 0 246 69" fill="none" xmlns="http://www.w3.org/2000/svg">
<path d="M30.7973 0L30.7798 19.332C30.7598 19.3995 30.6473 19.5395 30.6073 19.5395H26.8199L26.6299 19.3495V3.84491C26.6299 3.12743 27.4149 1.68995 27.9323 1.17496C28.4948 0.614973 29.3149 0.302493 30.0373 0H30.7948H30.7973Z" fill="#C39D70"/>
<path d="M0 58.6159C1.59746 58.7309 4.26741 58.0734 5.07489 59.9134C5.64988 61.2234 5.07736 62.5033 3.91989 63.2283L5.55486 66.3032C5.16487 66.2557 4.52492 66.4307 4.21993 66.1882C3.84244 65.8882 3.09994 63.9458 2.76245 63.4233L1.13748 63.4058V66.1157C1.13748 66.3807 0.227497 66.3007 0.00250238 66.3057V58.6159H0ZM1.13498 62.2708H3.34495C3.44495 62.2708 3.82243 61.9433 3.89743 61.8158C4.18992 61.3159 4.18244 60.4984 3.78995 60.0609C3.68245 59.9434 3.06745 59.6234 2.96496 59.6234H1.13498V62.2708Z" fill="#C39D70"/>
<path d="M245.366 3.78223V66.4307H184.655V49.6661C189.938 53.466 195.942 56.461 202.425 57.5709C211.187 59.0709 221.824 57.0935 229.124 51.9136C244.191 41.2213 243.051 20.0143 240.316 3.78473H245.366V3.78223Z" fill="#C39D70"/>
<path d="M79.0113 15.7569C77.9513 13.5445 77.7988 10.0045 79.3913 8.00709C82.5137 4.08969 88.2685 4.21217 92.6334 5.68214C92.7384 6.66961 91.846 7.8796 90.9435 8.2021C89.8835 8.58209 89.401 8.24209 88.4136 8.19459C86.7161 8.11209 84.7636 8.12707 83.3611 9.20454C81.4387 10.6795 81.6512 13.802 83.4911 15.2544C83.6011 15.3419 84.2011 15.7594 84.2461 15.7594H100.718V8.63708C100.718 8.51459 101.078 7.63461 101.173 7.45211C101.856 6.11465 103.278 5.28964 104.758 5.17214V16.2019C104.758 16.3994 105.183 17.4318 105.333 17.6443C106.468 19.2643 109.451 19.5693 110.945 18.3468C113.353 16.3794 111.476 10.782 112.523 7.9471C113.033 6.56713 114.468 5.33716 115.963 5.19466C116.115 5.17966 116.37 5.21964 116.37 5.35963V16.4519C116.37 16.7694 116.938 17.7769 117.185 18.0318C118.385 19.2743 121.35 19.4768 122.62 18.2793C124.56 16.4519 123.578 11.422 123.818 8.88708C124.008 6.85713 125.87 5.29466 127.858 5.16967V15.5694C127.858 16.2044 127.278 18.1093 126.998 18.7443C125.445 22.2617 121.58 23.4217 118.01 22.5067C116.773 22.1893 115.018 21.2268 114.663 19.9218C114.555 19.5218 114.753 19.3293 114.228 19.4143C114.215 20.6418 112.95 21.6292 111.915 22.0842C109.878 22.9817 107.578 23.0042 105.486 22.2842C104.181 21.8343 102.878 20.9968 102.616 19.5393H35.0248C34.7373 19.5393 34.9673 18.7193 35.0248 18.5293C35.5573 16.7619 37.1623 15.8719 38.9322 15.7494C42.3421 15.5169 46.1795 16.0694 49.5419 15.7569C50.7719 15.6419 51.7694 14.8619 52.1219 13.6695C52.7019 11.7095 52.2469 9.74454 50.2845 8.83956C50.112 8.75956 49.2695 8.44458 49.1645 8.44458H34.8398C35.0748 6.72712 36.2198 5.47714 37.9447 5.17965C42.6396 5.69963 50.502 3.75718 54.2819 6.9921C56.9818 9.30455 56.6918 12.7495 55.4144 15.7544H65.3866V8.88457C65.3866 8.74708 65.8091 7.58958 65.9116 7.39209C66.4116 6.43461 67.5065 5.62715 68.5415 5.35466C68.7415 5.30216 69.5515 5.01467 69.5515 5.35466V15.7544H79.0188L79.0113 15.7569Z" fill="#C39D70"/>
<path d="M225.047 3.78223C225.377 6.16467 225.857 8.53212 226.169 10.9171C227.507 21.1018 227.532 32.2665 221.309 40.9563C213.93 51.2611 199.58 52.466 188.818 46.9587C187.368 46.2162 185.9 45.3537 184.655 44.3088V42.4813C186.368 43.5363 188.183 44.4313 190.113 45.0362C199.97 48.1237 210.295 44.1287 215.682 35.4615C220.194 28.1991 220.262 20.4443 219.229 12.177C218.877 9.34958 218.262 6.54716 217.599 3.78223H225.047Z" fill="#C39D70"/>
<path d="M184.655 35.7989V3.78223H197.215C197.38 3.90722 197.43 4.07223 197.497 4.25722C197.932 5.43969 198.317 7.04716 198.632 8.29213C200.272 14.772 201.405 23.2767 197.932 29.3316C195.227 34.0465 189.888 35.8764 184.658 35.8014L184.655 35.7989Z" fill="#C39D70"/>
<path d="M157.899 5.67244V14.0547L157.394 15.8822H169.196C169.756 15.8822 170.876 15.0822 171.209 14.6147C172.621 12.6273 171.581 10.1448 172.319 8.0324C172.884 6.40993 174.294 4.91498 176.076 4.78748V12.4148C176.076 12.8648 175.631 14.4472 175.449 14.9397C174.561 17.3347 172.631 19.2821 169.961 19.4171L155.567 19.4121C154.909 19.8421 154.424 20.5396 153.797 21.0471C148.944 24.977 140.437 23.537 136.642 18.7696C136.142 18.1396 135.055 16.0622 135.055 15.3122V3.085C135.055 3.01751 135.242 2.90001 135.36 2.89751C135.622 2.89251 136.712 3.27752 136.99 3.42002C137.997 3.94501 138.977 5.34744 139.097 6.48492C139.352 8.93486 138.832 11.8623 139.09 14.3072C139.207 15.4072 140.812 17.2272 141.702 17.8747C145.584 20.6946 152.502 19.5371 153.674 14.3697C154.304 11.5923 152.837 8.18989 155.764 6.37243C156.377 5.99244 157.174 5.65996 157.899 5.66996V5.67244Z" fill="#C39D70"/>
<path d="M112.966 31.1367H125.021C127.59 31.1367 130.503 33.5916 131.543 35.8416C133.103 39.2165 133.06 45.4864 130.635 48.4688C129.333 50.0713 126.745 51.5587 124.641 51.5587H113.156L112.966 51.3687V31.1367ZM117.383 47.9013H124.263C124.438 47.9013 125.393 47.3663 125.591 47.2113C128.115 45.2339 128.053 39.009 126.495 36.4691C126.07 35.7741 124.846 34.6666 124.008 34.6666H117.381V47.9013H117.383Z" fill="#C39D70"/>
<path d="M30.4168 31.1367L38.4942 45.6314V34.7291C38.4942 34.5116 38.9517 33.4392 39.0992 33.1917C39.8167 31.9967 41.2516 31.1467 42.6591 31.1367V51.3687L42.4691 51.5587H37.1667L28.3944 36.3066V47.4613C28.3944 47.8163 28.0069 48.9288 27.8144 49.2763C27.4819 49.8763 26.497 50.8312 25.872 51.1187C25.3395 51.3637 24.7745 51.3912 24.2295 51.5587V31.1392H30.4144L30.4168 31.1367Z" fill="#C39D70"/>
<path d="M163.831 31.1368L171.909 45.6314V34.9792C171.909 34.8917 172.134 34.1592 172.189 33.9992C172.766 32.3842 174.326 31.1493 176.074 31.1343V51.3663L175.884 51.5563H170.581L161.809 36.1791V47.7139C161.809 47.7714 161.609 48.4664 161.561 48.6014C161.027 50.1963 159.362 51.5238 157.642 51.4313V31.1368H163.826H163.831Z" fill="#C39D70"/>
<path d="M68.6613 31.1367C68.6438 33.1267 66.9888 34.6141 65.0639 34.7941C62.3814 35.0441 59.334 34.6016 56.6116 34.7991C54.2341 35.5816 54.5691 39.199 57.109 39.459C60.699 39.8265 66.8913 38.404 69.1413 42.1914C70.6562 44.7439 70.1737 48.8638 67.5663 50.5287C66.8713 50.9737 65.3639 51.5587 64.5589 51.5587H50.4217L50.2467 51.3537C50.2367 49.7238 51.8392 48.0688 53.4492 47.9013C56.4166 47.5938 59.8865 48.1438 62.909 47.8938C65.6839 47.2088 65.4163 43.4064 62.5414 43.1114C59.184 42.7639 55.6391 43.9164 52.5892 41.8314C49.1543 39.484 49.4417 33.2991 53.3041 31.6192C53.5741 31.5017 54.6216 31.1392 54.8416 31.1392H68.6613V31.1367Z" fill="#C39D70"/>
<path d="M208.385 3.78229C208.747 5.82224 209.205 7.85719 209.505 9.91215C210.847 19.0719 210.995 31.3716 203.017 37.689C197.79 41.8289 190.81 42.4914 184.655 40.0864V37.8165C185.545 38.0715 186.46 38.319 187.38 38.434C194.943 39.3914 201.23 35.084 204.062 28.2692C206.645 22.0568 206.207 14.3945 204.787 7.93719C204.48 6.53972 204.052 5.16725 203.712 3.77979H208.382L208.385 3.78229Z" fill="#C39D70"/>
<path d="M154.997 51.556H150.265L149.98 51.211L148.32 46.8386L139.612 46.7786L137.927 51.2085L137.643 51.5535H132.91C133.175 50.576 133.6 49.606 133.985 48.656C136.355 42.8187 138.807 36.9963 141.237 31.1915L146.36 31.1265L146.735 31.2565L154.997 51.5535V51.556ZM146.792 43.1112L143.952 35.7988L141.112 43.1112H146.792Z" fill="#C39D70"/>
<path d="M70.9959 51.5564C70.9584 51.5464 70.7559 51.3739 70.8609 51.2989L79.0733 31.2619C79.1658 31.1219 79.3083 31.1444 79.4483 31.1319C81.1057 30.9969 82.9407 31.2519 84.6181 31.1319L92.8954 51.5589H88.1631C87.3256 50.0915 86.8756 48.404 86.2181 46.8465L77.5083 46.7815L75.7308 51.5614H70.9984L70.9959 51.5564ZM84.6906 43.1116L81.7882 35.8018L79.0108 43.1116H84.6906Z" fill="#C39D70"/>
<path d="M8.39275 31.1367C13.5726 31.6117 16.1751 36.3566 11.6552 39.814L10.4777 40.464C12.6477 40.7365 14.8976 42.0689 15.3726 44.3364C16.07 47.6788 13.6426 50.7787 10.3852 51.3987C10.2177 51.4312 9.47773 51.5562 9.40523 51.5562H0.12793V31.1367H8.39525H8.39275ZM4.29037 39.329H8.26525C8.32024 39.329 9.1852 39.0365 9.3027 38.9765C10.7727 38.2365 11.1652 35.8341 9.63771 34.9341C9.06022 34.5941 8.51025 34.6066 7.89526 34.5316C7.77776 34.5166 7.66776 34.4116 7.63526 34.4116H4.29037V39.3265V39.329ZM4.29037 48.1538H8.89774C9.06273 48.1538 10.0727 47.7538 10.2652 47.6288C10.6877 47.3563 11.2402 46.6738 11.3302 46.1713C11.5702 44.8264 11.2427 43.6389 9.93018 43.0889C9.72769 43.0039 8.92024 42.7339 8.77024 42.7339H4.29037V48.1538Z" fill="#C39D70"/>
<path d="M97.3131 39.5816H109.303V43.1115H97.3131C97.3706 44.9389 97.9781 46.6264 99.6681 47.5014C99.8656 47.6039 100.901 48.0264 101.036 48.0264H109.303C109.018 50.0238 107.623 51.4138 105.585 51.5613C101.148 51.8813 97.4907 51.5913 94.5382 47.9614C91.5558 44.2964 91.6908 36.9566 95.0807 33.5692C95.9457 32.7067 98.5756 31.1343 99.7731 31.1343H109.113C109.405 31.1343 109.09 31.9967 109.023 32.1767C107.688 35.7191 103.39 34.1717 100.541 34.5467C98.3231 34.8367 97.4931 37.7041 97.3131 39.5791V39.5816Z" fill="#C39D70"/>
<path d="M22.973 5.16937V13.2991C22.973 15.6291 20.7905 18.884 19.063 20.3615C14.6081 24.1664 7.14083 23.3389 2.90093 19.6065C1.95096 18.769 0.125977 16.3316 0.125977 15.0666V2.58691L0.413506 2.41943C0.845996 2.57693 1.35096 2.64941 1.76845 2.83941C5.64836 4.61186 3.67087 10.6842 4.17086 14.0541C4.25336 14.6041 5.10334 15.8241 5.48834 16.2691C8.86325 20.1715 16.4356 19.829 18.4505 14.7141C19.4405 12.1992 17.9455 8.95176 19.8755 6.68432C20.618 5.81184 21.8305 5.25184 22.9705 5.17434L22.973 5.16937Z" fill="#C39D70"/>
<path d="M21.3299 31.1367H17.165V51.5562H21.3299V31.1367Z" fill="#C39D70"/>
<path d="M110.187 58.7408V64.2232C110.187 64.6107 110.722 65.2957 111.135 65.2957H115.867C114.3 63.2607 116.362 60.2508 118.812 61.5358C120.325 62.3283 119.93 63.9407 119.527 65.2957H122.304C121.562 64.1482 121.427 62.5307 122.619 61.6408C122.769 61.5283 123.514 61.1358 123.629 61.1358H125.774C125.809 61.1358 126.014 61.3383 125.949 61.4333C125.569 62.4033 124.709 62.1658 123.937 62.3258C122.414 62.6408 122.667 64.6132 123.979 65.0707C124.684 65.3182 127.257 65.4932 127.799 65.0482C127.867 64.9932 128.109 64.6382 128.109 64.6007V58.7383H129.372V64.2207C129.372 64.3057 129.117 65.1682 129.049 65.2832C128.657 65.9507 127.912 66.2482 127.169 66.3057C122.009 66.7032 116.347 65.9982 111.132 66.3007C110.34 66.1782 109.682 65.9807 109.317 65.2132C109.267 65.1107 109.05 64.5132 109.05 64.4707V58.7358H110.185L110.187 58.7408ZM118.382 65.2857C118.425 64.5682 118.907 63.7132 118.712 63.0232C118.375 61.8383 116.772 62.0758 116.525 63.2432C116.225 64.6582 116.975 65.4432 118.382 65.2857Z" fill="#C39D70"/>
<path d="M172.413 58.7407V64.6031C172.413 64.6256 172.611 64.9381 172.661 64.9856C173.118 65.4356 174.201 65.4331 174.631 64.9256C174.708 64.8331 174.938 64.4231 174.938 64.3506V58.7407H176.073V64.6031C176.073 64.7356 175.646 65.5356 175.511 65.6806C174.658 66.588 172.241 66.6605 171.718 65.2981C171.566 65.6856 170.691 66.3055 170.329 66.3055H157.454C157.164 66.0755 157.164 65.5281 157.454 65.2981H160.546C160.566 64.4106 160.729 62.5531 159.574 62.2981C158.621 62.0881 157.511 62.8281 157.769 61.2657H159.851C160.029 61.2657 160.826 61.7231 160.991 61.8906C161.211 62.1156 161.681 62.9381 161.681 63.2181V65.2981H167.614C167.056 64.5281 166.704 62.4331 165.651 62.2781C164.674 62.1331 163.569 62.7931 163.826 61.2632H166.161C166.204 61.2632 166.759 61.5207 166.851 61.5832C167.929 62.3056 168.161 64.6431 168.881 65.1031C169.349 65.4006 170.443 65.3856 170.858 65.0106C170.881 64.9906 171.146 64.6306 171.146 64.6056V58.7432H172.408L172.413 58.7407Z" fill="#C39D70"/>
<path d="M145.907 58.7407V64.6031C145.907 64.9456 146.544 65.2456 146.862 65.2881C147.482 65.3706 149.931 65.3931 150.486 65.2731C151.571 65.0356 151.374 62.6506 151.829 61.8232C153.441 61.6982 156.146 61.3907 156.384 63.5906C156.671 66.2505 153.484 67.1905 151.899 65.2981C151.609 65.7555 151.171 66.1755 150.609 66.2755C149.829 66.4155 147.437 66.3856 146.609 66.2931C145.929 66.2156 145.212 65.843 144.922 65.2056C144.874 65.1031 144.642 64.3956 144.642 64.3506V58.7407H145.904H145.907ZM152.676 62.9156C152.369 63.0156 152.431 63.9081 152.496 64.1981C152.749 65.3331 155.084 65.4931 155.349 64.3231C155.541 63.4731 154.991 62.9756 154.176 62.8956C153.894 62.8681 152.886 62.8456 152.676 62.9131V62.9156Z" fill="#C39D70"/>
<path d="M99.9649 61.0107V64.4782C99.9649 64.5082 100.227 64.9931 100.247 65.0156C100.752 65.5331 102.992 65.3681 102.992 64.6057V61.5807C103.257 61.2832 103.99 61.2832 104.255 61.5807V64.1007C104.255 64.1432 104.102 64.8231 104.07 64.9256C103.64 66.3156 102.015 66.4231 100.782 66.3081C99.9424 66.2306 99.5724 65.9081 99.0174 65.3281C96.9949 66.8881 93.8075 64.6582 95.1825 62.3532C96.0399 60.9182 97.5574 61.2332 98.9499 61.5157V61.0107H99.9599H99.9649ZM98.9424 62.6582C98.1324 62.5382 96.2275 61.9882 95.9525 63.1182C95.6175 64.4906 97.1424 64.9556 98.1949 64.4782C98.9649 64.1282 99.0074 63.4282 98.9399 62.6607L98.9424 62.6582Z" fill="#C39D70"/>
<path d="M51.6221 64.0358L52.7546 64.0408C52.6346 65.7482 56.142 65.7307 56.157 64.2283C56.1695 63.0358 53.9195 62.9108 53.0695 62.5283C51.6246 61.8758 51.2721 60.2358 52.5046 59.1809C53.737 58.1259 55.8395 58.2434 56.7994 59.5584C56.9919 59.8209 57.4345 60.7158 56.9695 60.8658C55.8145 61.2408 56.1595 60.0509 55.377 59.7184C54.842 59.4934 53.4846 59.4934 53.1546 60.0783C52.2121 61.7458 55.112 61.7908 56.0895 62.2858C56.8895 62.6883 57.3869 63.4158 57.2944 64.3357C57.0069 67.2182 51.5746 67.1207 51.6246 64.0333L51.6221 64.0358Z" fill="#C39D70"/>
<path d="M26.3794 58.6157V59.6232H22.7195V61.8931H26.1269V62.9006H22.7195V65.1706H26.1894C26.4544 65.1706 26.3769 66.083 26.3794 66.3055H21.582V58.6157H26.3794Z" fill="#C39D70"/>
<path d="M11.6703 7.32736C13.062 7.32736 14.1902 6.20025 14.1902 4.80991C14.1902 3.41956 13.062 2.29248 11.6703 2.29248C10.2786 2.29248 9.15039 3.41956 9.15039 4.80991C9.15039 6.20025 10.2786 7.32736 11.6703 7.32736Z" fill="#C39D70"/>
<path d="M64.5868 27.379C65.9771 27.379 67.1042 26.253 67.1042 24.864C67.1042 23.4751 65.9771 22.3491 64.5868 22.3491C63.1964 22.3491 62.0693 23.4751 62.0693 24.864C62.0693 26.253 63.1964 27.379 64.5868 27.379Z" fill="#C39D70"/>
<path d="M164.726 27.3814C166.117 27.3814 167.244 26.2554 167.244 24.8665C167.244 23.4775 166.117 22.3516 164.726 22.3516C163.336 22.3516 162.209 23.4775 162.209 24.8665C162.209 26.2554 163.336 27.3814 164.726 27.3814Z" fill="#C39D70"/>
<path d="M70.888 27.374C72.277 27.374 73.403 26.2491 73.403 24.8615C73.403 23.474 72.277 22.3491 70.888 22.3491C69.499 22.3491 68.373 23.474 68.373 24.8615C68.373 26.2491 69.499 27.374 70.888 27.374Z" fill="#C39D70"/>
<path d="M146.522 8.37241C147.911 8.37241 149.037 7.24866 149.037 5.86246C149.037 4.47626 147.911 3.35254 146.522 3.35254C145.133 3.35254 144.007 4.47626 144.007 5.86246C144.007 7.24866 145.133 8.37241 146.522 8.37241Z" fill="#C39D70"/>
<path d="M58.9435 63.9084C59.0934 64.4958 59.1884 65.0308 59.8009 65.2558C60.5684 65.5408 61.4309 65.3783 61.6684 64.5308L62.7308 64.5383C62.4483 66.5908 59.5009 67.0133 58.3835 65.4133C57.671 64.3933 57.661 62.7609 58.3335 61.7209C59.4785 59.9509 62.1159 60.336 62.6758 62.3884C62.7808 62.7784 62.9908 63.6484 62.6683 63.9084H58.946H58.9435ZM61.5934 62.9009C61.6209 61.1859 59.0409 61.1859 59.0684 62.9009H61.5934Z" fill="#C39D70"/>
<path d="M80.6537 63.9081C80.5287 65.1256 81.8437 65.7856 82.8461 65.1531C83.1111 64.9856 83.2036 64.6156 83.3836 64.5556C83.6411 64.4706 84.0311 64.5731 84.3136 64.5381C84.0286 66.3881 81.7212 66.9506 80.3412 65.7956C78.7112 64.4356 79.3287 60.7882 81.7212 60.6257C82.9361 60.5432 83.7836 61.0582 84.1936 62.2007C84.3661 62.6807 84.6436 63.5307 84.2511 63.9081H80.6537ZM80.6537 62.9007H83.3036C83.1361 61.1657 80.6887 61.1657 80.6537 62.9007Z" fill="#C39D70"/>
<path d="M10.8551 63.9081H7.06772C7.09772 65.503 9.16515 66.023 9.79764 64.5331L10.8527 64.5406C10.6152 66.2105 8.48521 66.878 7.15024 66.033C5.10529 64.7406 5.67777 60.6807 8.3902 60.6257C10.3402 60.5882 11.0427 62.1656 10.8527 63.9106L10.8551 63.9081ZM9.71768 62.9006C9.64769 61.1356 7.34772 61.2256 7.06772 62.9006H9.71768Z" fill="#C39D70"/>
<path d="M45.0597 63.9086C45.0572 65.5211 47.0672 65.9861 47.7947 64.5336L48.7222 64.5386C48.6872 66.2886 46.3397 66.8511 45.0697 65.9811C43.8898 65.1736 43.6723 63.5561 44.1173 62.2712C44.9972 59.7362 48.6197 60.2037 48.8497 62.9612C48.8772 63.2812 48.9272 63.7087 48.6597 63.9086H45.0622H45.0597ZM47.7097 62.9012C47.5947 61.1362 45.1997 61.1962 45.0597 62.9012H47.7097Z" fill="#C39D70"/>
<path d="M16.0294 66.3034H15.0195V65.5459C14.7545 65.6509 14.617 65.966 14.382 66.106C13.0195 66.9109 11.152 65.9309 11.5145 64.2485C11.7995 62.9235 13.827 62.916 14.897 62.8985C15.1745 61.8735 14.0895 61.2886 13.257 61.7011C12.9645 61.8461 12.7345 62.4385 12.5445 62.501C12.3645 62.561 11.902 62.556 11.737 62.461C11.5595 62.3585 11.8045 61.7335 11.8845 61.591C12.537 60.3986 14.822 60.2611 15.6595 61.3211C15.7445 61.4286 16.0344 62.006 16.0344 62.081V66.3034H16.0294ZM14.892 63.7835C14.332 64.006 12.8495 63.686 12.642 64.371C12.222 65.7584 14.5619 65.6935 14.8644 64.5735C14.9344 64.316 14.882 64.0435 14.892 63.781V63.7835Z" fill="#C39D70"/>
<path d="M39.8845 66.3035H38.8745V65.5486C38.687 65.5161 38.747 65.7461 38.617 65.8561C37.4395 66.8536 35.3846 66.3786 35.3321 64.7311C35.2771 62.9886 37.4545 62.8936 38.7495 62.9011C39.022 61.8337 38.0495 61.3287 37.1395 61.7362C36.607 61.9736 36.6121 62.8361 35.5921 62.5236C35.4421 60.5337 38.5495 59.9737 39.562 61.3962C39.622 61.4787 39.8845 61.9236 39.8845 61.9561V66.306V66.3035ZM38.747 63.7836C38.187 64.0061 36.7045 63.6861 36.497 64.3711C36.1695 65.4536 37.527 65.6736 38.287 65.1486C38.8045 64.7911 38.777 64.3611 38.747 63.7811V63.7836Z" fill="#C39D70"/>
<path d="M143.385 61.3882V64.3506C143.385 64.3906 143.18 65.0131 143.137 65.1131C142.79 65.9406 142.035 66.2431 141.18 66.3106C140.187 66.3855 138.255 66.4055 137.292 66.273C135.345 66.0081 134.797 64.3681 135.05 62.5856C135.115 62.1281 135.997 62.1881 136.132 62.3906C136.532 62.9881 135.55 64.9581 137.415 65.2681C138.117 65.3856 140.572 65.3881 141.27 65.2681C141.472 65.2331 141.73 65.1381 141.872 64.9881C141.972 64.8831 142.245 64.1981 142.245 64.1006V61.3907H143.38L143.385 61.3882Z" fill="#C39D70"/>
<path d="M89.2357 62.3958L88.3033 62.3808L88.1608 62.2708C88.0658 61.1383 85.7009 61.4258 86.2658 62.5233C86.6183 63.2058 89.1857 62.8283 89.3557 64.4882C89.5982 66.8682 84.9659 67.1257 84.9434 64.5383L86.0683 64.5482C85.9858 65.8757 88.5858 65.6482 88.2083 64.4932C88.0183 63.9133 85.2459 64.0883 85.0734 62.4458C84.8309 60.1234 89.2632 59.9083 89.2332 62.3958H89.2357Z" fill="#C39D70"/>
<path d="M30.3047 62.3806C30.2672 62.3456 30.2897 61.9931 29.9797 61.7606C28.9997 61.0332 27.8272 62.1781 28.4847 62.6531C29.3947 63.3156 31.4497 62.8881 31.5147 64.6206C31.5972 66.908 27.0398 67.0055 27.1373 64.5356L28.1323 64.5506C28.1873 65.508 29.8497 65.733 30.2797 65.088C30.9597 64.0606 28.9772 63.9981 28.3647 63.7531C26.4948 63.0031 27.1473 60.8082 28.9673 60.6257C30.1972 60.5032 31.0797 61.0131 31.4272 62.2056C31.4097 62.4456 30.3847 62.4481 30.3097 62.3781L30.3047 62.3806Z" fill="#C39D70"/>
<path d="M79.0117 62.6481L77.8892 62.6331C77.7642 61.8256 77.2067 61.5531 76.4192 61.6356C74.4792 61.8406 74.9317 66.1255 77.1767 65.2905C77.9792 64.993 77.5942 64.2055 78.5742 64.278C79.2316 64.328 78.9666 64.7805 78.7391 65.2105C77.6142 67.333 74.3893 66.4905 74.1018 63.9605C73.6943 60.3706 78.0892 59.1682 79.0117 62.6481Z" fill="#C39D70"/>
<path d="M67.6435 60.7657L68.9785 64.9182L70.3634 60.8808C70.5384 60.6358 71.2609 60.8033 71.5659 60.7583L69.531 66.2881H68.421L66.5186 60.7558L67.646 60.7657H67.6435Z" fill="#C39D70"/>
<path d="M32.5641 61.6407H31.8066V60.7583H32.5641C32.6466 60.0833 32.2266 59.3633 33.1316 59.3633C34.0366 59.3633 33.6166 60.0833 33.6991 60.7583H34.7091V61.6407H33.6991V65.1057C33.9316 65.4182 34.3566 65.2707 34.7091 65.2932V66.3031C34.0966 66.2881 33.2016 66.4406 32.8316 65.8456C32.7866 65.7731 32.5641 65.2657 32.5641 65.2307V61.6383V61.6407Z" fill="#C39D70"/>
<path d="M41.1471 61.6407H40.3896V60.7583H41.1471C41.2296 60.0833 40.8097 59.3633 41.7146 59.3633C42.6196 59.3633 42.1996 60.0833 42.2821 60.7583H43.292V61.6407H42.2821V64.9807C42.2821 65.0007 42.4171 65.2756 42.4896 65.3006L43.292 65.2932V66.3031C42.5371 66.3231 41.7546 66.4281 41.3696 65.6382C41.3296 65.5582 41.1446 65.0132 41.1446 64.9807V61.6407H41.1471Z" fill="#C39D70"/>
<path d="M104.383 68.4455V67.688C104.97 67.688 105.778 67.7555 106.22 67.318C106.285 67.253 106.53 66.908 106.53 66.8705V61.3882C106.855 61.4357 107.658 61.2307 107.775 61.5932C107.728 63.0281 107.895 64.5731 107.798 65.9956C107.753 66.6455 107.553 67.7055 107.03 68.128C106.968 68.178 106.498 68.448 106.465 68.448H104.383V68.4455Z" fill="#C39D70"/>
<path d="M131.772 58.7407V66.1155C131.507 66.413 130.775 66.413 130.51 66.1155V58.7407H131.772Z" fill="#C39D70"/>
<path d="M18.1747 58.6157V66.303L17.0947 66.1855V58.7332L18.1747 58.6157Z" fill="#C39D70"/>
<path d="M63.6143 60.7581L64.6192 60.7631L64.6867 61.1356C64.8842 60.9456 65.2068 60.7131 65.4718 60.6581C65.6268 60.6256 66.2467 60.5631 66.2667 60.7031V61.7655C65.7042 61.5255 64.9193 61.7055 64.7768 62.358C64.6168 63.088 64.9267 65.8405 64.6968 66.1854C64.5468 66.4104 63.8893 66.2679 63.6168 66.3029V60.7556L63.6143 60.7581Z" fill="#C39D70"/>
<path d="M73.3303 60.7588V66.1161C73.3303 66.3811 72.4178 66.3036 72.1953 66.3061V60.7588H73.3303Z" fill="#C39D70"/>
<path d="M118.473 60.5007C118.85 60.5007 119.155 60.1951 119.155 59.8182C119.155 59.4413 118.85 59.1357 118.473 59.1357C118.096 59.1357 117.79 59.4413 117.79 59.8182C117.79 60.1951 118.096 60.5007 118.473 60.5007Z" fill="#C39D70"/>
<path d="M139.912 61.9738C140.288 61.9738 140.592 61.6693 140.592 61.2938C140.592 60.9182 140.288 60.6138 139.912 60.6138C139.537 60.6138 139.232 60.9182 139.232 61.2938C139.232 61.6693 139.537 61.9738 139.912 61.9738Z" fill="#C39D70"/>
<path d="M165.029 59.9707C165.403 59.9707 165.707 59.6674 165.707 59.2932C165.707 58.9191 165.403 58.6157 165.029 58.6157C164.655 58.6157 164.352 58.9191 164.352 59.2932C164.352 59.6674 164.655 59.9707 165.029 59.9707Z" fill="#C39D70"/>
<path d="M97.0934 60.6409C97.4648 60.6409 97.7659 60.3398 97.7659 59.9684C97.7659 59.597 97.4648 59.2959 97.0934 59.2959C96.722 59.2959 96.4209 59.597 96.4209 59.9684C96.4209 60.3398 96.722 60.6409 97.0934 60.6409Z" fill="#C39D70"/>
<path d="M138.427 61.9557C138.797 61.9557 139.097 61.6557 139.097 61.2857C139.097 60.9157 138.797 60.6157 138.427 60.6157C138.057 60.6157 137.757 60.9157 137.757 61.2857C137.757 61.6557 138.057 61.9557 138.427 61.9557Z" fill="#C39D70"/>
<path d="M98.5752 60.6412C98.9453 60.6412 99.2452 60.3413 99.2452 59.9713C99.2452 59.6012 98.9453 59.3013 98.5752 59.3013C98.2052 59.3013 97.9053 59.6012 97.9053 59.9713C97.9053 60.3413 98.2052 60.6412 98.5752 60.6412Z" fill="#C39D70"/>
<path d="M116.982 60.5009C117.35 60.5009 117.647 60.2032 117.647 59.8359C117.647 59.4686 117.35 59.1709 116.982 59.1709C116.615 59.1709 116.317 59.4686 116.317 59.8359C116.317 60.2032 116.615 60.5009 116.982 60.5009Z" fill="#C39D70"/>
<path d="M101.903 68.371C102.271 68.371 102.568 68.0732 102.568 67.706C102.568 67.3387 102.271 67.041 101.903 67.041C101.536 67.041 101.238 67.3387 101.238 67.706C101.238 68.0732 101.536 68.371 101.903 68.371Z" fill="#C39D70"/>
<path d="M103.388 68.3657C103.757 68.3657 104.056 68.0669 104.056 67.6983C104.056 67.3296 103.757 67.0308 103.388 67.0308C103.02 67.0308 102.721 67.3296 102.721 67.6983C102.721 68.0669 103.02 68.3657 103.388 68.3657Z" fill="#C39D70"/>
<path d="M72.719 60.0113C73.0822 60.0113 73.3765 59.7169 73.3765 59.3538C73.3765 58.9907 73.0822 58.6963 72.719 58.6963C72.3559 58.6963 72.0615 58.9907 72.0615 59.3538C72.0615 59.7169 72.3559 60.0113 72.719 60.0113Z" fill="#C39D70"/>
</svg>
