<svg width="249" height="32" viewBox="0 0 249 32" fill="none" xmlns="http://www.w3.org/2000/svg">
<path d="M39.1094 31.313L38.833 30.4946L71.1162 0.230277C75.4304 0.514818 80.6876 -0.338807 84.8853 0.159817C85.1834 0.195046 85.4787 0.165233 85.6847 0.444354L92.7223 29.1505L104.828 0.23299L118.269 0.219443L123.174 10.0564L119.396 19.6712L143.896 0.176076H157.029L145.658 28.6058L175.608 0.479585C176.003 0.181494 176.453 0.203178 176.914 0.162529C181.201 -0.233118 186.271 0.373897 190.604 0.308859L191.076 0.921302L198.138 30.435C198.311 30.7222 197.97 31.313 197.778 31.313H190.737C190.591 31.313 190.217 30.7818 190.13 30.5651C189.678 29.4133 189.111 23.5139 188.263 23.2266L168.519 23.1724L167.437 23.4461L159.329 31.313H130.358L129.989 30.6816L138.615 10.1919L116.215 28.0232C115.678 28.1695 115.204 28.0069 114.941 27.5056L107.616 10.1946L98.7546 31.1341L76.9913 31.0718C76.1702 29.9716 75.7935 23.5572 74.8153 23.2293L55.2063 23.3133L46.6918 31.3157H39.1094V31.313ZM172.462 18.5872H187.624L185.049 6.40076L172.462 18.5872ZM74.173 18.5872L71.8723 6.95086L59.824 18.5872H74.1757H74.173Z" fill="#C39D70"/>
<path d="M13.6553 13.1698L14.0238 13.8012L9.18929 25.6245C16.7364 25.2397 26.568 27.3833 30.8957 19.5787C32.8035 16.1371 36.0094 8.83932 31.1884 6.46814C30.9066 6.32994 28.6899 5.58742 28.549 5.58742H10.948L10.5822 4.96143C11.2462 3.99399 11.9941 0.378954 13.1133 0.173001C20.4355 0.465672 28.0422 -0.211801 35.3292 0.162167C45.5103 0.685181 53.0493 4.64707 48.1416 15.9745C39.7815 35.2637 17.6849 30.8384 0.661203 31.3099L0 30.8709L7.42785 13.1698H13.6553Z" fill="#C39D70"/>
<path d="M244.754 10.1922H237.985L239.611 5.31702H229.999L227.625 5.65033C223.018 6.72617 219.292 9.23284 216.921 13.3573C215.181 16.3843 212.829 22.59 216.951 24.5926C218.075 25.14 221.482 25.8961 222.687 25.8961H237.31C237.592 25.8961 237.733 26.4327 237.662 26.7795C237.616 27.0072 236.205 30.3729 236.055 30.5978C235.817 30.9582 235.622 31.2644 235.139 31.3051C226.056 30.7685 216.544 32.2807 207.555 30.7414C194.857 28.5681 198.1 15.322 204.778 8.39276C215.91 -3.1596 233.719 0.921535 248.098 0.216957L248.535 0.609898L244.754 10.1949V10.1922Z" fill="#C39D70"/>
</svg>
