<svg width="193" height="68" viewBox="0 0 193 68" fill="none" xmlns="http://www.w3.org/2000/svg">
<path d="M159.538 31.5704L157.608 34.6998L161.259 32.2036C162.651 31.5366 164.797 30.7706 166.143 31.8435C169.627 34.6201 162.711 41.3451 162.054 44.0806C161.786 45.2019 161.945 45.7577 163.221 45.4943C167.409 44.6292 176.195 31.9571 178.658 28.1318C178.815 27.8877 179.528 26.9332 179.327 26.7544L144.923 27.489C144.046 27.4117 143.413 26.4378 142.884 25.7926C152.729 25.5896 162.615 26.0536 172.459 25.7999C173.03 25.7854 173.559 25.5582 174.129 25.5389C175.352 25.4954 179.774 25.8023 180.431 25.3238C180.907 24.9783 181.922 23.1586 182.473 22.5424C183.551 21.3342 185.31 19.5991 187.05 20.1235L183.43 25.5461H192.48C192.627 25.5461 192.944 26.0439 192.84 26.2687L182.51 26.8003C179.629 31.452 176.268 35.821 173.431 40.5042C171.751 43.2759 168.255 48.9088 168.762 52.1106C169.144 54.5199 171.904 54.4715 172.08 55.3076C172.351 56.5884 167.486 56.8566 166.046 55.2376C164.384 53.3648 165.324 50.3949 166.046 48.3119C166.769 46.2289 167.996 44.3996 168.943 42.4132C167.525 43.6408 166.317 45.0496 164.606 45.9099C160.858 47.7948 157.052 46.7049 158.693 41.9348C159.432 39.7865 164.371 33.9942 164.362 32.8826C164.359 32.5878 164.234 32.4186 163.961 32.322C161.921 31.6671 156.728 36.8891 155.438 38.4454C154.527 39.5449 149.795 46.7508 149.278 46.7508H145.779L152.415 36.3889C150.368 37.4498 147.84 38.4816 145.9 36.6378C145.018 39.0881 143.836 41.4636 142.041 43.3822C137.539 48.1935 130.127 49.5805 131.053 40.7289C128.921 43.0802 124.168 48.5801 120.696 46.1322C116.37 43.085 124.132 36.7296 125.077 33.9193C126.046 31.0436 122.929 32.6796 121.708 33.4456C117.081 36.3527 114.732 42.3891 111.385 46.5092H107.644L115.655 34.3905L116.351 32.45C114.995 31.6212 113.06 32.9793 111.907 33.7839C107.299 36.9979 104.619 42.1885 101.248 46.5116H97.5071L104.261 36.5097C104.319 36.1594 104.281 36.0748 103.916 36.1642C103.026 36.3841 102.009 36.935 101.009 36.8916C98.7419 36.7925 98.3843 34.3204 99.5635 32.7859C99.8173 32.4549 100.583 32.3389 100.279 32.0537C93.6697 34.2117 89.9145 41.205 86.0433 46.5116H82.3025L84.9559 42.174C81.7516 45.3179 74.8839 50.5906 74.8187 42.174C73.2359 43.52 72.0228 45.3565 70.0485 46.2047C66.6993 47.6401 64.6597 45.8495 64.6815 42.4157C62.6371 44.7306 59.0221 48.1959 55.6704 46.2337C51.4971 43.7882 55.941 36.1328 58.6475 33.8589C61.2815 31.6478 67.4315 29.2869 68.6663 33.9821L70.237 31.5753H74.3402L67.5353 42.0097C67.2599 42.9618 66.4045 44.5252 67.2067 45.3203C68.8717 46.9683 72.4481 43.2228 73.4969 41.9396C76.155 38.6894 78.0181 34.7675 80.7342 31.5777H84.475L77.1916 42.7395C75.2367 49.5008 82.8366 42.9207 84.5813 41.2026C87.4883 38.3414 89.7308 34.8955 92.0772 31.5777H95.818L93.8896 34.7095C96.0475 33.3466 99.6046 29.9538 102.314 31.4786C103.87 32.3534 103.795 34.3977 102.577 35.5552C105.008 35.8259 106.32 33.2813 107.523 31.5801H111.506L109.819 34.231C111.032 33.61 112.011 32.5636 113.27 32.0175C115.928 30.8648 119.637 30.8503 118.506 34.7119C119.572 34.2793 120.159 33.3321 121.179 32.6844C125.541 29.9176 129.654 31.249 127.083 36.8916C126.111 39.0253 122.936 42.7177 122.472 44.5857C122.409 44.8418 122.259 45.0714 122.469 45.3251C123.757 47.0432 128.748 41.8067 129.601 40.8498C132.984 37.0486 135.579 31.0098 141.552 30.8431C146.277 30.7126 144.972 35.8066 147.702 36.5243C150.999 37.3918 154.13 34.0522 155.795 31.5801H159.536L159.538 31.5704ZM138.624 34.3059C136.674 36.2004 133.286 41.5312 133.252 44.2474C133.216 47.0771 136.043 45.4894 137.336 44.4624C139.764 42.5341 143.974 36.2898 143.36 33.1436C142.901 30.7875 139.469 33.4867 138.626 34.3059H138.624ZM65.1043 32.5829C62.973 33.001 59.2831 37.776 58.215 39.6874C57.2653 41.3838 54.9406 46.4536 58.8988 45.429C61.5134 44.7524 65.5152 39.3201 66.489 36.8674C67.1729 35.1468 68.0404 32.0102 65.1043 32.5854V32.5829Z" fill="#C39D70"/>
<path d="M52.1352 27.9555C53.3822 28.0957 54.4309 28.4268 55.6923 28.0135C57.0818 27.5568 60.3827 22.6393 62.055 24.6836C63.2584 26.1528 59.3799 27.8057 58.4302 28.5814C57.1084 29.6616 55.9944 30.9689 55.9944 32.7789C55.5111 32.8417 55.5981 32.8224 55.4507 32.4792C55.0229 31.4788 55.3685 30.4155 55.5111 29.4054L51.4296 29.1783C48.223 36.8941 44.1657 44.1291 37.8949 49.7644C31.902 55.1483 24.8071 58.4976 16.5331 58.0699C-6.99873 56.8544 -4.64023 24.0819 18.7127 25.7807C36.5102 27.0735 31.3776 53.0774 15.8734 50.0568C10.7117 49.0515 7.71051 43.5685 10.0062 38.7911C10.5499 37.6602 12.2196 35.7608 13.5149 36.7588C10.7262 41.1713 10.1608 49.3077 17.2556 49.4188C30.283 49.6242 30.5923 22.7577 14.049 27.1678C-0.0343534 30.923 -0.203511 55.6679 15.0735 56.8761C38.7117 58.7465 47.2999 27.0131 58.7927 12.3233C59.2542 11.7336 61.6007 9.38722 61.2914 8.93776C53.1647 5.33718 41.7202 -2.11527 32.8178 2.77812C28.9635 4.89738 25.9598 9.38239 25.16 13.6862C22.5695 27.6414 39.3617 26.9261 43.0782 16.6391C44.6103 18.2533 43.2305 20.8438 41.986 22.2889C36.5271 28.6297 23.4443 25.3892 22.265 16.6923C21.1607 8.54145 27.6103 2.41806 35.0361 0.656441C45.3087 -1.7818 54.3705 3.05602 63.3598 7.23413C67.8811 3.84863 73.9151 1.78978 79.56 3.34841C86.6427 5.30335 84.9222 12.0067 78.4509 13.3938C74.3138 14.2806 70.6045 12.9709 66.7889 11.5186C65.9455 11.1972 63.3526 9.73278 62.7581 9.9986C61.6006 10.5181 57.8261 16.3733 57.0045 17.7652C56.4149 18.7632 51.7196 27.5641 52.128 27.9555H52.1352ZM64.9281 8.19831C69.4228 10.1581 74.4274 12.8815 79.4634 11.2673C83.3636 10.0155 83.2862 6.1153 79.5721 4.54458C74.9276 2.58238 68.2991 4.60741 64.9281 8.19831Z" fill="#C39D70"/>
<path d="M21.9681 54.6967C21.8352 54.0563 22.1324 54.281 22.4441 54.0998C25.7789 52.1424 27.6468 50.8544 30.2977 47.9571C35.4086 42.3726 39.8622 35.3188 43.4482 28.6831C41.2082 28.7919 38.3664 29.3259 37.0639 31.3413C36.4767 32.2499 36.6193 33.1174 36.2664 33.9197C35.8387 34.8959 34.6909 33.3711 34.5701 32.8467C33.4754 28.0814 41.1695 27.371 44.3641 27.4241C46.2635 24.2416 48.3247 21.0639 50.6953 18.2076C51.1738 17.6301 56.2025 11.9973 56.7196 12.5386L51.1303 21.2911C45.338 31.7037 40.215 43.6219 30.2493 50.8013C27.828 52.5436 24.9549 54.281 21.9681 54.6991V54.6967Z" fill="#C39D70"/>
<path d="M153.021 53.2417H48.2734V53.9763H153.021V53.2417Z" fill="#C39D70"/>
<path d="M44.1705 64.0942L44.4098 67.7069L42.8269 67.4725L42.984 61.5472L42.4766 61.0832L44.6514 60.9648C43.9385 61.743 44.1874 62.6346 44.1681 63.6133H48.0297L48.0345 61.3587L47.5464 60.9648L49.7212 61.0832C49.7574 61.3056 49.3732 61.1292 49.2983 61.2476C48.9963 61.7212 49.25 66.7644 49.4771 67.7069H47.7904L48.0297 64.0942H44.1681H44.1705Z" fill="#C39D70"/>
<path d="M55.2145 60.7864C61.3596 59.9431 61.5119 67.369 56.3551 67.7073C51.0291 68.0577 50.7029 61.4051 55.2145 60.7864ZM55.2121 61.2552C52.3654 61.7941 52.8874 67.0572 56.1279 67.236C60.0451 67.4535 59.2162 60.4964 55.2121 61.2552Z" fill="#C39D70"/>
<path d="M136.526 61.7673C136.739 61.9775 137.217 62.7749 137.28 63.0601C138.58 68.8113 128.579 69.6909 129.622 63.2631C130.062 60.559 134.695 59.9573 136.524 61.7648L136.526 61.7673ZM132.438 61.255C129.929 61.818 130.169 67.0159 133.353 67.243C137.29 67.5233 136.616 60.3174 132.438 61.255Z" fill="#C39D70"/>
<path d="M98.9473 60.9719L98.7129 62.4049L97.9953 61.3199L96.5284 61.3078C96.1418 61.5784 96.2747 62.4846 96.41 62.9027C96.6009 63.4923 99.16 66.1239 99.6771 65.7783L99.9333 64.2462L99.4403 63.8548L100.656 63.9635C101.497 64.5072 99.7013 66.1794 99.9236 66.4984L101.61 67.465C100.748 67.813 99.8149 67.0905 99.2784 67.0397C98.3142 66.9455 97.1664 68.4654 95.1148 67.3273C92.4398 65.8411 95.4628 64.1061 95.5618 63.7098C95.6295 63.4367 95.1293 62.9486 95.0955 62.5136C94.9601 60.7762 97.6956 60.462 98.9473 60.9743V60.9719ZM95.5812 64.0964C94.5977 65.9765 96.3714 67.9918 98.2393 66.8706C98.6767 66.6072 98.2901 66.4912 98.1137 66.264C97.843 65.9185 95.8832 63.8838 95.5812 64.0964Z" fill="#C39D70"/>
<path d="M143.489 60.9623C144.967 61.2257 144.274 63.8911 143.385 64.6644L146.021 67.7068C143.665 67.9605 143.566 65.3241 141.802 64.7997C140.49 64.9109 141.669 67.4772 141.437 67.7068H139.989V61.3224C139.989 61.2499 139.685 61.1387 139.748 60.9599C140.884 61.1001 142.413 60.769 143.489 60.9599V60.9623ZM141.195 61.4432L141.302 64.1086C144.078 65.3604 144.059 60.7859 141.195 61.4432Z" fill="#C39D70"/>
<path d="M110.663 60.9623C110.854 61.0034 111.359 61.3997 111.482 61.5882C112.528 63.2266 110.472 64.1593 110.559 64.662L113.437 67.7043C110.904 67.9992 110.677 64.836 108.611 64.8142L108.746 67.4724L107.164 67.7043C107.072 67.4458 107.405 67.1775 107.405 67.1026V61.1991L106.922 60.9575C108.017 61.1146 109.655 60.7424 110.663 60.9575V60.9623ZM108.611 64.3357C110.597 64.7876 111.194 62.9076 110.061 61.564L108.611 61.4432V64.3357Z" fill="#C39D70"/>
<path d="M85.5357 28.7556C86.7075 28.7556 87.6574 27.8068 87.6574 26.6364C87.6574 25.4659 86.7075 24.5171 85.5357 24.5171C84.364 24.5171 83.4141 25.4659 83.4141 26.6364C83.4141 27.8068 84.364 28.7556 85.5357 28.7556Z" fill="#C39D70"/>
<path d="M73.978 60.9621C74.0457 60.9525 74.2511 60.5997 74.3381 60.7205V61.9239C73.6156 61.269 72.8423 61.4261 71.9264 61.4406V63.8523L73.9756 63.6058L74.1013 64.6932L73.7049 64.3259L71.9288 64.3307L71.9143 66.8342C72.516 67.2764 73.4971 67.274 74.0892 66.8463C74.3405 66.6651 74.2148 66.1914 74.5797 66.2591L74.2197 67.7041H70.479C70.6916 65.638 71.187 62.8204 70.2373 60.9573C71.4166 60.8437 72.8374 61.1144 73.978 60.9573V60.9621Z" fill="#C39D70"/>
<path d="M119.11 60.9621C119.178 60.9525 119.383 60.5997 119.47 60.7205V61.9239C118.748 61.269 117.975 61.4261 117.059 61.4406V63.8523L119.108 63.6058L119.234 64.6932L118.837 64.3259L117.061 64.3307L117.047 66.8342C118.05 67.4698 118.871 67.2209 119.715 66.5007L119.354 67.7041H115.614L115.877 61.5421L115.372 60.9573C116.551 60.8437 117.972 61.1144 119.113 60.9573L119.11 60.9621Z" fill="#C39D70"/>
<path d="M149.16 61.4437C148.179 61.463 147.287 61.2141 146.507 61.9246L146.751 60.7187C148.701 61.1174 150.929 61.0884 152.896 60.7163L153.017 61.9246C152.294 61.2673 151.521 61.4292 150.605 61.4437V67.7072H149.158V61.4437H149.16Z" fill="#C39D70"/>
<path d="M64.2031 61.4437C63.222 61.463 62.3303 61.2141 61.5498 61.9246L61.6706 60.7163C63.7174 61.202 65.9938 60.987 68.0623 60.7187V61.9246C67.2407 61.3398 66.3755 61.4074 65.4089 61.4437V67.1055C65.4089 67.1853 65.8898 67.6178 65.5298 67.7096H63.9639C63.8721 67.4462 64.2055 67.1804 64.2055 67.1055V61.4437H64.2031Z" fill="#C39D70"/>
<path d="M126.469 62.1658C126.048 62.1586 126.174 61.5327 125.754 61.32C125.077 60.9769 123.893 61.1775 123.903 62.0498C123.912 63.0285 126.16 63.983 126.529 64.8795C127.59 67.4458 124.601 68.2723 122.644 67.4386L122.975 66.0249C122.938 67.5377 125.628 67.7237 125.754 66.3753C125.831 64.8022 123.523 64.4204 123.033 63.3136C122.16 61.3418 124.42 60.409 126.077 60.7594L126.469 62.1682V62.1658Z" fill="#C39D70"/>
<path d="M77.7188 61.3249C77.7188 61.2669 77.2597 61.0035 77.598 60.9624H79.4079C79.5264 61.0518 79.1663 61.2741 79.1663 61.3249V66.9867C79.942 67.2549 80.8602 67.3516 81.5683 66.8514C81.8196 66.675 81.6939 66.1941 82.0588 66.2642L81.4571 67.7092H77.7164C77.6826 65.5852 77.7647 63.4514 77.7164 61.3249H77.7188Z" fill="#C39D70"/>
<path d="M158.814 62.1655C158.031 62.3637 158.526 61.6484 158.19 61.4213C157.352 60.8534 155.358 61.2207 156.146 62.5377C156.975 63.9272 159.278 63.9586 158.809 66.3751C158.502 67.9603 154.959 68.1391 154.81 67.1145L154.957 65.7806C155.414 65.8048 155.092 66.4693 155.414 66.8874C155.902 67.5229 157.755 67.4166 157.857 66.3727C157.982 65.0798 155.972 64.5168 155.385 63.5454C154.102 61.4237 156.535 60.3073 158.422 60.7543L158.712 60.9452L158.816 62.1631L158.814 62.1655Z" fill="#C39D70"/>
<path d="M87.8559 60.7209V62.166C87.4644 62.2023 87.5586 61.6392 87.2759 61.4241C86.7901 61.052 85.4587 61.1173 85.4176 61.806C85.3113 63.5772 88.1361 63.6763 88.1216 65.9043C88.1071 68.3619 83.0736 68.5673 84.2384 65.7811C84.7048 65.8512 84.4752 66.6317 84.8304 66.9917C85.4224 67.5886 87.1575 67.3566 87.155 66.1411C87.1526 64.8 84.0281 64.0871 84.277 62.3473C84.5259 60.6074 86.4857 60.6195 87.8559 60.7209Z" fill="#C39D70"/>
</svg>
