<svg width="245" height="70" viewBox="0 0 245 70" fill="none" xmlns="http://www.w3.org/2000/svg">
<path d="M194.908 0.0169186H244.039C244.377 1.6749 244.513 65.7273 244.208 69.4493C243.599 70.0584 242.821 69.7877 242.11 69.7877C232.112 69.8046 222.113 69.7877 212.114 69.7877C207.107 69.7877 202.116 69.7877 197.108 69.7877C196.448 69.7877 195.771 69.7877 195.298 69.7877C195.061 69.5677 195.01 69.5339 194.976 69.4831C194.942 69.4324 194.875 69.3647 194.875 69.314C194.841 46.5928 194.824 23.8885 194.79 1.16736C194.79 0.845912 194.858 0.507547 194.892 0L194.908 0.0169186ZM197.057 2.03019C196.956 2.41931 196.871 2.62232 196.871 2.80842C196.871 24.1761 196.871 45.5439 196.871 66.9116C196.871 67.1823 196.922 67.453 196.956 67.7067C196.956 67.7575 197.023 67.8252 197.057 67.8759C197.108 67.9267 197.159 67.9774 197.209 68.0282C200.305 68.3496 240.638 68.2143 242.144 67.8759C242.195 67.7067 242.28 67.5037 242.28 67.3176C242.28 45.9499 242.28 24.5822 242.28 3.21446C242.28 2.94377 242.229 2.67308 242.195 2.40239C242.195 2.35163 242.127 2.28396 242.093 2.23321C242.06 2.18245 242.009 2.1317 241.89 2.01327H197.074L197.057 2.03019Z" fill="#C39D70"/>
<path d="M101.401 18.6271C102.416 18.4579 103.211 18.3225 104.277 18.1364V26.494C106.612 26.8832 108.743 26.5786 110.841 26.714C111.315 24.8022 110.96 24.4808 106.95 23.1104C106.747 22.4844 106.527 21.8077 106.307 21.1479C109.944 17.5274 116.323 17.392 120.197 20.9956C120.045 21.5878 119.858 22.2645 119.706 22.8905C117.947 23.7702 115.933 24.1593 115.392 26.3418C116.746 26.7817 121.212 26.8662 123.75 26.4602V13.873H126.846C126.896 14.3468 127.015 14.8543 127.015 15.3618C127.015 18.4748 127.015 21.5878 127.015 24.6838C127.015 26.5222 126.254 28.1351 124.731 29.5224H104.598C104.158 31.1973 103.634 32.7199 102.179 33.6674C101.113 34.361 99.9627 34.6317 98.5584 34.3779C97.9494 33.6674 97.2727 32.8722 96.4268 31.874C98.3047 31.4342 100.267 31.7218 101.384 29.5224V18.5932L101.401 18.6271ZM113.666 23.5841C114.056 23.0766 114.563 22.3998 115.088 21.7231C113.824 21.2043 112.877 20.99 112.245 21.0802C112.719 21.8923 113.176 22.7213 113.666 23.601V23.5841Z" fill="#C39D70"/>
<path d="M137.912 22.0614C137.184 21.8076 136.423 21.5369 135.458 21.1817C135.678 20.1835 135.881 19.2361 136.084 18.3225C140.432 18.8639 142.666 21.3678 143.545 26.5786H146.861V18.7285C147.809 18.5086 148.621 18.3056 149.467 18.1025C150.042 19.4052 149.805 20.7587 149.822 22.146C149.822 23.6179 149.839 25.1067 149.839 26.5786H152.546C152.394 25.3943 152.241 24.2269 152.106 23.2795C154.221 19.9805 158.18 17.8826 160.988 18.5593C161.039 19.2022 161.106 19.9297 161.174 20.8771C160.497 21.0971 159.838 21.3339 159.161 21.5539C158.586 21.74 157.994 21.8415 157.435 22.0445C156.437 22.4167 155.608 23.0934 155.033 24.007C155.253 24.5484 155.49 25.0898 155.676 25.5635C157.892 26.6801 160.176 26.7647 162.477 26.7308C162.984 27.6444 162.849 28.4903 162.612 29.5731C158.721 29.5731 154.83 29.5731 150.939 29.5731C147.064 29.5731 143.173 29.6408 139.299 29.5731C138.301 29.5731 137.303 29.5393 136.287 29.5731C135.255 29.6239 134.207 29.5731 133.242 29.1501C133.564 28.3211 133.851 27.5937 134.19 26.6801H140.162C140.297 24.5653 139.4 23.1611 137.912 22.0276V22.0614Z" fill="#C39D70"/>
<path d="M34.0833 18.7448C35.0646 18.5249 35.8597 18.3557 36.8579 18.1357C37.1794 21.0626 36.8579 23.7357 37.0948 26.5441H39.4126C39.3111 25.4783 39.0234 24.3616 39.1757 23.2958C39.328 22.2638 39.9201 21.2995 40.2416 20.4874C42.5086 18.491 44.8603 17.7128 47.6518 18.4572C48.1931 19.9967 47.8717 21.4856 47.9225 22.9405C47.9732 24.3616 47.9225 25.7659 47.9225 27.4408C47.2119 27.9652 46.3998 28.5743 45.5877 29.1664L45.8077 29.5217H37.264C36.9256 31.1459 36.5196 32.6516 35.1153 33.5313C34.0326 34.225 32.8483 34.7664 31.258 34.2757C30.7166 33.6328 30.023 32.8377 29.1094 31.7718C30.2598 31.6534 31.055 31.6872 31.7825 31.4842C32.5438 31.2643 33.2205 30.8075 34.1002 30.3676V18.7617L34.0833 18.7448ZM44.9279 21.1134C42.9823 21.384 42.2718 22.6191 41.8826 24.1248C42.7285 26.1719 43.05 26.4426 44.9279 26.5441V21.1303V21.1134Z" fill="#C39D70"/>
<path d="M66.1113 33.6163H56.4171C54.8437 32.6689 54.2854 31.3323 54.3362 29.6405C54.37 28.507 54.1839 27.3566 54.167 26.223C54.167 25.7832 54.3193 25.3264 54.4377 24.7342C55.2328 24.582 55.9773 24.4466 56.8063 24.2944C57.6522 26.443 56.8908 28.507 57.3645 30.4526C58.7518 30.9094 62.5246 30.9771 64.9101 30.5541V13.8896H67.8539C68.2937 15.2093 68.4629 27.6103 68.0569 32.0767C67.6001 32.432 66.9741 32.9396 66.0943 33.6332L66.1113 33.6163Z" fill="#C39D70"/>
<path d="M93.5174 29.6235H87.4268C87.1561 30.4186 86.9193 31.163 86.564 32.2458C85.8196 32.8379 84.8383 33.65 83.874 34.4113H81.3193C80.7949 33.7177 80.1689 32.8887 79.4414 31.9244C81.0825 31.3661 82.8927 31.9244 83.9924 29.9957V18.8127C85.0075 18.559 85.938 18.3221 87.1561 18.0176C87.4606 21.0121 87.1561 23.7529 87.3591 26.5782H92.8576V19.0158C93.805 18.2375 94.6509 18.0514 95.7168 18.4067V27.4072C95.0739 28.0501 94.3633 28.7606 93.5343 29.6066L93.5174 29.6235Z" fill="#C39D70"/>
<path d="M15.9121 13.8384H18.6867V26.6116C21.1398 26.7639 23.4069 26.6624 25.86 26.6793C26.1307 24.0401 25.86 21.4854 26.0461 18.9308C26.8075 18.2371 27.6534 18.051 28.7531 18.4063V27.4576C28.144 28.0666 27.4334 28.7603 26.6721 29.5047H18.0946C17.4686 28.9802 16.6565 28.3035 15.929 27.6944V13.8553L15.9121 13.8384Z" fill="#C39D70"/>
<path d="M0.0595703 31.1979V24.7859C0.871645 24.5829 1.66679 24.3968 2.56346 24.1768C3.25711 26.3254 2.54656 28.3895 3.0541 30.3181C4.39064 30.8934 7.28365 31.0118 10.8703 30.6396C11.0395 28.7447 10.9211 26.8161 10.9549 24.8874C10.9718 22.9249 10.9549 20.9793 10.9549 19.0675C11.7444 18.4585 12.6129 18.2385 13.5603 18.4077C13.9325 19.9134 14.034 27.2898 13.7464 32.0607C13.3065 32.4668 12.6636 33.042 11.9531 33.6849C8.99239 33.6849 6.0317 33.6849 3.07101 33.6849C1.44686 33.6849 0.770126 32.4837 0.0764792 31.2148L0.0595703 31.1979Z" fill="#C39D70"/>
<path d="M143.917 56.8614C144.053 57.5043 144.171 58.0795 144.306 58.6716H145.558C145.66 57.8426 145.761 57.0136 145.863 56.0324C147.385 56.4215 146.658 57.7242 147.149 58.6209C147.487 58.587 147.893 58.5532 148.35 58.5193C148.468 57.352 148.57 56.32 148.722 54.8312C149.737 56.2354 149.111 57.4535 149.551 58.5701C151.209 58.9761 152.935 58.6716 154.66 58.7393C155.472 57.6734 154.559 56.3031 155.439 55.1188C156.234 56.2523 155.591 57.4873 156.132 58.7055C158.145 58.807 160.277 58.7393 162.477 58.7393C162.68 58.1133 162.866 57.5719 163.221 56.523C163.492 57.4704 163.627 57.978 163.813 58.6209C164.27 58.6547 164.777 58.6716 165.386 58.7224C165.505 57.7919 165.623 56.9629 165.759 55.897C166.824 56.6583 166.165 57.6734 166.621 58.5363C166.909 58.5701 167.315 58.6378 167.873 58.7224C167.975 57.4873 168.076 56.4046 168.195 54.9665C169.362 56.1508 168.499 57.4535 169.21 58.5193C170.665 59.01 172.255 58.7055 173.93 58.6885C174.285 57.5212 173.862 56.117 175.25 55.2372H177.178C177.365 56.9967 177.804 58.7055 176.468 60.3296C175.91 60.3804 175.317 60.4311 174.692 60.4819C174.302 60.1773 173.947 59.9066 173.524 59.5852H135.915C135.374 58.0287 135.357 54.3913 135.966 52.5811C136.795 54.662 136.067 56.6245 136.558 58.6885C138.605 58.8239 140.754 58.7224 142.716 58.7393C143.579 58.3163 142.834 57.149 143.9 56.8444L143.917 56.8614ZM176.248 56.1677C175.131 56.8614 175.013 57.6227 175.707 59.4668C176.688 58.6209 176.756 58.2994 176.248 56.1677Z" fill="#C39D70"/>
<path d="M169.987 28.8797C170.224 28.1353 170.444 27.3909 170.749 26.4266C172.762 26.3758 174.741 26.3081 176.839 26.2574C176.653 23.1952 174.961 21.7064 172.001 21.1819C172.204 20.133 172.373 19.2532 172.542 18.4243C177.448 18.069 180.95 23.3305 179.715 28.9305C178.091 29.3365 171.747 29.3365 169.987 28.8797Z" fill="#C39D70"/>
<path d="M128.808 13.8052H131.481C131.583 19.0329 131.498 24.176 131.532 29.4376H128.977C128.538 28.1011 128.385 17.2057 128.791 13.8052H128.808Z" fill="#C39D70"/>
<path d="M70.0673 13.7881H72.605C72.8249 18.9989 72.6557 24.142 72.7234 29.4374H70.2703C69.7627 27.9486 69.6274 16.6303 70.0842 13.7881H70.0673Z" fill="#C39D70"/>
<path d="M88.4243 55.3391C88.4751 56.4219 88.5259 57.4031 88.5766 58.6381C90.353 58.8412 92.1294 58.7735 94.0412 58.6551C94.1089 57.4877 94.1765 56.388 94.2442 55.2883C94.3965 55.2883 94.5487 55.2883 94.7179 55.2714C95.3608 56.2188 94.7856 57.42 95.1747 58.5535C96.7481 58.9934 98.3892 58.672 100.047 58.7396C100.453 57.5215 100.047 56.3373 100.589 54.8315C101.418 56.591 101.012 57.9614 101.045 59.3487C99.7088 59.907 98.3554 59.5686 97.0357 59.6363C95.6823 59.6871 94.3457 59.6363 92.9923 59.6363C91.6388 59.6363 90.3023 59.6363 89.1349 59.6363C88.4413 60.3807 87.9506 61.0913 87.2739 61.565C86.9355 61.8019 86.2926 61.5988 85.7851 61.5988C85.7513 61.4635 85.7174 61.3281 85.6836 61.1928C86.3265 60.8883 86.9525 60.5837 87.8999 60.1439C86.9863 59.6702 86.3603 59.3487 85.7005 58.9934V56.2527C86.1742 55.2207 87.0371 54.95 88.4074 55.3391H88.4243ZM86.5803 56.5572C86.5351 57.6738 86.8509 58.3392 87.5277 58.5535V56.1342C87.1555 56.3034 86.9186 56.4219 86.5803 56.5572Z" fill="#C39D70"/>
<path d="M179.985 48.1993H178.699C177.667 46.5075 176.652 44.8495 175.654 43.1915C175.536 43.2253 175.4 43.2422 175.282 43.2761V48.267C174.791 48.1993 174.538 48.1654 174.199 48.1316V40.7045C174.673 40.6538 175.113 40.603 175.587 40.5522C176.635 42.2779 177.651 43.919 178.649 45.577L179.021 45.5093V40.6199H179.85C180.29 41.9903 180.374 45.6108 179.985 48.1993Z" fill="#C39D70"/>
<path d="M38.4141 40.5698C40.4443 40.536 42.576 40.0623 43.7941 42.1094C44.7077 43.632 44.6738 45.4254 43.6757 46.9311C42.3899 48.8259 40.3597 48.3184 38.5156 48.2338C38.0757 46.7619 38.025 42.9553 38.4141 40.5698ZM39.886 41.6864C39.7845 43.8012 39.6491 45.5269 39.9537 47.2018C41.0364 47.6078 41.747 47.1003 42.4068 46.5758C43.1343 45.1039 43.2358 43.6828 42.2376 42.0925C41.6455 41.991 40.8842 41.8556 39.9029 41.6864H39.886Z" fill="#C39D70"/>
<path d="M34.3206 47.4211C32.8825 48.7238 31.1907 48.2839 29.5666 48.2163C29.1605 46.6767 29.1098 42.7855 29.4481 40.7892C32.375 40.1124 33.5254 40.5185 34.4729 42.6502C34.2868 43.0731 34.0668 43.5638 33.7792 44.1728C34.3883 45.0356 34.8789 46.0507 34.3206 47.438V47.4211ZM30.5986 47.0489C32.3919 47.6241 32.7472 47.4549 33.2209 45.6785C32.5442 44.9003 31.7659 44.4773 30.5986 44.8326C30.5986 45.6278 30.5986 46.3384 30.5986 47.0658V47.0489ZM32.7134 41.855H30.6663V43.7837C31.4276 43.6991 32.0536 43.6314 32.7134 43.5468V41.855Z" fill="#C39D70"/>
<path d="M0.0947266 48.1828V40.6711C2.17567 40.3666 4.13818 40.1974 5.4578 42.1261C6.7605 44.0209 6.18529 45.8312 4.98409 47.5399C3.47837 48.4197 1.90498 48.4366 0.0947266 48.1659V48.1828ZM4.40888 45.9496C4.52167 44.1788 4.21149 42.8367 3.47837 41.9231H1.39744V47.1846C2.8524 47.726 3.66448 47.0155 4.40888 45.9327V45.9496Z" fill="#C39D70"/>
<path d="M13.9341 48.2509H12.9697C12.4622 47.3881 11.9546 46.5253 11.4133 45.5948C10.9903 45.544 10.5504 45.4932 9.9752 45.4425C9.87369 46.3899 9.7891 47.2189 9.68759 48.1494H8.63867V40.8069C9.6876 40.2994 10.7704 40.4178 11.8024 40.6208C13.8495 41.0268 14.4416 42.7017 13.2235 44.4274C13.0882 44.6135 12.7329 44.6473 12.7159 44.6643C12.902 46.2038 14.2893 46.9313 13.9341 48.2678V48.2509ZM11.9546 41.7543C11.2102 41.7882 10.6012 41.8389 9.95829 41.8727V43.9537C11.1426 44.3428 11.9885 44.1567 12.5468 42.9555C12.3945 42.651 12.2253 42.3126 11.9546 41.7543Z" fill="#C39D70"/>
<path d="M137.149 40.6545C139.163 40.4007 140.804 40.2992 142.022 41.9572V44.2073C141.751 44.3596 141.345 44.5795 141.007 44.7826C141.565 45.9838 142.022 46.9988 142.58 48.2C142.005 48.2339 141.7 48.2508 141.345 48.2677C140.753 47.3203 140.212 46.4067 139.619 45.4593C139.332 45.4762 139.01 45.4931 138.587 45.527C138.503 46.3898 138.435 47.168 138.334 48.0647C138.063 48.1324 137.775 48.2 137.386 48.2846C137.302 47.8786 137.166 47.5571 137.166 47.2357C137.149 45.0871 137.166 42.9554 137.166 40.6376L137.149 40.6545ZM138.571 41.7373V44.0043C140.415 44.0551 140.601 43.8859 140.618 42.0418C139.992 41.9572 139.349 41.8557 138.571 41.7373Z" fill="#C39D70"/>
<path d="M50.7309 48.6395C50.088 48.318 49.3098 47.9458 48.6331 47.6075C47.4996 45.3573 48.0748 43.1072 47.9056 40.7894C48.4131 40.7048 48.8192 40.6372 49.4452 40.5356V45.9326C50.1219 47.286 50.8663 47.6413 52.0167 47.1676C53.5563 45.222 52.1521 42.735 53.0149 40.5695C53.3194 40.6033 53.5732 40.6372 53.9962 40.7048C53.9962 42.4982 54.1146 44.2407 53.9623 45.9664C53.8101 47.7259 52.5243 48.4195 50.7309 48.6395Z" fill="#C39D70"/>
<path d="M104.261 60.4145C103.297 59.7039 102.637 59.2302 102.062 58.8072C101.707 57.4707 101.791 56.3879 102.806 55.3051H104.904C105.056 56.4218 105.175 57.5214 105.243 58.638H109.861C109.946 57.5214 110.047 56.4218 110.132 55.2544C111.384 55.9142 111.536 56.9462 110.859 59.3824C109.151 59.9407 107.307 59.4163 105.412 59.7208C104.735 61.0066 103.855 62.157 101.571 61.2604C102.569 60.9389 103.195 60.7528 104.261 60.3975V60.4145ZM103.009 56.4556C102.772 57.5045 103.026 58.2546 103.771 58.7057V56.5233C103.466 56.5063 103.229 56.4725 103.009 56.4556Z" fill="#C39D70"/>
<path d="M21.461 57.7241C21.0211 58.8915 20.5981 60.0419 20.1244 61.3277C18.6864 60.5326 19.0078 59.196 18.6187 58.2148C18.2296 57.1997 18.1112 56.0662 17.8066 54.645C19.7522 55.6432 19.2616 57.3012 19.7184 58.6377C20.9196 57.6057 20.3105 55.8293 21.5117 54.7804C23.0344 55.6094 22.4253 57.4365 23.2036 58.7731C23.8803 57.3519 23.4742 55.7109 24.9461 54.9157C24.8277 57.1151 24.1341 59.1453 23.4066 61.2939C21.664 60.4818 22.7975 58.57 21.461 57.7241Z" fill="#C39D70"/>
<path d="M121.008 59.5173H111.957C111.466 57.7409 111.5 54.1881 112.008 52.8516C112.955 53.6806 113.04 54.3235 112.735 58.6038C114.579 58.8914 116.423 58.7391 118.386 58.6884C118.268 57.7917 117.811 56.7766 118.352 55.9476C118.961 55.0509 119.976 55.034 120.907 55.3893C120.991 56.7766 121.008 58.147 121.008 59.5343V59.5173ZM120.01 56.269C119.503 56.5397 119.215 56.692 118.944 56.8273C119.13 57.521 119.164 58.147 120.01 58.2654V56.269Z" fill="#C39D70"/>
<path d="M168.481 46.305H166.417C165.52 46.8294 165.74 48.4198 164.065 48.1998C164.928 45.6621 165.757 43.2259 166.637 40.6543H168.143C169.006 43.1413 169.851 45.5437 170.731 48.0814C170.325 48.166 169.987 48.2337 169.547 48.3183C169.192 47.6246 168.853 46.9817 168.498 46.305H168.481ZM166.451 44.9684C167.077 44.9177 167.5 44.8669 168.126 44.8162C167.855 44.0379 167.635 43.412 167.432 42.8029C167.331 42.8029 167.212 42.8029 167.111 42.8029C166.908 43.4458 166.722 44.1056 166.451 44.9515V44.9684Z" fill="#C39D70"/>
<path d="M72.3517 48.1147C70.5753 48.5207 70.7952 47.218 70.3723 46.3721H67.8345C67.4962 46.9812 67.1578 47.5564 66.7687 48.2331C66.498 48.1993 66.1935 48.1654 65.7705 48.1147C66.6672 45.5262 67.5131 43.0731 68.3759 40.5522C68.9342 40.5861 69.3741 40.6199 69.8986 40.6538C70.7106 43.1238 71.5058 45.5262 72.3517 48.0978V48.1147ZM68.2575 45.0356C68.9511 44.9002 69.3403 44.8326 69.9832 44.7141C69.611 43.919 69.3234 43.3268 68.8835 42.3963C68.6297 43.4453 68.4944 44.0882 68.2744 45.0356H68.2575Z" fill="#C39D70"/>
<path d="M65.9573 59.1297C66.8201 57.6409 66.7186 55.8306 68.1397 54.7479C69.1887 56.5581 69.3917 59.5188 68.4104 61.4982C68.2582 59.9925 68.1228 58.8759 67.9875 57.5732C66.6002 58.5376 67.3107 60.517 65.5851 61.2783C65.0437 59.8403 64.5193 58.4699 63.9948 57.0826C63.8933 57.0826 63.7918 57.0995 63.6902 57.1164V61.2614C63.2335 61.1091 62.9966 61.0245 62.709 60.923C63.1658 58.9098 62.4721 56.8119 63.6564 54.731C64.0117 55.0862 64.4346 55.3231 64.5869 55.6615C65.0775 56.7442 65.4667 57.8777 65.9573 59.1297Z" fill="#C39D70"/>
<path d="M145.575 48.1832C146.522 45.544 147.402 43.1247 148.298 40.6377H149.703C150.548 43.057 151.394 45.5101 152.291 48.0986C151.716 48.1832 151.344 48.234 150.904 48.3017C150.667 47.6588 150.447 47.0328 150.244 46.373C149.415 46.3222 148.569 46.2715 147.875 46.2376C146.979 46.8128 147.402 48.3524 145.558 48.1832H145.575ZM149.77 44.8503C149.432 43.9368 149.161 43.1924 148.806 42.228C148.484 43.2939 148.248 44.0721 147.977 45.0026C148.62 44.9518 149.11 44.9011 149.77 44.8503Z" fill="#C39D70"/>
<path d="M110.013 48.2513H108.693C108.422 47.6761 108.135 47.0839 107.796 46.3734H105.428C104.903 46.9317 105.292 48.522 103.448 48.1329C104.328 45.5275 105.174 43.0236 105.969 40.6888C106.866 40.4012 107.339 40.6888 107.542 41.2471C108.371 43.4973 109.133 45.7474 110.013 48.2513ZM105.868 44.7661C106.443 44.8507 106.866 44.9015 107.441 44.9692C107.119 44.0048 106.866 43.2435 106.51 42.2115C106.257 43.2097 106.087 43.9033 105.868 44.7661Z" fill="#C39D70"/>
<path d="M25.6913 48.1154C25.1668 48.2 24.9807 48.2338 24.6931 48.2846C24.3209 47.6924 23.9318 47.0665 23.475 46.339C22.8828 46.3052 22.223 46.2713 21.7324 46.2544C20.6327 46.6774 20.9373 48.5045 19.2285 48.1831C20.1083 45.6284 20.9542 43.1922 21.8001 40.6714H23.272C24.084 43.1584 24.8623 45.5438 25.6913 48.1154ZM22.6629 42.7692C22.5106 42.7692 22.3584 42.7692 22.2061 42.7692C22.0708 43.4629 21.9185 44.1735 21.7493 45.0363C22.3415 44.9348 22.6968 44.8671 23.2551 44.7656C23.0351 44.0043 22.849 43.3783 22.6629 42.7692Z" fill="#C39D70"/>
<path d="M75.4992 40.9422C77.0218 40.3839 79.0013 40.3501 80.8454 40.8746C80.2363 43.3785 78.0369 44.918 76.8865 47.2866C78.2061 47.3712 79.4242 47.4557 80.8284 47.5403C79.7795 48.4539 78.1385 48.5724 75.2285 48.0648C75.7191 45.5609 77.9354 44.1229 78.9336 41.8897C77.8508 41.5005 76.4466 42.0757 75.5161 40.9422H75.4992Z" fill="#C39D70"/>
<path d="M128.488 40.638H133.394C133.112 41.2809 132.018 41.7039 130.112 41.9069C130.044 42.1776 129.943 42.499 129.926 42.8035C129.909 43.1419 129.96 43.4634 129.977 43.9201C130.856 44.0724 131.719 44.2078 132.87 44.3939C131.956 45.392 130.975 44.8168 130.011 45.2736C129.943 46.0857 129.875 47.05 129.791 48.1497C129.334 48.1835 128.962 48.2005 128.657 48.2174C128.166 47.6252 128.082 43.3449 128.488 40.6211V40.638Z" fill="#C39D70"/>
<path d="M89.1865 48.3867C89.8294 45.5952 91.9273 44.1233 92.7563 41.9747C91.6904 41.3995 90.3877 42.2454 89.4741 41.2472C90.4046 40.3844 91.5889 40.266 94.3973 40.7228C94.7695 41.298 94.6003 41.8224 94.2281 42.3638C93.1115 43.9541 92.0119 45.5614 90.8445 47.2701C91.9949 47.71 93.3822 47.0332 94.8203 47.8961C92.8578 48.7082 91.1829 48.1329 89.2034 48.4036L89.1865 48.3867Z" fill="#C39D70"/>
<path d="M92.6209 33.4302C92.3672 33.7348 92.1134 34.0224 91.8258 34.3438H89.508C89.4065 33.481 89.3219 32.7197 89.2373 31.9245C89.8125 31.62 90.2693 31.3831 90.8107 31.0786C91.3859 31.4508 91.9273 31.823 92.5194 32.2121C93.027 31.8907 93.636 31.5016 94.3128 31.0786C94.9218 31.4001 95.497 31.6877 95.9369 31.9245C96.4445 33.1088 96.0892 33.8363 95.2263 34.31C94.4481 34.7499 93.653 34.4453 92.6209 33.4133V33.4302Z" fill="#C39D70"/>
<path d="M158.145 43.5476C159.329 42.6848 158.974 40.6208 161.072 40.5869C160.649 42.4648 159.431 43.7845 158.703 45.7131V48.0648C158.331 48.1324 158.043 48.1832 157.57 48.2678V45.4763C156.622 43.7506 155.827 42.3126 154.998 40.7899C156.233 40.2485 156.69 41.0099 156.994 41.7204C157.299 42.4479 157.688 43.0401 158.145 43.5476Z" fill="#C39D70"/>
<path d="M114.851 47.1346C116.103 47.6083 117.169 47.1177 118.235 47.7944C117.423 48.5896 116.594 48.2681 115.849 48.3189C115.071 48.3696 114.276 48.2851 113.362 48.2681V40.7395C113.785 40.7057 114.208 40.6718 114.834 40.6211V47.1684L114.851 47.1346Z" fill="#C39D70"/>
<path d="M59.2922 40.7392V47.0497C60.3581 47.7941 61.5931 46.9651 62.6759 47.9464C60.9671 48.6231 59.4445 48.3017 57.7527 48.2002C57.5835 45.9162 57.6512 43.7168 57.7188 41.5175C57.7357 40.8238 58.1925 40.4178 59.2922 40.7561V40.7392Z" fill="#C39D70"/>
<path d="M57.565 61.3452C55.9409 60.973 56.2454 59.7719 55.7717 58.9259C55.4672 58.8414 55.0781 58.7229 54.5874 58.5707C54.4859 59.4504 54.3844 60.2794 54.266 61.2607C53.437 60.1948 53.3016 57.8263 53.7923 55.1532C55.0104 54.3411 56.0593 54.8317 57.2944 55.7284C57.1928 56.4559 57.0744 57.268 56.8883 58.4861C57.0236 59.0275 57.2605 60.0256 57.565 61.3452ZM54.4859 55.7792C54.5198 56.3882 54.5536 56.9296 54.5874 57.4202C55.6025 57.7417 56.0762 57.4202 56.2623 56.5912C56.0762 55.7961 55.6364 55.4408 54.4859 55.7792Z" fill="#C39D70"/>
<path d="M12.9865 61.2431C12.7327 60.9724 12.4282 60.7356 12.2083 60.448C11.9714 60.1265 11.8191 59.7543 11.6161 59.3483H10.1104C9.51827 59.9912 9.72128 61.2093 8.33398 61.2262C8.85845 58.9084 9.41676 56.7767 10.7195 54.645C12.6481 56.5568 12.5805 58.9592 13.4602 60.9555C13.3079 61.057 13.1557 61.1585 13.0034 61.26L12.9865 61.2431ZM11.2439 58.3332C11.1255 57.6057 11.0071 56.9459 10.821 55.8462C10.601 56.9459 10.4657 57.5888 10.3134 58.2824C10.6687 58.2994 10.8548 58.3163 11.227 58.3501L11.2439 58.3332Z" fill="#C39D70"/>
<path d="M132.36 60.3481C131.481 61.8707 130.415 61.8199 128.757 61.3631C129.907 60.9233 130.669 60.6357 131.785 60.2127C130.11 59.2822 128.571 58.6224 129.18 56.5922C129.789 55.5602 130.601 54.8665 132.09 55.3233C132.597 56.9644 132.14 58.7239 132.343 60.3481H132.36ZM131.345 58.8423V56.423C130.956 56.4738 130.719 56.4907 130.415 56.5415C130.296 57.4212 130.043 58.2502 131.345 58.8423Z" fill="#C39D70"/>
<path d="M123.817 60.8882C123.749 59.5009 123.647 58.1982 124.087 56.9293C125.018 58.029 124.29 59.3824 124.849 60.6682H127.2C127.978 58.9933 126.828 56.9801 127.945 55.2544C128.774 56.3541 128.824 56.7939 128.571 60.516C127.082 61.9878 125.897 62.1063 123.8 60.9051L123.817 60.8882Z" fill="#C39D70"/>
<path d="M80.6927 56.9638C80.7773 58.1312 80.8618 59.3154 80.9464 60.652H83.6364C84.5162 58.9263 83.5349 57.0146 84.2624 55.272C85.2267 56.6423 85.0406 59.8568 83.9748 61.4471C81.8939 61.8532 81.6232 61.8193 80.0498 60.9565C79.8637 59.6538 79.9144 58.3003 80.0329 56.9638C80.2528 56.9638 80.4727 56.9638 80.6927 56.9638Z" fill="#C39D70"/>
<path d="M37.9413 54.8661C39.0071 54.7815 39.9714 54.5616 41.2741 55.2214C40.3436 55.4752 39.7684 55.6444 39.1086 55.8305V57.37C39.7684 57.5054 40.3267 57.6238 40.9865 57.7761C40.6482 58.7573 39.7346 58.199 39.0917 58.7573C38.618 59.3156 39.4977 60.686 38.195 61.1597C37.6706 59.9078 37.5691 57.7084 37.9413 54.8661Z" fill="#C39D70"/>
<path d="M85.7004 48.1999H84.4824C84.2624 45.7299 84.4485 43.2767 84.3808 40.739C84.8038 40.6713 85.0914 40.6206 85.4636 40.5698C85.5651 40.9082 85.6835 41.145 85.6835 41.3988C85.6835 43.5982 85.6835 45.7975 85.6835 48.2169L85.7004 48.1999Z" fill="#C39D70"/>
<path d="M45.333 16.6303C43.5228 17.0871 42.9475 16.9687 42.4569 16.1397C42.0001 15.3783 42.1693 14.9046 43.4213 13.6865C43.9288 13.7542 44.5717 13.8219 45.3499 13.9234V16.6303H45.333Z" fill="#C39D70"/>
<path d="M147.926 30.8921C148.907 31.3996 149.431 31.6703 149.888 31.9072C150.311 34.0896 149.685 34.6479 147.266 34.2419C147.046 33.802 146.792 33.2776 146.42 32.5501C146.911 32.0087 147.384 31.4842 147.926 30.8921Z" fill="#C39D70"/>
<path d="M6.9464 20.7757C7.42011 21.1648 8.01224 21.6385 8.65513 22.1461C8.38444 22.8397 8.18142 23.398 7.91072 24.1086C7.40318 24.1424 6.86179 24.3285 6.42191 24.1763C5.67751 23.9394 5.27148 23.3134 5.27148 22.4675C5.27148 21.4694 5.84671 21.0295 6.9464 20.7588V20.7757Z" fill="#C39D70"/>
<path d="M84.2626 13.4331H87.0203C87.1387 14.1944 87.2402 14.8881 87.3417 15.6325C86.7157 15.9878 86.2251 16.2923 85.7006 16.5968C85.1761 16.3261 84.7025 16.0893 84.0596 15.7509C84.1272 15.0234 84.1949 14.279 84.2795 13.4331H84.2626Z" fill="#C39D70"/>
<path d="M22.4609 34.225V32.0087C23.0362 31.7042 23.5606 31.4165 24.0174 31.1797C25.8953 32.1271 25.9799 32.4147 24.8802 34.4618C24.1697 34.3942 23.3745 34.3096 22.4609 34.225Z" fill="#C39D70"/>
<path d="M28.5514 34.4788C27.807 34.4449 27.1134 34.4111 26.4874 34.3773C25.7261 32.4824 25.743 32.3978 27.2318 31.2305C28.3653 31.2474 29.0082 31.8734 29.2789 33.1084C29.0759 33.4806 28.839 33.9374 28.5514 34.4788Z" fill="#C39D70"/>
<path d="M100.877 14.9727C101.249 14.2452 101.469 13.8391 101.689 13.4331H104.108C104.193 14.2283 104.278 14.905 104.362 15.6832C103.736 16.0216 103.229 16.3092 102.535 16.6814C101.977 16.1062 101.469 15.5817 100.877 14.9727Z" fill="#C39D70"/>
<path d="M3.56281 60.6848C2.67179 61.1473 1.57208 61.26 0.263738 61.0232C-0.125382 59.1622 -0.0915255 56.3538 0.416021 54.645C1.32961 56.4384 0.551361 58.2148 0.991235 59.7036C1.78639 60.3465 2.903 59.5851 3.56281 60.6679V60.6848Z" fill="#C39D70"/>
<path d="M73.8409 10.1007C73.7563 10.6928 73.7056 11.0481 73.6379 11.5557C72.1491 11.7587 70.7279 11.9448 69.1545 12.1647C69.1038 11.5726 69.07 11.2004 69.0361 10.7944C70.5249 9.627 72.1322 10.2191 73.8409 10.1007Z" fill="#C39D70"/>
<path d="M165.233 26.7812C165.944 26.7474 166.604 26.7135 167.314 26.6797C167.602 27.2042 167.839 27.6609 168.059 28.067C167.196 29.5219 166.587 29.8434 165.724 29.4035C164.878 28.9806 164.726 28.3546 165.233 26.7812Z" fill="#C39D70"/>
<path d="M47.0258 61.0919C46.4505 59.3154 46.552 56.1856 47.2119 54.9844C47.9732 55.7457 48.1424 56.9131 47.9224 59.8061C47.8886 60.2685 47.5954 60.6915 47.0427 61.0749L47.0258 61.0919Z" fill="#C39D70"/>
<path d="M134.731 55.2881C134.731 56.8446 134.816 58.3672 134.697 59.8729C134.63 60.9219 134.156 61.1926 132.667 61.4125C133.107 60.7865 133.462 60.262 133.784 59.8053C133.902 58.2995 134.02 56.8446 134.156 55.4065C134.156 55.3727 134.393 55.3558 134.731 55.2881Z" fill="#C39D70"/>
<path d="M121.5 44.9175C121.466 44.5791 121.432 44.3254 121.398 44.0208C122.583 43.581 123.716 43.6317 124.884 43.9701V44.9344H121.5V44.9175Z" fill="#C39D70"/>
<path d="M15.4905 46.8293C15.9304 46.7616 16.3534 46.694 16.9286 46.6094V48.1828C15.8458 48.2843 15.4398 47.8952 15.4905 46.8293Z" fill="#C39D70"/>
<path d="M110.147 53.3266C110.452 53.3097 110.74 53.2928 111.044 53.2759C111.061 53.3943 111.095 53.5127 111.112 53.6312C110.807 53.6988 110.503 53.7834 110.198 53.8511C110.198 53.6819 110.164 53.4958 110.147 53.3266Z" fill="#C39D70"/>
<path d="M32.2221 58.7405H29.9551C30.9702 58.233 31.5961 58.3514 32.2221 58.7405Z" fill="#C39D70"/>
<path d="M146.031 52.7676L146.724 53.1229C146.691 53.2244 146.657 53.3259 146.623 53.4274C146.352 53.3597 146.065 53.2751 145.794 53.2074C145.879 53.0552 145.946 52.9198 146.031 52.7676Z" fill="#C39D70"/>
<path d="M145.355 54.4423C145.456 54.2732 145.524 54.1717 145.575 54.0532C145.761 54.1717 146.048 54.2562 145.913 54.4931C145.778 54.7469 145.541 54.5269 145.338 54.4254L145.355 54.4423Z" fill="#C39D70"/>
<path d="M147.25 54.2727C147.148 54.4419 147.08 54.5434 147.013 54.6449C146.827 54.5265 146.539 54.4419 146.691 54.2051C146.827 53.9682 147.047 54.1881 147.25 54.2896V54.2727Z" fill="#C39D70"/>
<path d="M154.169 53.208C154.338 53.3095 154.439 53.3772 154.541 53.4449C154.406 53.631 154.338 53.9186 154.101 53.7663C153.864 53.631 154.084 53.411 154.186 53.208H154.169Z" fill="#C39D70"/>
<path d="M126.541 53.3935C126.456 53.5627 126.406 53.7657 126.372 53.7657C126.22 53.7488 126.067 53.6642 125.915 53.5965C125.966 53.495 126 53.292 126.05 53.292C126.203 53.292 126.355 53.3597 126.524 53.3935H126.541Z" fill="#C39D70"/>
<path d="M119.807 53.6305C119.908 53.4613 119.976 53.3598 120.043 53.2583C120.23 53.3767 120.517 53.4613 120.382 53.7151C120.247 53.9519 120.01 53.732 119.824 53.6474L119.807 53.6305Z" fill="#C39D70"/>
<path d="M118.844 53.208C119.013 53.3095 119.115 53.3772 119.216 53.4449C119.081 53.631 119.013 53.9186 118.759 53.7832C118.522 53.6479 118.742 53.411 118.844 53.2249V53.208Z" fill="#C39D70"/>
<path d="M101.011 53.6308C100.808 53.7154 100.588 53.9354 100.453 53.6816C100.318 53.4447 100.605 53.3601 100.791 53.2417C100.842 53.3432 100.91 53.4447 101.011 53.6308Z" fill="#C39D70"/>
<path d="M82.7404 53.6308C82.5373 53.7154 82.3174 53.9354 82.1821 53.6816C82.0467 53.4447 82.3512 53.3601 82.5373 53.2417C82.5881 53.3432 82.6558 53.4616 82.7573 53.6308H82.7404Z" fill="#C39D70"/>
<path d="M155.778 53.4617C155.676 53.6309 155.609 53.7324 155.541 53.8339C155.355 53.6986 155.067 53.6309 155.22 53.394C155.355 53.1572 155.592 53.3771 155.778 53.4786V53.4617Z" fill="#C39D70"/>
<path d="M93.7043 61.3121C93.5013 61.3967 93.2814 61.6167 93.146 61.3629C93.0107 61.126 93.3152 61.0584 93.4844 60.9399C93.5351 61.0415 93.6028 61.143 93.6874 61.3121H93.7043Z" fill="#C39D70"/>
<path d="M94.2435 61.3287C94.345 61.1596 94.4127 61.0581 94.4634 60.9565C94.6495 61.075 94.9371 61.1596 94.7849 61.3964C94.6495 61.6333 94.4296 61.4133 94.2266 61.3287H94.2435Z" fill="#C39D70"/>
<path d="M211.792 51.8373C210.997 51.9049 210.405 51.9388 209.796 51.9895C209.796 52.0741 209.796 52.1756 209.796 52.2602H222.434C222.874 53.6644 223.094 62.4281 222.789 65.1519C222.721 65.7271 222.468 66.2854 222.281 66.8776H198.325C197.97 65.3042 197.852 6.09037 198.173 3.1466C199.746 2.65597 214.076 2.65597 215.802 3.23119C211.86 12.9423 207.935 22.6533 203.993 32.3813C203.435 32.7704 202.893 33.1595 202.267 33.5994C201.675 33.6502 201.015 33.7178 200.355 33.7855C200.355 33.8532 200.355 33.9039 200.355 33.9716H209.796C209.796 33.9716 209.813 33.887 209.83 33.8363C209.119 33.7178 208.425 33.5825 207.799 33.481C207.157 32.652 207.224 31.8061 207.495 31.0617C208.324 28.71 209.254 26.3922 210.151 24.0744C210.219 23.9053 210.388 23.7699 210.557 23.55H212.858C212.926 24.1252 213.061 24.6327 213.061 25.1572C213.061 32.6012 213.095 40.0452 213.027 47.4724C213.027 48.9781 212.943 50.5515 211.758 51.8711L211.792 51.8373Z" fill="#C39D70"/>
<path d="M219.101 37.0845C220.437 37.2875 221.808 37.3213 222.738 38.7932V50.0269C221.283 50.6867 220.116 50.0269 218.796 49.2148C218.661 48.4027 218.373 47.4892 218.373 46.5756C218.34 39.4023 218.34 32.2289 218.356 25.0556C218.356 24.5988 218.424 24.142 218.475 23.5837H220.607C221.757 26.6967 222.891 29.7758 224.041 32.9056C223.72 33.244 223.432 33.5655 223.06 33.9546H233.448C233.448 33.9546 233.448 33.8192 233.448 33.7516C233.092 33.7008 232.737 33.6501 232.399 33.6162C231.231 33.5485 230.267 33.0579 229.742 32.0259C228.609 29.8096 227.475 27.5933 226.494 25.3094C224.768 21.2828 223.161 17.2225 221.537 13.1452C220.251 9.89687 219.033 6.61473 217.73 3.23108C218.39 3.19725 218.982 3.1465 219.575 3.1465C222.417 3.1465 225.259 3.18033 228.101 3.12958C231.536 3.0619 234.97 2.89272 238.405 2.79121C239.064 2.77429 239.724 2.79121 240.198 2.79121C240.435 3.01115 240.502 3.04498 240.536 3.11266C240.57 3.16341 240.621 3.23109 240.621 3.28184C240.655 23.7698 240.689 44.2747 240.705 64.7627C240.705 65.3041 240.672 65.8454 240.638 66.3868C240.638 66.5052 240.519 66.6237 240.401 66.8436H228.778C228.541 65.9131 228.135 65.0334 228.118 64.1367C228.051 60.4147 228.101 56.6927 228.118 52.9707C228.118 52.8522 228.203 52.7169 228.304 52.4631C230.165 52.074 232.111 52.3954 234.09 52.277C234.581 52.5985 235.089 52.9199 235.596 53.2583C235.85 53.935 236.121 54.5948 236.51 55.6268C236.73 53.3259 236.933 51.3973 237.119 49.3671C236.29 49.7224 235.664 50.1961 235.021 50.2299C232.805 50.3314 230.588 50.2638 228.406 50.2638C228 48.6904 227.898 42.3122 228.186 39.25C230.199 38.5733 235.461 38.7932 237.559 39.6729C237.745 40.4004 237.948 41.1787 238.151 41.9738C238.269 41.9569 238.388 41.9231 238.489 41.9061C238.675 40.2143 238.878 38.5056 239.081 36.7292C232.297 37.0675 225.699 36.763 219.084 37.0675L219.101 37.0845Z" fill="#C39D70"/>
<path d="M219.388 20.8436C216.834 21.6387 214.262 21.1142 211.42 20.9789C212.74 17.4092 213.991 13.9917 215.26 10.5234C216.529 11.6739 218.762 17.3753 219.388 20.8436Z" fill="#C39D70"/>
</svg>
