<svg width="102" height="59" viewBox="0 0 102 59" fill="none" xmlns="http://www.w3.org/2000/svg">
<path d="M101.308 0.0839844V45.1785C101.308 48.1709 96.2492 54.3178 93.795 56.06C93.1294 56.5288 88.7942 58.6761 88.3601 58.6761H0.00585938V48.3387H84.3316C84.9104 48.3387 88.1228 46.3708 88.6611 45.7631C89.0083 45.3753 90.9531 41.9604 90.9531 41.7289V0.0839844H101.314H101.308Z" fill="#C39D70"/>
<path d="M10.3605 0.0839844V16.7419H28.205V0.0839844H38.5656V43.1643H29.0675C29.0038 43.1643 28.205 42.3655 28.205 42.3019V25.9333H10.3605V43.1643H0V0.0839844H10.3605Z" fill="#C39D70"/>
<path d="M43.1719 43.1643L59.5694 0.651208C60.617 -0.627946 66.2603 0.442852 68.1588 0.049266L85.193 43.1643H74.2594L70.2483 33.0989L57.3352 32.7921L53.5383 43.1643H43.1777H43.1719ZM64.4603 15.5901C63.0017 15.3933 63.5573 15.6538 63.2679 16.4004C62.2666 18.9414 61.7167 21.7486 60.4376 24.2027H66.7697L64.466 15.5901H64.4603Z" fill="#C39D70"/>
</svg>
