<svg width="160" height="75" viewBox="0 0 160 75" fill="none" xmlns="http://www.w3.org/2000/svg">
<path d="M78.7877 40.9335L78.775 40.0074L67.5746 32.9402C67.5644 32.6009 67.4037 32.4759 67.7762 32.3049C69.6922 31.4273 71.5726 29.4602 73.3432 28.6183C73.7259 28.4371 74.0091 28.3657 74.4275 28.4958L91.9347 40.4615C91.9347 40.6452 89.4523 42.4082 89.0441 42.6939C84.865 45.628 79.6909 49.0493 74.4607 49.5774C60.0329 51.0291 46.3782 39.3364 56.9892 25.7276C63.6507 20.7984 70.7102 16.3795 77.632 11.8076L77.8335 11.1723C76.5553 11.06 74.9811 8.75616 73.8764 8.96282L52.9912 22.9747C52.2845 22.1685 46.8757 19.1554 46.7405 18.6936C46.6308 18.3185 46.9777 18.094 47.2686 17.9409L74.1494 0C74.453 0.216863 74.6571 0.535769 74.9607 0.755183C79.4817 4.0413 84.4925 6.81972 89.0441 10.0599C89.3783 10.2972 90.7688 11.259 90.6539 11.6519L63.8829 29.7332C63.2017 30.3328 61.9056 31.7794 61.6275 32.6034C59.9334 37.6296 63.8446 41.3672 68.4421 42.4771C72.2002 43.3853 75.3919 42.546 78.7877 40.931V40.9335Z" fill="#C39D70"/>
<path d="M78.1515 25.898C78.126 25.8776 78.0137 25.1811 78.3531 25.2628L84.3997 21.4L96.2634 29.0311C97.2406 28.5897 97.9498 27.7452 98.8734 27.2247C99.2102 27.0359 99.899 26.8828 99.9424 26.8471C99.9781 26.8165 99.9781 25.9414 99.9424 25.9108C99.899 25.8751 99.2102 25.722 98.8734 25.5332C96.1741 24.0075 92.9543 21.4893 90.3188 19.6728C89.8545 19.3513 89.2983 18.8972 88.7293 18.8564C88.64 18.4022 88.765 18.3334 89.0584 18.0655C90.6173 16.6342 93.4059 15.6851 94.9801 14.0981L113.089 26.3802L96.2634 37.6724L78.1515 25.9006V25.898Z" fill="#C39D70"/>
<path d="M55.3939 72.9552L56.5267 70.7228C56.8406 69.8681 56.3507 69.5875 57.634 69.7533L57.9708 71.501L57.7947 74.5549C56.7002 74.884 57.0064 72.1669 56.9936 71.6745C55.9731 72.2204 56.2257 74.0548 55.0725 74.5549C54.6949 73.5599 54.3045 72.0061 53.4703 71.353C53.2968 72.3429 53.9882 74.0344 52.8299 74.5549C52.6181 73.5726 53.0748 72.7383 53.1641 71.8479C53.2075 71.404 53.0544 69.8528 53.1513 69.7533C54.0928 68.7863 55.2842 72.3225 55.3965 72.9526L55.3939 72.9552Z" fill="#C39D70"/>
<path d="M48.335 69.7584C48.4192 69.8579 49.0136 71.7051 49.2509 72.2204C49.4397 72.6338 49.2075 72.746 49.9474 72.6389C49.8326 71.9526 51.0113 68.8757 51.8711 69.7584C51.9553 69.8452 51.8354 71.6643 51.8788 72.1516C51.9068 72.4884 52.6697 74.5575 51.7129 74.5575C51.2231 74.5575 50.9297 71.8964 50.9118 71.3581L50.0189 73.5063C49.8147 73.9094 49.6872 74.2385 49.1514 74.2385C48.9575 74.2385 48.3248 72.3684 48.1844 72.001C48.062 71.6821 48.1462 71.2688 47.7099 71.3581C47.8706 72.149 47.5568 72.7511 47.3986 73.4553C47.2711 74.0217 47.7099 74.3865 46.748 74.2385L47.3884 69.7559C47.6461 69.7916 48.2916 69.6998 48.3426 69.761L48.335 69.7584Z" fill="#C39D70"/>
<path d="M28.1334 69.7636C28.2993 69.96 28.8733 71.7638 29.0494 72.2256C29.2254 72.6874 29.0698 72.718 29.7484 72.6364L30.7052 69.9447L31.6747 69.7534L31.9962 74.555C30.348 74.7004 31.3303 72.019 31.0343 71.6746C30.9144 71.5342 30.1822 71.5776 30.3863 72.1363L29.2713 74.555C28.6845 74.2871 28.1028 72.0573 27.8273 71.3556C27.266 71.274 27.5645 71.8072 27.5186 72.1644C27.4676 72.5522 27.2634 74.4631 27.1869 74.5575C27.09 74.6774 26.8399 74.3764 26.7021 74.2386L27.1869 69.7559C27.4446 69.7917 28.0773 69.6972 28.1334 69.7661V69.7636Z" fill="#C39D70"/>
<path d="M10.8245 69.7635L11.9599 72.9552C12.687 72.1541 12.9753 70.9601 13.3963 69.9447C13.5366 69.6079 14.33 69.7176 14.3658 69.7533C14.4449 69.8401 14.3224 71.3708 14.3734 71.8275C14.4168 72.2179 15.1822 74.5523 14.2076 74.5523C13.3912 74.5523 14.1081 72.0546 13.2457 71.6745L11.965 74.5549C11.3118 74.2309 10.6919 71.353 10.3627 71.353L10.1357 73.0471L9.56416 74.5549C9.40088 73.2129 9.65091 72.1209 9.87543 70.8631C10.0413 69.9319 9.4417 69.5696 10.8296 69.761L10.8245 69.7635Z" fill="#C39D70"/>
<path d="M69.1763 69.7533C69.2605 69.6691 71.2326 69.7048 71.5413 69.7941C72.8833 70.1845 72.0491 71.3632 72.1052 71.7892C72.1562 72.1719 72.72 72.6006 72.72 73.1185C72.72 74.287 69.9085 75.134 69.3242 74.2487C69.1456 73.9783 69.0181 69.9115 69.1763 69.7533ZM70.1381 71.6745C72.3297 71.8837 70.9902 69.8273 70.4596 70.3937C70.4136 70.4422 70.4902 71.33 70.1381 71.6745ZM71.4214 72.3148H70.4621C70.332 73.9528 70.4468 74.6187 71.7046 73.1185L71.424 72.3148H71.4214Z" fill="#C39D70"/>
<path d="M93.2178 74.5547V69.7531C94.4985 69.771 96.4401 69.447 97.2234 70.7124C98.7771 73.2204 95.5726 75.0956 93.2178 74.5547ZM94.1796 73.9169C97.3407 74.3404 97.3356 69.8424 94.1796 70.3935V73.9169Z" fill="#C39D70"/>
<path d="M62.4463 69.7532C64.4848 69.5134 67.2938 69.8603 66.9341 72.4754C66.6866 74.2767 63.2117 75.1824 62.5943 74.2486C62.1223 73.5368 62.6377 70.7661 62.4463 69.7532ZM65.6176 70.7508C65.439 70.5237 63.5536 70.243 63.4082 70.3936C63.5281 71.1845 63.0382 73.6593 63.9006 73.9042C64.6354 74.1134 65.7426 73.4067 65.9416 72.7586C66.0309 72.4652 65.7222 70.886 65.6176 70.7508Z" fill="#C39D70"/>
<path d="M33.7969 69.7942C36.06 69.136 38.101 70.5213 37.2974 72.9706C36.2182 76.2644 30.3373 73.7947 32.9499 70.5469C33.131 70.3223 33.5597 69.8631 33.7969 69.7917V69.7942ZM35.042 70.1642C32.1794 70.1106 33.5597 75.3561 35.6926 73.6084C36.9708 72.5599 36.4605 70.1922 35.042 70.1642Z" fill="#C39D70"/>
<path d="M156.95 70.133C157.345 70.5182 157.69 71.5821 157.664 72.1638C157.567 74.2814 155.483 75.0571 153.702 74.1768C152.128 73.3987 152.255 70.6841 153.794 69.9085C154.411 69.5972 156.48 69.6763 156.95 70.1355V70.133ZM154.972 70.11C152.171 70.5795 154.268 75.8786 156.197 73.266C157.156 71.9649 156.289 69.8881 154.972 70.11Z" fill="#C39D70"/>
<path d="M20.1348 74.5549V69.7533C21.3951 69.8145 23.1504 69.3885 23.9465 70.5901C25.7222 73.2741 22.6835 75.0243 20.1348 74.5549ZM21.0966 73.9171C24.2577 74.3406 24.2526 69.8426 21.0966 70.3937V73.9171Z" fill="#C39D70"/>
<path d="M38.7269 69.753V71.6742H40.4822L40.6506 69.7505H41.6124C41.3904 71.2303 42.1354 73.3198 41.1302 74.5521C40.3469 74.7001 40.6735 73.9321 40.6506 73.432C40.6353 73.0595 40.6608 72.682 40.6506 72.312H38.7269V74.5521C38.3314 74.6388 37.9053 74.4118 37.7956 74.0418C37.4818 72.9805 37.9589 70.9522 37.765 69.7505H38.7269V69.753Z" fill="#C39D70"/>
<path d="M4.10702 74.5546C3.42327 75.3098 2.82881 72.881 3.14518 72.312H1.22147V74.5521C0.361674 74.6184 0.305546 74.1133 0.249416 73.4423C0.152466 72.2559 0.338715 70.9522 0.259624 69.7505H1.22147L1.38986 71.6742H3.14518V69.7505H4.10702V74.5521V74.5546Z" fill="#C39D70"/>
<path d="M108.924 69.753C109.128 69.5514 111.284 69.6535 111.656 70.3831C112.258 71.5644 111.105 71.9241 111.189 72.4293C111.297 73.0646 112.442 73.9703 112.447 74.0723C112.455 74.2076 111.771 74.8403 111.485 74.3938L109.886 72.312C109.86 73.1692 110.243 74.5928 108.924 74.552V69.7504V69.753ZM109.886 71.9956C111.21 72.016 111.21 70.3755 109.886 70.3959V71.9956Z" fill="#C39D70"/>
<path d="M102.193 69.7534C102.321 69.6207 103.048 69.7126 103.31 70.0774C103.994 71.0214 104.67 72.0139 105.719 72.6338C105.729 72.0496 105.706 71.4602 105.719 70.8734C105.729 70.4856 105.479 69.6794 106.038 69.7534C106.13 71.2995 105.773 72.9221 106.362 74.3917C105.584 74.9351 105.137 73.5166 104.762 73.1059C104.206 72.4935 103.553 71.9629 102.992 71.3531L102.831 73.7564L102.19 74.2335V69.7508L102.193 69.7534Z" fill="#C39D70"/>
<path d="M75.2695 69.7529C75.6624 69.3268 77.4458 71.5694 77.8464 71.822C78.747 73.8707 78.4204 71.3194 78.474 70.2325C78.5046 69.6075 78.4332 69.7274 79.1144 69.7555V74.557C78.0173 74.0085 77.4688 72.817 76.7187 71.9879C75.1292 70.2325 75.6165 72.4726 75.6573 73.7023C75.6675 74.034 76.1268 74.3147 75.2695 74.5545V69.7529Z" fill="#C39D70"/>
<path d="M92.2565 69.7559C92.6852 70.1181 92.3025 70.3707 91.7794 70.3962C90.3813 70.4651 90.1721 69.9523 90.3328 71.677C90.4017 71.7433 92.9199 71.4805 91.9376 72.3174C91.8534 72.3888 89.8838 72.0673 90.3354 73.4374C90.6084 74.264 92.106 73.6721 92.578 74.0778C91.8381 74.8432 89.519 74.9325 89.3633 73.7665C89.2001 72.5445 89.5011 71.0213 89.3735 69.7559H92.2591H92.2565Z" fill="#C39D70"/>
<path d="M99.948 69.7533C100.147 70.0186 100.532 71.5162 100.744 72.001C100.933 72.427 101.869 73.9578 101.869 74.0777C101.869 74.1874 101.377 74.6441 101.071 74.5574C100.527 74.4018 100.379 73.1082 100.249 72.9756C100.119 72.8429 99.1903 73.0241 98.8459 72.9424L97.8636 74.5548C97.0166 73.9119 97.6799 74.0216 97.8534 73.5879C98.3126 72.4424 98.805 71.3198 99.2439 70.1666C99.3816 69.8043 99.5832 69.2736 99.9429 69.7558L99.948 69.7533ZM99.9506 72.3148L99.6291 71.3555H99.3102L98.9887 72.3148H99.9506Z" fill="#C39D70"/>
<path d="M145.145 69.7558C145.578 70.1232 145.186 70.3682 144.665 70.3962C143.377 70.4625 143.461 70.0875 143.54 71.677C145.882 71.4091 145.793 72.6005 143.54 72.3173V73.9196L145.785 74.0778C145.045 74.8432 142.726 74.9325 142.57 73.7665C142.491 73.1695 142.471 70.7432 142.606 70.2635C142.797 69.5925 144.989 69.6283 145.142 69.7558H145.145Z" fill="#C39D70"/>
<path d="M17.5688 69.7532C17.6428 70.5263 19.7527 74.2946 19.4925 74.5548C19.268 74.7794 18.5 74.5523 18.2653 74.0191C17.8214 73.0113 17.9898 72.746 16.4615 72.9424C16.1707 72.9807 16.0355 74.5217 15.3262 74.5548C15.3211 72.9373 16.4998 71.6922 16.9208 70.215C17.056 69.7405 16.7422 69.6691 17.5688 69.7507V69.7532ZM17.5714 72.3148L17.2499 71.3555H16.931L16.6095 72.3148H17.5714Z" fill="#C39D70"/>
<path d="M44.4949 69.7531C44.5409 70.5109 46.6304 74.343 46.4187 74.5547C46.1559 74.8175 45.4491 74.4884 45.1736 74.0393C44.574 73.0596 45.1685 72.7305 43.3953 72.9423C43.0968 72.978 42.9667 74.5241 42.2549 74.5573C42.3467 73.0214 43.4438 71.6411 43.8495 70.2175C43.9847 69.7429 43.6709 69.6715 44.4975 69.7531H44.4949ZM44.4949 72.3146L44.1735 71.3554H43.8546L43.5331 72.3146H44.4949Z" fill="#C39D70"/>
<path d="M118.539 69.7535C118.368 70.6542 120.565 74.101 120.142 74.5551C119.922 74.7924 119.164 74.1979 119.017 73.9147C118.802 73.5065 118.981 72.9886 118.695 72.9452C118.317 72.8866 117.552 72.8917 117.243 73.0983C116.797 73.3968 116.822 74.2107 116.458 74.5551C115.7 73.9964 116.19 74.0244 116.363 73.5014C116.697 72.4936 117.187 71.2461 117.631 70.2868C117.828 69.8632 118.057 69.6668 118.539 69.7535ZM118.221 72.315C118.514 70.4118 117.264 71.9987 117.58 72.315H118.221Z" fill="#C39D70"/>
<path d="M115.336 69.756C115.769 70.1234 115.376 70.3683 114.856 70.3964C113.573 70.4627 113.649 70.0851 113.733 71.6695C114.343 71.6516 115.111 71.5419 115.336 72.3149H113.733V73.9172C113.812 73.9963 116.698 73.6774 115.657 74.5576C115.565 74.6341 113.568 74.6137 113.282 74.5295C112.317 74.254 112.953 70.7586 112.774 69.7534H115.338L115.336 69.756Z" fill="#C39D70"/>
<path d="M8.91715 74.5549C6.9016 74.6442 8.40178 72.621 5.88872 72.9425C5.59787 72.9807 5.46264 74.5217 4.75337 74.5549C4.67683 73.7818 6.45511 69.7584 6.83526 69.7559C7.37614 70.7356 8.02929 71.927 8.4426 72.9501C8.56507 73.2486 9.02685 74.4426 8.91715 74.5549ZM6.99344 72.3148C7.2001 71.9143 6.48063 71.1974 6.35306 71.3555C6.3199 71.3964 6.31479 72.0138 6.03159 72.3148H6.99344Z" fill="#C39D70"/>
<path d="M87.1279 69.7534C87.2938 69.9626 88.1791 72.7231 88.4776 73.3686C88.6255 73.6901 89.0516 74.0294 89.0516 74.0753C89.0516 74.1799 88.5592 74.6443 88.2531 74.555C87.7071 74.3968 87.5668 73.1135 87.4315 72.9732C87.378 72.917 86.5539 72.9119 86.3192 72.9477C85.3905 73.0905 85.4925 73.9478 85.046 74.555C84.3419 74.0269 84.7144 74.0498 84.9414 73.4911C85.3981 72.3634 85.9441 71.2791 86.4314 70.1693C86.5666 69.8606 86.7121 69.2278 87.1279 69.7534ZM87.1279 72.3149C86.8422 72.0138 86.8422 71.3939 86.8065 71.3556C86.6712 71.2051 85.9722 71.8965 86.1661 72.3149H87.1279Z" fill="#C39D70"/>
<path d="M135.55 72.9732C135.399 73.1288 135.297 74.3203 134.728 74.555C134.425 74.5371 134.55 74.0218 134.614 73.7998C134.779 73.2385 136.338 69.7585 136.652 69.7534L138.734 74.0754C137.497 75.4735 137.624 73.4273 137.152 73.0957C136.882 72.9043 135.647 72.8711 135.55 72.9732ZM136.813 72.3149C137.019 71.9144 136.3 71.1975 136.172 71.3557C136.139 71.3965 136.134 72.0139 135.851 72.3149H136.813Z" fill="#C39D70"/>
<path d="M61.4845 69.7559C61.9182 70.1233 61.5253 70.3682 61.0049 70.3962C59.7164 70.4626 59.8032 70.0875 59.8797 71.677C61.8341 71.4372 61.6606 72.5904 59.8797 72.3174V73.9196L61.8034 74.0778C61.0763 74.856 59.0607 74.9044 58.9102 73.7665C58.7469 72.5445 59.048 71.0213 58.9204 69.7559H61.4845Z" fill="#C39D70"/>
<path d="M152.2 70.0749C152.414 71.4883 150.967 70.0366 150.268 70.2126C149.056 70.5162 148.804 71.6337 149.049 72.741C149.595 75.2081 152.067 73.1288 152.2 73.2742C152.646 73.7692 151.248 74.504 150.756 74.5626C146.653 75.0499 147.199 67.7761 152.202 70.0749H152.2Z" fill="#C39D70"/>
<path d="M130.401 69.7559V70.7152C129.822 70.9524 129.436 70.0748 129.278 70.0773C129.166 70.0773 128.707 70.5723 128.798 70.8759C128.952 71.3887 130.311 71.8071 130.569 72.3072C131.138 73.4119 130.477 74.486 129.27 74.5753C128.398 74.6391 127.507 74.1977 127.837 73.2792C128.492 73.7563 128.865 74.088 129.758 73.9196C130.169 72.1694 129.038 72.8123 128.314 72.001C126.913 70.4345 128.776 69.3579 130.401 69.7584V69.7559Z" fill="#C39D70"/>
<path d="M127.197 69.7559C127.631 70.1233 127.238 70.3682 126.717 70.3962C125.429 70.4626 125.516 70.0875 125.592 71.677C127.712 71.478 127.24 72.6312 125.439 72.3174C125.079 72.3607 125.151 73.713 125.778 73.8916C126.304 74.0421 127.118 73.7002 127.513 74.0778C127.059 74.7131 125.419 74.7156 124.806 74.5422C124.069 74.3329 124.638 73.6568 124.643 73.1338C124.656 72.0087 124.605 70.8784 124.628 69.7584H127.192L127.197 69.7559Z" fill="#C39D70"/>
<path d="M82.6398 71.3526C82.7087 71.4113 83.5507 71.5057 83.9257 71.8323C85.0126 72.7788 84.589 74.4653 83.1118 74.5724C82.2393 74.6362 81.3514 74.1948 81.6805 73.2763C81.7494 73.1896 83.2317 74.7 83.6017 73.4345C83.8134 72.7125 82.104 72.2073 81.8285 71.6843C81.0478 70.1892 83.1118 68.9646 84.2395 70.2326C83.6374 71.2021 83.3159 70.0515 83.1195 70.0744C82.7521 70.1178 82.4561 71.1919 82.6398 71.3501V71.3526Z" fill="#C39D70"/>
<path d="M142.26 69.7559C143.252 70.5927 140.724 70.3274 140.657 70.3962C140.55 70.5034 140.662 72.9552 140.657 73.4374C140.652 73.9196 140.948 74.708 140.178 74.5574C139.175 74.0013 139.981 70.6565 139.698 70.3962C139.476 70.1921 138.088 70.8886 138.415 69.7559H142.26Z" fill="#C39D70"/>
<path d="M134.888 69.7559C135.881 70.5927 133.353 70.3274 133.286 70.3962C133.179 70.5034 133.291 72.9552 133.286 73.4374C133.281 73.9196 133.577 74.708 132.807 74.5574C131.804 74.0013 132.61 70.6565 132.327 70.3962C132.105 70.1921 130.717 70.8886 131.044 69.7559H134.888Z" fill="#C39D70"/>
<path d="M121.746 69.7534C121.917 69.9371 121.575 72.718 121.774 73.4069C121.994 74.1698 123.318 73.8763 123.992 73.9146C123.759 74.8994 121.027 74.7923 120.813 74.0473C120.504 72.9732 120.978 70.9627 120.784 69.7534H121.746Z" fill="#C39D70"/>
<path d="M73.3447 69.7534H74.3066C74.2275 70.9551 74.4137 72.2588 74.3168 73.4452C74.2632 74.1162 74.2071 74.6213 73.3447 74.555V69.7534Z" fill="#C39D70"/>
<path d="M159.25 73.5954C159.972 74.3097 157.617 75.0267 157.969 73.7561C158.16 73.0647 158.573 73.4959 158.79 73.575C158.971 73.6413 159.209 73.552 159.25 73.5954Z" fill="#C39D70"/>
<path d="M100.591 64.6322C100.387 63.9484 100.191 62.2645 99.6472 61.8946C98.8359 61.3461 97.5883 62.239 97.3867 62.0707C96.7668 61.5476 98.7619 60.7899 99.1523 60.7848C99.3003 60.7848 100.798 61.4124 100.864 61.4787C101.706 62.313 100.698 65.4307 103.609 64.6041C104.622 64.3158 103.854 61.3716 104.117 61.1088C104.191 61.0348 105.86 61.0629 106.202 61.1088C108.416 61.4099 108.926 64.9154 107.778 65.2419L83.2856 65.27C82.8544 64.9077 83.2396 64.6551 83.7627 64.6296C84.2857 64.6041 86.3931 64.7266 86.49 64.6296C86.5615 64.5582 86.5359 62.8871 86.4492 62.5886C85.9976 61.0246 83.7269 62.1727 83.6045 62.0681C82.9845 61.5451 84.9771 60.7873 85.37 60.7822C85.518 60.7822 87.0156 61.4098 87.0819 61.4762C87.7351 62.1319 87.1355 64.0658 87.758 64.4817C88.3448 64.8746 89.8756 64.5046 90.6564 64.6296V61.1063C91.6106 61.1649 92.6285 60.9481 93.5572 61.2517C95.5881 61.9125 94.6262 64.6296 94.8227 64.6296H100.591V64.6322ZM93.8608 64.6322C93.968 63.1601 93.8506 61.4277 91.9371 61.7492V64.6322H93.8608ZM107.003 64.6322C107.23 64.3975 106.926 62.4763 106.528 62.0656C106.191 61.7186 105.209 61.614 105.079 61.7517C104.99 61.8461 105.015 64.0122 105.227 64.326C105.487 64.7138 106.903 64.7368 107.003 64.6347V64.6322Z" fill="#C39D70"/>
<path d="M48.3421 64.6323H55.0751C55.172 64.0812 54.9322 61.5988 55.0878 61.4457C55.1287 61.4049 56.0293 61.1166 56.1951 61.1115C56.537 61.1013 56.2742 64.1705 56.3559 64.6348H59.2414C59.0985 63.8312 58.7107 63.1296 58.9607 62.2723C59.272 61.2084 61.9535 60.5374 62.7673 61.5937L60.3563 62.0631C59.5705 62.7545 60.1981 64.3491 61.0452 64.594C61.5503 64.7395 64.3594 64.7165 64.7038 64.4869C65.5253 63.9383 64.3032 61.1166 65.8111 61.1115C66.1657 61.1115 65.88 63.0989 65.9641 63.5199C66.6581 65.0507 67.1582 64.9053 67.2551 63.1959C67.2934 62.5223 66.9464 61.1166 68.0537 61.1115C68.4083 61.1115 68.1226 63.0989 68.2068 63.5199C69.934 66.3136 69.2299 62.6372 69.5233 61.6192C69.661 61.1421 70.5948 60.9278 70.7785 61.1115C70.9724 61.3054 70.8193 64.4205 70.304 64.9563C69.5539 65.7345 69.0002 64.9563 68.3752 64.9538C67.9338 64.9538 67.4847 65.3849 66.7704 65.288C66.232 65.214 65.9539 64.6833 65.8111 64.6833C65.6682 64.6833 65.3952 65.2012 64.8569 65.2829C62.2775 65.6707 57.68 65.288 54.9245 65.2905C51.3425 65.2905 47.7528 65.2599 44.1733 65.2752C43.7421 64.9129 44.1273 64.6604 44.6504 64.6348C46.2067 64.5583 47.8191 65.1706 47.3241 62.9255C46.9491 61.2186 45.4668 61.7212 44.1707 62.0733C46.2424 59.3613 49.0463 61.5962 48.337 64.6348L48.3421 64.6323Z" fill="#C39D70"/>
<path d="M15.6475 59.1904V64.1528C15.6475 64.8314 17.9259 64.6171 18.5331 64.6324C17.2829 61.0197 19.7475 60.8769 22.702 61.1116V64.635H25.266C23.6689 62.2291 25.4064 60.734 28.0011 61.1065C28.5624 61.1881 29.0803 61.8336 28.792 62.076C28.6695 62.1806 26.4065 61.035 25.9447 62.5939C25.1461 65.2983 28.7588 64.5941 30.3942 64.6375V59.517L31.6775 59.1981V65.2804H15.4894C14.3617 65.2804 14.2367 61.1958 14.3591 60.3105C14.4382 59.7415 15.0174 59.1139 15.6475 59.1981V59.1904ZM21.4186 61.7494C18.38 61.257 18.7321 64.8595 21.4186 64.6324V61.7494Z" fill="#C39D70"/>
<path d="M131.684 64.6321C131.778 62.4864 131.174 60.9276 128.801 62.0706C128.957 60.573 130.694 60.6597 131.684 61.272C132.743 61.9277 132.827 64.0989 132.967 65.2725H110.209C109.778 64.9102 110.163 64.6576 110.686 64.6321C111.21 64.6066 113.317 64.7291 113.414 64.6321C113.465 64.5811 113.457 63.4636 113.414 63.1906C112.99 60.6112 110.656 62.2084 110.531 62.0706C110.015 61.4991 111.812 60.7898 112.296 60.7847C112.84 60.7771 114.192 61.7721 114.337 62.2721C114.496 62.813 114.261 64.5173 114.378 64.6321C114.572 64.826 119.608 64.6398 119.841 64.4841C120.532 64.0223 119.922 61.3333 120.147 61.1087C120.481 60.7771 123.374 61.1496 123.841 62.0604C124.15 62.6599 123.77 64.6296 124.474 64.6296H131.686L131.684 64.6321ZM123.03 64.6321C123.137 63.16 123.02 61.4277 121.106 61.7491V64.6321H123.03Z" fill="#C39D70"/>
<path d="M149.311 61.1111V64.6319C149.977 64.5452 151.35 64.8947 151.73 64.3232C152.256 63.5349 151.345 61.8255 152.36 61.1085C153.131 60.958 152.835 61.7362 152.84 62.226C152.848 62.8103 152.802 64.586 153.641 64.6268C154.394 64.6626 154.003 62.1189 154.149 61.6137C154.287 61.1366 155.22 60.9223 155.404 61.106C155.588 61.2897 155.024 64.6243 155.886 64.6243C156.654 64.6243 156.241 62.1393 156.394 61.6112C156.532 61.1341 157.465 60.9197 157.649 61.1034C157.848 61.305 157.728 64.6345 157.027 65.1192C156.325 65.604 155.766 64.9458 155.246 64.9458C154.325 64.9458 152.689 65.2111 151.712 65.257C151.235 65.28 149.431 65.1856 149.334 65.2825C149.245 65.3718 149.153 66.2342 148.845 66.5556C148.717 66.6883 147.622 67.1782 147.551 67.1782C147.487 67.1782 147.046 66.7546 147.071 66.548C147.434 66.5684 147.901 66.4025 148.008 66.0403C148.242 65.2493 147.824 61.6545 148.049 61.4377C148.094 61.3918 149.248 61.0346 149.317 61.1034L149.311 61.1111Z" fill="#C39D70"/>
<path d="M145.467 64.6322C145.538 64.5608 145.513 62.8896 145.426 62.5911C144.954 60.9506 140.629 62.359 140.66 61.2696C140.665 61.0476 143.265 59.2566 143.699 59.1826C144.321 59.0754 144.222 59.3357 144.186 59.8281C143.4 59.8969 142.576 60.3741 142.262 61.1088C145.661 60.6445 147.145 61.7645 146.75 65.2726C144.242 65.2139 141.714 65.344 139.203 65.2879C138.69 65.2752 138.29 64.9562 137.935 64.9562C137.236 64.9562 135.818 65.7931 135.042 64.6424C133.391 62.1982 136.486 60.522 138.739 61.1114C138.795 61.7977 138.473 64.6322 139.218 64.6322C140.114 64.6322 145.247 64.8542 145.469 64.6322H145.467ZM137.774 61.7518C137.471 61.4354 136.08 61.938 135.889 62.5886C135.361 64.3796 137.407 65.2981 137.746 64.1245C137.828 63.8413 137.856 61.836 137.774 61.7518Z" fill="#C39D70"/>
<path d="M3.9469 65.2725C3.36775 65.2623 3.10752 65.2445 2.35232 65.2904C0.681203 65.3924 -0.742441 63.6371 0.428619 62.0782C1.41853 60.7618 2.98505 61.1445 4.4291 61.1113V64.6321H9.2358C9.39654 64.6321 9.06997 61.619 9.25111 61.4455C9.29703 61.3996 10.4502 61.0424 10.5191 61.1113V65.2725C8.33518 65.2419 6.13594 65.3133 3.94945 65.2725H3.9469ZM3.14578 61.7517C3.07945 61.6803 2.10994 61.7185 1.84716 61.8971C1.04349 62.4431 0.966951 64.2801 2.04871 64.6092C3.53869 65.0608 3.2657 61.8818 3.14578 61.7517Z" fill="#C39D70"/>
<path d="M77.5116 61.1113L77.68 64.6347H80.7187C81.0554 64.2979 79.9584 60.92 81.6805 61.1113V65.2725C81.5096 65.446 78.1342 65.0939 77.3943 65.3108C76.5957 65.5455 76.3508 66.9003 74.5189 66.4997C72.534 66.066 72.5595 64.0454 72.7049 62.3895H73.6668C73.6795 63.9433 73.1846 66.1859 75.3787 65.8619C75.4629 65.8491 76.1849 65.6068 76.2181 65.5762C76.4197 65.3797 76.0497 61.6369 76.2487 61.4455C76.2946 61.3996 77.4479 61.0424 77.5167 61.1113H77.5116Z" fill="#C39D70"/>
<path d="M40.6499 61.1112C40.8719 63.3105 40.8591 67.2012 37.6547 66.5022C35.6697 66.0684 35.6952 64.0478 35.8407 62.392H36.8025C36.8153 63.9457 36.3203 66.1884 38.5145 65.8643C38.5986 65.8516 39.3207 65.6092 39.3539 65.5786C39.5554 65.3821 39.1855 61.6393 39.3845 61.448C39.4304 61.4021 40.5836 61.0449 40.6525 61.1138L40.6499 61.1112Z" fill="#C39D70"/>
<path d="M42.893 59.1904V65.2727C42.4184 65.3339 41.7908 65.2957 41.6377 64.765C41.4795 64.2165 41.5357 60.2645 41.7627 59.8205C41.9235 59.5016 42.472 59.0908 42.893 59.1878V59.1904Z" fill="#C39D70"/>
<path d="M33.9171 59.1904V65.2727C33.4426 65.3339 32.8149 65.2957 32.6619 64.765C32.5088 64.2343 32.5598 60.2645 32.7869 59.8205C32.9476 59.5016 33.4962 59.0908 33.9171 59.1878V59.1904Z" fill="#C39D70"/>
<path d="M13.0831 61.1112C13.254 61.3026 13.1469 65.7598 12.7157 66.1858C12.5524 66.3491 11.3201 66.6859 11.1594 66.5532C10.5496 66.0455 11.9809 65.798 12.0957 65.4077C12.384 64.4229 11.8585 62.614 12.1519 61.6241C12.259 61.2618 12.9147 60.9301 13.0831 61.1138V61.1112Z" fill="#C39D70"/>
<path d="M56.6756 65.5913V66.5532L54.4355 66.0735L56.6756 65.5913Z" fill="#C39D70"/>
<path d="M38.4052 61.7516H37.4434V60.7923C38.0735 60.703 38.4996 61.1648 38.4052 61.7516Z" fill="#C39D70"/>
<path d="M75.2665 61.7513H74.3047V60.792C74.8915 60.6951 75.3558 61.1237 75.2665 61.7513Z" fill="#C39D70"/>
<path d="M1.54395 60.471V59.5117C2.72266 59.5219 2.72266 60.4634 1.54395 60.471Z" fill="#C39D70"/>
<path d="M2.82617 60.471V59.5117C4.00489 59.5219 4.00489 60.4634 2.82617 60.471Z" fill="#C39D70"/>
<path d="M20.454 59.5116C20.7729 59.828 19.885 60.9659 19.4947 59.9913C19.2242 59.3152 20.3596 59.4172 20.454 59.5116Z" fill="#C39D70"/>
<path d="M21.7372 59.5116C22.0561 59.828 21.1682 60.9659 20.7779 59.9913C20.5074 59.3152 21.6428 59.4172 21.7372 59.5116Z" fill="#C39D70"/>
<path d="M136.813 59.5117V60.471C135.634 60.4608 135.634 59.5194 136.813 59.5117Z" fill="#C39D70"/>
<path d="M138.094 59.5117V60.471C136.915 60.4608 136.915 59.5194 138.094 59.5117Z" fill="#C39D70"/>
<path d="M153.48 60.471V59.5117C154.659 59.5219 154.659 60.4634 153.48 60.471Z" fill="#C39D70"/>
<path d="M154.764 60.471V59.5117C155.942 59.5219 155.942 60.4634 154.764 60.471Z" fill="#C39D70"/>
<path d="M81.3567 65.5913V66.5506C80.178 66.5404 80.178 65.599 81.3567 65.5913Z" fill="#C39D70"/>
<path d="M9.23626 66.5535H8.27441C8.28462 65.3773 9.22606 65.3773 9.23626 66.5535Z" fill="#C39D70"/>
<path d="M7.95502 65.9131H6.99316V66.5535H7.95502V65.9131Z" fill="#C39D70"/>
<path d="M155.083 58.5498H154.121V59.1902H155.083V58.5498Z" fill="#C39D70"/>
</svg>
