<svg width="460" height="71" viewBox="0 0 460 71" fill="none" xmlns="http://www.w3.org/2000/svg">
<path d="M43.4825 36.8761C41.1411 40.3132 40.1497 44.0829 39.2823 47.8136C38.7996 49.8745 38.9953 52.1572 39.2301 54.303C39.4127 55.9596 40.6519 57.1662 42.0281 58.138C47.3827 59.3119 51.3154 56.3118 55.2874 53.5334C57.4853 51.9942 59.5593 50.2789 61.7116 48.6614C61.8225 48.5766 62.1029 48.7332 62.5725 48.831C62.3573 49.3071 62.2594 49.8289 61.9529 50.1354C58.2875 53.8465 54.7656 57.7205 50.8524 61.1577C47.0044 64.5361 43.0194 67.8428 38.0496 69.6298C36.1191 70.3211 34.1951 70.2037 32.3102 69.8776C30.5623 69.5776 28.7818 66.8384 28.6839 64.6339C28.5274 61.0729 28.7948 57.5966 29.9101 54.1204C31.4949 49.1832 33.5429 44.4743 35.9039 39.8762C36.4843 38.7414 37.0452 37.5935 37.73 36.2108C29.8775 34.8934 22.2206 33.5368 14.655 30.7128C14.5246 31.7302 14.3681 32.4346 14.3615 33.1455C14.3355 36.4065 14.3159 39.6675 14.355 42.922C14.3942 46.5939 13.5659 50.155 12.9593 53.7421C12.8549 54.3486 12.431 54.903 11.9223 55.4639C12.0201 48.9745 11.2114 42.6416 9.24174 36.5239C7.2786 30.4454 4.0241 25.019 0 19.9122C1.76095 16.6773 3.54147 13.4032 5.39373 9.99874C8.94172 14.4859 12.5615 18.4839 17.7726 20.5188C20.7531 21.6862 23.7598 22.8798 26.8578 23.6494C31.208 24.732 35.6234 25.4495 40.1367 25.8604C43.9194 26.206 47.6696 26.3691 51.4328 26.3039C56.5853 26.2191 61.7116 25.6582 66.8379 25.169C70.5098 24.8233 74.0643 24.2364 77.508 23.0298C80.2081 22.0841 82.6473 20.7145 83.4496 17.7013C82.7191 14.0489 80.1559 12.1054 77.1101 10.814C74.2404 9.59437 71.312 8.90956 68.051 9.88787C62.4877 11.564 57.6288 14.4011 53.109 17.9295C50.5915 19.8927 48.0936 21.8689 45.126 23.5385C45.3152 22.8993 45.3673 22.1689 45.7195 21.6341C48.7718 17.0686 51.772 12.4641 55.8222 8.66824C60.1398 4.61805 64.9987 1.30486 70.8881 0.496122C75.0622 -0.0778177 79.5233 -0.664802 83.5148 1.89836C86.0388 3.51583 87.9628 5.42027 88.915 8.43997C91.0803 15.2751 89.4498 21.008 84.6953 26.1799C80.7951 30.4258 75.6818 32.4607 70.4511 34.039C66.1792 35.3238 61.692 35.8521 57.1918 36.3152C52.6459 36.7848 48.1327 36.5565 43.4759 36.8761H43.4825Z" fill="#C39D70"/>
<path d="M339.06 32.8974C338.153 32.3299 337.24 31.756 336.262 31.1364C335.584 31.7234 334.938 32.2778 334.168 32.9495C331.507 32.8517 328.638 33.7061 326.329 31.6777C321.718 33.7974 320.231 33.4974 317.094 29.9364V13.5921H319.624C319.624 16.3444 319.52 19.038 319.657 21.7121C319.787 24.3404 318.9 27.1253 320.603 29.6233H323.701C325.638 27.5493 324.431 24.8948 325.012 21.9925C325.918 21.0664 327.17 19.7881 328.194 18.738C335.166 17.8119 338.232 20.1859 337.925 27.8623C338.943 29.7733 340.769 30.0864 343.065 30.3016V19.5859C343.834 19.4685 344.532 19.3576 345.256 19.2467C345.432 19.6576 345.66 19.9381 345.667 20.225C345.712 22.0708 345.504 23.9491 345.791 25.7492C345.98 26.9362 346.697 28.1363 347.467 29.1015C348.269 30.1059 349.345 30.2038 351.471 30.0277V13.6769C352.358 13.5791 353.056 13.5008 353.78 13.416C353.943 13.8334 354.152 14.1204 354.152 14.4139C354.185 17.7793 354.172 21.1446 354.191 24.51C354.217 28.4754 355.991 30.3016 359.865 30.3277C364.183 30.3538 368.501 30.3277 373.125 30.3277C372.101 26.5449 372.466 23.0491 372.466 19.4098H375.303C375.407 19.6446 375.642 19.925 375.642 20.2055C375.668 23.1143 375.662 26.0296 375.662 28.5732C377.025 30.1516 378.388 29.5776 379.829 29.6559C381.988 26.571 380.247 22.9317 381.147 19.4228C381.982 19.3837 382.895 19.338 384.101 19.2793V28.5993C385.584 29.6646 387.084 30.1538 388.601 30.0668V18.2815C389.482 18.151 390.18 18.0467 390.773 17.9554C391.497 18.7119 391.654 27.0993 391.145 32.7734C388.204 32.9626 385.223 33.6474 382.288 31.6451C381.003 32.7539 379.425 33.0474 377.631 33.0213C371.338 32.9169 365.037 33.0082 358.737 32.9561C357.472 32.943 356.213 32.4669 354.948 32.4669C353.689 32.4669 352.411 32.7082 351.171 33.0017C349.163 33.4713 347.278 32.3626 345.197 32.806C343.332 33.2039 341.317 32.8908 339.047 32.8908L339.06 32.8974ZM329.733 30.269C331.775 30.5299 333.353 30.132 334.488 28.6906V23.3947C333.686 22.6447 332.91 21.9208 332.231 21.2816C330.02 21.2033 328.41 21.8621 327.744 23.9035C326.929 26.4079 327.516 28.5406 329.733 30.269Z" fill="#C39D70"/>
<path d="M239.156 26.6298C238.028 26.3624 237.154 26.1602 236.41 25.9841C235.882 21.5556 235.914 21.2621 237.017 19.4816C245.456 17.825 250.035 23.2644 249.924 30.0147C252.428 30.6669 255.018 30.2495 257.568 30.3213C260.053 30.393 262.551 30.3343 265.192 30.3343C265.74 27.7777 264.788 25.7689 263.333 24.0471C261.95 22.4231 260.007 22.2535 257.835 22.7361C257.744 23.8253 257.652 24.8819 257.542 26.1537C256.889 26.245 256.198 26.3493 255.337 26.4733C254.763 24.1123 255.076 21.8817 255.109 19.4555C258.559 19.1229 261.846 18.7838 264.69 21.1708C266.633 22.8013 268.127 24.6732 268.101 27.3994C268.075 29.7734 268.101 32.154 268.101 34.7432C267.214 34.7889 266.516 34.828 265.825 34.8606C265.57 34.2214 265.381 33.7388 265.114 33.0475H219.531C218.879 31.2017 219.172 29.4669 219.185 27.7711C219.198 25.4363 217.946 23.9297 216.192 22.71C215.905 22.5079 215.39 22.6383 214.627 22.5926C214.627 24.5493 214.503 26.3819 214.653 28.182C214.933 31.4887 214.046 34.1888 210.668 36.1389C207.504 37.0977 204.237 36.9868 201.772 33.5562C199.424 30.2821 200.089 27.1255 202.046 23.6753C202.848 24.334 203.552 24.921 204.289 25.5276C203.467 28.1886 202.646 30.843 205.183 32.7736C207.035 34.1823 209.044 33.8366 211 32.2844C212.911 28.3255 211.437 23.884 212.174 19.4947C214.848 18.7577 217.229 19.6577 219.362 21.1578C221.012 22.3187 221.957 24.0079 221.807 26.1798C221.716 27.4581 221.794 28.7429 221.794 30.1713H246.232C246.839 29.0234 246.435 27.7124 246.578 26.1341C245.45 24.9797 244.197 23.7014 243.115 22.5926H239.652C239.508 23.7666 239.371 24.908 239.162 26.6167L239.156 26.6298Z" fill="#C39D70"/>
<path d="M459.726 34.2406H457.098C456.713 33.8231 456.354 33.4318 455.911 32.9557H421.155C420.561 30.5686 420.411 18.6007 420.9 13.6113H423.189V29.7795C425.59 30.4904 435.392 30.673 442.012 30.1773C442.514 26.9228 441.973 23.564 442.351 19.9051C443.121 19.6573 443.969 19.3833 444.934 19.0703C445.28 19.8725 445.521 20.4334 445.762 20.9943C448.886 18.829 452.121 18.7507 455.5 20.3943C457.372 21.3073 458.565 22.7422 459.139 24.6988C460.032 27.7446 459.889 30.8426 459.719 34.2406H459.726ZM456.426 30.2295C456.758 27.2098 456.706 24.6531 453.902 23.1922C451.723 22.0574 449.402 22.0769 447.523 23.577C445.423 25.2467 445.156 27.6729 445.749 30.2295H456.426Z" fill="#C39D70"/>
<path d="M161.154 28.6187V20.7531H164.35V28.6709C166.561 30.8232 168.915 30.3666 171.472 30.2231V19.4879C172.58 19.4031 173.493 19.3313 174.23 19.2792C174.98 20.0357 175.065 28.5405 174.517 32.9559C170.539 32.6493 166.43 33.9538 162.771 31.8928C161.421 32.2841 160.228 32.9233 159.034 32.9363C151.54 33.0276 144.04 32.982 136.546 32.9755C136.135 32.9755 135.718 32.8776 135.17 32.8059V13.6832C135.796 13.5985 136.494 13.5006 137.042 13.4224C137.277 13.6376 137.427 13.7093 137.427 13.7811C137.55 19.1813 137.668 24.5751 137.785 30.1905C138.581 30.2427 139.305 30.334 140.035 30.334C145.573 30.3471 151.116 30.3145 156.654 30.3601C158.232 30.3732 159.673 30.171 161.147 28.6187H161.154Z" fill="#C39D70"/>
<path d="M401.423 22.546H396.721C396.669 21.4569 396.623 20.5438 396.564 19.4481H412.706V22.1873C411.291 23.0417 409.569 22.1678 408.063 22.7417C406.915 28.2007 407.502 29.9551 411.05 31.6247C414.343 30.4834 414.78 29.9225 414.793 26.5636C414.813 22.3373 414.793 18.111 414.793 13.6891C415.602 13.5913 416.294 13.513 417.024 13.4282C417.187 13.8456 417.402 14.1326 417.402 14.4261C417.428 19.3111 417.481 24.1961 417.422 29.0746C417.383 32.2835 415.354 34.2009 412.093 34.3053C411.337 34.3314 410.574 34.3053 409.817 34.3053C407.574 34.2792 405.108 32.2639 405.03 29.5116C404.978 27.7832 405.023 26.0549 405.023 23.9026C402.852 25.481 401.404 27.1049 400.36 29.2507C399.304 31.4356 400.308 33.7574 399.617 35.9032C398.517 36.0423 397.519 35.8271 396.623 35.2575C396.225 30.6203 397.21 26.394 401.417 22.5591L401.423 22.546Z" fill="#C39D70"/>
<path d="M248.959 53.1417C247.739 55.1048 246.78 56.644 245.606 58.5289C244.4 56.7223 243.324 55.1179 242.019 53.1678V61.4964C240.917 61.5551 240.004 61.6008 238.791 61.666C238.654 56.4027 238.68 51.3612 238.778 46.1761H241.648C243.741 47.2914 243.793 49.985 245.509 51.772C246.754 49.8546 247.941 48.0284 249.154 46.1631H251.978C252.181 46.3653 252.324 46.437 252.324 46.5153C252.337 51.4003 252.331 56.2853 252.331 61.4442C251.45 61.5355 250.544 61.6269 249.461 61.7377C248.796 58.9202 249.441 56.2005 248.965 53.1417H248.959Z" fill="#C39D70"/>
<path d="M277.838 19.4225H280.186C280.877 22.2205 280.192 25.1489 280.616 28.1164C281.732 29.636 283.199 30.5361 285.599 30.2426C285.625 27.4251 285.658 24.6467 285.671 21.8683C285.684 19.1747 285.671 16.4745 285.671 13.5918H288.782V32.8057H280.629C277.923 38.519 276.227 39.7126 270.931 39.3604C270.859 38.7017 270.781 38.0038 270.716 37.3777C271.035 37.1755 271.198 36.9929 271.388 36.9603C275.96 36.0668 277.479 34.7102 277.805 29.2382C277.994 26.1076 277.838 22.9509 277.838 19.4225Z" fill="#C39D70"/>
<path d="M132.422 19.5208C132.422 23.9102 132.709 28.156 132.344 32.3432C131.966 36.6543 128.698 40.3914 122.913 39.3674C122.829 38.7348 122.731 38.0369 122.62 37.2021C123.148 37.0717 123.546 36.9021 123.944 36.889C126.455 36.8043 128.17 35.7151 128.927 32.9889H119.789C117.715 23.1993 122.431 18.0469 132.429 19.5143L132.422 19.5208ZM128.94 30.2366V22.7166C124.042 22.4688 121.55 25.3711 122.379 30.2366H128.94Z" fill="#C39D70"/>
<path d="M194.162 37.5279C191.631 39.178 189.459 39.9867 186.746 39.2823C186.7 38.6562 186.655 37.9649 186.603 37.2083C189.133 36.4778 192.029 36.517 192.87 32.9951H183.361C183.459 29.8253 182.729 26.9687 184.046 24.1381C185.487 21.0401 188.077 19.7488 191.188 19.3183C192.766 19.0966 194.396 19.2792 196.314 19.2792C196.314 23.9425 196.536 28.3774 196.203 32.7733C196.073 34.5538 194.742 36.2496 194.162 37.5279ZM186.016 30.021C188.272 30.6015 190.555 30.3145 193.073 30.2428C193.073 28.8209 193.079 27.6535 193.073 26.4861C193.059 25.2273 193.027 23.9685 193.001 22.7554C188.083 22.4163 185.813 24.836 186.022 30.021H186.016Z" fill="#C39D70"/>
<path d="M443.252 46.1949C444.419 46.1362 445.43 46.0905 446.63 46.0318V61.5151C445.697 61.5608 444.693 61.613 443.806 61.6586C441.784 58.815 439.925 56.1997 437.753 53.1408V61.4956H434.538V46.2601C435.373 46.1753 436.286 46.084 437.193 45.9927C439.025 48.5754 440.76 51.0212 442.638 53.6691C443.225 51.2951 442.495 48.9406 443.252 46.2079V46.1949Z" fill="#C39D70"/>
<path d="M155.114 46.0386V49.8279H148.422C148.285 50.4867 148.187 50.9628 148.011 51.7911H153.764V55.6978H148.409C148.278 56.35 148.181 56.8326 148.011 57.6609H155.055V61.5154H144.45C143.817 59.0501 144.228 56.4674 144.157 53.9107C144.085 51.4259 144.143 48.941 144.143 46.1234C147.809 45.9017 151.331 46.0386 155.107 46.0256L155.114 46.0386Z" fill="#C39D70"/>
<path d="M270.918 46.1175H273.697C275.653 48.8568 277.577 51.5504 279.73 54.5505V46.261C280.812 46.1632 281.725 46.0784 282.475 46.0132C283.258 46.7958 283.389 56.5528 282.841 61.5226C282.051 61.5813 281.223 61.6465 280.291 61.7183C278.301 58.9073 276.332 56.1354 274.042 52.9005V61.4313C272.966 61.5356 272.053 61.6204 271.297 61.6987C270.514 60.916 270.371 51.296 270.925 46.1175H270.918Z" fill="#C39D70"/>
<path d="M169.435 60.7661C168.333 62.0575 167.166 61.6727 165.789 61.5292V56.3311C164.289 55.4702 162.907 55.8941 161.315 55.8811C161.185 57.629 161.061 59.3052 160.95 60.7792C159.841 62.1097 158.654 61.5618 157.356 61.6075V46.3654C158.504 45.8958 159.685 45.6611 161.054 46.9459V51.6939H165.568V46.5741C166.963 46.1872 168.255 46.2698 169.442 46.822V60.7661H169.435Z" fill="#C39D70"/>
<path d="M358.895 46.202C360.284 46.1368 361.295 46.0846 362.541 46.0259C362.587 47.1151 362.639 47.9564 362.658 48.7978C362.678 49.6652 362.658 50.5326 362.658 51.4653C364.048 52.2088 365.43 51.824 367.015 51.811C367.146 50.0631 367.27 48.3804 367.38 46.8868C368.522 45.6607 369.676 46.0455 370.974 46.1564V61.3592C369.807 61.7766 368.613 62.0767 367.315 60.7788C367.25 59.37 367.178 57.7786 367.1 56.0046H362.737V61.3005C361.302 61.7506 360.108 62.0962 358.889 60.8114V46.2085L358.895 46.202Z" fill="#C39D70"/>
<path d="M328.266 56.1217C329.323 58 330.262 59.6697 331.319 61.548H327.555C326.616 60.2958 325.54 58.8544 324.334 57.2435H322.423C322.312 58.587 322.201 59.9371 322.077 61.4763H319.109V46.0777C321.751 46.1103 324.307 45.6342 326.825 46.3843C331.169 47.6756 332.264 52.5672 328.945 55.7238C328.795 55.8673 328.579 55.9391 328.266 56.1151V56.1217ZM327.242 51.5497C326.936 51.0214 326.623 50.4801 326.421 50.1279H322.227C322.299 51.2301 322.351 52.1367 322.416 53.0759H326.44C326.734 52.5215 326.981 52.0519 327.242 51.5497Z" fill="#C39D70"/>
<path d="M431.798 54.1718C432.131 56.2523 431.263 58.072 429.581 59.6895C425.589 63.5114 419.002 61.8483 417.495 56.5132C416.523 53.0761 417.293 50.0825 420.052 47.5845C422.53 45.341 425.302 45.6084 427.865 46.8019C430.115 47.8519 431.857 49.7499 431.798 52.613C431.792 53.0435 431.798 53.4805 431.798 54.1718ZM424.578 58.3003C429.346 56.0567 429.815 53.1218 425.941 50.0042H423.111C419.471 53.4739 419.954 56.0632 424.578 58.3003Z" fill="#C39D70"/>
<path d="M394.603 53.1942C395.933 52.9986 396.905 53.5464 397.649 54.8052C397.303 55.5683 396.918 56.4292 396.475 57.4205C396.912 58.1966 397.368 59.0054 397.968 60.075C397.049 60.6424 396.175 61.1837 395.288 61.7381C394.649 61.2946 394.127 60.9359 393.612 60.5772C389.079 62.6969 386.868 61.9468 384.709 57.3031C385.413 55.9074 386.209 54.3226 386.94 52.8747C387.011 51.4072 386.92 49.9332 387.227 48.5571C387.383 47.8462 388.133 47.1026 388.805 46.6918C390.996 45.3482 392.496 45.7656 395.027 48.1984C395.764 49.9397 394.923 51.5572 394.603 53.2073C393.99 53.4616 393.383 53.7095 392.47 54.0878C393.129 54.5639 393.429 54.7856 393.931 55.1509C394.212 54.3486 394.407 53.7747 394.603 53.2073V53.1942ZM391.29 58.0075C391.068 56.8205 390.311 56.2335 389.255 55.8031C388.714 58.1314 388.883 58.314 391.29 58.0075ZM389.659 49.418C390.227 50.5006 390.553 51.1267 390.879 51.7463C391.088 51.7137 391.29 51.6746 391.498 51.642C391.635 50.9376 391.779 50.2267 391.935 49.418H389.659Z" fill="#C39D70"/>
<path d="M331.789 61.5807C333.413 56.1544 335.546 51.3085 337.522 46.1626C338.461 46.1104 339.505 46.0452 340.705 45.98C342.609 51.0867 345.048 55.9196 346.607 61.4568H343.066C342.674 60.5828 342.29 59.7285 341.866 58.7762C340.235 58.1175 338.533 58.4958 336.681 58.4762C336.27 59.3763 335.885 60.2241 335.481 61.0981C334.483 62.096 333.335 61.5611 331.789 61.5807ZM338.898 51.7389C338.572 52.8542 338.363 53.5782 338.135 54.3739H340.379C339.876 53.4869 339.485 52.7825 338.898 51.7389Z" fill="#C39D70"/>
<path d="M193.724 47.0052V56.8339C194.507 57.3361 195.211 57.7926 195.864 58.2165C198.218 57.5709 198.942 55.9338 198.929 53.775C198.909 51.2967 198.929 48.8248 198.929 46.1899H202.21C202.21 49.7966 202.314 53.2533 202.151 56.6969C202.099 57.8057 201.316 58.8818 200.781 60.1927C199.601 60.6623 198.355 61.4254 197.024 61.6276C193.326 62.195 190.118 60.2058 189.844 55.3208C189.681 52.3989 189.811 49.464 189.811 46.4247C191.129 45.9029 192.309 45.6551 193.731 47.0052H193.724Z" fill="#C39D70"/>
<path d="M268.969 61.5096H265.447C265.03 60.5313 264.665 59.6704 264.28 58.7573C262.552 58.1507 260.862 58.4573 259.056 58.4899C258.58 59.5008 258.136 60.4334 257.647 61.4835H254.393C254.673 58.5681 256.134 56.2789 257.001 53.8005C257.882 51.2895 258.88 48.8177 259.884 46.1763H263.184C264.971 51.12 267.45 55.9463 268.963 61.5096H268.969ZM262.473 54.4071C262.356 53.7679 262.278 53.0962 262.082 52.4635C262.017 52.2483 261.639 52.1309 261.267 51.87C260.993 52.7701 260.765 53.5266 260.504 54.4071H262.473Z" fill="#C39D70"/>
<path d="M295.227 58.5224C294.777 59.5659 294.353 60.5311 293.909 61.5616H291.098C291.046 60.9029 290.811 60.2311 290.987 59.6963C291.522 58.0723 292.213 56.5005 292.846 54.9091C293.987 52.0329 295.135 49.1502 296.322 46.1631H299.407C301.762 51.009 303.477 56.1222 305.492 61.4703C304.175 61.5551 303.249 61.6138 302.218 61.679C301.56 60.6029 300.947 59.6115 300.275 58.5158H295.233L295.227 58.5224ZM297.855 51.6612C297.398 52.7699 297.118 53.4482 296.675 54.5178C297.607 54.3613 298.135 54.27 298.905 54.1395C298.546 53.2917 298.285 52.6851 297.855 51.6612Z" fill="#C39D70"/>
<path d="M122.177 46.1113H124.975C126.814 50.9246 128.647 55.6987 130.44 60.4859C130.532 60.7272 130.316 61.0859 130.212 61.5229H127.264C126.814 60.5707 126.377 59.6315 125.875 58.5815H120.69C120.272 59.5272 119.901 60.3881 119.438 61.4512H116.411C116.379 59.338 120.031 49.5615 122.177 46.1179V46.1113ZM124.401 54.4465C124.107 53.5139 123.886 52.816 123.533 51.7072C122.986 52.7638 122.594 53.5139 122.112 54.4465H124.394H124.401Z" fill="#C39D70"/>
<path d="M220.516 58.5811C219.936 59.592 219.401 60.5181 218.808 61.5486H216.173C216.081 61.1507 215.814 60.6942 215.925 60.3681C216.499 58.6463 217.151 56.9505 217.816 55.2548C218.99 52.2677 220.19 49.2871 221.443 46.1631H224.645C226.556 51.0677 228.493 56.0244 230.43 60.9877C229.269 62.0051 228.232 61.6595 227.052 61.5029C226.608 60.5768 226.165 59.6376 225.662 58.5745H220.516V58.5811ZM223.751 54.4069C223.451 52.4112 223.262 52.046 222.571 52.2873C222.421 52.9395 222.264 53.6243 222.082 54.4069H223.758H223.751Z" fill="#C39D70"/>
<path d="M302.754 34.2082C303.908 35.0951 305.16 36.0669 306.393 37.0126C307.626 36.6278 308.636 36.3082 309.693 35.9756C310.815 34.8473 311.167 33.4646 311.134 31.8667C311.069 28.6122 311.115 25.3577 311.115 22.1032V19.4292H313.998C314.102 19.6509 314.337 19.9314 314.337 20.2184C314.369 24.3403 314.454 28.4688 314.363 32.5842C314.291 35.8843 311.513 39.1323 308.663 39.5106C304.084 40.1171 301.43 38.5518 299.988 34.6256C299.134 32.2907 299.434 29.9493 299.434 27.4187C299.949 27.3078 300.438 27.1513 300.947 27.1056C301.364 27.0665 301.795 27.1578 302.473 27.21C302.871 29.3427 302.506 31.5015 302.754 34.2082Z" fill="#C39D70"/>
<path d="M455.871 57.3812C455.538 55.7702 454.397 55.8093 453.51 55.6267C450.921 55.0854 449.336 53.5918 448.755 51.0026C449.205 48.9742 449.779 47.0176 452.095 46.3002C454.684 45.4915 456.973 46.1567 459.334 47.9959C458.917 48.9482 458.467 49.9852 457.938 51.1852C456.471 50.5134 455.232 49.9395 453.823 49.2938C453.471 49.6004 453.086 49.933 452.525 50.4221C453.001 50.9374 453.327 51.5504 453.829 51.7787C454.697 52.1766 455.688 52.2809 456.595 52.6005C458.91 53.4223 460.019 55.0463 459.817 57.2181C459.608 59.4943 457.703 61.3857 455.369 61.6922C452.818 62.0249 450.771 60.9813 448.56 59.3312C449.153 58.3073 449.714 57.3551 450.203 56.5203C452.303 56.8137 453.621 59.8726 455.871 57.3942V57.3812Z" fill="#C39D70"/>
<path d="M415.401 55.0003C415.427 55.196 415.479 55.4047 415.486 55.6199C415.597 61.0137 411.918 63.3551 406.974 61.0137C406.048 60.5767 405.194 59.9767 404.131 59.3571C404.959 58.2157 405.566 57.3809 406.153 56.5591C408.161 57.0417 409.818 59.6636 412.323 57.2635C410.32 54.9482 406.374 55.9265 405.083 52.3328C405.083 51.5828 405.083 50.3958 405.083 49.2088C408.344 45.1455 410.62 44.9107 415.349 48.2696C414.879 49.0457 414.403 49.8414 413.862 50.7284C412.459 50.311 411.246 49.9458 409.838 49.5218C409.459 49.724 408.918 50.0045 408.409 50.2784C408.52 50.6306 408.527 50.9436 408.651 51.0023C409.525 51.3937 410.405 51.7915 411.318 52.0654C413.02 52.5741 414.507 53.3372 415.394 55.0003H415.401Z" fill="#C39D70"/>
<path d="M177.432 52.6004V49.2937C180.537 45.2827 183.909 44.8848 187.724 48.2241C187.3 48.9676 186.844 49.7568 186.472 50.409C184.411 50.996 182.676 48.3937 180.733 50.4612C181.287 51.446 182.252 51.6873 183.296 51.9547C185.089 52.4113 186.779 53.1222 187.802 55.0657V59.1029C184.972 62.5465 180.876 62.6248 176.617 59.0898C177.387 58.2355 178.143 57.3876 178.743 56.7289C180.85 56.7745 182.402 59.8594 184.737 57.068C182.428 55.2484 179.115 55.4375 177.439 52.5939L177.432 52.6004Z" fill="#C39D70"/>
<path d="M114.787 48.2631C114.148 49.1762 113.613 49.9393 113.189 50.5458C111.167 50.7024 109.582 48.537 107.691 50.4545C108.239 51.4393 109.178 51.7133 110.228 51.9546C112.048 52.372 113.672 53.1546 114.715 54.9612C114.741 55.1765 114.78 55.4961 114.826 55.8091C115.57 61.4702 110.991 62.7486 106.458 61.0528C105.487 60.6876 104.613 60.0615 103.341 59.3571C104.339 58.2418 105.102 57.4005 105.702 56.7287C107.802 56.7809 109.348 59.8658 111.689 57.0744C109.393 55.2613 106.106 55.4374 104.45 52.7111V49.0849C107.913 45.1521 109.778 44.976 114.794 48.2696L114.787 48.2631Z" fill="#C39D70"/>
<path d="M116.77 19.2728C116.77 22.3838 116.933 25.1883 116.718 27.9536C116.555 29.9885 115.224 31.5408 113.346 32.3625C110.842 33.4648 108.278 33.5039 106.067 31.6908C103.869 29.8907 103.322 27.4384 103.935 24.7187C104.815 20.7729 107.209 19.2141 111.083 19.2598C112.811 19.2793 114.54 19.2598 116.77 19.2598V19.2728ZM113.998 22.6643H108.435C107.991 23.0752 107.444 23.5839 107.098 23.9035V28.4167C108.207 29.1146 109.361 29.8385 110.346 30.4646C114.292 28.7232 114.337 28.6189 114.005 22.6708L113.998 22.6643Z" fill="#C39D70"/>
<path d="M177.823 13.6374C176.969 13.4483 176.278 13.2917 175.515 13.1222C176.421 11.7265 177.184 10.4938 178.006 9.30026C178.169 9.05894 178.534 8.94807 178.821 8.81111C179.284 8.59588 179.767 8.40674 180.211 8.22412C181.743 10.2916 178.45 10.1481 178.958 11.8634C179.852 12.0069 180.85 12.17 182.232 12.3982C181.593 13.0896 181.195 13.52 180.68 14.0809V32.747C179.708 32.8514 178.795 32.9427 178.045 33.0209C177.223 32.1796 177.152 17.0028 177.823 13.6439V13.6374Z" fill="#C39D70"/>
<path d="M132.509 61.6338V46.2222H135.659V57.6684H142.696C142.761 58.9858 142.814 60.1141 142.879 61.4707C139.409 61.8751 136.109 61.6403 132.509 61.6403V61.6338Z" fill="#C39D70"/>
<path d="M215.117 57.6546V61.5157H204.949V46.2606C205.784 46.1693 206.691 46.0715 207.604 45.9736C207.806 46.4171 208.041 46.6976 208.041 46.978C208.067 50.4282 208.06 53.8784 208.06 57.6546H215.117Z" fill="#C39D70"/>
<path d="M346.849 59.018C347.645 58.1505 348.297 57.4462 348.917 56.7679C350.097 57.1592 351.226 57.5309 352.647 58.0005C353.013 55.6852 352.817 53.7547 352.85 51.8437C352.882 50.0241 352.856 48.2044 352.856 46.2021H356.776C356.776 49.711 356.913 53.1481 356.724 56.5657C356.6 58.7832 355.68 60.805 353.247 61.4572C350.743 62.129 348.584 61.5224 346.843 59.018H346.849Z" fill="#C39D70"/>
<path d="M307.409 46.1438C308.029 46.0916 308.446 46.0264 308.87 46.0264C309.288 46.0264 309.705 46.1046 310.449 46.1829C310.462 48.1526 310.475 50.0635 310.481 51.981C310.481 53.8006 310.481 55.6203 310.481 57.6421H316.423C317.336 58.8944 316.919 60.0749 316.932 61.451C313.801 61.901 310.71 61.588 307.664 61.6532C307.077 59.227 306.94 51.0157 307.409 46.1438Z" fill="#C39D70"/>
<path d="M295.233 32.8508H292.363V13.6303C293.185 13.5455 294.098 13.4542 294.848 13.376C295.631 14.1717 295.787 27.3201 295.233 32.8508Z" fill="#C39D70"/>
<path d="M377.399 61.6726C376.459 61.6726 375.703 61.6922 374.953 61.6661C374.646 61.653 374.346 61.5356 373.89 61.4313V46.1762C374.94 46.1241 376.068 46.0654 377.17 46.0132C377.757 48.4524 377.881 56.9898 377.399 61.6791V61.6726Z" fill="#C39D70"/>
<path d="M271.44 13.5464H273.514C274.095 14.1464 274.29 24.3599 273.847 32.6886C273.195 32.7864 272.503 32.8973 271.91 32.9886C271.192 32.2451 271.003 22.3316 271.44 13.5464Z" fill="#C39D70"/>
<path d="M232.406 46.1436H235.087C235.596 48.8306 235.635 58.2941 235.152 61.5291H232.641C232.035 60.9225 231.865 52.059 232.406 46.1436Z" fill="#C39D70"/>
<path d="M126.37 16.3771C127.122 14.0683 128.366 12.9161 130.101 12.9204C131.523 14.8379 128.294 14.6879 128.738 16.4554C129.709 16.5597 130.818 16.6706 132.129 16.8076C132.214 17.2185 132.312 17.6946 132.442 18.3337C129.886 18.9077 127.446 18.562 125.053 18.575C123.911 16.9315 125.242 16.788 126.37 16.3771Z" fill="#C39D70"/>
<path d="M345.309 35.8253C344.585 36.5101 344.044 37.0254 343.379 37.658C342.661 37.208 342.048 36.8297 341.429 36.4449C340.828 36.8427 340.215 37.2471 339.42 37.7754C338.637 37.1362 337.913 36.5492 336.98 35.7862C337.704 34.9579 338.298 34.2665 338.983 33.4839C339.752 34.0057 340.359 34.4165 341.115 34.9318C341.742 34.5144 342.433 34.0578 343.281 33.4969C343.953 34.2731 344.553 34.9644 345.309 35.8318V35.8253Z" fill="#C39D70"/>
<path d="M218.378 38.8058C217.647 38.2906 217.126 37.9254 216.558 37.521C215.978 37.9254 215.463 38.2906 214.693 38.8254C214.152 38.0754 213.584 37.2862 212.919 36.3666C213.408 35.8579 214.06 35.1731 214.778 34.4165C215.352 34.8013 215.86 35.147 216.5 35.5774C217.054 35.2318 217.66 34.8535 218.156 34.5404C218.978 35.2057 219.721 35.8057 220.537 36.4579C219.65 37.4166 218.997 38.1275 218.371 38.8058H218.378Z" fill="#C39D70"/>
<path d="M303.699 24.6079C304.775 23.5057 305.578 22.6839 306.53 21.7056C307.495 22.5991 308.336 23.3817 309.445 24.4122C308.493 25.4101 307.645 26.2971 306.647 27.3406C305.63 26.3949 304.782 25.6123 303.699 24.6079Z" fill="#C39D70"/>
<path d="M170.224 38.519C169.363 37.5473 168.75 36.8624 167.968 35.982C168.613 35.2645 169.129 34.6906 169.872 33.8623C170.811 34.7102 171.555 35.3754 172.435 36.1646C171.666 36.9798 171.098 37.5864 170.224 38.519Z" fill="#C39D70"/>
<path d="M160.384 16.7748C159.347 17.5966 158.694 18.1118 157.866 18.7705C157.149 18.0988 156.497 17.4857 155.694 16.7357C156.392 15.9726 156.947 15.3595 157.677 14.5508C158.447 15.1834 159.144 15.7574 160.384 16.7748Z" fill="#C39D70"/>
<path d="M257.627 35.9362C258.364 35.2775 258.977 34.7296 259.786 34.0122C260.608 34.5992 261.345 35.1275 262.232 35.7666C261.449 36.608 260.823 37.2928 260.027 38.1537C259.218 37.4102 258.481 36.7319 257.627 35.9427V35.9362Z" fill="#C39D70"/>
</svg>
