<svg width="148" height="73" viewBox="0 0 148 73" fill="none" xmlns="http://www.w3.org/2000/svg">
<path d="M94.6381 23.7624C95.3169 35.825 84.0688 48.1591 69.7372 47.4221C58.043 46.8209 46.8337 36.814 47.2022 23.0254C47.5319 10.7495 57.7909 -0.285274 71.5601 0.00562533C84.1076 0.257738 95.0841 10.6525 94.6381 23.7624ZM78.6387 9.29499C78.4447 9.29499 78.2508 9.31439 78.0569 9.33378C76.04 14.2209 74.6049 19.3601 72.3165 24.4799C71.2692 21.6097 70.319 19.1468 69.4269 16.645C68.5348 14.1433 67.9142 11.5252 66.4791 9.06228C65.6258 9.97376 65.9555 11.2537 64.8889 11.7773C64.501 10.8658 64.1713 10.0513 63.7834 9.15924C62.7556 10.4586 54.9207 31.6942 54.5716 34.0796H57.9461C60.4866 27.9707 62.3483 21.474 65.3543 15.2293C67.6233 21.4933 69.8923 27.738 72.2971 34.3317C73.5382 31.8687 74.7988 29.8712 73.3249 27.4083C72.6655 26.3029 72.8207 25.1005 73.2861 23.8981C74.3334 21.2412 75.303 18.5456 76.3309 15.8693C76.4666 15.5396 76.7381 15.2487 77.029 14.8221C79.395 21.4158 81.7028 27.7962 83.9912 34.1572C85.3487 34.1572 86.5123 34.642 87.5402 33.6723C84.5536 25.5272 81.6058 17.4208 78.6387 9.31439V9.29499Z" fill="#C39D70"/>
<path d="M41.6777 71.6052V59.6008C43.7528 59.1354 45.8085 59.1741 47.7866 59.8917C49.6484 60.5705 50.0168 62.6843 48.7369 64.8758C49.2023 65.38 49.7259 65.8648 50.172 66.4272C51.0447 67.4938 51.0253 68.735 50.172 69.7822C49.2217 70.9652 48.0387 71.6828 46.4679 71.6246C44.9552 71.5858 43.4425 71.6246 41.6777 71.6246V71.6052ZM43.9855 65.5351V71.0622C44.897 71.0622 45.6921 71.1398 46.4679 71.0622C47.8254 70.9071 48.5817 69.7241 48.5236 68.0369C48.446 66.2333 47.903 65.6127 46.2933 65.5545C45.5758 65.5351 44.8776 65.5545 43.9855 65.5545V65.5351ZM43.9274 64.837C45.3625 65.1279 46.5454 65.1667 47.1272 63.8479C47.5927 62.7619 47.6315 61.5983 46.8557 60.6092C46.0412 59.6008 45.0134 59.7753 43.9467 60.1244V64.837H43.9274Z" fill="#C39D70"/>
<path d="M136.664 59.8333C138.972 59.8139 140.426 61.0938 141.357 63.0138C142.424 65.2246 142.152 67.3578 140.562 69.239C139.243 70.8098 137.595 71.7019 135.481 71.5856C134.55 71.5274 133.619 71.5856 132.727 71.5856C132.223 69.9759 132.107 62.9362 132.495 59.5618C133.91 59.426 135.345 58.883 136.722 59.8527C136.044 59.8914 135.345 59.9302 134.589 59.9884C134.589 62.0441 134.55 63.8283 134.589 65.6124C134.628 67.3772 134.376 69.1614 134.764 70.9068C137.479 71.1589 138.409 70.5577 139.282 68.2499C139.864 66.7179 139.748 65.147 139.573 63.5956C139.379 61.7726 137.847 60.9193 136.683 59.8333H136.664Z" fill="#C39D70"/>
<path d="M105.053 65.4771C105.053 69.2006 102.726 71.6053 99.1185 71.6053C95.6471 71.6053 92.8351 68.9291 93.0097 65.4965C93.2036 61.8117 95.5114 59.5621 99.1767 59.3876C102.008 59.2518 105.596 62.3741 105.033 65.4771H105.053ZM102.764 65.9037C102.764 64.7983 102.823 64.0807 102.764 63.3632C102.59 61.5984 100.864 59.9306 99.2155 59.8918C97.6834 59.853 95.8605 61.3269 95.5502 62.9947C95.2399 64.6819 95.1429 66.4273 95.5696 68.0758C95.8993 69.3945 96.578 70.6551 98.1101 70.9847C99.7391 71.3338 101.019 70.7908 102.028 69.4333C102.939 68.2115 102.726 66.854 102.745 65.8843L102.764 65.9037Z" fill="#C39D70"/>
<path d="M123.245 59.6986C123.245 63.5967 123.245 67.5141 123.245 71.4122C123.071 71.4703 122.896 71.5479 122.722 71.6061C119.968 68.7359 117.233 65.8657 114.111 62.6076V71.3346C113.995 71.3346 113.898 71.3346 113.781 71.3346V59.1362C116.923 62.3749 119.754 65.3033 122.818 68.4838V59.6986C122.974 59.6986 123.109 59.6986 123.265 59.6986H123.245Z" fill="#C39D70"/>
<path d="M59.4794 71.6058V59.4656C61.9423 59.2523 64.4052 59.4074 66.8682 59.3686V59.8147H61.8841C61.4187 61.7152 61.632 63.48 61.729 65.3418C62.9701 65.4193 64.0949 65.4775 65.2198 65.5357C65.2198 65.6521 65.2198 65.7684 65.2198 65.8848C64.1337 65.943 63.0477 66.0011 61.7872 66.0593V70.8495C63.3386 71.4119 65.1034 70.8107 66.7906 71.3537C66.1506 71.7028 65.4137 71.5864 64.7155 71.6058C63.8428 71.6058 62.9895 71.6058 62.1168 71.6058H59.46H59.4794Z" fill="#C39D70"/>
<path d="M81.3738 71.4693H79.4733C79.4345 70.7517 79.3181 70.0342 79.3957 69.3554C79.5702 67.6876 78.9497 66.2913 78.1351 64.895C77.1267 63.169 76.2152 61.4042 75.168 59.4648H77.6115C78.7557 61.4817 79.9387 63.518 81.0635 65.5931C81.3738 66.1749 81.6841 66.3107 82.1108 66.0779C81.8974 67.7264 81.6647 69.4524 81.4126 71.4499L81.3738 71.4693Z" fill="#C39D70"/>
<path d="M26.4716 64.1583C27.2279 65.1668 27.9649 66.1946 28.6824 67.1449C29.303 66.9897 29.6909 66.8928 30.3697 66.6988C30.04 67.2225 29.8848 67.494 29.6715 67.8237C30.5636 68.9485 31.4557 70.1121 32.4447 71.3532C31.0872 71.8187 30.0206 71.7023 29.1091 70.6551C28.9152 70.4224 28.4885 70.3836 28.1588 70.2672C27.1116 68.1921 25.6377 66.5049 23.8147 65.0698C23.6208 64.4686 23.4463 63.8674 23.2523 63.2662C22.6899 61.5208 23.2911 60.4736 25.1529 59.853C24.4159 62.0251 24.6099 62.6263 26.4716 64.1777V64.1583Z" fill="#C39D70"/>
<path d="M5.70162 66.9513C5.99251 66.738 6.14766 66.6216 6.30281 66.5052C6.39977 66.544 6.49674 66.6022 6.57431 66.641C6.07009 67.8628 5.56586 69.0845 4.90649 70.636C3.39382 67.2422 1.99751 64.1199 0.601191 60.9976C0.504224 60.9976 0.407258 61.0363 0.310292 61.0557V71.3148C0.213326 71.3148 0.0969663 71.3148 0 71.3148V59.4849C0.71755 59.4461 1.45449 59.4073 2.23022 59.3491C3.41321 61.9478 4.53802 64.4496 5.68222 66.9513H5.70162Z" fill="#C39D70"/>
<path d="M8.96018 61.889C8.66929 62.0635 8.49475 62.1605 7.89355 62.5096C8.41717 61.249 8.78565 60.3763 9.15412 59.4648H10.8801C11.3843 60.0079 11.5007 67.8815 11.0934 71.4499C10.531 71.4887 9.92985 71.5468 9.09594 71.605C8.84382 68.3082 9.09594 65.1665 8.94079 61.889H8.96018Z" fill="#C39D70"/>
<path d="M22.5348 65.9043C22.6318 67.0679 22.4185 68.2509 23.3106 69.3175C24.862 71.1987 26.0838 71.5089 28.1783 70.229C27.5965 71.5477 26.142 72.4786 24.7069 72.4398C23.5239 72.4204 21.7203 71.218 21.3325 70.1902C20.7313 68.5806 21.1773 66.9903 22.5348 65.9043Z" fill="#C39D70"/>
<path d="M147.563 61.1335C147.311 61.4244 147.059 61.7347 146.613 62.2583C146.38 61.5601 146.225 61.1335 146.051 60.5905C145.895 61.0559 145.76 61.4632 145.643 61.8316C144.945 61.9868 144.693 61.7735 144.751 61.0947C144.809 60.2802 144.751 59.4463 144.751 58.6124C146.283 57.856 146.419 57.8754 147.234 59.0196C147.195 59.7566 146.206 60.6486 147.583 61.1529L147.563 61.1335Z" fill="#C39D70"/>
<path d="M6.82617 65.0701C7.0395 64.5271 7.25282 64.0035 7.46615 63.4604C7.58251 63.4992 7.69887 63.538 7.81523 63.5768C7.6213 64.1586 7.42736 64.7404 7.23343 65.3416L6.82617 65.0701Z" fill="#C39D70"/>
<path d="M63.4934 10.5356C64.6376 12.2616 64.657 13.7161 63.9588 15.5391C61.9031 20.8141 60.1384 26.186 58.2378 31.5191C58.0245 32.1203 57.7918 32.7215 57.5591 33.3227H55.29C57.9275 25.6042 60.7783 18.2154 63.4934 10.5356Z" fill="#C39D70"/>
<path d="M86.7253 33.3623H84.3399C82.5364 28.2812 80.7328 23.239 78.9292 18.1773C78.6965 17.4986 78.522 16.8004 78.2117 16.1604C77.3972 14.3375 76.796 12.5339 78.4638 10.7109C81.1788 18.1579 83.9133 25.7019 86.7253 33.3623Z" fill="#C39D70"/>
</svg>
