<svg width="90" height="76" viewBox="0 0 90 76" fill="none" xmlns="http://www.w3.org/2000/svg">
<path d="M82.853 10.1573C82.8355 10.9992 83.0459 11.9463 82.7302 12.683C81.9409 14.5423 82.1164 16.3489 82.7653 18.1029C81.748 19.3833 80.8359 19.4535 79.5555 17.9099C80.3623 18.0152 80.7833 18.0853 81.2218 18.138C81.292 17.9801 81.4498 17.7521 81.3972 17.6293C81.0464 16.7874 80.5027 15.9805 80.3097 15.1035C79.9414 13.3846 79.766 11.6131 79.4854 9.68369C78.433 9.63107 77.5033 9.56091 76.5912 9.56091C64.7167 9.56091 52.8421 9.56091 40.9851 9.56091C39.5819 9.56091 38.2313 9.52583 37.0737 10.7887C37.1965 13.5951 37.0386 16.4717 37.5473 19.4184C38.1086 22.7159 37.7929 26.1888 37.6701 29.574C37.5122 33.9239 38.3717 34.5378 42.5988 34.3273C43.3355 34.2923 44.0546 34.3273 44.9492 34.3273C45.5631 30.7843 44.879 27.2938 45.3877 23.7683C45.8963 23.6806 46.2997 23.5578 46.6856 23.5578C49.5446 23.5578 49.72 23.7332 49.7375 26.6098C49.7551 29.0303 49.7375 31.4683 49.7375 33.9941C51.3863 34.5378 52.9123 34.3273 54.7014 34.2221V24.0138C56.2274 23.2772 57.5604 23.5753 59.2618 23.663V34.187H63.0329V23.6981H67.4179C67.8564 27.0833 67.3828 30.5563 67.6985 34.1695C68.5054 34.2221 69.2245 34.3273 69.9261 34.3098C72.6097 34.2572 72.8903 33.731 72.8728 30.9071C72.8728 27.9428 74.504 25.7503 76.9421 24.2068C77.9944 23.5403 79.2398 23.1544 80.6079 22.558C80.7658 22.0143 80.9938 21.2425 81.2218 20.4532C81.5551 20.576 81.8883 20.6286 81.9058 20.7163C82.1339 22.3651 82.9758 23.2245 84.6596 23.5929C85.712 23.8384 86.6768 24.6628 87.5888 25.382C90.9565 28.0305 90.7635 33.4679 87.0802 36.3795C83.8528 38.9228 79.9063 38.993 76.1177 36.4848C74.6092 37.8178 72.7675 38.2738 70.6803 38.2563C60.7176 38.1861 50.7549 38.2563 40.7922 38.1861C39.4592 38.1861 38.0559 37.923 36.8106 37.4495C34.2673 36.4848 33.057 34.5904 33.1272 31.7841C33.2149 28.0831 32.8992 24.3471 33.2324 20.6637C33.478 17.8398 33.9341 15.0509 33.8288 12.2094C33.8113 11.6832 33.8288 11.1746 33.8288 10.8238C32.3379 9.22765 30.6015 9.56091 28.9352 9.59599C27.2338 9.63107 25.5499 9.59599 23.603 9.59599C22.7435 10.9641 21.4807 12.0516 19.6039 11.2447C18.0078 10.5607 18.7269 9.13995 18.6567 8.19279C20.2879 7.38596 21.6736 6.71944 23.0593 6.01784C26.7251 4.19368 30.4261 2.38707 34.0744 0.49275C35.1969 -0.0860692 36.2493 -0.0860705 37.4245 0.141949C42.6339 1.17681 47.8783 2.12396 53.1052 3.15882C57.7183 4.0709 62.2962 5.19346 66.9268 5.93014C70.3295 6.47388 73.627 7.63152 77.135 7.64906C79.3977 7.64906 81.6779 8.19279 84.4667 8.56113C83.7476 9.26273 83.3091 9.71877 82.8706 10.1573C82.1339 9.13995 81.327 9.43813 80.5027 9.89417C80.7482 11.2272 80.9938 12.455 81.2043 13.6302C81.748 12.4725 82.3093 11.2974 82.8706 10.1397L82.853 10.1573ZM69.5402 7.42103C58.262 5.19346 47.4047 3.03605 36.0388 0.790929C37.0386 3.3693 37.8455 5.4741 38.5997 7.42103H69.5226H69.5402ZM81.7305 27.3114C80.7833 27.3815 80.0993 27.2237 79.766 27.4868C78.8364 28.241 77.8191 29.0654 77.2929 30.0827C76.7842 31.0474 77.4507 32.1524 78.24 32.8891C79.7835 34.3449 82.5373 34.4501 84.2913 33.1872C86.6241 31.5034 86.3961 29.0303 83.73 27.8376C82.9933 27.5043 82.1514 27.4166 81.7305 27.3114ZM25.6903 6.80714C28.0231 7.12285 30.0577 7.38596 32.1275 7.6666C33.0922 5.49164 33.9867 3.50962 35.1268 0.966326C31.6889 3.08866 28.8474 4.84266 25.6727 6.7896L25.6903 6.80714ZM36.1967 3.49208C36.1967 3.49208 36.0213 3.49208 35.9336 3.49208V5.40394C35.9336 5.40394 36.109 5.40394 36.1967 5.40394V3.49208Z" fill="#C39D70"/>
<path d="M4.30941 27.1544C4.78299 25.6635 5.11626 24.6988 5.41444 23.7516C9.65911 23.5938 11.5359 25.225 11.6411 29.0487C11.6762 30.6448 11.6938 32.2234 11.7288 33.8196C11.7288 33.9073 11.8692 33.9774 12.0621 34.1879H25.41C25.1469 28.9961 21.0951 28.3296 17.3416 27.2772C17.3416 26.1371 17.3416 25.1197 17.3416 24.1024C26.0765 23.05 31.2683 29.6275 30.2861 38.0818H0.362921C0.275221 37.5205 0.117355 36.9417 0.0822747 36.3453C0.0471948 35.8367 0.13489 35.3105 0.18751 34.451H7.09826C7.09826 32.8724 7.01058 31.6271 7.11582 30.3993C7.27368 28.54 6.65977 27.3122 4.30941 27.1719V27.1544Z" fill="#C39D70"/>
<path d="M0.0819567 45.8867H4.95807C6.1157 48.851 7.34349 51.9555 8.62391 55.2531C9.92187 52.0432 11.1146 49.0614 12.3775 45.9569H17.1659V58.1822C16.2714 58.9189 15.3066 58.6909 14.1139 58.3752V50.7453L13.7105 50.6576C12.6055 53.271 11.483 55.867 10.3604 58.5155H6.85241C5.80001 55.9547 4.695 53.2886 3.34442 50.0261V58.4453C2.29202 58.5155 1.39745 58.5681 0.187192 58.6558C-0.0232874 54.3585 0.117073 50.2892 0.0644531 45.9043L0.0819567 45.8867Z" fill="#C39D70"/>
<path d="M89.7113 60.9185C87.0628 61.3219 84.3441 61.0413 81.678 61.0939C78.9242 61.1465 76.1704 61.0939 73.4166 61.0939H65.1027C65.4009 63.5319 67.0321 62.2515 68.1196 62.9005V66.4962C67.0497 66.5839 65.892 66.6891 64.594 66.8119C64.4011 64.865 64.2257 63.0584 64.0503 61.2342C42.8094 61.0939 21.6387 60.9536 0.467934 60.8132C0.415314 60.8132 0.345169 60.6729 0.0996094 60.3397C0.573189 60.1467 0.976591 59.8836 1.39755 59.831C2.13423 59.7433 2.87094 59.7959 3.62516 59.7959C31.198 59.7959 58.7533 59.7959 86.3261 59.7959C87.4487 59.7959 88.5887 59.831 89.7113 59.8486C89.7113 60.1994 89.7113 60.5501 89.7113 60.9009V60.9185Z" fill="#C39D70"/>
<path d="M75.9414 58.6206V46.2901C77.941 45.7112 83.5362 45.5885 85.2727 46.062C88.9561 47.0969 90.903 51.0609 89.5349 54.7794C88.4123 57.7787 87.3424 58.5856 84.1677 58.6206C81.5367 58.6557 78.9232 58.6206 75.959 58.6206H75.9414ZM79.2565 55.9897C80.6071 55.9897 81.7472 56.0247 82.8873 55.9897C84.9219 55.902 85.7638 55.025 85.9918 52.85C86.2198 50.447 85.3253 48.7807 83.4134 48.5176C82.098 48.3247 80.7473 48.4825 79.274 48.4825V56.0072L79.2565 55.9897Z" fill="#C39D70"/>
<path d="M32.3902 46.2896V48.4295C29.8294 48.4295 27.4264 48.3769 25.0234 48.4471C23.3922 48.4997 23.3747 48.5874 23.3045 50.8851C24.8656 50.8851 26.4266 50.8325 27.9876 50.9027C28.9173 50.9377 29.8469 51.1131 30.7765 51.3061C32.4779 51.6569 33.4776 53.9897 33.2321 55.6209C32.9865 57.1469 31.3904 58.5852 29.654 58.6202C26.4968 58.6904 23.3396 58.6378 20.007 58.6378V56.0243H29.0927C29.5312 54.3405 28.9699 53.6564 27.6719 53.5687C26.5143 53.4986 25.3391 53.5687 24.1815 53.5336C23.4448 53.5161 22.6906 53.4986 22.0065 53.3056C20.1473 52.7444 19.165 51.5341 19.165 49.9555C19.165 48.0261 20.3051 46.5352 22.1819 45.9739C23.4623 45.6056 30.9168 45.8687 32.4077 46.3247L32.3902 46.2896Z" fill="#C39D70"/>
<path d="M73.767 45.781V48.0261C72.2585 48.7803 70.5396 48.3418 68.9084 48.3769C67.4 48.412 66.2248 48.7628 65.6986 50.5343C67.8209 51.1833 69.9257 50.7097 71.9779 50.8851C73.5214 51.0079 73.5389 51.043 73.7494 53.3056C71.1886 53.7617 68.5401 53.2881 65.9792 53.5863C66.0845 55.6911 66.1195 55.7963 67.6806 55.9015C69.154 56.0068 70.6448 55.9015 72.1182 55.9892C73.5565 56.0769 73.6968 56.34 73.6091 58.5501C71.1184 58.5501 68.5927 58.743 66.102 58.4624C64.9795 58.3396 63.6639 57.5328 62.9448 56.6207C61.2083 54.4633 61.3312 51.8498 62.2783 49.4293C63.243 46.9562 65.2425 45.6757 67.9963 45.7459C69.8731 45.781 71.7499 45.7459 73.767 45.7459V45.781Z" fill="#C39D70"/>
<path d="M43.2482 46.0442C45.2127 50.0083 47.2122 54.0425 49.2293 58.1293C46.9374 58.6905 45.1366 58.0299 43.827 56.1472H38.7053C38.3019 56.8138 37.8108 57.6031 37.2671 58.4801H33.4434C35.0746 55.0247 36.776 51.7973 38.1616 48.4297C39.0912 46.167 40.4242 45.2374 43.2306 46.0267L43.2482 46.0442ZM41.3188 49.5522C40.7224 51.008 40.3014 52.0955 39.8103 53.2707H43.2131C42.5816 52.0254 42.0204 50.9379 41.3188 49.5522Z" fill="#C39D70"/>
<path d="M72.4169 62.5668C72.5923 63.4788 72.7852 64.4435 73.101 66.0221C73.6973 64.9347 74.013 64.3558 74.4866 63.4964C74.89 64.1454 75.2233 64.6716 75.539 65.1978C75.7144 64.7417 75.8898 64.2857 76.1354 63.6367C76.416 64.3383 76.609 64.7943 76.8019 65.2328C77.0299 64.7066 77.2755 64.1804 77.6964 63.2333C78.17 64.198 78.4155 64.7066 78.6786 65.2679C78.9417 64.7417 79.1873 64.2331 79.6609 63.2859C80.0818 64.1454 80.3099 64.6365 80.6607 65.3556C80.9939 63.0403 82.3971 63.5139 83.7302 63.97C84.2213 63.4087 84.6773 62.8825 85.3965 62.0581C86.0279 63.2859 86.5191 64.2506 86.9926 65.1978C87.0102 65.1627 87.1154 65.075 87.1329 64.9873C87.2557 63.97 87.7994 63.3561 88.8167 63.6542C89.2552 63.7946 89.7289 64.4435 89.8341 64.9522C90.027 65.8994 89.4833 66.5834 88.5362 66.829C87.361 67.1272 86.1858 67.3727 84.8878 67.6709C84.6773 67.3903 84.309 66.8816 83.9933 66.4431C79.8187 67.3201 75.7144 66.829 71.6452 66.8465C70.3647 66.8465 69.6631 65.759 70.277 64.6365C70.698 63.8647 70.277 61.9178 72.4169 62.6018V62.5668Z" fill="#C39D70"/>
<path d="M0.415039 75.1782H89.6935C89.5531 75.4238 89.5181 75.4939 89.4655 75.5641C89.3953 75.6343 89.2901 75.7395 89.2199 75.7395C60.0685 75.757 30.8995 75.7746 1.74809 75.7921C1.34467 75.7921 0.941251 75.722 0.537832 75.6869C0.502752 75.529 0.467676 75.3536 0.432596 75.1958L0.415039 75.1782Z" fill="#C39D70"/>
<path d="M56.8935 45.9043H59.5596C59.6999 46.2726 59.9104 46.5533 59.9104 46.8339C59.9455 49.2544 59.8929 51.6749 59.963 54.0955C60.0507 56.9545 57.8056 58.726 55.4377 58.6208C53.6661 58.5506 51.8771 58.6208 49.9126 58.6208C49.8424 57.7964 49.7723 57.1123 49.6846 56.1476C51.8069 56.0599 53.7538 55.9722 55.6657 55.8845C57.4372 52.7273 56.1568 49.3421 56.876 45.9043H56.8935Z" fill="#C39D70"/>
<path d="M1.15251 63.7421C2.67848 63.6544 2.39785 66.0047 4.11677 65.4084C3.83613 64.9699 3.55545 64.5489 3.20465 64.0052C4.64293 63.4088 4.9236 64.5314 5.64273 65.3031C5.74797 64.3209 5.8532 63.4614 5.95844 62.602C7.58966 62.9879 6.76529 64.4788 7.39673 65.2681C7.65983 64.7243 7.92293 64.2157 8.37897 63.286C8.79992 64.1455 9.02796 64.6541 9.32614 65.2505C9.67694 64.4612 9.72952 63.4965 11.045 63.6018C12.2553 63.707 12.1676 64.6015 12.3956 65.3557C13.7404 64.4554 15.0909 64.4554 16.4474 65.3557C16.5701 64.4086 16.6754 63.5316 16.7981 62.5669H19.0959V66.6712C18.6398 66.6186 18.254 66.4608 17.9383 66.5485C14.0444 67.671 10.1856 66.8291 6.30926 66.5309C5.64274 66.4783 4.9236 67.1624 4.11677 67.5658C3.41517 66.2152 1.71378 67.2501 0.328125 66.6011C0.591225 65.689 0.87183 64.7769 1.17001 63.7421H1.15251Z" fill="#C39D70"/>
<path d="M46.5102 65.4961C46.3874 64.4262 46.2821 63.479 46.1769 62.5319C46.2997 62.4793 46.4225 62.4266 46.5453 62.374C47.2118 63.3913 47.8959 64.4262 48.8956 65.9522C49.0535 64.4613 49.1237 63.6369 49.2289 62.6196C49.913 62.5494 50.5795 62.4968 51.474 62.4091V66.5836C49.3517 66.7064 47.317 66.8292 45.2473 66.9695C44.9666 67.3028 44.6509 67.6886 44.3352 68.0921C43.3179 66.9169 42.3181 67.7062 41.2657 68.057C40.8448 68.1973 40.2133 68.0219 39.7924 67.7939C38.7751 67.2326 37.442 66.7415 36.9684 65.8294C36.565 65.0401 37.1614 63.7421 37.3368 62.4793C37.8805 62.4442 38.4769 62.4091 39.0557 62.374C39.3188 63.4264 39.5468 64.356 39.8274 65.4786C40.1782 64.7244 40.4238 64.2157 40.722 63.6194C42.1954 64.5665 41.0728 65.7768 41.5814 67.2677C41.9147 65.7768 42.1603 64.7595 42.5462 63.0932C43.0899 64.1456 43.353 64.6367 43.6687 65.2681C43.9143 64.7244 44.1423 64.2508 44.4054 63.6895C44.7036 63.8649 45.1245 63.9702 45.1772 64.1631C45.3701 64.9173 45.4402 65.6715 46.5102 65.5137V65.4961Z" fill="#C39D70"/>
<path d="M35.1625 71.3546C35.1274 71.8633 35.0924 72.3719 35.0398 73.2314C33.9172 73.2314 32.8823 73.3366 31.8826 73.2138C30.6372 73.056 29.0411 72.1088 28.2343 72.5824C26.7434 73.4419 25.5682 73.2138 24.1474 72.8806C23.4283 72.7052 22.8845 74.0908 21.9549 73.3015C21.4112 72.8455 20.885 72.3895 20.2185 71.8457C19.6397 72.3193 19.1135 72.7227 18.3593 73.3366C18.2014 72.5999 17.9032 72.0036 18.026 71.4949C18.3242 70.1268 18.6925 70.0216 20.9902 70.3548C20.464 70.6004 20.0256 70.7933 19.5695 71.0038C19.6046 71.1266 19.6221 71.2318 19.6572 71.3546C20.6394 71.1441 21.6743 71.0564 22.5688 70.6705C23.4108 70.3022 23.7791 72.407 24.6912 70.8986C24.9016 71.3897 25.0946 71.8282 25.4805 72.7052C25.3752 70.5653 26.6907 70.3724 27.7606 70.7582C29.3392 71.3195 30.5846 70.9512 31.7773 70.0566C32.935 70.4776 34.0049 70.881 35.0748 71.2669L35.1801 71.4248L35.1625 71.3546Z" fill="#C39D70"/>
<path d="M23.0078 66.8115C23.2008 66.4782 23.5866 66.0924 23.5515 65.7942C23.306 64.1805 24.2882 63.3912 25.6914 62.5317C25.9545 63.4789 26.2001 64.3559 26.4456 65.2154C27.5682 64.3617 28.6382 64.3676 29.6555 65.2329C31.6375 62.9702 32.2163 62.9702 34.2334 65.268C34.3562 64.4261 34.4789 63.6192 34.6193 62.8124C34.6193 62.7598 34.7596 62.7071 34.9701 62.5844C36.3557 64.0928 35.619 65.4083 34.8473 66.601C32.4619 66.8817 30.2869 67.25 28.1119 67.3201C27.1297 67.3552 26.1475 66.7589 25.1477 66.4607C24.604 66.9518 24.0602 67.4429 23.306 68.1094C23.1832 67.5306 23.113 67.1798 23.0429 66.8115H23.0078Z" fill="#C39D70"/>
<path d="M61.2617 70.4945C61.8931 70.5822 62.5246 70.8803 62.8578 70.6874C64.2786 69.8806 65.5766 69.8455 67.0499 70.5646C67.7515 70.8979 68.6285 70.968 69.4178 70.968C70.1194 70.968 70.8035 70.7225 71.47 70.5997C72.2417 71.7398 72.1716 72.7571 71.6804 73.7394C71.2595 74.5637 70.1895 74.6339 69.5756 73.9674C68.4355 72.7571 68.4531 72.9325 66.9096 73.1079C65.4713 73.2658 63.9979 73.0378 62.5246 72.9676C62.1387 72.9676 61.7528 72.9676 61.2441 72.9676V70.4945H61.2617Z" fill="#C39D70"/>
<path d="M53.2096 64.9518C53.7007 65.5131 54.0866 65.9691 54.683 66.6531V62.7593H56.6474C56.7702 63.6012 56.9105 64.4957 57.0509 65.478C58.4073 64.449 59.6643 64.3671 60.8219 65.2324C60.9623 65.0219 61.0851 64.829 61.2254 64.6361C61.6814 64.0572 62.1023 63.303 62.9969 63.8818C63.944 64.4782 63.1723 64.8465 62.7338 65.2149C63.067 65.5481 63.4003 65.8814 63.7862 66.2848C59.9099 67.5477 58.1032 67.46 56.0335 66.0743C55.3494 66.7408 54.8058 67.6529 54.0515 67.916C53.3149 68.1791 52.9289 67.0566 53.192 64.9518H53.2096Z" fill="#C39D70"/>
<path d="M80.2568 72.7049C80.3095 72.091 80.3445 71.4947 80.3796 71.1439C81.2917 70.0915 82.6422 71.6876 83.186 70.2318C84.0981 70.7229 85.168 70.565 86.045 70.7931C87.2903 71.1263 87.9919 70.3546 89.1145 70.1616V73.1083C87.5008 72.9154 85.9573 74.2134 84.4839 72.7751C84.098 73.2837 83.7473 73.7749 83.3965 74.2309C82.2739 73.6872 81.2917 73.196 80.2568 72.6874V72.7049Z" fill="#C39D70"/>
<path d="M35.0576 71.2144C35.5487 69.6709 37.0045 70.618 37.8991 70.1094C39.2146 71.3547 40.723 70.811 42.2315 70.6882C43.547 70.583 43.7574 70.9864 43.775 72.9158L41.3018 72.8456C39.6882 74.1436 37.8816 72.3019 36.2854 73.3367C35.8469 72.565 35.5137 71.9686 35.1804 71.3723L35.0752 71.2144H35.0576Z" fill="#C39D70"/>
<path d="M20.8846 40.1504H24.4978C25.4976 41.4308 24.7609 42.7989 25.1468 44.3424H20.7267C20.3935 42.9392 20.2356 41.5711 20.9021 40.1504H20.8846Z" fill="#C39D70"/>
<path d="M12.4484 72.2664C12.2028 72.547 11.9397 72.8277 11.6415 73.1609C11.1329 72.74 10.6768 72.3541 10.2208 71.9858C9.86999 72.3892 9.60692 72.6874 9.15088 73.2136C9.06318 72.4243 8.99301 71.8454 8.92285 71.1438C10.5365 70.3019 12.0625 69.8108 13.834 70.4598C14.7461 70.793 15.7985 70.8457 15.6758 72.2313C15.8862 71.7928 16.0967 71.3368 16.658 70.1967C16.658 71.7227 16.7983 72.547 16.6229 73.3013C16.3598 74.4063 15.1144 74.6694 14.1673 73.8976C13.5534 73.389 13.0097 72.8101 12.4484 72.2664Z" fill="#C39D70"/>
<path d="M60.5072 70.0036V73.003H53.7367C53.649 72.2663 53.5613 71.3718 53.4736 70.6175C54.9119 69.1793 57.157 70.0387 58.1919 72.0032C58.8584 71.4244 59.5776 70.8105 60.5072 70.0036Z" fill="#C39D70"/>
<path d="M8.1155 73.2665C6.76492 72.9859 5.39678 73.8454 4.46716 72.4422C4.44962 72.4071 4.08128 72.5649 3.92342 72.6877C2.81841 73.5472 1.62572 73.2665 0.503161 73.0911C-0.110738 72.1615 -0.215995 71.2144 0.485604 70.6706C1.06442 70.2146 2.02914 69.9339 2.74828 70.0567C4.32687 70.3198 5.76514 71.2144 7.50159 70.7232C8.16811 70.5303 8.30842 71.0214 8.09795 73.2841L8.1155 73.2665ZM3.59016 71.4073C2.97626 71.074 2.53779 70.6882 2.36239 70.7759C1.99405 70.9688 1.74846 71.4073 1.45028 71.7581C1.74846 72.0037 2.08176 72.4597 2.30978 72.4246C2.67812 72.3369 2.97626 71.916 3.59016 71.4248V71.4073Z" fill="#C39D70"/>
<path d="M73.3975 73.0912V69.8989C74.2394 70.3023 74.8182 70.583 75.4496 70.8812C75.7302 70.6707 76.0986 70.3725 76.467 70.0743C77.2036 71.1267 78.3788 70.5479 79.5013 70.7584C79.5715 71.3197 79.782 71.8634 79.6417 72.3019C79.5189 72.6702 78.6945 73.1614 78.677 73.1263C77.4316 71.8459 76.2389 73.1438 75.0462 73.1789C74.5551 73.1789 74.0464 73.1263 73.3975 73.0912Z" fill="#C39D70"/>
<path d="M45.8972 73.3537C45.1254 72.2487 45.0728 71.3717 45.7043 70.5648C45.9148 70.3017 46.6163 70.0386 46.7216 70.1439C48.1248 71.5471 49.7736 70.8104 51.3522 70.8104C51.5802 70.8104 51.8257 71.1787 52.0713 71.3892C51.2645 72.2838 50.7032 73.3537 49.2123 73.2309C48.2476 73.1607 47.318 73.266 46.8795 72.1259C46.5638 72.5118 46.2656 72.8626 45.8621 73.3362L45.8972 73.3537Z" fill="#C39D70"/>
<path d="M23.0241 66.8121C20.4633 66.5665 20.4808 66.5665 20.779 64.1285C20.8316 63.6549 20.7088 63.1638 20.6387 62.3569C21.3052 62.5674 22.1647 62.6376 22.2524 62.9182C22.6207 64.1811 22.7786 65.5317 23.0066 66.8296L23.0241 66.8121Z" fill="#C39D70"/>
</svg>
