<svg width="162" height="88" viewBox="0 0 162 88" fill="none" xmlns="http://www.w3.org/2000/svg">
<path d="M54.8423 54.3867C54.9066 52.5126 53.8385 51.5385 52.9732 50.5001C52.4589 49.882 51.826 49.2391 51.109 48.9276C48.6712 47.8694 49.4722 45.7827 49.5464 44.0322C49.5909 42.9641 50.7381 42.4449 51.6628 42.1927C55.2874 41.1939 58.8872 40.6153 62.7244 41.451C67.7236 42.5339 68.7818 47.5628 67.1203 50.7572C66.522 51.9093 65.805 52.9922 65.0583 54.2433C67.3181 54.5548 69.6422 54.3719 71.9514 54.3471C72.9404 54.3372 73.6129 53.4373 73.6772 52.3148C73.7612 50.772 73.8107 49.254 74.0925 47.7013C74.7997 43.8097 76.6935 41.7329 80.8225 41.095C82.4988 40.8379 84.2146 40.9911 85.9156 41.5104C89.2781 42.5339 90.633 45.4909 90.9841 48.3144C91.1324 49.5309 91.078 50.7869 90.9989 52.0181C90.7665 55.7218 88.7193 58.575 85.164 59.2079C82.1328 59.7419 78.9039 59.7914 76.2337 57.3041C74.1123 59.1436 71.5559 59.4057 68.9054 59.3562C66.2105 59.3068 63.4958 59.5046 60.8454 58.8469C60.0641 58.6541 59.3075 58.3475 58.5114 58.0805C53.8188 59.7716 48.9679 59.6826 44.0972 58.7876C43.2615 58.6343 42.5149 58.0014 41.6792 57.5613C37.5404 60.0386 33.3175 60.2562 29.0452 57.5563C25.3712 59.9892 21.3312 59.7172 17.3309 58.7431C16.0798 58.4365 14.8584 57.314 14.8535 55.6971C14.8238 47.6271 14.8387 39.5621 14.8387 31.2548C15.7139 31.2152 16.5051 31.1658 17.2962 31.146C18.0281 31.1262 18.755 31.146 19.6352 31.146C19.6994 31.9174 19.7934 32.5454 19.7934 33.1783C19.8033 39.1912 19.7983 45.2041 19.7983 51.222C19.7983 51.7165 19.7786 52.211 19.8033 52.7054C19.8824 54.1048 20.1296 54.3471 21.618 54.4015C22.4389 54.4312 23.2647 54.4213 24.0904 54.4015C25.8607 54.3669 26.553 53.7241 26.6914 51.8945C26.7656 50.9105 26.6469 49.9116 26.7211 48.9325C27.0178 44.9965 28.8573 42.1631 32.7538 41.3076C36.0273 40.5906 39.3403 40.6796 41.7929 43.5377C43.1478 45.1151 43.9538 46.9843 44.023 49.1106C44.0527 50.0995 44.0033 51.0885 44.0379 52.0775C44.0923 53.6499 44.7351 54.3669 46.2482 54.3916C49.0371 54.4361 51.826 54.4065 54.8324 54.4065L54.8423 54.3867ZM35.8492 54.8614C36.7789 54.7674 37.9656 54.2779 38.4502 53.0615C39.2562 51.044 39.2315 48.982 38.109 47.009C37.4613 45.8766 36.4575 45.5008 35.2608 45.5206C34.1482 45.5404 33.1691 45.9261 32.6598 46.9991C31.8093 48.7891 31.2456 50.5891 32.1357 52.5868C32.7884 54.0603 33.901 54.9207 35.8542 54.8614H35.8492ZM79.1462 50.1885C79.1462 50.7621 79.0868 51.3407 79.161 51.9093C79.2945 52.9873 79.6505 53.907 80.7532 54.451C83.0279 55.5685 85.7475 54.1543 86.0195 51.5681C86.153 50.2825 86.1283 48.982 85.5794 47.726C84.9514 46.2871 83.552 45.3228 82.1674 45.5404C80.2785 45.8321 79.3242 46.7469 79.161 48.4727C79.1066 49.0413 79.1511 49.6199 79.1511 50.1935L79.1462 50.1885ZM59.4559 52.6659C60.964 52.562 61.2904 51.3951 61.8986 50.5742C63.9655 47.7903 62.2349 46.1783 59.5795 45.5503C58.813 45.3723 57.9477 45.5206 57.1466 45.6393C56.4543 45.7431 55.7917 46.02 54.8028 46.3068C57.1911 47.9386 58.4372 50.2133 59.4559 52.6659Z" fill="#C39D70"/>
<path d="M122.576 87.4278H117.335V0.131795C117.75 0.0823465 118.067 0.0131189 118.378 0.0081741C119.689 -0.00666038 121.004 0.00322928 122.196 0.00322928C122.369 0.176298 122.438 0.230691 122.483 0.294974C122.527 0.359257 122.581 0.433429 122.581 0.502657C122.606 28.9305 122.626 57.3533 122.646 85.7812C122.646 86.2658 122.606 86.7504 122.572 87.4278H122.576Z" fill="#C39D70"/>
<path d="M109.32 87.457C108.568 87.4966 108.089 87.5411 107.609 87.5411C106.467 87.551 105.325 87.5411 104.217 87.5411C103.747 85.489 103.549 25.0236 103.97 18.5113C105.616 18.0761 107.312 18.3481 109.132 18.3481C109.528 20.9342 109.261 23.466 109.31 25.9829C109.36 28.5344 109.32 31.086 109.32 33.6326C109.32 36.1841 109.32 38.7356 109.32 41.2822C109.32 43.8337 109.32 46.3853 109.32 48.9319C109.32 51.4784 109.32 54.0349 109.32 56.5815V87.4422V87.457Z" fill="#C39D70"/>
<path d="M143.088 33.208H148.082C148.448 35.1513 148.572 83.581 148.221 87.3835H143.207C142.851 85.5193 142.732 37.0304 143.088 33.208Z" fill="#C39D70"/>
<path d="M44.0367 87.1356C43.7202 87.3631 43.6559 87.4472 43.5867 87.4521C39.433 87.8378 40.0561 87.012 40.066 84.3319C40.0709 81.2859 40.061 78.2399 40.066 75.1939C40.0758 72.7956 40.3478 72.5336 42.7955 72.7017C43.2949 72.7363 43.7746 73.0182 44.4916 73.2605C46.7909 72.1973 49.3029 72.1874 51.7456 74.0467C53.3824 72.1924 55.6125 72.5731 57.7042 72.7412C59.5288 72.8846 61.2842 74.9714 61.3188 76.8553C61.3831 80.3019 61.3386 83.7534 61.3386 87.3433C60.676 87.4175 60.1321 87.5016 59.5832 87.5263C59.1035 87.5461 58.619 87.4867 57.8772 87.4521C57.808 85.1874 57.9069 82.9869 57.8228 80.7964C57.7882 79.8371 57.63 78.8531 57.3481 77.9333C56.8883 76.4202 55.9834 75.9059 54.5939 76.173C53.5554 76.3757 52.9472 77.1768 52.9275 78.5316C52.8978 80.6728 52.9275 82.8139 52.9176 84.95C52.9077 87.4521 52.7939 87.5609 50.2523 87.5312C49.9309 87.5312 49.6095 87.4818 49.1199 87.4422C49.0606 86.7944 48.9617 86.1714 48.9568 85.5434C48.937 83.3232 48.9963 81.098 48.932 78.8778C48.8727 76.8405 48.0914 76.0988 46.3014 76.1581C44.9317 76.2026 44.1998 76.9246 44.0465 78.5119C43.9674 79.3278 44.0317 80.1585 44.0268 80.9793C44.0268 83.0364 44.0268 85.0885 44.0268 87.1406L44.0367 87.1356Z" fill="#C39D70"/>
<path d="M12.4003 87.4921H9.13674C9.05762 86.9383 8.91917 86.3993 8.91422 85.8652C8.8895 83.7241 8.92411 81.583 8.8895 79.4419C8.87961 78.804 8.80049 78.1315 8.57797 77.5382C8.06866 76.1981 7.47033 75.936 5.83359 76.1586C4.70617 76.3118 4.02379 77.0585 3.99412 78.3541C3.94961 80.4952 3.97928 82.6363 3.97928 84.7774C3.97928 85.5883 3.97928 86.4042 3.97928 87.3734H0.112427C0.0778132 86.7158 0.0184752 86.0779 0.0135304 85.4449C0.00364075 81.8204 -0.0111937 78.2008 0.0135304 74.5762C0.0234201 72.9939 0.414062 72.4351 1.8629 72.7516C3.66776 73.1472 5.36878 72.7219 7.10441 72.6378C8.7461 72.5587 10.1949 72.7664 11.3174 74.329C12.7613 72.8158 14.4722 72.5785 16.3315 72.6527C19.3874 72.7664 21.1922 74.4279 21.2664 77.5382C21.3406 80.7424 21.2812 83.9565 21.2812 87.0916C21.0637 87.2646 20.945 87.4377 20.8115 87.4525C16.6479 87.8382 17.3056 86.9877 17.3105 84.3126C17.3105 82.4187 17.2166 80.5199 17.3353 78.631C17.4737 76.4107 15.654 75.8272 13.77 76.2426C13.4437 76.3168 13.0432 76.742 12.9591 77.0783C12.697 78.092 12.4547 79.1403 12.4201 80.1836C12.341 82.5522 12.3954 84.9208 12.3954 87.497L12.4003 87.4921Z" fill="#C39D70"/>
<path d="M130.211 60.3945H135.2C135.586 62.2884 135.715 83.3336 135.364 87.3834H130.35C129.979 85.5687 129.855 64.5284 130.211 60.3945Z" fill="#C39D70"/>
<path d="M161.562 87.462H156.573C156.192 85.5632 156.068 64.4587 156.414 60.4731H161.429C161.794 62.2879 161.918 83.4122 161.562 87.462Z" fill="#C39D70"/>
<path d="M0.601562 67.2629V62.9806C1.06638 62.9164 1.52625 62.8274 1.99106 62.7927C3.94427 62.6444 4.93818 61.6505 4.94312 59.6973C4.96785 54.6041 4.95301 49.5109 4.95301 44.4128C4.95301 43.8392 4.90356 43.2557 4.98763 42.692C5.13103 41.708 5.59089 41.525 7.55894 41.5399C9.31435 41.5547 9.73466 41.7475 9.88795 42.697C9.95223 43.0975 9.91762 43.5178 9.91762 43.9282C9.91762 49.5159 9.93245 55.1035 9.91762 60.6912C9.90279 64.6174 7.2573 67.2381 3.33111 67.2678C2.51027 67.2727 1.69437 67.2678 0.601562 67.2678V67.2629Z" fill="#C39D70"/>
<path d="M37.11 81.5677H28.5703C27.9027 82.5418 28.4022 83.1204 28.9906 83.5753C29.6928 84.1094 30.4197 84.772 31.4235 84.4159C32.3432 84.0896 33.2283 83.6742 34.1332 83.3132C35.0727 82.9374 35.8441 83.2292 36.393 84.139C36.838 84.8758 36.5908 85.4692 35.8491 86.1862C34.1431 87.8328 30.0587 88.357 27.5912 87.2345C25.6528 86.3543 24.7479 84.7077 24.4265 82.8435C24.0853 80.8557 24.0507 78.8332 24.6045 76.7762C25.1386 74.7933 26.2462 73.5868 28.0808 73.023C30.6273 72.2418 33.1195 72.4 35.2755 74.1208C36.5661 75.1543 36.8381 76.7663 37.0754 78.2893C37.2237 79.2486 37.1051 80.2524 37.1051 81.5727L37.11 81.5677ZM33.3223 78.5168C33.0651 77.6712 33.0602 76.8751 32.6745 76.5635C32.0811 76.0938 31.2207 75.7427 30.479 75.7427C29.8312 75.7427 29.0401 76.1779 28.5802 76.6674C28.234 77.0333 28.3082 77.7948 28.1747 78.5168H33.3272H33.3223Z" fill="#C39D70"/>
<path d="M76.6736 87.6499C75.2594 87.4917 74.216 87.2791 73.1776 87.2889C72.243 87.2988 71.2986 87.5016 70.3838 87.7093C68.2031 88.2136 65.9582 87.3236 65.0236 85.5236C63.2632 82.1414 65.1423 78.8481 69.0042 78.6207C70.3047 78.5415 71.6101 78.6108 72.8859 78.6108C73.0837 77.2658 72.7441 76.3955 71.8672 75.9999C70.7596 75.5005 69.6816 75.5499 68.5591 76.0147C66.2054 76.9938 66.1955 76.974 65.3005 74.1258C66.4922 73.1072 67.8273 72.5286 69.4838 72.6522C70.7101 72.7462 71.9562 72.6028 73.1826 72.6968C75.0814 72.8402 76.6044 74.3038 76.6489 76.2026C76.7379 79.8865 76.6736 83.5704 76.6736 87.645V87.6499ZM72.965 81.5974C71.8178 81.5974 70.8387 81.5628 69.8596 81.6073C68.7075 81.6617 68.2971 82.0524 68.2674 83.0067C68.2278 84.0797 68.663 84.4753 69.9734 84.5446C70.2997 84.5594 70.631 84.5594 70.9574 84.5446C72.693 84.4506 73.1331 83.8523 72.9699 81.6024L72.965 81.5974Z" fill="#C39D70"/>
<path d="M80.8071 72.6727C82.073 72.9398 83.3982 72.0349 84.2833 73.4491C86.5827 72.6085 88.887 71.7777 91.1616 74.0425C90.5435 74.9672 89.9748 75.8226 89.4507 76.6039C84.7382 75.5704 84.5306 75.8572 84.135 80.5152C83.9471 82.7157 84.1004 84.9458 84.1004 87.2056C83.0125 87.7594 81.9691 87.4924 80.9554 87.4627C80.5203 85.648 80.4165 76.2973 80.8071 72.6629V72.6727Z" fill="#C39D70"/>
</svg>
