<svg width="241" height="46" viewBox="0 0 241 46" fill="none" xmlns="http://www.w3.org/2000/svg">
<g clip-path="url(#clip0_871_6253)">
<path d="M90.251 14.3047C90.251 13.7236 90.251 13.1425 90.251 12.5614C90.2391 9.44492 90.2032 6.32845 90.2152 3.20801C90.2231 1.43286 90.5216 1.24579 92.3645 1.27365C95.2779 1.32141 98.1914 1.32539 101.105 1.28957C102.972 1.26569 103.111 1.34131 103.111 3.27567C103.111 12.4977 103.111 21.7157 103.107 30.9378C103.107 31.4035 103.115 31.8651 103.107 32.3308C103.095 33.2104 103.465 33.7 104.4 33.696C106.785 33.6841 109.169 33.6881 111.553 33.696C112.488 33.696 112.906 33.1149 113.316 32.3547C115.676 27.9845 118.096 23.6501 120.48 19.2918C123.812 13.1942 127.123 7.08468 130.455 0.983099C130.602 0.716429 130.853 0.50548 131.286 0C133.714 3.66175 135.541 7.4429 137.619 11.0688C139.728 14.7425 141.75 18.4679 143.824 22.1615C145.894 25.8432 147.983 29.5129 150.069 33.1985C152.278 31.6661 152.576 30.5955 151.462 28.5895C146.682 19.9605 141.898 11.3355 137.125 2.70253C136.97 2.42392 136.906 2.08958 136.739 1.604C137.213 1.4647 137.615 1.24181 138.021 1.24181C141.858 1.22987 145.699 1.30151 149.531 1.24181C150.622 1.22589 151.267 1.60798 151.76 2.51546C154.184 7.0011 156.624 11.4748 159.064 15.9525C159.239 16.2749 159.466 16.5734 159.784 17.0629C160.19 16.6211 160.533 16.3425 160.752 15.9883C163.462 11.5902 166.18 7.20011 168.835 2.77019C169.536 1.604 170.336 1.20599 171.741 1.27763C174.646 1.43286 177.564 1.28957 180.477 1.27763C180.919 1.27763 181.361 1.32937 181.994 1.36917C181.842 1.9463 181.815 2.408 181.612 2.76621C173.87 16.2629 166.093 29.7437 158.391 43.2603C157.655 44.5539 156.795 44.9758 155.382 44.9678C146.443 44.924 137.499 44.9439 128.556 44.9439C126.248 44.9439 125.993 44.7171 126.009 42.4922C126.025 40.3707 125.985 38.2414 126.18 36.1359C126.391 33.8154 126.626 33.7119 128.89 33.7C130.279 33.696 131.672 33.7119 133.062 33.692C133.571 33.6841 134.08 33.5965 134.928 33.5169C133.547 30.4721 132.258 27.6342 130.853 24.5417C130.427 25.0432 130.08 25.3218 129.897 25.68C126.948 31.4472 123.995 37.2145 121.109 43.0176C120.405 44.4385 119.505 45.0037 117.857 44.9877C109.511 44.9002 101.169 44.9479 92.8222 44.9479C90.3306 44.9479 90.2072 44.8405 90.2152 42.4086C90.2271 39.4235 90.2629 36.4383 90.2789 33.4572C90.2789 33.0035 90.2152 32.5537 89.8291 31.9089C89.5067 32.3985 89.1326 32.8642 88.8699 33.3856C86.1395 38.7747 81.9524 42.5081 76.2886 44.5977C66.9233 48.0485 56.6226 44.3907 51.0066 36.7926C47.325 31.8094 45.7011 26.2213 46.5847 20.1356C47.4444 14.2092 50.4892 9.36929 55.1301 5.55232C59.162 2.24083 63.8148 0.282591 68.977 0.354234C78.0876 0.481599 84.9136 4.58912 88.8818 13.0151C89.1206 13.5206 89.443 13.9863 89.7296 14.4719L90.251 14.3206V14.3047ZM68.9014 13.3733C63.4526 13.3932 59.3212 17.648 59.2217 23.1168C59.1182 28.8004 64.2009 33.1149 69.0288 33.0075C74.2547 32.892 78.7125 28.3745 78.6568 23.0889C78.5971 17.6918 74.2468 13.3534 68.9014 13.3733Z" fill="#C39D70"/>
<path d="M181.496 34.2884C181.265 34.6347 180.999 34.961 180.811 35.3312C179.594 37.7511 178.372 40.1711 177.197 42.6149C176.533 44.0039 175.649 44.7044 173.962 44.6209C170.857 44.4656 167.741 44.5811 164.628 44.5691C163.995 44.5691 163.362 44.5015 162.618 44.4577C162.694 43.9801 162.666 43.6975 162.781 43.4945C170.304 30.1809 177.834 16.8792 185.361 3.56952C185.719 2.93668 185.97 2.24015 186.36 1.63119C186.583 1.28491 186.997 0.811273 187.295 0.831173C187.633 0.855054 188.043 1.30879 188.242 1.67497C189.592 4.17849 190.877 6.71783 192.219 9.22533C196.155 16.5767 200.107 23.9201 204.06 31.2595C204.143 31.4107 204.338 31.5023 204.816 31.9003C204.915 31.1321 205.035 30.6227 205.039 30.1132C205.047 21.2971 205.039 12.4771 205.031 3.66107C205.031 1.21725 205.194 1.03814 207.594 1.03814C212.756 1.03416 217.922 1.0063 223.085 1.05804C226.599 1.09386 230.086 1.38442 233.389 2.76155C237.529 4.48894 240.585 8.88303 240.546 13.5279C240.466 22.941 240.522 32.358 240.518 41.7711C240.518 42.3004 240.538 42.8378 240.478 43.3592C240.39 44.1114 239.965 44.5651 239.169 44.5651C235.726 44.5651 232.283 44.5731 228.84 44.5572C228.032 44.5532 227.662 44.0557 227.662 43.2676C227.662 42.8019 227.662 42.3402 227.662 41.8746C227.662 33.0585 227.662 24.2385 227.662 15.4224C227.662 14.9568 227.674 14.4911 227.634 14.0294C227.542 12.9627 227.021 12.294 225.875 12.29C223.491 12.29 221.111 12.29 218.726 12.29C217.899 12.29 217.532 12.7279 217.544 13.5358C217.552 14.0015 217.54 14.4632 217.54 14.9289C217.54 23.9439 217.54 32.963 217.54 41.978C217.54 44.5612 217.54 44.5691 215.065 44.5691C204.872 44.5691 194.674 44.5691 184.481 44.5691C184.151 44.5691 183.82 44.5651 183.49 44.5691C182.415 44.589 181.934 44.0796 181.95 42.989C181.982 40.6686 181.974 38.3481 181.962 36.0277C181.962 35.4705 181.878 34.9133 181.83 34.356C181.719 34.3322 181.607 34.3043 181.496 34.2804V34.2884ZM190.905 33.3809C189.429 30.2366 188.135 27.4783 186.674 24.3738C185.026 27.6057 183.57 30.4674 182.085 33.3809H190.905Z" fill="#C39D70"/>
<path d="M14.8149 44.2955C13.987 44.4149 13.4338 44.5582 12.8766 44.5662C10.0307 44.59 7.18095 44.5303 4.33514 44.6059C3.02965 44.6418 2.30924 44.0806 2.08635 42.8865C1.48933 39.7064 0.661456 36.5342 0.442547 33.3262C0.0803524 27.9132 -0.0907944 22.4723 0.0524913 17.0513C0.179856 12.2274 1.04753 7.45117 2.43661 2.79836C2.77094 1.67596 3.39582 0.991373 4.7053 1.01525C7.61877 1.067 10.5322 1.01525 13.4457 1.04311C13.9353 1.04709 14.4209 1.23018 15.002 1.34561C11.5551 15.6861 11.0656 29.8794 14.8109 44.2955H14.8149Z" fill="#C39D70"/>
<path d="M47.5138 44.3429C46.7496 44.4464 46.2521 44.5658 45.7546 44.5658C42.9088 44.5857 40.063 44.518 37.2211 44.6056C35.8719 44.6454 35.0997 44.1041 34.6699 42.9021C33.2609 38.9657 32.2579 34.9298 31.7604 30.7785C31.4857 28.482 31.0718 26.1815 31.0519 23.8809C30.9922 16.6848 32.2141 9.66778 34.3833 2.80997C34.7574 1.62786 35.4022 1.02288 36.652 1.03084C39.6968 1.04676 42.7376 1.0189 45.7825 1.04676C46.2601 1.05074 46.7377 1.26169 47.283 1.39303C41.6232 15.8012 41.3525 30.0104 47.5138 44.3429Z" fill="#C39D70"/>
<path d="M30.6365 44.3193C30.1509 44.4108 29.7131 44.5621 29.2753 44.5661C26.4295 44.59 23.5837 44.5581 20.7379 44.6019C19.6552 44.6178 18.9229 44.2357 18.6881 43.1651C17.8642 39.4277 16.8094 35.7182 16.3358 31.937C15.8701 28.2116 15.8542 24.4066 15.902 20.6374C15.9736 15.1328 16.7099 9.69591 18.1826 4.37444C18.3776 3.67393 18.6522 2.99731 18.8712 2.30476C19.1498 1.41718 19.7906 1.03907 20.6702 1.03907C23.6473 1.03111 26.6245 1.00723 29.6017 1.05101C30.7639 1.06693 30.9788 1.44504 30.744 2.55153C29.8843 6.55159 28.73 10.5198 28.2564 14.5676C27.532 20.7568 27.536 27.0056 28.5429 33.1828C29.0723 36.4386 29.936 39.6386 30.6206 42.8705C30.7121 43.3004 30.6325 43.77 30.6325 44.3233L30.6365 44.3193Z" fill="#C39D70"/>
</g>
<defs>
<clipPath id="clip0_871_6253">
<rect width="240.549" height="45.8872" fill="white"/>
</clipPath>
</defs>
</svg>
