<svg width="105" height="68" viewBox="0 0 105 68" fill="none" xmlns="http://www.w3.org/2000/svg">
<path d="M83.3231 58.7954C85.2105 61.5979 87.6011 63.2794 91.1701 63.6912C93.5951 63.9658 95.5053 63.3366 97.2669 62.1241C101.808 59.0013 103.547 53.9911 102.197 48.5463C101.888 47.2994 101.488 46.0755 101.248 44.8287C100.802 42.5523 101.511 40.9623 103.879 38.8347C104.279 43.9822 104.874 49.0038 105 54.0254C105.114 58.967 102.746 62.9363 98.937 65.9676C97.4156 67.1801 95.6655 68.1409 93.698 66.5052C93.2404 66.1277 92.5198 65.8303 91.9364 65.8646C87.1436 66.1506 84.5241 62.9363 81.8703 59.7563C81.7102 59.5618 81.6415 59.2873 81.4928 59.0814C81.3441 58.8755 81.1382 58.7268 80.8637 58.4523C78.839 58.5781 78.3243 60.0537 77.9583 61.781C77.6723 63.1422 77.2147 64.4805 76.7571 65.796C76.3796 66.8598 75.6247 67.5118 74.3893 67.2944C72.9938 67.0428 72.4562 66.0819 72.4905 64.7894C72.5362 63.1307 72.6506 61.4607 72.7993 59.802C72.8908 58.784 73.234 57.7888 73.2454 56.7708C73.2797 52.2181 69.6193 49.6558 65.1353 50.8111C60.9716 51.8864 57.2769 53.831 53.7194 56.1531C50.9283 57.9833 48.1258 59.7906 45.2661 61.5179C38.7689 65.4299 31.654 67.8435 24.1387 67.9236C18.2591 67.9808 12.3796 66.6539 7.68968 62.4787C4.70415 59.8135 1.97026 56.908 0.162931 53.2819C-0.0887223 52.7786 -0.0887223 52.1609 0.448901 51.2801C1.08947 52.1609 1.77581 53.0074 2.34775 53.9339C5.68788 59.2873 10.3206 63.0507 16.4175 64.675C22.2513 66.2306 28.0508 65.4299 33.7244 63.4739C40.4962 61.1289 46.2041 56.908 52.118 53.0646C55.7098 50.7311 59.4845 48.878 63.6025 47.7227C68.1895 46.4415 72.296 46.7275 75.3845 51.7606C75.4646 50.1591 75.5675 49.1068 75.5675 48.043C75.5675 33.9961 75.5789 19.9378 75.5675 5.89098C75.5675 3.68329 75.5447 1.49848 77.8782 0C79.2051 1.15532 78.7017 2.6538 78.7017 3.93495C78.736 17.467 78.7246 31.0106 78.7246 44.5427C78.7246 47.7455 78.7246 50.9598 78.7246 54.1627C78.8276 54.1627 78.9191 54.1627 79.022 54.1742C79.5711 51.3145 79.7541 48.3289 80.7607 45.6408C81.8245 42.8154 83.609 40.2417 87.0749 38.4687C86.6059 41.4428 84.0322 42.335 83.2201 44.3711C82.3507 46.533 81.5043 48.6721 81.8703 50.8912C82.8083 51.0628 84.0208 50.9255 84.4326 51.4403C85.3019 52.5041 85.9654 53.8424 86.32 55.1808C86.9263 57.4914 86.1484 58.3036 83.3344 58.7954C83.2887 58.7039 83.2658 58.601 83.2086 58.5209C83.1629 58.4751 83.0714 58.4637 83.0027 58.4408C83.1171 58.5552 83.22 58.6696 83.3344 58.7954H83.3231ZM75.4188 59.436C75.2472 59.4818 75.0642 59.5275 74.8926 59.5733L75.0527 61.9068C75.1786 61.9068 75.293 61.8839 75.4188 61.8839V59.436Z" fill="#C39D70"/>
</svg>
