<svg width="193" height="37" viewBox="0 0 193 37" fill="none" xmlns="http://www.w3.org/2000/svg">
<path d="M184.633 0.107233C186.612 3.18543 189.172 6.45678 184.077 7.21727L184.693 8.4063C183.927 8.43045 183.13 8.20713 182.394 8.55719C182.243 8.62962 180.172 10.8447 180.082 10.9835C176.285 16.5424 181.458 19.5361 182.309 24.7811C182.237 25.27 179.744 25.8494 179.056 26.3142C178.615 26.6099 178.676 27.292 178.549 27.3765C176.943 28.4206 174.523 26.0365 175.024 24.3647C173.352 23.073 172.127 19.5904 171.541 17.5383C171.203 16.3613 171.203 11.8165 171.535 10.6274C171.722 9.95748 172.972 8.44252 173.509 7.80273C175.211 5.79889 180.577 1.42905 182.888 0.36073C183.462 0.0951603 183.993 -0.146266 184.633 0.107233Z" fill="#C39D70"/>
<path d="M190.542 30.322C189.727 31.4265 187.85 32.2836 186.896 32.9535C184.566 34.5953 182.532 36.8647 179.303 36.406C179.013 34.384 176.871 33.2855 177.492 31.1308C180.414 30.1289 184.729 26.9903 185.61 23.9483C186.824 19.7716 183.872 16.4641 182.236 12.909C183.999 12.0339 185.816 9.5894 187.94 10.2352C189.033 10.5672 192.274 19.0413 192.479 20.689C192.853 23.7431 192.413 27.781 190.542 30.316V30.322Z" fill="#C39D70"/>
<path d="M12.6642 1.8458L13.31 11.9495L21.0598 12.529C20.9391 10.2052 23.0939 9.66805 24.983 9.03431C26.2626 9.31195 25.7918 12.8851 29.2623 12.6255C30.9402 12.4988 31.0549 10.2716 31.3809 9.00413C33.6865 8.3402 32.087 12.1004 32.5819 12.5833C35.636 12.6255 36.4267 12.1849 36.8069 9.00413C39.861 8.78684 37.5674 12.1366 38.0141 12.5833H41.0017C40.9595 11.2615 41.4786 10.3682 42.5469 9.60166L43.748 12.5833L44.3515 10.7907L45.8545 12.5893C45.7941 11.7805 45.9932 10.5915 46.7658 10.2052C48.2083 9.48698 47.3694 12.2875 47.9669 11.9918C48.9628 11.0382 49.4095 8.6963 51.2805 9.8974L49.7112 14.4121L26.51 14.6475L25.6409 16.1745L25.2848 15.0458C24.0053 15.6373 22.1523 15.4744 22.3153 13.7844C20.6253 15.5408 20.0941 14.4181 18.4102 14.3699C16.4184 14.3155 14.1792 14.1043 12.3383 14.8708L11.5295 14.0077L10.3525 3.40904C10.8294 2.57612 11.5536 1.66473 12.6582 1.85183L12.6642 1.8458Z" fill="#C39D70"/>
<path d="M138.515 12.5897C138.756 12.5233 139.607 11.5394 139.42 11.4006C137.471 11.5877 136.945 9.49938 134.64 9.55974C134.429 8.47935 134.616 5.93833 135.581 5.38908C136.113 5.0873 141.225 3.23435 141.539 3.26452C141.677 3.2766 143.808 4.2423 143.639 4.8338L137 6.63244C138.623 9.33039 143.844 11.4851 140.35 14.853C139.577 14.4969 138.798 14.3642 137.941 14.3521C129.666 14.2555 121.054 14.0322 112.923 14.9436C112.658 12.5836 109.362 13.5554 107.431 12.5897C107.346 9.49939 111.523 8.588 112.253 6.32461C112.567 5.3589 106.719 6.94629 108.035 3.64477C108.976 3.95259 110.455 3.65684 111.239 3.83791C114.318 4.53202 112.929 7.28429 113.449 9.84342L114.644 10.4711L114.07 12.6017H138.515V12.5897Z" fill="#C39D70"/>
<path d="M62.7587 3.0402L63.4347 11.6229C63.8754 13.1681 66.8207 12.474 68.1908 12.5887C68.6978 9.38371 65.4567 5.12252 68.4926 3.04624L70.5689 5.20098C68.1667 8.14036 71.1966 10.9771 69.3316 14.3209L61.5456 14.3873C61.2015 14.0493 62.2578 11.3091 60.948 11.4057C60.8213 12.9025 57.9845 15.4435 56.7291 15.8419C56.4213 15.9385 52.7516 16.0471 52.486 15.8902C52.2023 15.7212 51.7134 15.1478 51.8885 14.9909C52.8119 14.9728 58.6243 12.0636 58.5217 11.7074C58.4613 11.5022 56.8256 8.01361 56.6506 7.8929C56.0591 7.50058 54.4536 8.18261 53.8018 7.71182C53.6026 7.56697 53.6086 6.92115 53.3491 6.68576C52.6912 6.09426 51.7798 6.24515 51.8885 5.44241C53.2284 5.84076 53.4034 3.80069 54.001 3.64377H54.5864C56.9765 5.59933 58.1897 6.26326 59.089 9.35956C59.3546 10.271 58.8537 10.3615 60.3324 10.2106C60.1393 9.2811 61.105 1.24157 62.7467 3.05227L62.7587 3.0402Z" fill="#C39D70"/>
<path d="M6.62776 28.7102C6.2958 28.9214 9.33175 32.8507 10.2492 32.8809L10.8588 29.2957L12.0599 29.9053C12.4703 27.6177 13.9551 24.3102 15.6813 22.7349C15.8382 24.9077 20.2745 31.6677 19.9123 33.1706C19.7373 33.9009 19.1518 34.1423 18.3913 33.4844C17.3411 32.5791 16.9247 31.2693 16.8583 29.9234C16.3814 29.8147 15.8805 29.8449 15.3855 29.8691C11.2028 30.1044 13.1463 32.7541 11.4805 33.7741C11.3417 33.8586 8.40829 34.0216 8.25136 33.9854C6.68812 33.6172 5.86123 30.4304 4.21953 29.8872L4.55152 32.899L2.70456 34.0578C0.911964 32.7601 2.39675 30.8408 2.45107 28.9999C2.53557 26.1692 0.0126568 22.9401 4.86535 23.0487C9.71804 23.1574 11.4986 26.9598 6.62776 28.7042V28.7102ZM4.21953 27.5091C8.52901 27.9919 7.77455 24.5033 4.21953 24.5214V27.5091ZM15.6813 28.6981L15.0777 26.314H14.4802L13.8706 28.6981H15.6813Z" fill="#C39D70"/>
<path d="M150.435 11.8354C151.388 12.6804 153.278 12.62 154.509 12.5838C153.616 11.1895 155.112 10.592 156.018 9.60819L156.32 12.5838L159.283 12.5295C159.349 11.2982 159.724 10.3264 160.846 9.69269L162.053 10.6282L162.959 9.92808C164.214 9.14344 164.202 12.8856 164.069 13.3564C163.363 15.9215 158.335 14.3885 156.054 14.3583C154.66 14.3402 151.744 14.1048 150.664 14.4548C149.529 14.823 149.046 17.1528 148.316 17.7986C146.729 19.1989 142.721 18.6074 141.236 17.0623C142.474 15.3843 143.88 17.2192 145.654 16.6881C146.693 16.3742 146.886 15.2516 147.489 14.5635C147.815 14.1953 149.004 14.6661 148.371 12.9942C148.147 12.4088 146.047 10.0428 148.177 9.60216C149.505 9.32452 149.891 11.3525 150.435 11.8293V11.8354Z" fill="#C39D70"/>
<path d="M101.394 30.4907C103.549 28.8369 103.549 26.2355 105.474 24.1049C105.812 23.7307 105.366 22.94 106.82 23.3263C107.001 25.8613 107.623 28.4204 107.876 30.9434C108.015 32.3316 108.214 35.0235 105.999 33.5025C104.382 32.3919 106.446 29.1145 105.317 27.509L101.992 34.0698L97.7726 28.1066L96.8612 34.0759C95.9498 34.1604 95.3885 33.3999 95.3221 32.579C95.1592 30.5027 97.1147 25.7768 97.1691 23.3263C99.0462 25.1431 100.682 28.01 101.394 30.4846V30.4907Z" fill="#C39D70"/>
<path d="M77.2529 14.3754C77.277 11.0014 76.257 7.26534 76.3234 3.92157C76.3536 2.32211 76.9451 2.24364 78.46 2.43678C78.5204 4.10263 78.3393 5.79263 78.5144 7.46451C78.623 8.50869 79.2326 12.5888 79.969 12.5888H94.1528C92.6137 8.92515 94.6176 6.61348 96.1144 10.9954C96.5309 12.2146 96.0118 13.5304 95.0582 14.3814H77.2529V14.3754Z" fill="#C39D70"/>
<path d="M160.954 24.7387C162.657 26.0183 162.614 27.491 162.367 29.6156C161.407 37.9146 145.944 33.5629 151.213 25.7407C153.621 22.1615 157.78 22.3486 160.954 24.7387ZM153.452 31.5349C153.555 31.6677 155.305 32.6998 155.54 32.7602C161.57 34.3415 161.926 23.2479 155.54 24.6361C152.553 25.2819 151.913 29.525 153.458 31.5349H153.452Z" fill="#C39D70"/>
<path d="M23.1589 24.3162L28.6574 29.3077C29.3998 28.6197 28.6273 27.2375 28.6877 26.2657C28.7842 24.6542 29.5326 22.0227 31.3252 24.2136C29.5326 27.3099 32.4539 31.4444 29.8706 34.0699C28.4281 31.8065 25.4465 30.545 24.7342 28.1066C21.8552 28.1066 23.334 31.384 22.8753 33.1283C22.7063 33.7741 21.9337 34.3958 21.4146 33.4844C20.3282 31.5711 21.5716 25.1914 21.7285 22.7349L23.165 24.3162H23.1589Z" fill="#C39D70"/>
<path d="M117.087 23.3332C118.143 22.1684 123.787 29.7371 124.927 29.9001C124.801 27.7091 125.404 25.3612 124.33 23.3393C125.676 23.1703 126.539 23.3514 126.756 24.818C127.094 27.1237 127.106 31.2641 126.43 33.4672L124.94 34.0768C123.932 31.3788 121.059 29.4112 118.898 27.5099V33.4792H117.081V23.3332H117.087Z" fill="#C39D70"/>
<path d="M59.1383 29.8932V23.3324C61.9147 23.4531 60.3997 25.1008 60.3394 26.5977C60.2307 29.1448 60.8283 31.5651 60.3514 34.0699C59.1986 34.3415 59.1865 33.6655 58.6494 33.074C56.8749 31.1184 55.0099 29.0844 52.8068 27.5091C52.0946 28.9033 53.4104 31.7461 53.0483 33.1223C52.662 34.5829 51.5273 33.4482 50.6943 33.4723C51.5876 30.4062 51.4669 27.0443 50.9599 23.9058L53.1086 22.7349C52.7223 25.1793 55.0038 25.5173 56.0902 26.6581C56.4463 27.0323 58.7399 30.4062 59.1443 29.9053L59.1383 29.8932Z" fill="#C39D70"/>
<path d="M37.4108 23.3325L41.6418 33.4785L39.8191 33.8165L37.9601 29.9235H34.4232C34.0308 31.0039 33.898 32.036 33.7713 33.1828C33.6445 34.3295 33.5238 34.5589 32.2865 34.076C30.3008 33.2974 32.4133 31.5471 32.9142 30.5271C33.8558 28.6198 34.6464 26.0607 35.6786 24.3043C36.1131 23.5619 36.4692 23.1575 37.4108 23.3325Z" fill="#C39D70"/>
<path d="M91.7309 25.1256C92.3284 27.7571 90.91 30.8655 92.3465 33.4729L89.9322 34.0765V25.1195C88.8639 25.4455 87.3369 24.6608 86.5885 24.7574C86.0332 24.8298 85.6227 25.7955 84.9045 25.6507C83.7396 25.4153 82.4963 22.7475 81.5909 26.0249C83.3533 28.3124 87.1075 27.6726 86.7032 31.4148C86.6006 32.3503 84.7717 33.0927 84.0837 33.6962C83.8241 33.9196 83.9147 34.5352 83.8241 34.6016C83.5827 34.7706 77.9212 33.7325 79.9794 31.6803C80.6554 31.6502 85.1701 32.8271 84.5001 30.7991C84.0173 29.3324 82.3212 29.8093 82.2066 29.7308C82.0677 29.6342 82.0919 29.085 81.8927 28.9462C81.0055 28.3245 80.0639 27.7933 79.3698 26.9242L78.4101 29.2479L74.843 29.3023V32.2899H79.068C78.9775 35.0905 76.9253 33.4367 75.1508 33.4307C74.4085 33.4307 72.6521 34.5412 72.4287 33.1772C72.3624 32.7788 72.9901 31.9338 73.0082 31.3122C73.0806 28.6927 72.9237 25.9223 72.4348 23.339C73.5635 23.4537 79.0197 22.8199 79.068 24.2323L74.8491 25.1316V27.5157C76.1045 27.1173 77.5712 27.6183 78.6998 26.8699C79.9371 26.049 80.7459 23.4839 82.3997 22.995C83.6732 22.6208 85.8159 23.7615 86.6428 23.7072C87.011 23.683 87.3852 23.0433 87.7956 23.007C89.3951 22.8441 92.4793 23.7494 94.4107 23.3994C96.662 25.0652 93.1493 25.3791 91.7429 25.1376L91.7309 25.1256Z" fill="#C39D70"/>
<path d="M115.276 23.3327V25.1193H111.649V27.5034H115.276V29.29H111.649V32.2776C111.993 32.6096 116.248 31.324 115.874 34.0642L112.017 33.4606L111.649 34.6617H111.051C111.564 32.9174 109.331 33.7865 109.204 33.1528L109.747 26.5739L108.631 26.0307C109.566 22.192 111.981 23.4474 115.27 23.3207L115.276 23.3327Z" fill="#C39D70"/>
<path d="M143.198 25.8671C142.064 27.3458 142.335 29.9895 143.627 31.4018C146.458 34.4861 148.13 31.4622 149.367 31.6795C151.697 32.0899 148.631 34.1179 146.361 34.1179C141.412 34.1179 139.843 31.1845 140.627 26.6095C141.189 23.3442 148.401 21.8654 150.278 24.8169C149.21 26.3077 149.192 25.2152 148.323 24.9798C146.627 24.5211 144.436 24.2556 143.198 25.8671Z" fill="#C39D70"/>
<path d="M66.3871 31.0884L68.9101 26.7246C69.4291 25.783 69.5679 24.6362 69.9663 23.6826C70.2198 23.073 71.7468 23.2722 71.8132 23.3325C72.453 23.9361 68.0832 31.3298 67.8599 32.8508L66.0854 34.076L61.5586 23.3325C62.9408 23.1454 63.1098 23.3023 63.8884 24.3043C65.0171 25.7528 65.9888 29.2354 66.3871 31.0884Z" fill="#C39D70"/>
<path d="M132.779 33.4784H130.365C131.222 30.883 132.308 23.2298 127.95 25.7225L127.341 23.6342L135.435 23.3867L135.791 25.7225L132.773 25.125V33.4784H132.779Z" fill="#C39D70"/>
<path d="M30.7765 3.63758L30.1669 5.42414C32.7019 6.22689 35.2731 5.30946 37.9469 5.48449L38.6229 7.2107C37.458 7.18656 35.6534 8.29109 34.6695 8.21263C33.9996 8.15831 33.3779 6.71578 32.889 6.71578C32.6898 6.71578 30.8067 8.27298 29.2374 8.17037C28.3864 8.11605 27.5414 7.10809 26.5395 7.2107C26.455 7.15034 27.131 5.87078 27.3603 5.59917C28.0001 4.82661 28.5735 6.12427 27.7466 3.04004L30.7645 3.63758H30.7765Z" fill="#C39D70"/>
<path d="M94.756 16.7602L95.0639 15.5651C98.9207 16.8809 100.955 15.6375 101.432 11.7264L100.339 11.2858C98.8724 6.55985 102.759 8.65424 103.2 11.0927C104.25 16.9352 99.826 19.6935 94.75 16.7602H94.756Z" fill="#C39D70"/>
<path d="M7.07985 17.2004C5.28121 18.7878 1.6236 17.3936 0 15.8726C1.22524 14.1826 2.00387 16.4218 3.79043 16.0899C5.57699 15.7579 6.98934 13.7178 7.8283 12.2874L5.48646 10.4405L6.02964 7.81494C9.9287 9.2454 9.71141 14.8827 7.07985 17.2004Z" fill="#C39D70"/>
<path d="M48.8838 23.3325V34.076L46.4696 33.4785C46.21 32.8085 47.0731 32.1265 47.0731 31.9877V23.3325H48.8838Z" fill="#C39D70"/>
<path d="M159.941 4.2296L159.35 5.97995L161.45 7.21123C161.981 7.54319 161.136 8.24333 160.84 8.44855C159.531 9.37804 157.05 8.13469 155.704 7.80272L157.491 3.8916L159.929 4.22357L159.941 4.2296Z" fill="#C39D70"/>
<path d="M95.3525 5.41849C93.8315 5.16499 94.5438 7.22316 92.721 6.54716C91.9424 6.25745 90.9405 5.18914 91.1336 4.2355C93.0952 3.5414 94.3748 3.24564 95.3525 5.41849Z" fill="#C39D70"/>
<path d="M165.976 33.4725L163.561 34.0761L162.964 32.5853L163.863 31.692C165.125 31.4566 166.163 32.193 165.97 33.4786L165.976 33.4725Z" fill="#C39D70"/>
</svg>
