<svg width="74" height="84" viewBox="0 0 74 84" fill="none" xmlns="http://www.w3.org/2000/svg">
<path d="M73.4357 19.3576C72.505 21.1363 71.6571 22.9356 70.6437 24.6522C67.2725 30.4224 63.8807 36.172 60.3855 41.8595C59.5582 43.2245 59.7236 44.4447 59.9718 45.8304C60.4268 48.4157 61.2334 51.0629 61.0266 53.6275C60.737 57.0814 60.3234 60.5973 58.9998 63.9271C54.8841 74.2059 47.3766 80.8448 36.7254 83.0578C22.9099 85.9326 10.0251 79.8314 3.51034 67.1741C-1.47399 57.4743 -1.10172 47.5263 4.31693 37.9093C4.42034 37.7231 4.70988 37.6404 4.9167 37.5163C5.18557 37.8059 5.45443 38.0747 5.74398 38.3643C7.75012 41.8388 9.69421 45.3341 11.7831 48.7672C17.0776 57.495 22.4549 66.1814 27.7908 74.8678C28.3699 75.8191 29.0318 76.7291 29.7556 77.8046C36.3945 68.7873 42.992 59.8734 49.5275 50.9388C56.9729 40.784 64.3977 30.5879 71.8432 20.4331C72.1948 19.9574 72.7946 19.6472 73.2703 19.2749L73.3737 19.3783L73.4357 19.3576Z" fill="#C39D70"/>
<path d="M24.834 4.30183C26.3644 2.99887 27.9569 1.65455 29.9217 0V64.8583C28.1638 63.1417 26.5506 61.5699 24.834 59.8947V4.30183Z" fill="#C39D70"/>
<path d="M5.76575 38.3648C5.49689 38.0753 5.22802 37.8064 4.93848 37.5169C6.32416 34.4973 8.35098 31.9948 11.0189 29.9887C12.0117 29.2441 12.963 28.4169 13.9971 27.5689V16.1111C15.7137 14.4773 17.3476 12.9055 18.9815 11.375C19.5192 13.9602 19.664 48.954 19.1056 53.3385C14.9278 48.4783 10.8121 43.7008 6.69644 38.9439C6.46893 38.6751 6.07598 38.551 5.76575 38.3442V38.3648Z" fill="#C39D70"/>
<path d="M40.5729 53.193C39.27 54.7441 37.9256 56.3986 36.54 58.0118C36.3331 58.26 35.9609 58.3841 35.5059 58.6736V12.5945C36.8502 11.4363 38.4634 10.0919 40.18 8.62354C40.8831 11.912 41.1106 42.5418 40.5729 53.2136V53.193Z" fill="#C39D70"/>
<path d="M46.508 27.8584C50.6237 29.9679 52.299 31.5605 55.7942 36.6275C53.271 40.3916 49.7137 43.225 46.5494 46.6375C45.8669 43.3698 45.8669 30.7952 46.508 27.8584Z" fill="#C39D70"/>
</svg>
