<svg width="123" height="76" viewBox="0 0 123 76" fill="none" xmlns="http://www.w3.org/2000/svg">
<path d="M55.8643 4.0194C55.8797 3.93908 56.1207 3.57761 56.2103 3.51273L62.1699 0.10505C62.3521 -0.00308156 62.556 9.03647e-06 62.763 9.03647e-06C63.5786 9.03647e-06 65.0183 1.14002 65.7969 1.57873C67.1006 2.31402 68.4446 2.97207 69.6618 3.84639V37.0582C69.6618 37.4104 68.0522 37.3424 67.6938 37.3208C64.7156 37.1508 61.6694 37.0273 58.6664 37.1354C58.2308 37.1508 55.8643 37.6297 55.8643 37.0582V4.01631V4.0194ZM65.4014 5.46527C65.5157 5.36332 63.5941 3.36135 63.3593 3.16671C63.1863 3.0246 63.1399 2.84232 62.8495 2.91338L62.9237 4.11518L65.4045 5.46527H65.4014ZM58.2493 8.3601V36.122L62.6024 33.9069L63.1986 33.9841L65.7444 35.2724C65.9112 35.1272 63.0411 32.3622 62.8495 31.9513C62.7352 31.7041 62.9113 31.6856 63.106 31.6948C63.5632 31.7165 64.2398 32.3591 64.7094 32.6464C64.8577 32.736 65.074 33.082 65.2346 32.8009L63.0998 30.3355L62.8495 29.6496L65.4045 31.0121C65.4725 30.6969 65.2346 30.6073 65.0647 30.4158C64.351 29.6094 63.5447 28.8587 62.8526 28.0307C62.7723 27.6137 63.1801 27.7805 63.4211 27.8021L65.2377 28.8803C65.074 27.9411 62.9731 26.6868 62.8495 25.9886C62.7908 25.6488 63.0071 25.6673 63.2512 25.7569C63.8011 25.9577 64.6291 26.8506 65.1512 27.0915C65.3551 27.1873 65.4756 27.0452 65.4045 26.8382L62.6796 23.9403C62.6055 23.6035 62.8464 23.6282 63.0782 23.7117C63.7331 23.9526 64.6013 24.9598 65.4045 25.0463C65.5374 24.9351 63.2728 22.7168 63.0998 22.4975C62.3676 21.5645 63.1708 21.79 63.7887 22.1484C64.1162 22.3368 64.3665 22.6211 64.6661 22.8064C64.8113 22.896 65.1234 23.1617 65.2346 22.9208C65.1605 22.3986 62.4417 20.3256 62.8495 19.9425L63.625 20.1032L65.5744 21.305L62.8464 18.1568C62.7445 17.6192 63.5848 18.1166 63.7887 18.234C64.0483 18.3854 65.0338 19.2783 65.2315 19.0898C65.2995 18.7747 65.0585 18.6851 64.8917 18.4936C64.2336 17.7459 63.4674 17.0693 62.8495 16.2784C62.7012 15.9849 63.072 15.9787 63.2728 16.0251C63.6652 16.1147 65.179 17.4091 65.4014 17.2176C65.1357 16.8932 64.9133 16.507 64.6383 16.1919C64.3016 15.8057 62.97 14.6904 62.8619 14.3907C62.8186 14.2703 62.8526 14.1158 62.8464 13.9829C63.1121 13.7172 64.351 14.8356 64.6291 15.0086C64.7928 15.1106 65.0801 15.3454 65.2284 15.089L63.0967 12.6236L62.8434 11.9408L64.5302 12.8923L65.2284 13.1302C65.3829 12.9974 63.5478 11.2395 63.3562 11.0016C63.1647 10.7637 62.8588 10.3868 62.8464 10.0655C63.2234 9.71638 64.7866 11.258 65.1481 11.4279C65.3489 11.5206 65.4725 11.3847 65.4014 11.1746L62.6796 8.27669C62.8804 8.0388 62.8866 7.99555 63.1986 8.09441C64.0174 8.3601 64.4777 9.30857 65.4045 9.38272C65.5559 9.25296 63.523 7.29115 63.3624 7.08416C63.1523 6.81537 62.6765 6.27163 62.936 5.97813L64.6569 7.15212L65.0647 6.91423L62.933 4.61567C62.3614 4.44266 62.5375 5.7217 62.4973 6.04918C61.9876 10.1057 61.0855 14.1158 60.6437 18.1722C60.6035 18.543 60.9248 18.9044 60.3811 19.2597C59.6458 18.5677 59.8898 17.6316 59.7755 16.8005C59.6983 16.2382 59.3708 15.5431 59.2874 14.9036C59.034 12.9943 58.9012 11.0665 58.5768 9.14174C58.5459 8.95637 58.4934 8.34774 58.2493 8.3601Z" fill="#C39D70"/>
<path d="M53.9487 10.6186C54.1063 10.7607 54.338 11.2705 54.3411 11.5022L54.2545 36.9841C53.9178 37.8831 53.0867 37.5556 52.3854 37.6699C49.7439 38.0994 47.1951 38.5752 44.6309 39.2826C44.1335 39.4186 43.2684 39.7121 43.0058 39.193L42.9502 11.2025C43.1665 10.4703 47.7543 8.27058 48.6286 7.67432C49.5555 8.24896 50.5534 8.70002 51.4987 9.24068C51.6748 9.34263 51.7922 9.53109 51.9622 9.62995C52.4194 9.89564 53.6645 10.3652 53.9487 10.6248V10.6186ZM50.4143 11.9378C50.1425 11.6906 49.089 10.0223 48.712 10.4054C48.5916 11.4929 48.8264 11.1994 49.4319 11.4713C49.7717 11.6257 50.0158 11.9625 50.4143 11.9378ZM49.3423 12.1571L48.539 11.7679V12.7874C49.3516 12.6484 49.747 13.3744 50.4113 13.6432L49.3423 12.1602V12.1571ZM48.8603 13.1519C48.4711 12.8986 48.3135 13.2601 48.2424 13.5937C47.6462 16.4793 47.64 19.7232 46.9665 22.5408C46.8954 22.8312 46.8337 23.1494 46.5834 23.3472L45.9995 21.0363L45.3044 16.0251C45.0757 16.0004 44.9923 16.6554 44.9769 16.8037C44.9151 17.471 44.9336 18.3299 44.9614 19.0096C45.1839 24.5397 45.2117 30.1471 45.1437 35.705C45.1406 35.9985 44.8688 36.5392 45.2209 36.6319C45.7091 36.7585 48.1281 34.7226 48.9314 34.9543C49.2156 35.0346 50.3247 36.0233 50.5843 35.7792C50.6522 35.4641 50.4113 35.3745 50.2444 35.1829C49.8582 34.7442 48.8603 33.9688 48.712 33.4775C48.6379 33.2335 48.7337 33.1779 48.9685 33.2211C49.401 33.3014 49.8799 33.9317 50.4143 33.9039L48.712 31.9452C48.6441 31.5961 48.8573 31.6517 49.1075 31.7196C49.4628 31.8185 49.8922 32.1089 50.1579 32.3715L50.2413 32.1182C49.9571 31.6331 48.709 30.6105 48.539 30.2429C48.4433 30.0359 48.5638 29.9432 48.7862 29.9957C49.4226 30.1471 49.7594 30.7897 50.4113 30.8391C50.1981 30.0359 48.9252 29.4211 48.709 28.7074C48.5143 28.0648 49.5647 28.8681 49.6791 28.9298C49.8304 29.0133 50.1178 29.3006 50.2413 29.0503C50.2104 28.556 48.3011 27.3388 48.709 26.9217L50.4113 27.6879C50.056 26.8939 49.0704 26.4212 48.709 25.6427C48.5668 25.3399 48.8851 25.3553 49.1075 25.4171C49.6296 25.5592 49.8088 26.1617 50.4113 26.069C50.2012 25.8404 50.0529 25.4882 49.8521 25.2657C49.7563 25.1607 49.5246 25.1298 49.3856 24.9722C49.262 24.8301 48.5668 24.0021 48.539 23.9404C48.4402 23.7303 48.5885 23.6252 48.7924 23.687C49.0303 23.7612 50.1301 24.4625 50.2413 24.3667C49.9695 23.7797 49.4628 23.3873 49.0488 22.9208C48.8789 22.7293 48.641 22.6397 48.709 22.3246C49.4443 22.1546 49.7686 22.9177 50.4113 23.0042C50.1857 22.2999 49.4721 21.9384 49.0488 21.3885C48.9098 21.2093 48.4155 20.4524 48.9623 20.6223L50.4143 21.3854C50.3402 20.8385 48.2919 19.507 48.712 19.0868C49.0673 18.8922 50.3495 20.0106 50.4143 19.9395C50.4823 19.6244 50.2444 19.5348 50.0745 19.3432C49.7656 18.9941 49.3238 18.6759 49.0519 18.3237C48.8109 18.0117 48.3877 17.3814 49.1106 17.5822C49.5617 17.7089 49.8984 18.2496 50.4143 18.2372C50.507 18.1569 48.9407 16.6338 48.8789 16.2816C48.7615 15.6112 49.7563 16.3804 49.8891 16.4638C50.0374 16.5565 50.2568 16.8933 50.4143 16.6214L48.712 14.7461L49.1353 14.3228C49.4041 14.5515 49.8706 15.0396 50.161 15.1725C50.3556 15.262 50.5039 15.1137 50.4143 14.9191C50.2908 14.6503 49.3392 13.8872 49.0457 13.5536C48.9376 13.43 48.8881 13.1674 48.8603 13.1519Z" fill="#C39D70"/>
<path d="M71.4008 10.7822L76.897 7.67725L81.8123 10.43L82.5754 11.1992L82.5198 39.1898C82.2541 39.7181 81.3983 39.4091 80.8948 39.2794C78.2378 38.5935 75.8466 38.1085 73.1371 37.6667C72.4389 37.5524 71.6511 37.8521 71.2186 37.0303L71.1846 11.6719L71.4008 10.7791V10.7822ZM78.6889 11.9376C78.4572 11.6997 77.3789 10.0005 76.9866 10.4052L77.1534 11.1745L78.6889 11.9376ZM73.236 15.7716V36.3815C73.236 36.4463 73.4615 36.6472 73.6407 36.6194C74.3636 36.502 75.9269 35.1982 76.7332 34.9263C77.138 34.8862 77.9907 35.538 78.4634 35.7543C78.6209 35.8254 78.9021 36.125 79.0287 35.8717L76.9866 33.4866C77.45 32.8564 78.0741 33.9995 78.6889 33.913C78.2471 33.3662 77.7837 32.8317 77.3264 32.2972C77.1627 32.1056 76.9155 32.0191 76.9866 31.7009C77.6786 31.599 78.0401 32.3559 78.6889 32.3806C78.7723 32.3065 77.382 30.873 77.2368 30.6814C77.0576 30.4435 76.9093 30.3632 76.9866 29.9955L78.6889 30.8452C78.4139 29.9925 77.3048 29.5043 76.9866 28.7134C76.8321 28.3241 77.1256 28.528 77.2801 28.5898C77.555 28.698 77.7188 28.8154 77.9567 28.9359C78.1112 29.0131 78.383 29.3159 78.5159 29.0563L77.1843 27.4529L76.9835 26.9308L78.6858 27.697L77.3233 25.9947L76.9835 25.3984C77.7126 25.2069 78.0432 26.2851 78.6858 25.9947L76.8136 23.9495C77.3357 23.279 77.8424 24.555 78.5159 24.3758C78.5838 24.0607 78.3429 23.9711 78.176 23.7795C77.7528 23.3007 77.1133 22.9207 76.9835 22.2472C77.1071 21.9938 77.3944 22.2811 77.5458 22.3646C77.7219 22.4603 78.6302 23.0721 78.6858 23.0103C78.7538 22.6951 78.5159 22.6055 78.3459 22.414C77.9629 21.9784 77.2214 21.3883 76.9835 20.8785C76.8506 20.5912 77.1596 20.5665 77.382 20.6499C77.5767 20.7241 78.6024 21.5644 78.6858 21.4748C78.7538 21.1597 78.5159 21.0701 78.3459 20.8785C77.9629 20.4429 77.2214 19.8528 76.9835 19.3431C76.8506 19.0557 77.1565 19.031 77.382 19.1144C77.6076 19.1979 78.3521 19.9332 78.5159 19.7694C78.3799 18.9507 77.1874 18.6541 77.1503 17.8138C77.1225 17.1465 77.8856 17.9559 78.1173 18.0393C78.349 18.1227 78.658 18.0918 78.5159 17.8107C78.2409 17.2669 77.0484 16.7294 76.9835 15.9354C77.0298 15.7964 77.4469 16.0219 77.5334 16.0651C77.6508 16.1238 78.8063 16.9055 78.5159 16.2752C78.4047 16.0373 77.5859 15.3762 77.3233 15.0827C77.1565 14.8911 76.9155 14.8016 76.9835 14.4864C77.2801 14.4555 77.518 14.4926 77.7898 14.6162C78.1328 14.7707 78.2749 15.2032 78.6858 15.1661C78.3738 14.4957 77.2461 13.7264 77.1503 13.0406C77.0546 12.3547 77.8794 13.195 78.0803 13.3032C78.2409 13.3897 78.5499 13.6276 78.6858 13.3804L77.0669 11.7646C76.3378 11.8789 76.7827 12.4412 76.7641 12.8397C76.656 15.0734 75.757 18.0887 75.4604 20.3749C75.3461 21.2585 75.6334 22.5067 74.8549 23.174C74.5274 23.1895 74.3636 21.3543 74.4161 21.0608L73.5758 15.5121C73.5326 15.4596 73.2545 15.7006 73.236 15.7686V15.7716Z" fill="#C39D70"/>
<path d="M89.7581 43.9569C89.4244 44.2442 87.2618 43.2896 86.7459 43.1382C86.2299 42.9868 85.4143 42.7582 84.8644 42.6346C69.278 39.2115 52.0048 39.162 36.6656 43.9136L35.5967 44.0372C35.6059 43.7592 35.9118 43.512 36.1188 43.3668C37.1785 42.6253 39.2484 41.7417 40.4904 41.266C52.0481 36.8295 69.5839 36.7152 81.4536 40.0827C83.6842 40.716 87.4657 41.9734 89.3101 43.2988C89.5418 43.4657 89.8199 43.6109 89.7612 43.9538L89.7581 43.9569Z" fill="#C39D70"/>
<path d="M45.9003 51.2822C46.0795 51.3317 47.0805 52.104 47.2504 52.3172C48.8168 54.2543 47.7355 56.8494 45.647 57.8412C46.5893 58.6382 47.0774 59.8061 47.8591 60.736C48.0815 60.9986 48.8971 61.8791 49.1257 62.0243C49.5737 62.3085 50.2194 62.0984 50.5809 62.6113C49.9166 63.2199 48.962 63.0654 48.1989 62.7812C46.1506 62.0181 45.4338 59.3457 44.0621 57.9771C43.8706 57.7855 43.3793 57.5044 43.1044 57.4025C42.9406 56.3551 44.1857 56.8525 44.8777 56.7351C45.8138 56.5776 46.3946 55.3078 46.3298 54.4335C46.1568 52.0608 44.8159 52.0175 42.7491 52.138V61.9316L42.9159 62.1046C43.2959 62.3209 43.9138 62.0459 43.7717 62.8677C42.573 63.155 41.3959 63.0654 40.1941 62.8677V62.3641C40.6699 62.2375 41.2909 62.2282 41.226 61.5979C41.0097 58.7402 41.4886 55.5395 41.226 52.7281C41.1518 51.931 40.9479 51.9217 40.2003 51.7951C40.1292 51.6375 40.3517 51.2853 40.4567 51.2853H45.9065L45.9003 51.2822Z" fill="#C39D70"/>
<path d="M86.6939 62.8643C85.9493 62.9724 83.4994 63.3092 83.0267 62.6975C82.9309 62.5739 82.8413 62.3978 83.036 62.3545L83.6106 62.1692C83.9134 61.7274 82.6838 59.7501 82.7703 59.1229C81.5252 59.1971 80.1628 59.0148 78.9332 59.1106C78.7354 59.126 78.5562 59.092 78.4265 59.2836C78.2875 59.4875 77.5831 61.3412 77.5305 61.6254C77.4966 61.8077 77.4564 61.99 77.5058 62.1722L78.0866 62.3545C78.2782 62.3947 78.1948 62.577 78.0959 62.6975C77.5614 63.3524 75.5687 62.9415 74.7686 62.8643V62.3607C75.8375 62.2124 75.9456 62.0425 76.372 61.1465C77.58 58.6163 78.7231 55.601 79.792 52.9873C79.9372 52.6351 80.3234 51.1861 80.3914 51.115C80.5829 50.9081 81.2255 51.3777 81.2781 51.6742L85.3531 61.5667C85.6682 62.3792 86.8453 61.9313 86.6939 62.8674V62.8643ZM79.0289 58.0942H82.0103C82.0535 58.0942 82.2605 57.9335 82.1895 57.7512C81.862 56.9109 81.5159 56.0551 81.1143 55.2457L80.6478 53.8369C80.413 54.3559 78.8559 57.9242 79.0289 58.0972V58.0942Z" fill="#C39D70"/>
<path d="M59.1051 62.8583L59.1268 62.3763C59.2503 62.3176 59.4573 62.2991 59.5346 62.1971C59.9424 61.6503 58.8518 59.812 58.7468 59.1355L54.6069 59.1107L53.4761 62.0859L54.1589 62.3639L54.1651 62.8644C53.3711 63.0189 52.5029 63.1209 51.6904 63.0436C51.227 63.0004 50.6338 62.8644 51.0076 62.3485C51.1559 62.1415 51.6132 62.2311 51.8789 62.0272C52.2898 61.7152 53.782 57.9059 54.1187 57.1149C54.6223 55.9255 55.0765 54.6804 55.5739 53.4601C55.8828 52.7001 56.4945 51.9864 56.3802 51.1152C57.27 51.0411 57.2453 51.7547 57.4955 52.2985C58.9754 55.5084 60.1339 58.9995 61.8331 62.0952L62.8496 62.6111C62.8403 63.2166 59.6365 63.1209 59.1082 62.8583H59.1051ZM58.2493 58.0943C57.8076 56.6453 57.3071 55.1902 56.6305 53.8339C56.1145 55.2644 55.4163 56.6206 55.0116 58.0943H58.2463H58.2493Z" fill="#C39D70"/>
<path d="M82.2633 44.8095C81.8586 44.7663 81.3735 44.8775 80.9874 44.8095C80.7247 44.7632 80.5857 44.5346 80.2984 44.4759C77.4963 43.9105 74.6138 43.7097 71.7838 43.4533C62.741 42.6253 53.3675 42.7921 44.5255 44.8157L43.4287 44.7261C43.4472 44.1515 44.4791 44.1917 44.8375 44.0897C49.5088 42.7581 54.6126 42.1495 59.5217 41.9116C65.2774 41.6336 72.3029 42.1341 77.9102 43.2895C78.902 43.4934 80.9225 43.9661 81.7999 44.3369C81.9945 44.4203 82.2108 44.5964 82.2633 44.8095Z" fill="#C39D70"/>
<path d="M66.9369 51.2822C67.0945 51.8847 66.3407 51.9804 66.4457 52.5273L68.7257 56.5621L70.9903 52.6972C71.2745 51.758 70.5825 51.9496 70.5145 51.7086C70.4682 51.5448 70.7123 51.2822 70.771 51.2822H74.0921V51.9619C73.4959 51.8878 73.0726 51.9835 72.6092 52.3543L69.4085 57.5847C69.0563 58.3849 68.9358 61.5732 69.4888 62.0984C69.8905 62.4785 70.5423 62.083 70.3446 62.8615C69.6989 63.0747 66.8844 63.2137 66.5971 62.6051C66.4457 62.29 66.8226 62.3611 66.9802 62.3085C67.4405 62.1571 67.6444 62.2931 67.7495 61.7215C67.8699 61.0604 67.8916 58.5054 67.7556 57.8721C67.5857 57.0688 66.1646 55.1286 65.6733 54.3346C65.2748 53.6858 64.8083 52.2894 64.0514 52.0391C63.7764 51.9495 63.106 52.0144 63.0195 51.7055C62.9731 51.5417 63.2172 51.2822 63.2759 51.2822H66.9369Z" fill="#C39D70"/>
<path d="M16.6893 71.0298H0V72.0679H16.6893V71.0298Z" fill="#C39D70"/>
<path d="M122.64 71.1997H106.337V72.2316H122.64V71.1997Z" fill="#C39D70"/>
<path d="M92.9929 74.1037C91.0466 74.8854 92.0877 72.6641 91.7788 71.6569C91.6243 71.1533 90.9354 71.3974 90.8056 71.833C90.6202 72.4694 91.1176 74.0203 90.3267 74.252C88.8253 74.6877 90.2093 71.3727 89.1589 71.3758C88.0467 71.5889 88.9643 74.0728 88.297 74.2644C87.0488 74.6228 87.4752 72.7722 87.4937 72.179C87.5091 71.6569 87.2187 71.351 87.574 70.6466C87.9293 69.9422 88.3958 70.6744 88.6522 70.6528C88.748 70.6466 88.9149 70.4057 89.162 70.3593C89.9776 70.211 90.2804 70.7517 90.6882 70.7115C91.096 70.6713 91.1763 70.1987 92.0228 70.3933C92.4368 70.4891 92.9929 71.0792 92.9929 71.4684V74.1099V74.1037Z" fill="#C39D70"/>
<path d="M60.1582 69.3709C60.5784 68.9507 62.5803 69.2164 63.1426 69.4636C64.4711 70.0475 64.6163 71.9908 64.0478 73.174C63.4794 74.3573 61.6998 74.4624 60.5475 74.2708C60.1057 74.1967 59.9852 73.9186 59.9419 73.5139C59.8523 72.6797 59.8832 71.1226 59.9419 70.2638C59.9605 70.0135 59.9821 69.5408 60.1551 69.3709H60.1582ZM61.4187 70.3781C61.2148 70.4368 61.1654 70.5913 61.1407 70.7797C61.0912 71.1443 61.0789 72.6797 61.1654 72.9763C61.2735 73.3532 61.8945 73.2915 62.2189 73.2204C63.8408 72.8558 63.3836 69.8127 61.4187 70.3781Z" fill="#C39D70"/>
<path d="M21.6299 69.5902C21.8122 68.9105 24.0026 69.1298 24.5741 69.3708C24.9171 69.516 25.3898 70.2328 25.3929 70.6066C25.3959 71.3079 24.6823 71.6416 24.6885 71.9691C24.6885 72.1297 25.26 73.0905 25.3403 73.5416C25.3836 73.7857 25.3929 74.0267 25.3774 74.2707C23.8728 74.8083 24.2034 72.2317 23.2519 72.2193C22.4733 72.21 23.0294 73.6775 22.7483 74.1101C22.5413 74.4221 21.633 74.28 21.633 74.0143V69.5871L21.6299 69.5902ZM23.9995 70.3749C22.5907 69.7786 22.257 71.5427 24.018 71.2091L23.9995 70.3749Z" fill="#C39D70"/>
<path d="M84.1389 75.8097C83.5828 75.8189 83.0916 75.7942 82.9865 75.1794C82.761 73.8726 83.0483 72.1672 82.9772 70.8109C83.3418 70.0478 83.7558 70.4958 84.2408 70.5236C84.5282 70.5421 84.7877 70.3629 85.0781 70.3444C87.043 70.227 87.2376 73.4864 85.8443 74.1908C84.9051 74.6666 83.8361 73.4802 84.1389 75.8097ZM85.316 73.2392C85.3407 73.2207 85.4797 72.7573 85.4921 72.6522C85.7207 70.6595 83.9257 71.3639 84.1636 72.6244C84.2625 73.1373 84.9205 73.5142 85.3129 73.2423L85.316 73.2392Z" fill="#C39D70"/>
<path d="M37.6396 69.3368C37.8065 69.136 40.2317 69.0896 40.5932 69.1947C41.106 69.3461 41.2172 70.0196 40.7075 70.276C40.2502 70.5046 38.9681 70.14 38.8322 70.6158C38.551 71.6075 40.5005 71.0453 40.6951 71.2183C41.0998 72.4386 39.9753 72.2316 39.1041 72.071C38.7766 72.1637 38.7735 72.7259 38.8507 72.9793C39.0175 73.5477 40.4356 73.0411 40.8836 73.3284C41.2203 73.5446 41.0133 74.2738 40.7909 74.2738H38.066C38.0197 74.2738 37.8157 74.0328 37.6396 74.1038V69.3337V69.3368Z" fill="#C39D70"/>
<path d="M54.8911 74.0453C54.8695 74.0298 54.5142 73.6714 54.5018 73.6467C53.439 71.9197 54.9034 69.6181 56.8405 70.4862C57.3534 70.7148 58.0114 71.8796 57.6592 72.4079C57.2823 72.9732 56.2474 72.6705 55.7407 72.5994C55.2649 72.5314 55.0765 73.3192 56.1238 73.2605C56.7015 73.2297 57.0043 72.6581 57.4059 73.1586C57.8261 73.6838 57.1279 74.1874 56.6305 74.2708C56.133 74.3542 55.3051 74.3202 54.8911 74.0422V74.0453ZM55.7808 71.3822C55.3205 71.5119 55.6665 72.068 56.2906 71.8919C56.7509 71.7622 56.4049 71.2061 55.7808 71.3822Z" fill="#C39D70"/>
<path d="M68.2806 72.5562C67.6349 72.8404 66.9397 72.7292 66.2539 72.7447V73.2544C66.7266 73.5078 67.7059 72.8374 67.9562 72.9887C68.7687 73.4769 67.9716 74.1751 67.3537 74.2709C65.7163 74.518 64.6813 73.6684 64.8976 71.9878C65.0675 70.6809 66.1396 70.0661 67.3939 70.4955C68.4999 70.8725 68.3393 71.5336 68.2775 72.5593L68.2806 72.5562ZM66.2539 71.892C66.6524 71.892 67.0293 71.997 67.2734 71.6356C67.0263 71.2772 66.6493 71.3791 66.2539 71.3791V71.8889V71.892Z" fill="#C39D70"/>
<path d="M27.3733 70.3966C28.4361 70.2113 29.2548 70.7766 29.4309 71.8425C29.5575 72.6025 29.1436 72.5623 28.5164 72.7292L27.0798 72.8249C27.3826 73.2235 27.6544 73.3409 28.1549 73.2235C28.5442 73.1308 28.7327 72.6643 29.1312 73.1586C29.9376 74.1689 27.7348 74.3975 27.0273 74.2399C25.4795 73.897 25.4053 70.7365 27.3733 70.3935V70.3966ZM27.2497 71.8919C27.6483 71.8919 28.0252 71.997 28.2692 71.6355C28.0221 71.2771 27.6452 71.3791 27.2497 71.3791V71.8888V71.8919Z" fill="#C39D70"/>
<path d="M96.9018 72.5623L94.699 72.7446C94.8041 73.8784 96.0924 72.9084 96.287 72.9362C97.2664 73.0721 96.874 74.0422 96.1109 74.243C94.248 74.7342 93.1729 73.4583 93.5374 71.6726C93.9669 69.5656 97.5784 70.1155 96.9018 72.5654V72.5623ZM95.7217 71.3791C95.3231 71.3791 94.9462 71.274 94.7021 71.6355C94.9493 71.9939 95.3262 71.8919 95.7217 71.8919V71.3822V71.3791Z" fill="#C39D70"/>
<path d="M47.9022 74.0609C47.5654 73.7643 47.3831 72.9951 47.6025 72.5687C47.9361 71.9169 49.3264 72.1949 49.3944 71.3793C48.931 71.2063 48.4706 71.713 48.1462 71.6851C47.6766 71.645 47.4974 71.2681 47.7693 70.8603C47.8713 70.7089 48.5849 70.3938 48.8012 70.3629C50.9916 70.0323 50.4911 71.5647 50.7568 72.9951C50.8248 73.3535 51.2295 73.5234 51.0874 74.0053C50.7723 74.5614 50.2563 74.0949 49.8207 74.0918C49.2832 74.0918 48.483 74.5676 47.9053 74.0579L47.9022 74.0609ZM49.5612 72.5718C49.0762 72.3648 48.347 73.2237 48.968 73.4214C49.2523 73.5141 49.6879 72.8993 49.5612 72.5718Z" fill="#C39D70"/>
<path d="M76.0996 72.5407C75.6362 72.9114 74.6136 72.343 74.0822 72.6519C73.7887 72.8218 73.9215 73.1524 74.1903 73.2327C74.6568 73.3749 76.2386 72.6766 75.9389 73.656C75.7227 74.3728 74.2799 74.4222 73.6898 74.2461C72.6301 73.931 72.3861 71.6973 73.0596 70.9465C73.8906 70.0197 75.3983 70.134 75.9976 71.2555C76.1614 71.5614 76.4085 72.2936 76.0996 72.5376V72.5407ZM74.941 71.3791H74.0884V71.8888C74.5425 71.9383 74.9843 71.8888 74.938 71.3791H74.941Z" fill="#C39D70"/>
<path d="M30.0111 74.0697C29.6898 73.4055 29.6157 72.5651 30.3263 72.1542C30.7248 71.9225 31.6702 71.9905 31.6795 71.4653C31.2686 71.0606 30.4591 71.7681 30.2336 71.7217C29.9432 71.663 29.8999 70.7794 29.9864 70.7084C30.0328 70.6713 30.972 70.3809 31.0863 70.3624C31.3891 70.316 31.9204 70.3036 32.1892 70.4427C33.2149 70.9586 32.7299 71.9967 32.872 72.8277C32.94 73.2232 34.0398 74.3076 32.7855 74.2891C32.39 74.2829 32.1027 73.9863 31.9328 73.9863C31.7814 73.9863 31.4663 74.2582 31.0832 74.2891C30.7001 74.32 30.3325 74.2551 30.0081 74.0728L30.0111 74.0697ZM30.9967 72.7412C30.9596 73.5569 31.4169 73.597 31.8494 72.9946C31.7752 72.3643 31.4045 72.766 30.9967 72.7412Z" fill="#C39D70"/>
<path d="M79.9989 70.3906C81.3428 70.1033 82.5631 71.095 82.4272 72.4698C82.2789 73.962 81.1481 74.6664 79.7023 74.1968C78.2564 73.7272 78.2564 70.7644 79.9989 70.3906ZM80.3325 71.4008C79.6497 71.5986 79.4242 73.4337 80.6445 73.2576C81.6208 73.1186 81.4478 71.0795 80.3325 71.4008Z" fill="#C39D70"/>
<path d="M97.5931 70.783C97.7723 70.1157 98.5014 70.5358 98.8721 70.5389C99.1533 70.5389 99.4282 70.3628 99.7248 70.3474C100.794 70.2825 101.112 71.4194 101.18 72.3092C101.254 73.304 101.412 74.8395 100.055 74.1134C99.9967 74.0362 99.9905 73.9466 99.9751 73.8508C99.9009 73.3164 100.204 71.5306 99.7125 71.3885C98.3686 70.9993 98.9895 73.3596 98.7053 73.9343C98.4581 74.4317 97.5962 74.3173 97.5962 74.0177C97.5962 73.2793 97.4479 71.3237 97.5962 70.783H97.5931Z" fill="#C39D70"/>
<path d="M42.7495 71.379C42.7433 72.0587 43.6269 71.8949 44.0347 72.2224C44.4425 72.5499 44.5414 73.0751 44.3221 73.5478C43.9328 74.385 43.009 74.4221 42.1872 74.2429C41.1862 74.0205 41.0256 72.831 42.2954 73.1122C42.5734 73.174 43.0245 73.7054 43.2624 73.1678C43.3952 72.8681 42.9781 72.8588 42.7959 72.7878C42.4993 72.6735 42.0111 72.6117 41.8165 72.4016C40.3799 70.8785 43.3025 69.411 44.2788 70.9712C44.0378 71.8733 43.4045 71.3666 42.7557 71.379H42.7495Z" fill="#C39D70"/>
<path d="M70.3439 72.5719C70.7672 72.6182 70.6158 72.5812 70.6931 72.3278C70.8444 71.8119 71.0483 71.299 71.1874 70.7738C71.5736 70.1868 72.5931 70.125 72.3119 71.0426C72.1636 71.5246 71.2831 74.027 71.0329 74.1939C70.8321 74.3298 70.3532 74.3143 70.1153 74.2464C69.5376 74.0765 69.0865 71.6667 68.6695 71.092C68.5366 70.6255 68.7312 70.295 69.2379 70.3506C69.8774 70.4185 70.0875 72.0405 70.3439 72.5719Z" fill="#C39D70"/>
<path d="M103.031 69.6892C102.87 70.5635 103.936 70.2144 104.053 70.6253C104.242 71.2802 103.775 71.4563 103.213 71.3853V73.2513C104.832 73.2791 104.322 74.5767 102.817 74.243C102.24 74.1133 101.894 73.3625 101.847 72.8157C101.779 72.0248 102.394 71.6726 101.344 70.9404C101.758 70.3318 102.141 69.4297 103.028 69.6923L103.031 69.6892Z" fill="#C39D70"/>
<path d="M46.1172 69.717C46.2222 69.819 46.2346 70.0661 46.3983 70.199C46.7289 70.4678 47.1522 70.304 47.3313 70.9745C47.4395 71.3854 46.5374 71.3699 46.3304 71.3823L46.3458 72.9764C46.4632 73.3842 47.007 73.168 47.1552 73.273C47.3468 73.409 47.3283 74.2462 47.0749 74.2833C46.386 74.3574 45.5703 74.2895 45.2181 73.5943C44.9617 73.0876 45.2707 72.2071 45.1069 71.6603C45.0297 71.4039 44.6528 71.3112 44.6157 70.9528C44.5539 70.3535 44.9617 70.4925 45.0946 70.3164C45.1873 70.1928 45.1255 69.9426 45.3016 69.7572C45.5024 69.5471 45.9102 69.507 46.1203 69.717H46.1172Z" fill="#C39D70"/>
<path d="M52.7875 69.6889C52.6175 70.5725 53.8657 70.2265 53.9862 70.798C54.1067 71.3696 52.8709 71.3356 52.8091 71.6476L52.9728 73.2511C54.4218 73.3098 54.428 74.4868 52.7226 74.2644C51.3385 74.0852 51.9409 72.3706 51.7865 71.487C51.7587 71.3201 51.0512 71.3418 51.2798 70.625C51.3416 70.418 51.6567 70.4273 51.737 70.3192C52.0058 69.9639 51.7092 69.4634 52.7875 69.692V69.6889Z" fill="#C39D70"/>
<path d="M34.8987 69.0096C35.152 69.1857 35.115 71.5059 35.0903 71.9786C35.0748 72.2721 34.8864 72.5656 34.9049 72.822C34.9358 73.202 35.7174 73.582 35.427 74.271C34.4353 74.444 33.8576 73.9527 33.734 72.9827C33.6629 72.4296 33.6259 69.8777 33.7525 69.4452C33.8854 68.9849 34.4878 68.9138 34.9018 69.0065L34.8987 69.0096Z" fill="#C39D70"/>
<path d="M76.8135 69.2506C76.9216 68.8397 78.006 68.9478 78.006 69.2506V73.168C78.006 73.2113 78.4602 73.616 78.5003 73.8693C78.5776 74.3636 77.6693 74.3729 77.3201 74.1937C77.2058 74.135 76.8135 73.5728 76.8135 73.5079V69.2506Z" fill="#C39D70"/>
</svg>
