<svg width="186" height="54" viewBox="0 0 186 54" fill="none" xmlns="http://www.w3.org/2000/svg">
<path d="M90.9479 10.4781C93.6912 10.2495 95.2153 11.5259 95.2915 14.1549C95.2915 14.4787 95.2915 14.7835 95.3106 15.1074C95.463 16.7648 96.2821 17.8126 97.9015 17.8698C100.759 17.9841 103.617 18.0222 106.455 17.8507C108.646 17.7174 109.675 16.3838 109.713 14.1549C109.751 11.5449 109.713 8.95402 109.713 6.34407C109.713 5.73445 109.713 5.10577 109.713 4.36279H114.133C114.209 5.44869 114.304 6.49648 114.399 7.71572C117.486 6.17261 120.667 6.42027 123.83 6.40122C126.878 6.40122 129.907 6.40122 133.05 6.40122C133.145 6.93464 133.26 7.33471 133.279 7.75382C133.298 9.46839 133.298 11.183 133.279 12.8975C133.241 15.8123 132.136 17.1458 129.221 17.6983C128.478 17.8317 127.716 17.8888 126.954 17.8888C122.896 17.8888 118.838 17.9269 114.761 17.8888C113.809 17.8888 113.123 18.0793 112.513 18.9176C111.389 20.4607 109.637 21.0703 107.846 21.1846C103.864 21.4513 99.8637 21.6609 95.9011 20.9941C95.2153 20.8798 94.5485 20.6512 93.9199 20.3464C92.3577 19.6034 91.2909 18.4032 90.9289 16.6505C90.586 14.9931 90.5479 12.0212 90.9289 10.459L90.9479 10.4781ZM114.38 13.9644C117.257 14.3454 127.106 14.212 128.573 13.7548V9.50649C125.449 9.60175 122.42 9.6589 119.41 9.79225C118.533 9.83036 117.657 10.0209 116.819 10.3066C114.971 10.9162 114.438 11.7545 114.38 13.9453V13.9644Z" fill="#C39D70"/>
<path d="M40.0051 0.0190507C40.9005 0.190507 41.5292 0.24766 42.1198 0.438167C43.72 0.952537 44.5202 2.07653 44.5583 3.9054C44.5964 6.68681 44.5583 9.48727 44.5583 12.2687C44.5583 14.0213 44.6154 14.0404 46.349 14.1928C46.7301 14.2309 47.1111 14.3262 47.473 14.3071C49.702 14.2119 50.5974 13.4117 50.6355 11.3923C50.6355 10.3446 50.9403 9.25866 51.3594 8.30612C51.95 6.91542 53.1502 6.13434 54.6552 6.07719C56.6745 5.98193 58.713 5.92478 60.7133 6.07719C62.9422 6.21054 64.2567 7.44884 64.7902 9.67778C64.9616 10.4208 65.0759 11.1828 65.114 11.9258C65.1712 12.9545 65.6665 13.5451 66.6381 13.8308C67.8192 14.1928 68.9813 14.1928 70.3149 13.8499C70.372 13.2593 70.4482 12.7259 70.4482 12.1734C70.4482 9.50632 70.4482 6.83921 70.4482 4.19116C70.4863 1.46691 71.9151 0.190507 74.9442 0.285761C74.9823 0.819182 75.0585 1.37165 75.0585 1.92412C75.0585 5.54376 75.0585 9.16341 75.0585 12.764C75.0585 15.8883 73.5916 17.4314 70.5054 17.641C68.0097 17.8124 65.7046 17.4314 63.7805 15.7359C59.837 18.3078 55.9316 18.2887 51.8356 15.774C49.8353 17.5267 47.3016 17.8886 44.6535 17.5648C43.72 17.4505 42.8056 17.1457 41.9293 16.8028C40.7672 16.3455 40.0432 15.3549 40.0242 14.1547C39.948 9.54442 39.9861 4.91509 39.9861 0L40.0051 0.0190507ZM60.618 11.5447C60.618 9.43012 60.0846 8.87764 57.9128 8.85859C55.7601 8.85859 54.979 9.50632 54.9409 11.3733C54.9028 13.2784 55.6839 14.0404 57.7414 14.0594C59.9894 14.0975 60.599 13.5451 60.618 11.5447Z" fill="#C39D70"/>
<path d="M16.9541 3.52469V14.4789H23.1075V7.06813C24.7078 6.62996 26.1175 6.80142 27.7559 6.93477V14.4598C29.4514 14.7075 30.9564 14.5932 32.4424 14.5551C33.1472 14.5551 33.4139 14.0407 33.4139 13.393C33.4139 12.4976 33.4139 11.6213 33.4139 10.7259C33.4139 8.57313 33.4139 6.40135 33.4139 4.24862C33.433 1.39101 34.7094 0.20986 37.8337 0.247962C37.8909 0.705179 38.0242 1.18145 38.0242 1.65772C38.0242 5.33451 38.0623 9.0113 38.0242 12.7071C37.9861 15.9458 36.4811 17.5651 33.2615 17.6222C27.6797 17.7175 22.0978 17.6984 16.5159 17.6603C14.1917 17.6603 13.2202 16.7459 12.8201 14.4027C12.5915 13.031 12.5724 11.6403 12.4391 10.1162C12.0581 10.0591 11.6389 9.94479 11.2198 9.92574C9.44811 9.90669 7.65735 9.88764 5.88563 9.92574C4.30442 9.96384 3.54239 10.8783 3.56144 12.5357C3.58049 14.0407 4.36157 14.8408 5.92373 14.917C7.06677 14.9742 8.20982 14.917 9.35286 14.9361C9.98153 14.9361 10.5912 14.9932 11.2008 15.0123C11.3151 16.7459 10.8388 17.6603 9.44811 17.9842C6.97152 18.5748 4.49492 18.3843 2.26599 17.1079C0.456168 16.0982 -0.363014 13.6978 0.151356 11.4498C0.684776 9.10656 2.30409 7.56345 4.74258 7.27768C6.11424 7.10623 7.52399 7.16338 8.93374 7.14433C10.0577 7.14433 11.2008 7.14433 12.2676 7.14433C13.3916 3.73425 13.9631 3.27703 16.9541 3.52469Z" fill="#C39D70"/>
<path d="M166.14 17.6602C164.311 20.937 161.606 22.442 157.51 22.4039C157.415 21.5847 157.339 20.7465 157.225 19.813C157.91 19.5653 158.482 19.3557 159.053 19.1462C160.959 18.4032 161.378 17.7364 161.321 15.698C161.263 13.2976 161.244 10.8782 161.244 8.45872C161.244 7.9634 161.34 7.48713 161.378 7.01086C164.407 6.76321 165.797 7.98245 165.836 10.8401C165.836 12.0212 165.836 13.2214 165.836 14.5931C168.465 14.5931 170.865 14.5931 173.246 14.5931C174.046 14.5931 174.37 14.1358 174.37 13.3738C174.37 12.6689 174.37 11.9831 174.37 11.2782C174.37 8.85879 174.351 6.45839 174.37 4.03895C174.408 1.3909 175.856 0.152598 178.828 0.305004C178.866 0.819374 178.962 1.37185 178.962 1.92432C178.962 5.48681 178.981 9.03024 178.962 12.5927C178.962 16.0219 177.418 17.584 173.97 17.6793C171.379 17.7364 168.769 17.6793 166.102 17.6793L166.14 17.6602Z" fill="#C39D70"/>
<path d="M72.0483 35.7776C72.6388 34.044 71.7434 32.196 73.4771 31.1482C74.3153 30.6339 75.1916 30.3481 76.3347 30.6529C76.3918 31.0911 76.4871 31.5674 76.4871 32.0436C76.4871 35.2251 76.5252 38.3875 76.4871 41.569C76.449 45.3982 74.3153 47.589 70.467 47.6843C68.3715 47.7414 66.2759 47.7605 64.1803 47.6843C59.3986 47.4557 56.8648 42.3691 59.4938 38.3494C60.5988 36.673 62.2371 35.93 64.1803 35.8538C66.0854 35.7776 67.9904 35.8157 69.8955 35.7966C70.5813 35.7966 71.2672 35.7966 72.0483 35.7966V35.7776ZM72.2197 39.2067C69.5717 39.2067 67.1713 39.2067 64.7709 39.2067C63.8564 39.2067 63.0754 39.6068 62.942 40.5403C62.7705 41.7024 62.4657 42.9597 63.5326 43.9122C63.704 44.0647 63.9898 44.2171 64.2184 44.2171C66.4283 44.2361 68.6382 44.2742 70.8481 44.2171C71.572 44.2171 71.9149 43.6455 72.1054 42.9788C72.4483 41.7976 72.334 40.6165 72.2197 39.1877V39.2067Z" fill="#C39D70"/>
<path d="M121.695 47.284C121.104 51.761 120.59 52.3706 117.542 52.4658C117.466 52.0658 117.351 51.6657 117.332 51.2466C117.332 47.8175 117.294 44.3883 117.332 40.9783C117.37 38.0254 118.799 36.1203 121.638 35.5297C124.705 34.882 127.81 34.882 130.877 35.5297C133.621 36.1203 135.145 38.254 135.183 41.245C135.221 44.0454 133.659 46.2172 131.03 46.884C130.001 47.1507 128.915 47.2459 127.848 47.265C125.829 47.3221 123.81 47.265 121.695 47.265V47.284ZM121.504 43.874C124.133 43.874 126.477 43.9121 128.801 43.874C130.268 43.8359 130.954 42.9595 131.011 41.3402C131.049 39.74 130.42 38.7303 128.972 38.635C127.143 38.5017 125.296 38.5207 123.467 38.635C122.171 38.7303 121.581 39.4732 121.524 40.7877C121.466 41.7212 121.524 42.6738 121.524 43.874H121.504Z" fill="#C39D70"/>
<path d="M114.932 47.2459C110.817 47.2459 106.95 47.3983 103.102 47.2078C98.7009 46.9792 96.3386 43.0738 97.8627 38.8826C98.3961 37.4348 99.3296 36.3489 100.796 35.8726C101.863 35.5297 103.006 35.2058 104.111 35.1677C107.331 35.0725 110.57 35.1296 113.789 35.1487C114.094 35.1487 114.399 35.2439 114.856 35.3202C115.046 39.2637 114.951 43.15 114.913 47.265L114.932 47.2459ZM110.779 43.8168C110.741 41.9117 111.027 40.2733 110.627 38.6921C110.341 38.635 110.169 38.5588 109.979 38.5588C108.207 38.5588 106.436 38.5207 104.664 38.5588C102.206 38.5969 101.349 39.6447 101.73 42.0451C101.882 43.0738 102.397 43.7596 103.406 43.7977C105.788 43.893 108.188 43.8358 110.779 43.8358V43.8168Z" fill="#C39D70"/>
<path d="M172.485 35.2815V47.112C172.009 47.1691 171.59 47.2834 171.151 47.2834C168.046 47.2834 164.941 47.2834 161.836 47.2834C161.512 47.2834 161.207 47.2834 160.883 47.2453C155.606 46.75 154.273 42.4827 155.549 38.8059C156.082 37.2628 157.206 36.2531 158.73 35.7577C159.683 35.4529 160.693 35.1862 161.683 35.1672C164.979 35.091 168.275 35.1291 171.571 35.1481C171.818 35.1481 172.066 35.2243 172.466 35.2815H172.485ZM168.294 38.5391C165.97 38.5391 163.893 38.5391 161.817 38.5391C161.512 38.5391 161.188 38.5773 160.883 38.6725C159.702 39.0345 159.169 40.0061 159.283 41.5301C159.397 42.978 160.007 43.721 161.302 43.8162C162.56 43.9115 163.817 43.8734 165.093 43.8543C166.141 43.8543 167.189 43.7972 168.294 43.7781V38.5201V38.5391Z" fill="#C39D70"/>
<path d="M56.675 35.8539V47.513C56.2368 47.5892 55.8177 47.7225 55.3986 47.7225C52.16 47.7225 48.9404 47.7225 45.7018 47.7225C45.4541 47.7225 45.1874 47.7225 44.9397 47.6844C42.7108 47.532 40.8819 46.6938 39.9103 44.5411C38.8625 42.2169 39.0721 39.9498 40.5581 37.8924C41.4915 36.5969 42.9585 35.9111 44.5016 35.873C48.4832 35.7777 52.4648 35.8349 56.6559 35.8349L56.675 35.8539ZM52.4838 39.2069C50.0453 39.2069 47.8354 39.1688 45.6446 39.2259C45.1112 39.2259 44.3873 39.4355 44.1205 39.8165C43.3966 40.8452 43.3014 42.0454 43.7967 43.2456C44.1967 44.2363 45.1112 44.3887 46.0066 44.4077C47.4544 44.4458 48.9023 44.3696 50.3692 44.3315C51.036 44.3315 51.7218 44.3315 52.5029 44.3315V39.2069H52.4838Z" fill="#C39D70"/>
<path d="M150.958 6.95341H155.282C155.339 7.39158 155.454 7.81069 155.454 8.22981C155.473 9.88723 155.492 11.5256 155.454 13.183C155.416 15.6977 154.101 17.2027 151.625 17.5647C151.129 17.6409 150.615 17.6599 150.1 17.6599C147.376 17.6599 144.652 17.679 141.909 17.6599C141.089 17.6599 140.251 17.5837 139.47 17.3742C137.622 16.8598 136.479 15.6024 136.441 13.6783C136.365 9.75387 136.441 5.81037 136.441 1.88592C136.441 1.77161 136.555 1.67636 136.613 1.56205C139.546 1.31439 140.975 2.53364 140.994 5.3341C141.013 7.67734 140.994 10.0206 140.994 12.3829C140.994 13.0115 140.994 13.6212 140.994 14.4404C144.29 14.7833 147.414 14.6499 150.691 14.5356C151.015 11.9828 150.653 9.50621 150.92 6.99151L150.958 6.95341Z" fill="#C39D70"/>
<path d="M37.568 36.4063V53.552H33.6054C33.5483 51.9708 33.4721 50.2943 33.3959 48.4273C31.5099 48.4273 29.7572 48.4845 28.0045 48.4273C26.8805 48.3892 25.7184 48.2749 24.6325 48.0082C23.0894 47.6272 22.0226 46.5222 21.813 44.9791C21.432 42.1596 21.6987 39.3211 21.6416 36.292C22.556 36.292 23.2418 36.292 23.9277 36.292C24.423 36.292 24.9183 36.3682 25.6041 36.4253C25.6041 38.0828 25.6041 39.6449 25.6041 41.2261C25.6041 44.6553 26.0042 45.0363 29.4143 45.0363C30.6716 45.0363 31.929 45.0363 33.4149 45.0363C33.453 44.2361 33.5102 43.5694 33.5102 42.9026C33.5102 41.8929 33.5102 40.8642 33.5102 39.8545C33.5483 37.3207 34.6723 36.3301 37.587 36.4253L37.568 36.4063Z" fill="#C39D70"/>
<path d="M153.358 43.8551V47.227C151.053 47.227 148.843 47.5509 146.671 46.9222C143.928 46.1411 142.537 44.3504 142.499 41.5118C142.461 38.216 142.461 34.9203 142.499 31.6245C142.518 29.0336 143.68 28.062 146.595 28.2906V34.8822C148.786 35.3394 150.824 34.8822 152.958 35.206V38.3494C150.996 38.7304 148.9 38.2922 146.671 38.6352C146.671 39.702 146.633 40.6926 146.671 41.6833C146.748 43.1121 147.357 43.7598 148.805 43.836C150.253 43.9122 151.72 43.836 153.358 43.836V43.8551Z" fill="#C39D70"/>
<path d="M95.5786 35.1299V38.4828C94.588 38.5019 93.6545 38.54 92.721 38.54C91.8256 38.54 90.9493 38.54 90.0539 38.54C87.9202 38.5971 87.0439 39.5878 87.2725 41.6643C87.444 43.1502 88.0917 43.817 89.6158 43.8551C91.5018 43.9123 93.4069 43.8551 95.4834 43.8551V47.2271C92.702 47.2081 89.9396 47.5891 87.1963 46.9032C84.7578 46.2746 83.2719 44.4838 83.0814 42.0453C82.8527 39.0353 83.9958 36.8635 86.4343 35.8538C87.1201 35.568 87.8821 35.3966 88.6251 35.2442C89.1776 35.1299 89.7491 35.1489 90.3206 35.1299C92.0162 35.1299 93.7117 35.1299 95.5786 35.1299Z" fill="#C39D70"/>
<path d="M185.021 47.4176C182.735 47.2652 180.639 47.3033 178.62 46.9413C175.762 46.427 174.238 44.4838 174.181 41.6071C174.105 38.197 174.124 34.7679 174.181 31.3578C174.219 28.9955 175.648 27.9858 178.334 28.424C178.334 29.0527 178.334 29.7385 178.334 30.4243C178.334 33.9678 178.334 37.5112 178.334 41.0546C178.334 43.2264 178.982 43.8361 181.192 43.8742C182.449 43.8742 183.687 43.8742 185.04 43.8742V47.4176H185.021Z" fill="#C39D70"/>
<path d="M77.1172 0.209961H81.4608C81.5179 0.70528 81.6132 1.1244 81.6132 1.56256C81.6132 5.62037 81.6322 9.65913 81.6132 13.7169C81.6132 16.4983 80.0701 17.7938 77.1362 17.4699V0.209961H77.1172Z" fill="#C39D70"/>
<path d="M181.037 0.190918H185.343C185.419 0.533831 185.514 0.819592 185.514 1.10535C185.514 5.35367 185.552 9.58293 185.514 13.8312C185.495 16.4412 183.857 17.7366 181.037 17.4318V0.190918Z" fill="#C39D70"/>
<path d="M0.476661 48.1985C0.476661 45.7028 0.324255 43.1881 0.514763 40.6925C0.667169 38.6921 2.00072 37.3776 3.90579 36.768C4.74403 36.5013 5.63941 36.3108 6.4967 36.2917C8.82089 36.2346 11.1451 36.2727 13.5645 36.2727V39.6637C11.8119 39.6637 10.1354 39.6637 8.43987 39.6637C4.85833 39.6637 4.53447 39.9876 4.53447 43.531C4.53447 44.0454 4.53447 44.5407 4.53447 45.0551C4.45827 47.5507 3.14376 48.6176 0.45761 48.1985H0.476661Z" fill="#C39D70"/>
<path d="M136.994 35.2441H140.785C140.842 35.7204 140.918 36.1395 140.918 36.5586C140.918 38.959 140.956 41.3594 140.918 43.7598C140.88 46.3126 139.68 47.3223 137.051 47.1509C136.689 45.7792 136.632 37.1873 137.013 35.2441H136.994Z" fill="#C39D70"/>
<path d="M15.3165 36.3872H19.3362C19.3362 37.435 19.3362 38.3685 19.3362 39.302C19.3362 41.1499 19.3553 42.9788 19.3362 44.8267C19.2981 47.3414 18.0598 48.4273 15.4689 48.2939C15.107 46.9794 14.9927 39.5687 15.3165 36.3872Z" fill="#C39D70"/>
<path d="M6.64843 5.12494C5.67684 5.96317 4.55285 6.43944 3.2193 5.81076C2.45727 5.46785 1.96195 4.89633 1.981 4.05809C2.00005 3.29606 2.57157 2.83885 3.23835 2.53403C4.55285 1.96251 5.69589 2.28638 6.53413 3.12461C7.46761 2.8198 8.26774 2.38163 9.10598 2.30543C10.5729 2.17207 11.6397 3.18176 11.5064 4.34385C11.373 5.4107 9.96326 6.32513 8.72496 6.03937C8.07724 5.88696 7.46761 5.4869 6.64843 5.12494Z" fill="#C39D70"/>
<path d="M21.451 20.8996C22.4416 20.1376 23.5275 19.528 24.8611 20.1948C25.7565 20.6329 26.3089 21.3568 26.1946 22.0617C26.0803 22.7666 25.3564 23.4715 24.4801 23.6429C23.3561 23.8715 22.3464 23.662 21.6415 22.8428C20.7652 23.1476 19.9841 23.5667 19.1459 23.681C18.079 23.8334 17.0312 23.2238 16.7645 22.4999C16.5359 21.8712 16.5931 21.2425 17.1074 20.7472C17.8314 20.0614 18.7077 19.6994 19.6983 20.0233C20.2889 20.2138 20.8033 20.5758 21.4319 20.8996H21.451Z" fill="#C39D70"/>
<path d="M148.747 22.3851C147.89 23.109 146.785 23.6234 145.451 22.9566C144.727 22.5946 144.213 22.0803 144.27 21.2039C144.327 20.3085 144.918 19.8704 145.68 19.6227C146.956 19.1846 148.023 19.6037 148.766 20.2704C149.833 19.9656 150.69 19.5465 151.566 19.5084C152.805 19.4513 153.795 20.4419 153.776 21.3944C153.757 22.347 152.69 23.3186 151.49 23.2233C150.652 23.1662 149.852 22.747 148.747 22.3851Z" fill="#C39D70"/>
<path d="M122.686 5.04794C121.219 5.04794 120.267 4.30496 120.267 3.20002C120.267 2.17128 121.41 1.23779 122.686 1.23779C123.905 1.23779 125.125 2.20938 125.144 3.20002C125.144 4.24781 124.096 5.06699 122.705 5.04794H122.686Z" fill="#C39D70"/>
</svg>
