<svg width="74" height="78" viewBox="0 0 74 78" fill="none" xmlns="http://www.w3.org/2000/svg">
<path d="M26.607 39.6087C26.1685 39.1 26.0632 38.9246 25.9229 38.8369C23.0814 37.0829 19.8541 35.6096 19.5383 31.6631C19.1525 26.9799 19.4857 22.4195 22.9411 18.7361C27.3086 14.0529 31.9917 9.66794 37.9202 7.07203C46.3219 3.40617 54.706 -0.663098 64.2828 0.0911208C66.1771 0.248981 68.1942 0.599781 69.8605 1.4417C73.3335 3.1957 74.9822 7.51053 73.3685 10.9834C70.3166 17.5434 65.7737 22.858 59.3365 26.4362C56.3547 28.0849 53.3379 28.2603 50.0404 26.5589C48.7599 29.1899 47.6198 31.5403 46.2868 34.259C48.4968 35.3289 50.5315 36.2585 52.5135 37.2759C55.6356 38.9071 57.5475 41.4679 56.7582 45.0285C56.0039 48.4313 55.3023 52.1498 53.3729 54.9035C50.0579 59.6393 46.2342 64.1997 41.8843 67.9708C33.6405 75.1096 23.4498 77.3021 12.803 77.723C11.926 77.7581 10.9964 77.7757 10.172 77.5301C6.10274 76.3374 1.82298 75.3727 0.525025 70.3738C-0.913252 64.8838 0.647806 60.2883 4.66446 56.4646C5.68178 55.4999 6.92711 54.7632 8.01459 53.8687C8.6811 53.3249 9.75105 52.6935 9.80367 52.0445C10.2597 46.6247 14.5745 46.5896 18.293 45.8178C22.0115 45.0636 25.6247 44.3094 26.607 39.6262V39.6087ZM59.6347 17.5434C59.8277 17.7188 60.0206 17.9117 60.2135 18.0871C62.1079 16.3507 64.1425 14.7545 65.8088 12.8251C66.6332 11.878 67.5102 9.75565 67.0541 9.19437C66.107 7.98411 64.3705 6.93171 62.8445 6.75631C60.8099 6.52829 58.5999 6.93171 56.5828 7.51053C51.198 9.07159 45.6027 10.3169 40.6039 12.7374C35.9031 15.0176 31.7637 18.5432 27.519 21.7004C26.1509 22.7177 24.9056 24.156 24.1689 25.6644C23.0814 27.892 23.9409 30.3651 25.5896 31.2421C27.8698 32.4348 30.7639 32.0139 32.3425 30.2599C36.482 25.6819 40.5863 21.0865 44.8134 16.5962C45.8483 15.4912 47.2515 14.0354 48.4968 14.0354C49.8825 14.0354 51.2506 15.5263 52.4433 16.263C54.5657 15.1755 56.5301 13.9302 58.6525 13.1409C60.2837 12.527 61.301 13.7548 60.7924 15.5263C60.5819 16.2454 60.0206 16.8769 59.6347 17.5434ZM36.0435 48.6593C29.466 47.1333 25.3792 48.5716 22.678 53.8511C20.924 57.289 18.6438 60.4812 16.4864 63.7086C15.9076 64.5681 14.8903 65.1644 13.8554 66.0765C12.2242 61.9371 14.9078 59.1833 15.7322 55.6577C11.6278 56.6049 8.75127 58.7623 6.52369 61.7441C3.40158 65.9011 5.10296 69.7774 10.3825 70.251C13.6975 70.5492 17.1178 70.4264 20.3978 69.9528C22.3974 69.6722 24.7653 68.8478 26.0457 67.4271C30.8166 62.1475 33.0617 55.4823 36.0435 48.6593ZM34.5876 63.7612C34.9911 63.9892 35.3945 64.1997 35.7979 64.4277C39.4988 60.9373 43.3576 57.5696 46.8656 53.8687C48.6547 51.9919 50.0579 49.624 51.1454 47.2561C51.5663 46.344 51.0226 44.0814 50.2684 43.6955C47.8829 42.4677 45.3747 40.8189 42.0246 42.1344C43.0594 43.6253 43.954 44.9233 44.7784 46.1335C43.2875 48.3962 40.1478 47.4666 39.341 50.4308C38.0956 54.9562 36.2189 59.3236 34.6052 63.7437L34.5876 63.7612ZM45.4273 23.5596L44.1294 23.0334C42.0246 26.0152 38.6394 28.12 37.8325 32.084C39.7093 33.154 41.4107 33.189 42.2351 31.5754C43.533 29.0321 44.3925 26.2432 45.4273 23.5596ZM35.9207 44.3795C36.8152 42.2747 36.7801 40.9768 34.9034 40.6085C32.8687 40.2226 31.0797 40.5208 30.7815 43.4149C32.4478 43.7306 34.0965 44.0287 35.9207 44.3795Z" fill="#C39D70"/>
</svg>
