<svg width="157" height="68" viewBox="0 0 157 68" fill="none" xmlns="http://www.w3.org/2000/svg">
<path d="M65.1807 4.00486C66.0705 4.89154 63.4383 10.7584 67.1735 13.2702C69.3052 14.7037 72.58 14.7655 74.27 12.6832C75.6695 10.9623 74.3781 7.69369 74.9403 5.63611C75.2802 4.39723 77.208 4.2922 78.1225 4.91009C79.8279 6.06246 77.9711 13.162 76.8219 14.5894C72.787 19.5974 62.9594 17.8642 62.0017 11.3578C61.6402 8.91095 62.2489 5.85856 61.9986 3.3252L65.1807 4.00486Z" fill="#C39D70"/>
<path d="M83.8969 1.39404H80.6777V14.8981H83.8969V1.39404Z" fill="#C39D70"/>
<path d="M112.864 16.8416C112.941 16.9219 113.497 18.859 113.469 18.9888C113.071 20.8702 109.546 21.6302 109.654 18.754C108.712 18.8775 108.094 20.4717 107.318 20.6323C107.179 20.6601 105.251 20.101 105.165 20.0268C104.868 19.7642 105.035 17.1567 106.141 16.8539C108.131 16.3102 108.999 18.0032 109.336 18.0032C109.53 18.0032 111.891 15.8128 112.864 16.8447V16.8416Z" fill="#C39D70"/>
<path d="M70.3683 6.70786C71.433 6.70786 72.2961 5.84613 72.2961 4.78313C72.2961 3.72013 71.433 2.8584 70.3683 2.8584C69.3035 2.8584 68.4404 3.72013 68.4404 4.78313C68.4404 5.84613 69.3035 6.70786 70.3683 6.70786Z" fill="#C39D70"/>
<path d="M97.1016 4.60718C97.6083 4.7184 100.71 6.63387 100.982 7.16217C101.711 8.57715 101.106 10.746 101.285 12.3247H107.084C107.368 10.607 106.268 5.14784 108.094 4.65043C108.545 4.52686 110.226 4.5238 110.303 4.60412C110.893 5.22819 109.228 11.6573 111.332 12.2629C111.916 12.4297 115.932 12.4946 116.102 12.3247C116.454 11.9756 115.113 7.87893 117.789 5.96964C119.593 4.68134 123.285 4.07272 125.379 4.6659C126.519 4.99029 126.727 7.49893 126.405 7.82023C125.858 8.36706 123.183 7.08496 122.244 7.14984C118.471 7.40318 118.079 12.0096 122.191 12.3525C123.445 12.4575 131.228 12.6584 131.558 12.3247C132.108 11.7748 130.527 5.20345 132.569 4.65043C133.02 4.52686 134.7 4.5238 134.778 4.60412C135.692 5.57422 132.671 14.6819 137.682 14.2865C141.386 13.993 139.298 5.27763 139.934 4.60412C140.218 4.30444 142.758 4.47126 143.091 5.62981C143.938 8.57098 141.052 15.788 146.647 14.2031C148.569 13.6562 147.305 6.59374 147.661 4.60412H150.883V13.9312C150.883 14.9353 148.399 17.0948 147.231 17.3574C144.389 17.9938 142.233 16.0845 140.994 16.273C140.342 16.3719 139.64 17.1813 138.862 17.3636C134.586 18.3677 133.919 15.1732 131.895 14.8827L85.8281 14.8951V12.3247H96.4559C96.5517 12.3247 98.0624 11.5307 98.0933 11.3144C98.22 10.403 98.0562 7.82332 97.1016 7.82332H86.7952C85.5841 7.82332 85.5841 4.60718 86.7952 4.60718C89.4768 4.60718 94.8988 4.12213 97.1016 4.60718Z" fill="#C39D70"/>
<path d="M33.6587 18.7568L32.9882 22.5908C30.8163 22.3684 29.0491 23.4281 26.8772 23.289C24.1554 23.116 19.2247 21.2283 17.649 18.9885C16.1259 16.8228 16.3515 15.9639 16.5956 13.6128C16.6604 12.9918 17.6367 11.6294 16.2711 11.685C16.3546 12.825 15.3072 13.7333 15.091 14.6848C14.2475 18.3922 16.3886 21.9204 19.6757 23.4003C22.9135 24.8554 27.2264 24.8059 30.7885 24.5742C33.5227 24.395 35.846 22.0965 34.8326 26.6813C34.3352 28.9335 32.2035 29.437 30.0965 29.6688C22.4624 30.5029 14.0745 28.8871 12.536 20.2428C11.9613 17.0174 13.574 15.2224 14.3371 12.3276C9.6566 16.3625 8.81937 23.4002 13.0427 28.0931C16.8026 32.2701 25.4654 32.7243 30.7422 32.2423C31.8049 32.1465 36.6647 30.7532 36.881 30.9787C37.2548 31.3649 36.4299 36.7282 35.9541 37.445C35.6514 37.8991 33.8718 38.4212 33.2075 38.5602C25.3665 40.2131 13.6605 40.417 9.29511 32.4802C2.86284 20.7804 11.9582 10.3133 21.8538 4.71517C23.3614 3.86247 26.006 2.47527 27.6095 2.09836C28.9874 1.77397 28.663 3.21059 28.5116 3.32181C28.1192 3.61222 25.7589 3.97677 24.8259 4.46799C24.1771 4.81092 21.5109 6.7295 21.1061 7.18365C19.7499 8.71293 18.1928 13.6437 19.1598 15.5561C19.5243 16.2759 23.1854 18.7568 23.6797 18.7568H33.6618H33.6587Z" fill="#C39D70"/>
<path d="M36.8814 37.4046C35.6796 36.4098 37.7743 36.0391 38.1666 35.8228C43.5948 32.8477 48.2908 31.2844 52.3442 26.159C56.0979 21.4166 56.4656 13.7115 51.0312 10.0907C44.9388 6.03111 35.2965 7.41831 28.5059 8.46564C28.9755 6.7479 28.7253 1.20539 30.1773 0.809935C39.0379 -0.218857 50.0271 -1.62458 56.2092 6.20413C64.1892 16.3129 54.5439 28.7325 45.4671 34.0835C44.188 34.8373 37.8793 38.2326 36.8783 37.4015L36.8814 37.4046Z" fill="#C39D70"/>
<path d="M3.39184 56.6992C4.7512 56.8444 3.7039 54.4995 4.03447 54.1257C4.4083 53.6993 6.8675 54.4933 7.57499 54.5056C9.07956 54.5365 9.72834 54.379 11.582 54.5953C12.101 54.657 12.549 54.2585 12.7375 54.2801C13.8497 54.4006 13.7817 56.381 13.6952 57.3449C15.0731 57.3943 14.9186 57.6322 14.9835 56.381C15.1164 53.7951 14.3626 53.9681 17.5571 54.1257V57.3449H19.488C18.8825 53.0227 21.2613 52.5809 20.7732 56.9989C20.7732 57.5951 21.9349 57.419 22.3859 57.3449C22.9173 57.2584 23.0007 54.5736 23.3684 54.1349C23.4302 54.0608 25.2251 54.0453 25.2807 54.1226C25.7874 54.8084 24.4435 58.1543 26.8903 54.1318L27.8605 56.0597L30.4308 54.1287V58.6301C28.2899 59.1677 29.8933 56.9185 28.1787 57.3418C27.5237 57.5055 28.2034 58.5621 27.5144 58.6641C26.1767 58.8587 25.2128 58.006 24.3138 58.006C16.7971 58.006 9.9601 58.6332 2.29205 58.1203C0.670077 58.0122 -1.03226 59.9956 0.778163 55.7075C1.97688 52.8621 3.46914 54.1906 3.38573 56.6992H3.39184ZM10.4729 55.414H9.18768V57.3418H10.4729V55.414Z" fill="#C39D70"/>
<path d="M56.8451 54.1286L54.9142 56.0564L57.4877 56.7052L58.1365 54.1286L60.0705 56.0564C61.1858 56.1862 60.5586 54.5302 61.7326 54.1811C62.4926 53.9556 66.6356 53.9618 67.4142 54.1842C68.8508 54.5951 68.0784 56.6589 68.7612 56.699C69.2925 56.7299 68.8539 53.5848 71.0134 54.1255C71.2389 54.7897 71.5571 57.3416 71.9804 57.3416C72.7682 57.3416 72.0113 54.4406 72.3048 54.1224C72.3727 54.0482 73.9638 53.8443 74.2666 54.5148C74.5416 55.1234 74.6126 56.0008 75.524 56.0533L76.8123 54.1255V58.6269C74.6621 59.5228 74.2913 56.6496 73.9144 56.6959C73.1605 56.7917 73.8495 58.2963 73.59 58.6299C73.2378 59.0872 70.8775 58.0924 70.17 58.1233C65.8447 58.3148 61.2662 58.3395 57.1448 58.6021C56.4404 58.6485 53.7803 58.7473 53.629 58.6207C52.2603 57.4899 54.9172 57.3632 54.9172 57.0141L52.9863 55.7289C53.8205 53.4613 54.528 54.1193 56.8451 54.1224V54.1286ZM64.5749 55.4138H62.0014C61.9118 56.8319 64.4298 55.0307 63.9355 57.3416H64.5749V55.4138ZM67.1516 55.4138H65.8664V57.3416H67.1516V55.4138Z" fill="#C39D70"/>
<path d="M90.0168 50.27C89.4885 50.1279 88.6914 48.679 89.0529 48.3422C89.4144 48.0054 91.7778 49.0528 91.6264 47.6996L89.0529 46.4113L92.9024 46.4175C92.6707 49.0929 93.8045 49.0929 93.5728 46.4175H97.413L97.4377 48.3298L101.933 48.3391L98.068 46.4144L103.209 46.4206C103.28 47.7336 102.693 48.6851 104.509 48.3453C104 45.5617 105.495 46.4545 107.713 46.4298C108.588 47.8571 107.757 50.27 106.119 50.27H90.0168Z" fill="#C39D70"/>
<path d="M63.9356 48.339H65.2177L66.506 46.405L67.7944 48.3421C67.0652 46.9642 68.9065 45.472 70.0033 45.784C70.6428 45.9632 71.375 47.3905 71.0166 47.6964C70.6953 47.9683 68.8787 47.0661 69.0826 48.339L72.2895 48.3328C72.3667 48.2309 72.1536 44.7707 73.5902 46.4112C74.0135 46.8962 72.5428 49.5377 74.8785 48.9847L76.1668 46.4081L76.8094 48.9816C77.0813 41.8387 80.6156 49.3771 77.7146 50.2081C75.7497 50.7704 67.7326 48.8487 67.161 49.6366C66.9416 49.9393 67.3587 51.2153 67.127 51.5459C67.0528 51.6478 64.6678 51.6478 64.5936 51.5459C64.3866 51.2524 64.7049 50.1679 64.5597 49.6366L58.7761 49.6273L61.9954 48.339C62.0325 46.9302 59.1778 48.064 58.7761 47.6964C56.9286 45.9972 64.0715 44.4586 63.9325 48.3421L63.9356 48.339Z" fill="#C39D70"/>
<path d="M96.1342 54.1289L94.2032 56.0567C97.1228 57.0824 96.7736 54.4563 97.7901 54.1598C98.8065 53.8632 99.5758 54.4996 100.323 54.512C100.895 54.5181 102.159 53.7334 102.536 54.1999C102.764 54.4811 102.328 55.7601 102.897 55.4203C103.302 55.1793 103.481 54.617 104.182 54.376C105.044 54.0795 107.321 54.2586 108.371 54.1351L106.441 56.0629C112.209 57.0515 107.157 59.622 103.598 58.5808C102.424 58.2379 103.064 56.5665 101.933 56.7086C102.18 59.7857 101.627 58.1915 100.33 58.2719C98.754 58.3676 97.7376 58.2379 96.4524 58.2595C95.6738 58.2718 93.4494 59.0813 92.9118 58.6364C91.469 57.4439 94.6697 57.484 94.2001 56.7086C92.3001 57.0669 92.9612 55.7261 92.9087 54.1351H96.1311L96.1342 54.1289ZM99.3534 55.4141H98.0682V57.3419H99.3534V55.4141Z" fill="#C39D70"/>
<path d="M118.032 54.1289L115.459 55.4172L117.392 57.3451C119.234 57.8919 118.804 55.4543 119.323 54.132C122.212 54.3081 120.528 58.1916 122.864 54.1351C124.279 54.8024 123.541 56.8353 123.933 57.2771C124.245 57.6262 125.644 56.8229 125.116 58.6333C124.165 58.6241 123.201 58.7013 122.243 58.6117C119.632 58.3707 117.232 58.4325 114.476 58.2719C114.068 58.2472 113.178 58.9114 112.916 58.6086C112.758 58.4294 112.709 55.9177 112.245 58.1977C112.094 58.9454 110.37 58.7106 110.302 58.6364C110.185 58.5067 110.209 55.6983 110.364 55.1577C110.895 53.3071 116.209 54.8117 118.029 54.132L118.032 54.1289Z" fill="#C39D70"/>
<path d="M41.3739 62.4796L41.3894 64.4167C42.5726 64.701 41.6025 63.0512 42.3903 63.0944C42.9897 63.1284 43.5612 63.6938 44.3027 63.7339C46.1039 63.8235 51.0408 64.2993 52.0449 64.2097C52.3631 64.1819 53.3549 63.8205 54.5968 63.6845C55.7492 63.561 58.4679 62.6712 58.6285 64.0831C58.6532 64.3055 58.2825 64.5928 58.3134 64.8523C58.3906 65.4888 58.8355 66.292 58.7768 66.3446C58.4926 66.5979 57.3804 65.9862 56.8367 65.9831C55.7801 65.9769 54.8965 66.3662 53.948 66.3816C53.2313 66.394 52.6133 66.0264 51.9831 65.9677C51.6463 65.9368 51.2014 66.5361 51.0624 66.3538C50.7875 65.9924 51.4703 64.4136 50.7257 64.4136C50.1881 64.4136 50.5465 67.2776 49.7618 66.3446C49.527 66.0634 50.1757 64.4136 49.4374 64.4136C48.6959 64.4136 49.3756 65.9738 49.1037 66.3538C48.9616 66.5516 48.5754 65.9862 48.1553 65.9769C45.9895 65.9367 43.8795 66.0541 41.6859 65.9738C40.8085 65.9429 40.6015 67.2776 40.7405 64.4167L38.167 66.3477V62.4889C39.4028 62.3808 40.2988 63.2088 41.3708 62.4796H41.3739Z" fill="#C39D70"/>
<path d="M61.9987 62.4889L60.7134 65.0593C62.4466 65.7606 62.0481 63.184 62.9471 63.2118C63.185 63.218 63.9636 63.7617 64.8688 63.8019C68.8604 63.9873 72.4936 63.2798 76.4635 63.7864C77.1463 63.873 78.654 63.3632 78.0979 64.7318C76.9764 67.4876 74.9343 68.0623 74.8787 64.4167C73.6027 64.2159 74.5388 65.9584 74.2237 66.3445C73.8066 66.8543 71.2701 65.8904 70.677 65.912C68.6781 65.9831 69.9818 66.4866 66.8182 65.9398C65.292 65.6741 61.56 66.5886 60.4509 66.3229C58.4952 65.8502 59.1935 61.5373 61.9956 62.492L61.9987 62.4889Z" fill="#C39D70"/>
<path d="M139.931 55.4141C139.95 56.3533 140.734 58.4634 140.574 58.6302C140.246 58.9639 138.862 57.9938 138.324 57.9907C137.642 57.9876 136.882 58.8248 136.715 58.6333C136.332 58.1946 136.947 56.1092 137.357 55.4202C134.898 54.8611 136.567 58.0741 136.069 58.6333C135.303 59.486 134.836 58.7074 134.781 57.6724C134.623 54.6448 135.158 55.4141 131.562 55.4202C131.361 56.6931 133.088 55.7539 133.483 56.0845C133.582 56.1648 133.585 58.5468 133.492 58.6333C133.27 58.8403 128.058 58.7538 127.434 58.5746C125.889 58.1328 125.997 54.5521 127.416 54.1628C128.447 53.8786 129.269 54.5397 129.949 54.5088C132.93 54.3822 134.679 54.3266 137.688 54.4965C138.133 54.5212 138.979 53.857 139.242 54.169C139.526 54.5058 138.819 55.2503 139.931 55.4202C139.878 52.8529 141.605 54.515 143.475 54.5088C144.463 54.5088 145.798 53.7921 147.015 54.135C147.679 56.3007 145.081 54.9352 145.081 55.7415C145.081 56.3903 145.875 55.8559 146.243 56.1586C146.465 56.3409 147.219 58.4355 147.015 58.6333C146.858 58.7846 144.33 58.726 143.765 58.3429C142.628 57.5767 143.573 55.4141 142.829 55.4172C141.803 55.4172 143.728 59.2759 141.219 58.6333V55.4172C140.799 55.3615 140.333 55.4789 139.931 55.4172V55.4141ZM131.555 56.7023L127.694 55.4172C127.48 56.6931 129.269 55.723 129.6 56.0875C129.822 56.3316 129.541 57.4685 129.628 57.9907L131.558 56.7023H131.555Z" fill="#C39D70"/>
<path d="M81.3015 54.135C81.6753 54.583 81.7402 57.345 82.2839 57.345C83.0686 57.345 82.3179 54.4347 82.6083 54.1257C82.6732 54.0578 84.3631 54.0609 84.4713 54.2215C84.703 54.5614 84.3137 55.7415 84.8605 55.4141C87.1066 53.3997 92.2011 53.1526 90.9313 57.6168C90.5575 58.933 86.7482 58.9206 85.5619 58.5746C84.3879 58.2316 85.0273 56.5602 83.8966 56.7023C84.4403 60.3479 81.9873 57.9814 80.3406 57.9938C79.5806 57.9999 78.9534 58.8619 78.0977 58.6302L79.3891 54.1257C79.9081 54.1937 81.1995 54.0176 81.2984 54.135H81.3015ZM89.6924 55.4141H88.4072V57.3419H89.6924V55.4141Z" fill="#C39D70"/>
<path d="M10.4728 49.6246V45.1232C13.2842 44.493 10.238 48.9634 13.0463 48.3394C13.8094 47.0387 12.5304 44.4775 14.6591 44.4775C16.2254 44.4775 16.2933 47.2766 16.9143 48.3394L18.5796 46.3776L21.4188 46.4115L19.4879 48.3394H22.0614C22.5403 47.8327 20.9615 44.4343 23.3497 45.1263V49.6277H10.4697L10.4728 49.6246Z" fill="#C39D70"/>
<path d="M133.489 49.6245C133.424 49.5689 133.02 48.1013 133.02 48.0179C133.01 45.6329 135.442 46.4918 137.342 46.4207L137.366 48.33L144.438 48.3392L138.627 47.3908C136.962 46.1828 136.653 44.2488 138.948 43.8224C141.516 43.3436 141.302 45.7225 138.642 45.1262C139.526 47.5947 141.238 45.6359 142.807 45.7348C146.15 45.9449 146.317 49.6245 144.763 49.6245C143.122 49.6245 133.922 49.989 133.492 49.6245H133.489Z" fill="#C39D70"/>
<path d="M4.007 44.502C4.23871 44.7925 4.69593 48.2156 4.68048 48.9818C6.07383 48.9849 4.66501 46.9582 5.96567 46.0869C6.5434 45.7008 7.17672 46.4453 7.25396 46.7358C7.60615 48.0457 5.77104 50.0971 5.96567 50.267C9.00262 50.922 7.67724 48.6141 7.89968 46.4083H9.8306C10.2631 51.5399 8.00778 52.0311 3.39212 51.5522L4.03476 49.6244L0.83102 49.6028C-0.0247617 47.7738 0.790818 47.4648 1.33147 45.9294C1.50139 45.4412 1.36546 44.6534 1.48595 44.499C1.56318 44.4001 3.92976 44.4001 4.007 44.499V44.502Z" fill="#C39D70"/>
<path d="M115.456 45.126C115.141 49.547 116.389 49.5099 116.102 45.126H118.675L118.657 49.6088C116.726 50.2298 110.396 51.0392 109.688 48.6387C108.922 46.0281 113.216 46.0714 113.507 46.4236C113.831 46.8128 112.892 48.5491 114.165 48.3452L115.453 45.1322L115.456 45.126Z" fill="#C39D70"/>
<path d="M119.321 49.6244L123.186 48.3361C123.077 46.8809 119.766 48.0982 119.324 47.6935C118.184 46.6492 121.474 44.5391 123.85 46.7296C124.715 47.5266 124.054 48.6852 125.441 48.3392C126.108 48.1723 125.645 47.0107 125.765 46.4051C127.937 45.8923 126.701 47.885 127.054 48.3422C127.097 48.3948 128.033 48.6759 128.354 47.9221C129.247 45.8089 130.072 46.4175 132.207 46.4113C132.868 48.7748 129.63 47.091 129.63 48.0178C129.63 48.9447 132.865 47.2579 132.207 49.6244H119.327H119.321Z" fill="#C39D70"/>
<path d="M151.525 48.9817L152.168 46.4082H154.099L154.741 48.9817L156.03 45.7656C157.188 53.6592 151.009 48.7531 148.028 49.6738C147.657 49.7881 145.649 53.3039 144.438 52.1948C143.659 51.4842 146.079 49.9271 146.286 49.2165C146.527 48.3793 146.224 46.5874 146.372 46.4082C147.768 44.709 147.608 48.2217 147.682 48.3268C147.756 48.4318 150.154 48.438 150.237 48.3391C150.506 48.0271 149.764 46.0591 150.558 45.7656L151.528 48.9786L151.525 48.9817Z" fill="#C39D70"/>
<path d="M28.4565 62.5536C28.6048 62.7915 28.4039 63.4094 28.5924 63.6843C28.682 63.8141 30.9929 63.153 31.6602 63.879C31.8641 64.1014 31.9692 66.6286 32.4573 63.8913C36.5663 62.5536 37.2892 60.6381 36.8783 66.3475C33.6221 65.9335 30.2391 66.054 26.958 66.3011C25.8613 66.0447 25.7068 62.8471 26.8994 62.4887C27.2454 62.3837 28.3916 62.4516 28.4565 62.5536Z" fill="#C39D70"/>
<path d="M156.033 58.6302C155.625 59.0597 153.225 58.2656 152.492 58.2533C151.408 58.2316 148.896 59.5138 148.356 57.6169C147.114 53.27 150.191 54.4409 152.492 54.5058C153.456 54.5336 155.434 53.2978 155.974 55.1546C156.132 55.6921 156.156 58.5066 156.036 58.6302H156.033ZM152.168 56.0598L149.591 55.4141C148.726 59.2048 152.761 56.5386 152.168 56.0598ZM154.745 55.4141H153.459V57.3419H154.745V55.4141Z" fill="#C39D70"/>
<path d="M81.3198 45.7658C81.2364 46.7699 81.1653 48.5617 82.2899 48.9819C84.4989 49.8099 83.9119 47.5515 83.8995 46.4115L85.1878 48.3455L87.7613 46.4146C87.6347 47.1715 88.0271 49.2816 87.6532 49.5566C87.4277 49.7203 86.7634 49.5133 86.5935 49.7265C86.1919 50.2239 86.6368 51.299 86.4761 51.5647C85.2125 53.6532 85.265 49.7481 85.1878 49.6276C85.0488 49.4114 81.5577 51.4968 80.3311 49.6616C79.8461 48.9356 79.2993 44.9965 81.3259 45.772L81.3198 45.7658Z" fill="#C39D70"/>
<path d="M46.5394 54.1255V58.63H41.3862C41.4202 57.0327 40.7899 54.1564 43.002 54.0822C44.2749 54.039 45.2079 55.1914 46.5394 54.1255Z" fill="#C39D70"/>
<path d="M34.237 54.1815C34.5367 54.5306 34.4502 56.0289 35.5902 56.0567L37.5242 54.1258V58.6272C36.0413 59.5695 36.1618 56.5109 35.5933 57.342C35.5222 57.447 35.4171 60.3944 34.3049 58.6303C34.0825 58.275 34.6849 57.4594 33.9836 57.3389C33.3874 57.2369 34.1628 59.3532 32.374 58.6272V54.1258C32.8992 54.1938 34.0701 53.9837 34.237 54.1815Z" fill="#C39D70"/>
<path d="M49.0135 51.4533C48.7695 51.685 46.752 52.3987 46.542 52.1979L47.8271 49.6275C45.0497 50.1589 45.9333 48.6326 45.921 46.436C47.2185 46.5627 49.1711 44.9716 49.7087 46.7821C49.996 47.746 49.6839 50.82 49.0135 51.4533Z" fill="#C39D70"/>
<path d="M58.1337 45.1261V49.6275C56.1256 48.608 55.8166 50.2701 53.9599 50.3103C50.9631 50.3782 51.7169 48.0272 51.6953 45.7688C54.0494 46.5535 51.7324 49.7603 54.5901 48.9818C56.4067 48.4875 54.5098 44.5175 56.7929 46.3712L58.1337 45.123V45.1261Z" fill="#C39D70"/>
<path d="M42.6344 51.5151C42.4057 51.753 40.7436 51.4471 40.101 51.5553C39.5634 49.6491 41.1391 50.5079 41.3894 50.267C42.032 49.6521 40.0979 49.5224 39.7334 49.0281C38.615 47.5111 39.4893 46.158 41.1699 45.8583C44.281 45.3053 43.5828 50.5265 42.6313 51.5151H42.6344Z" fill="#C39D70"/>
<path d="M100.623 62.501C100.818 62.7204 101.179 64.9572 101.29 65.0622C101.578 65.331 102.705 64.4937 103.425 64.5586C103.842 64.5957 104.302 65.0684 104.794 65.1085C105.399 65.158 104.778 63.1714 106.116 63.777C106.323 63.8697 107.723 65.2692 107.726 65.3835C107.772 66.6873 102.053 66.471 100.975 66.3381C97.3635 65.9025 98.9299 65.0962 99.9989 63.4526C100.382 62.8625 98.3552 63.5854 98.7136 62.4918C99.2326 62.5597 100.502 62.362 100.626 62.501H100.623Z" fill="#C39D70"/>
<path d="M49.0505 54.2212C49.2266 54.4715 49.0999 55.0554 49.1215 55.4168C50.0175 54.9751 51.1452 53.3438 51.6611 55.1264C51.8032 55.6146 51.8125 58.5032 51.6951 58.6299C51.6086 58.7226 49.2791 58.6948 49.1679 58.5527C48.862 58.1634 49.4799 57.3416 48.7972 57.3416C48.1515 57.3416 49.0196 59.2941 47.1875 58.6299V54.1285C47.722 54.1934 48.8774 53.9741 49.0505 54.2243V54.2212Z" fill="#C39D70"/>
<path d="M38.8123 45.1232C38.976 45.2962 38.9204 49.2878 38.7443 49.8779C38.5157 50.6503 35.97 51.9324 35.5931 51.5524C35.3645 51.3207 36.9493 46.4764 36.2356 45.1201H38.8092L38.8123 45.1232Z" fill="#C39D70"/>
<path d="M109.014 65.0594C109.975 65.2262 115.845 64.1666 116.098 64.4168C116.222 64.5373 116.024 65.8256 116.098 66.3446L108.39 66.323C108.464 64.6238 106.604 62.7454 109.008 61.8433V65.0594H109.014Z" fill="#C39D70"/>
<path d="M96.1344 65.0627C95.0284 67.4292 91.46 65.9772 89.4086 66.3108C88.8989 66.3943 89.1306 66.8886 89.041 67.1851C88.7537 68.1058 87.1935 67.4848 86.4736 67.63L88.4076 66.9874L87.7619 64.417C90.4776 65.0225 93.2983 64.6116 96.1344 65.0627Z" fill="#C39D70"/>
<path d="M121.193 62.5783C121.434 62.9243 121.005 64.0891 121.573 63.7739C122.413 63.3074 122.797 61.9728 124.471 62.4888L123.149 63.4866L123.828 66.3444C123.535 66.6348 119.729 66.054 119.321 65.7018C118.632 65.1024 120.35 63.8512 120.609 63.4527C120.992 62.8626 118.966 63.5855 119.324 62.4919C119.862 62.5536 121.017 62.3188 121.196 62.5783H121.193Z" fill="#C39D70"/>
<path d="M31.0857 46.3989H26.8809V49.6367H31.0857V46.3989Z" fill="#C39D70"/>
<path d="M128.982 64.4166C128.778 63.153 128.688 62.2046 129.946 62.4857C130.319 62.5691 130.607 63.706 130.913 64.4166C130.838 64.3548 129.426 64.3703 128.982 64.4166Z" fill="#C39D70"/>
<path d="M128.982 64.417C129.201 65.7794 131.432 64.8526 130.913 64.417C130.968 64.5467 132.294 65.6342 131.555 66.3448C131.361 66.5333 128.843 66.2089 127.999 66.3324C126.896 66.4962 126.541 67.4941 125.451 67.6517C124.094 67.8494 123.683 67.4941 125.302 66.8546C126.921 66.2151 125.905 65.7671 125.756 64.417C127.276 65.2419 127.975 64.522 128.976 64.417H128.982Z" fill="#C39D70"/>
<path d="M81.9625 62.4858V65.0624C83.3898 64.7133 83.9151 64.2808 84.8604 65.7019L86.1487 63.7772C86.9921 64.1387 87.4895 65.9862 87.1157 66.3477C86.0622 67.3579 83.0407 63.9657 83.8965 67.639L81.9625 67.6329L82.6175 66.3539C78.8916 65.4981 79.8524 65.702 81.3229 63.4528C81.7091 62.8658 79.6794 63.5857 80.0378 62.492L81.9687 62.4858H81.9625Z" fill="#C39D70"/>
<path d="M34.9133 46.4454C35.3922 46.915 35.7259 48.6173 34.9597 49.3186C32.7662 51.3206 30.9619 49.056 31.7281 48.3423C32.0772 48.0148 34.4499 49.0529 34.3016 47.6997L31.7281 46.4114C32.4727 46.5473 34.6445 46.1797 34.9133 46.4454Z" fill="#C39D70"/>
<path d="M154.745 45.1229H151.525L152.171 42.5525C153.209 42.0396 155.372 44.5514 154.745 45.1229Z" fill="#C39D70"/>
<path d="M43.9285 45.0971L43.9277 49.6016L45.216 49.6018L45.2168 45.0973L43.9285 45.0971Z" fill="#C39D70"/>
<path d="M23.9647 45.0937L23.9639 49.5981L25.2522 49.5984L25.2529 45.0939L23.9647 45.0937Z" fill="#C39D70"/>
<path d="M134.134 44.4823L134.133 45.7676L136.713 45.7694L136.713 44.4841L134.134 44.4823Z" fill="#C39D70"/>
<path d="M124.474 50.2701C124.851 49.8931 126.402 50.8323 126.402 51.234C126.402 53.0011 123.489 51.2556 124.474 50.2701Z" fill="#C39D70"/>
<path d="M54.2844 47.1928C54.7246 47.1928 55.0814 46.8359 55.0814 46.3957C55.0814 45.9555 54.7246 45.5986 54.2844 45.5986C53.8442 45.5986 53.4873 45.9555 53.4873 46.3957C53.4873 46.8359 53.8442 47.1928 54.2844 47.1928Z" fill="#C39D70"/>
<path d="M82.6243 47.1928C83.0645 47.1928 83.4213 46.8359 83.4213 46.3957C83.4213 45.9555 83.0645 45.5986 82.6243 45.5986C82.184 45.5986 81.8271 45.9555 81.8271 46.3957C81.8271 46.8359 82.184 47.1928 82.6243 47.1928Z" fill="#C39D70"/>
<path d="M39.4583 58.627H38.1699V57.3418L39.4583 58.627Z" fill="#C39D70"/>
<path d="M137.354 22.6158C137.536 22.4335 141.926 22.4891 142.538 22.9062C143.777 23.7434 145.575 30.049 147.657 30.9759V22.6127H150.88V37.405L146.419 37.3587C145.853 34.9304 143.885 33.1292 143.045 30.7596L141.219 28.4023V37.405C140.264 37.5564 137.354 37.4668 137.354 36.4411C137.354 34.4917 136.863 23.1039 137.354 22.6158Z" fill="#C39D70"/>
<path d="M106.441 22.6157H116.423C117.105 22.6157 120.133 25.3993 120.488 26.2736C122.104 30.2312 120.479 36.7624 115.771 37.4019C114.096 37.6305 109.685 37.6553 108.029 37.4266C107.466 37.3494 106.438 36.8427 106.438 36.4442V22.6188L106.441 22.6157ZM110.302 34.1919C114.699 34.5689 117.142 34.399 116.775 29.3446C116.457 24.9699 113.877 25.7793 110.302 25.8288V34.1919Z" fill="#C39D70"/>
<path d="M75.5247 22.616V25.8322C73.1057 25.9898 70.4858 25.619 68.0977 25.8105C65.2183 26.0423 65.175 28.0968 67.455 28.4212C71.6165 29.0143 77.6626 27.0649 76.053 34.3993C75.8244 35.4373 74.1777 37.4053 73.2694 37.4053H61.9991V34.1892H71.3385C71.5486 34.1892 72.4877 33.1913 72.3024 32.5827C71.805 30.9453 67.3654 31.8814 65.6508 31.5044C62.1071 30.7259 60.5439 26.0886 63.2873 23.5769C63.4511 23.4255 64.8012 22.6099 64.8969 22.6099H75.5247V22.616Z" fill="#C39D70"/>
<path d="M130.863 22.6651L136.708 37.408L132.225 37.3864L131.521 34.2289L126.142 34.2506C124.903 34.609 125.317 36.5491 124.514 37.1269C123.952 37.5316 120.748 37.5439 120.609 37.4049C119.821 36.6202 125.679 25.3591 126.059 23.2366C126.8 22.1337 129.547 22.696 130.863 22.6651ZM129.624 30.9758L128.66 27.7627L127.05 30.9758H129.624Z" fill="#C39D70"/>
<path d="M92.2693 37.4052C92.1117 37.5535 88.9666 37.5103 88.3735 37.1148C87.4652 36.5093 87.3292 34.4826 87.0728 34.2323C86.8813 34.0439 82.4603 34.0562 81.691 34.1582C81.0762 34.2385 80.9866 36.4969 80.0659 37.1117C79.4758 37.5072 76.3276 37.5473 76.1701 37.4021C75.5923 36.8584 81.7497 24.621 82.0154 22.6592C83.3284 22.6901 86.0811 22.1278 86.8194 23.2308C87.0666 25.2018 92.8223 36.88 92.2724 37.399L92.2693 37.4052ZM85.8277 30.973L83.8968 27.1173C84.0667 28.6095 83.2172 29.7341 82.6054 30.973H85.8246H85.8277Z" fill="#C39D70"/>
<path d="M105.153 22.6159C105.234 22.69 105.227 24.3676 105.107 24.8217C104.554 26.8731 98.0752 25.245 97.4604 25.866C97.3801 25.9494 96.79 27.7351 96.7776 28.0781C96.756 28.7639 104.124 28.2356 105.153 28.4024C105.181 29.6969 105.459 30.9513 104.124 31.5568C103.148 31.8688 96.756 31.2108 96.7776 31.9399C96.895 36.2188 106.358 32.1808 105.15 36.4381C104.767 37.7851 99.6384 37.5812 98.3934 37.3989C90.8211 36.2898 90.5215 24.1884 97.2102 22.724C98.1463 22.5201 104.863 22.3409 105.15 22.6128L105.153 22.6159Z" fill="#C39D70"/>
</svg>
