<svg width="149" height="74" viewBox="0 0 149 74" fill="none" xmlns="http://www.w3.org/2000/svg">
<path d="M0.0771068 13.6636C10.1829 18.4899 19.9941 23.1576 29.9866 27.9159C29.9866 32.3797 29.9866 36.7754 29.9866 41.1712C29.9866 42.1229 29.5334 42.6214 28.695 43.0066C26.9956 43.7996 25.3642 44.706 23.6648 45.5217C22.1467 46.2468 20.5832 46.8586 19.0424 47.5836C14.692 49.6456 10.3868 51.7302 6.03635 53.7695C4.17834 54.6531 2.27501 55.4689 0.0544606 56.4659C0.0544606 54.8344 0.0544606 53.4296 0.0544606 52.0021C0.0544606 49.283 0.190403 46.5867 0.00913351 43.8903C-0.10416 42.0549 0.847517 41.3525 2.25236 40.7181C6.14965 38.9507 10.0016 37.0927 14.0575 35.1893C9.66173 33.1727 5.44722 31.2467 1.21004 29.3434C0.462304 29.0035 0.0544606 28.5503 0.0544606 27.712C0.0544606 23.1349 0.0544606 18.5352 0.0544606 13.6636H0.0771068Z" fill="#C39D70"/>
<path d="M0.0537109 73.9572C0.0537109 72.4391 0.0537109 71.2835 0.0537109 70.1279C0.0537109 66.9557 0.0537109 63.8062 0.0537109 60.6339C0.0537109 59.7502 0.234971 59.0705 1.14132 58.6853C5.12925 56.8953 9.11716 55.1279 13.0598 53.2245C18.0447 50.8227 22.9843 48.3076 27.9466 45.8831C28.445 45.6339 29.1021 45.7472 29.8499 45.6792V59.9768C20.1066 64.5539 10.3181 69.1536 0.0763572 73.9799L0.0537109 73.9572Z" fill="#C39D70"/>
<path d="M3.40936 12.1904C12.1556 8.08915 20.7659 4.03325 29.3989 0C30.1013 1.85801 30.2599 7.20546 29.8747 14.275C26.4306 15.9744 23.0091 17.6964 19.5423 19.3279C19.0439 19.5771 18.2508 19.6677 17.7523 19.4412C13.1299 17.2886 8.5529 15.068 3.95319 12.8475C3.81723 12.7795 3.7266 12.5756 3.38672 12.1904H3.40936Z" fill="#C39D70"/>
<path d="M129.594 31.133C132.358 33.2176 135.145 35.3022 137.932 37.4095C139.994 37.0469 140.764 35.3022 141.512 33.7161C142.169 32.3339 143.053 31.9714 144.48 31.994C145.749 32.0167 146.542 32.4019 146.973 33.6028C147.132 34.0333 147.381 34.3959 147.585 34.8037C148.604 36.8883 148.468 37.704 146.86 39.3128C145.251 40.8989 144.231 41.1028 142.26 40.1738C141.693 39.9019 141.15 39.6074 140.561 39.2901C137.774 40.8762 134.737 40.1058 131.814 40.1738C128.959 40.2418 126.014 40.695 123.34 39.0636C121.119 41.2161 118.854 41.3294 116.701 39.3355C115.387 39.698 114.186 40.0379 112.804 40.4231C112.668 40.763 112.509 41.2614 112.305 41.7373C111.263 44.343 109.292 44.8868 106.391 45.0228C105.19 45.0908 105.054 44.6602 105.054 42.485C105.893 42.417 106.822 42.485 107.637 42.2358C108.431 41.9865 109.428 41.8053 109.767 40.5137C108.702 40.2191 107.637 39.8339 106.55 39.6753C105.598 39.5394 105.145 39.0635 104.76 38.2705C104.125 36.9563 104.148 35.6194 104.579 34.3505C105.553 31.5409 108.952 30.9064 111.104 33.0363C112.282 34.1919 112.6 35.6421 112.6 37.1602C114.548 37.9533 115.387 36.5938 116.202 35.4835C116.973 34.3959 117.585 33.195 118.264 32.0167C118.921 32.0167 119.465 32.062 119.986 32.0167C121.233 31.8807 122.094 32.3113 122.479 33.5575C122.592 33.8974 122.773 34.2146 122.977 34.5092C124.269 36.5258 125.81 37.908 128.483 37.4774C129.888 37.2509 131.361 37.4321 133.287 37.4321C132.267 36.6164 131.61 36.1179 130.976 35.5968C130.296 35.0303 129.639 34.4185 128.869 33.7614C128.778 32.9004 128.461 31.9034 129.548 31.1104L129.594 31.133ZM107.343 34.8264C106.98 35.9593 106.89 36.8657 107.932 37.2962C108.431 37.5001 109.065 37.3415 109.835 37.3415C109.722 36.3672 109.654 35.6194 109.563 34.849H107.32L107.343 34.8264ZM118.446 37.2962H121.482C121.029 36.2539 120.689 35.5288 120.349 34.7131C119.08 35.2569 118.899 36.2086 118.468 37.2962H118.446ZM144.345 34.3279C143.687 35.4382 143.166 36.3445 142.555 37.3868C143.642 37.4095 144.684 37.8853 145.477 36.707C145.115 35.982 144.775 35.2796 144.322 34.3279H144.345Z" fill="#C39D70"/>
<path d="M65.3562 39.0862C63.4302 40.0152 61.6855 40.2418 59.8502 40.2191C56.3381 40.1511 52.826 40.2191 49.1553 40.2191V37.4774H54.9559C54.3668 34.6224 52.2142 34.5318 50.1749 34.0333C50.1296 33.3309 50.1069 32.6511 50.0616 31.9713C53.8003 30.8384 56.9499 32.9683 57.9242 37.4548C59.1704 37.4548 60.5073 37.5227 61.8215 37.4548C63.3849 37.3868 64.042 36.6844 64.1327 35.0982C64.178 34.3958 64.1327 33.6707 64.1327 32.7644C65.039 32.7191 65.7868 32.6738 66.8291 32.6058C66.8517 33.852 66.829 34.8943 66.9197 35.9593C66.9877 37.0696 67.5541 37.5907 68.9363 37.3188C69.2309 35.9366 69.5254 34.4638 69.8427 32.9004C69.8653 32.9004 70.0013 32.6964 70.1372 32.6738C70.749 32.6284 71.3608 32.6738 71.9952 32.6738C72.1312 33.0136 72.2898 33.2402 72.3125 33.4895C72.3578 34.3958 72.2218 35.3248 72.4258 36.1859C72.5391 36.6617 73.1055 37.2735 73.5813 37.3868C74.3971 37.5907 74.9635 37.0016 74.9862 36.1632C75.0541 34.7357 74.9862 33.3082 74.9862 31.6994H77.4107C77.524 31.9034 77.6826 32.062 77.6826 32.2206C77.7279 33.3988 77.7732 34.5544 77.7279 35.7327C77.6373 39.2674 74.8956 41.0122 71.61 39.63C71.3608 39.5167 71.1342 39.4034 70.885 39.3128C69.0043 40.1965 67.1463 40.6723 65.3109 39.1088L65.3562 39.0862Z" fill="#C39D70"/>
<path d="M102.381 33.6936C100.749 33.9202 99.4123 34.1015 97.9848 34.3054V36.4806C99.0951 38.0214 100.908 37.2057 102.607 37.6362C102.652 38.384 102.698 39.1317 102.72 39.7888C102.381 39.9927 102.245 40.1513 102.086 40.1513C99.2084 40.174 96.2627 40.4912 93.4304 40.1287C91.2778 39.8568 89.1932 39.4489 86.9727 39.6075C84.9787 39.7435 83.7551 37.4323 84.4802 35.4837C85.0467 33.9882 86.1343 32.9459 87.6297 32.3114C88.4228 31.9716 89.2838 31.8809 89.8276 30.9519C90.3715 30.0229 91.3911 30.4761 92.4787 30.6574C92.4787 32.3568 92.4334 33.9655 92.4787 35.5743C92.524 37.3417 92.66 37.4323 95.0391 37.2964C95.0618 36.6166 95.0845 35.9368 95.1298 35.2344C95.311 32.5833 96.9425 31.0199 99.6389 31.0199C99.9108 31.0199 100.183 31.0199 100.455 31.0199C102.698 31.0879 102.947 31.4731 102.381 33.7389V33.6936ZM89.669 34.532C88.1736 34.6906 87.1539 35.1211 87.1539 36.7072C88.6494 36.7979 89.4878 36.0728 89.669 34.532Z" fill="#C39D70"/>
<path d="M100.069 53.883H105.462C105.462 55.1519 105.462 56.3075 105.462 57.4631C105.417 59.2531 104.76 60.0688 102.924 60.2501C101.769 60.3861 100.568 60.3407 99.4122 60.2501C98.1886 60.1595 97.101 59.5704 96.4892 58.5281C94.8578 55.7637 94.6765 52.1836 97.5768 49.8951C99.4122 48.4449 101.474 48.7395 103.491 49.0341C103.989 49.102 104.533 49.7818 104.76 50.3256C104.941 50.7108 104.646 51.2999 104.533 52.0477C103.717 51.7078 103.106 51.3906 102.448 51.2093C101.248 50.8694 100.205 51.028 99.2762 52.025C97.3955 54.0416 97.6901 56.5567 100.115 57.803C100.613 58.0522 101.406 58.0749 101.905 57.871C102.335 57.667 102.539 56.9873 102.992 56.2848C102.222 56.1262 101.814 56.0129 101.406 55.945C101.066 55.877 100.704 55.877 100.183 55.809C100.137 55.1972 100.115 54.6308 100.047 53.8604L100.069 53.883Z" fill="#C39D70"/>
<path d="M60.5088 60.2721V49.3959C62.3895 49.3959 64.2022 49.192 65.9469 49.4413C69.7082 50.0077 70.8412 53.3386 69.9348 56.3069C69.1871 58.8446 67.6236 60.0909 64.4967 60.2495C63.2505 60.3174 61.9816 60.2495 60.5088 60.2495V60.2721ZM63.1599 51.7525C63.1599 53.9503 62.8653 55.967 63.3638 57.9836C66.8079 57.0093 67.6236 56.2162 67.4197 54.1996C67.2384 52.4096 66.2188 51.7751 63.1599 51.7298V51.7525Z" fill="#C39D70"/>
<path d="M113.619 56.5561C115.545 58.1195 115.591 58.2555 114.752 60.8386C113.234 59.7283 111.761 58.6407 110.085 57.4171C109.903 58.4367 109.767 59.1845 109.586 60.1135H107.207V49.6905C108.952 49.0787 110.855 49.2146 112.645 49.5545C114.956 50.0077 115.885 52.1603 114.911 54.3582C114.594 55.0832 114.095 55.7177 113.597 56.5561H113.619ZM109.994 51.7298V54.1089C111.897 54.1542 112.6 53.8144 112.487 52.8853C112.305 51.5485 111.308 51.5258 109.994 51.7071V51.7298Z" fill="#C39D70"/>
<path d="M80.7202 49.396C82.2157 49.396 83.5526 49.396 84.9121 49.396C86.4755 49.396 87.9257 49.9625 88.4468 51.39C88.9453 52.7721 89.0813 54.4262 87.6311 55.6045C87.4272 55.7631 87.2912 56.0123 86.974 56.4202C88.4468 57.3492 89.1266 58.6634 88.4468 60.6121C86.5208 59.9323 85.0254 58.5728 83.3939 56.9867C83.2807 58.1196 83.2127 58.9806 83.1221 60.0909C82.4196 60.1589 81.6719 60.2495 81.0601 60.2948C80.3803 59.5924 80.267 53.6332 80.7429 49.396H80.7202ZM86.3169 52.9534C84.8214 51.5259 84.0284 51.2767 83.3713 52.0017V54.041C84.7081 54.6302 85.5238 54.109 86.3169 52.9534Z" fill="#C39D70"/>
<path d="M116.906 54.4939C116.906 53.6782 116.77 52.8398 116.929 52.0694C117.268 50.4153 118.855 49.0558 120.577 48.8972C122.616 48.6933 124.474 48.8972 125.765 50.8685C127.42 53.4063 127.057 55.8988 125.924 58.4365C125.788 58.7537 125.494 59.0257 125.222 59.2522C123.432 60.7251 121.211 60.7024 119.33 60C117.608 59.3655 116.702 57.5982 116.861 55.5815C116.883 55.219 116.861 54.8564 116.861 54.4939C116.883 54.4939 116.906 54.4939 116.929 54.4939H116.906ZM124.134 54.6752C124.134 54.6752 123.998 54.6299 123.93 54.6299C123.93 54.2673 123.93 53.9048 123.93 53.5422C123.839 52.2054 123.182 51.3897 121.891 51.1178C120.781 50.8912 120.259 51.6616 119.738 52.3867C119.013 53.4063 118.764 54.6525 119.194 55.7175C119.534 56.6012 120.418 57.4849 121.302 57.9154C121.778 58.142 122.956 57.6435 123.386 57.1223C123.885 56.5105 123.907 55.5136 124.134 54.6752Z" fill="#C39D70"/>
<path d="M128.278 49.5085H130.68C130.794 49.7804 130.975 50.0297 130.975 50.2789C130.997 52.001 130.975 53.7004 131.02 55.4224C131.088 58.0282 132.266 58.572 134.781 57.0765V49.6218C135.62 49.5312 136.368 49.4405 137.025 49.3726C137.251 49.6898 137.455 49.8257 137.455 49.9617C137.501 52.0463 137.591 54.1082 137.523 56.1928C137.41 58.9119 135.96 60.0901 133.331 60.3394C129.615 60.6792 128.528 58.3681 128.324 55.5131C128.188 53.6324 128.301 51.7291 128.301 49.5312L128.278 49.5085Z" fill="#C39D70"/>
<path d="M57.6988 55.8536C56.2486 55.9216 55.1836 55.9669 54.028 56.0349V57.9609C55.2969 58.0288 56.5885 58.0968 58.0613 58.1874C58.0839 58.8446 58.1293 59.411 58.1519 60.1588H51.2637V49.7811C52.2607 49.0787 53.4616 49.5092 54.5719 49.4412C55.6368 49.3732 56.7244 49.4412 57.948 49.4412C58.0386 50.121 58.1066 50.6874 58.2199 51.5485C56.7698 51.6164 55.4555 51.6617 54.1867 51.7297C53.7335 52.5001 53.7108 53.0892 54.5945 53.2025C55.4782 53.3158 56.3845 53.2252 57.4722 53.2252C57.5401 54.1315 57.5855 54.8793 57.6761 55.8989L57.6988 55.8536Z" fill="#C39D70"/>
<path d="M139.926 49.3956C141.421 49.3956 142.758 49.3503 144.118 49.3956C146.066 49.4636 147.335 50.4153 147.766 52.024C148.174 53.5648 147.358 55.6268 145.795 56.3972C144.866 56.873 143.778 57.009 142.532 57.3715C142.464 58.0739 142.373 58.9576 142.282 60.0679C141.58 60.1359 140.832 60.2265 140.221 60.2945C139.541 59.592 139.427 53.5195 139.926 49.3956ZM145.115 52.6132C144.284 52.1298 143.43 51.873 142.554 51.8428V54.6071C143.763 54.6827 144.616 54.018 145.115 52.6132Z" fill="#C39D70"/>
<path d="M48.8844 49.7359V51.9791C48.4992 51.9338 48.25 51.9791 48.0234 51.8658C47.3663 51.6165 46.7545 51.254 46.0974 51.0727C45.1004 50.8235 44.6019 51.4579 44.3074 52.4096C44.8512 53.248 45.7802 53.4746 46.7545 53.7238C49.3603 54.4036 50.2893 57.3719 48.4766 59.3658C48.046 59.8417 47.2757 60.1136 46.6186 60.2269C45.7349 60.3628 44.8058 60.2948 43.8995 60.2722C41.3617 60.2042 41.0898 59.7963 41.7923 56.9867C43.401 57.961 45.0778 58.958 46.7545 57.1679C46.2334 56.1483 45.3044 56.103 44.4886 55.8311C43.4463 55.4912 42.608 54.8794 42.1774 53.7465C41.2938 51.4353 42.4267 49.26 44.8512 48.9202C46.1654 48.7162 47.5702 48.6483 48.8844 49.7359Z" fill="#C39D70"/>
<path d="M78.3411 55.8989H74.2851C74.1945 56.556 74.1038 57.1225 73.9906 57.9382C75.6446 58.0062 77.1175 58.0968 78.7262 58.1648V60.1587H71.9966C71.6114 58.3914 71.8607 56.6013 71.8153 54.834C71.77 53.1346 71.8153 51.4352 71.8153 49.5998C74.2172 49.2373 76.4151 49.4185 78.7262 49.4638C78.7942 49.9623 78.8849 50.3022 78.8622 50.6421C78.8622 50.8913 78.7262 51.1406 78.6129 51.5711H74.3078C73.9906 52.5228 73.9226 53.1572 75.0102 53.2025C75.9845 53.2478 76.9815 53.2025 78.1824 53.2025C78.2504 54.0862 78.2957 54.834 78.3863 55.8989H78.3411Z" fill="#C39D70"/>
<path d="M41.498 44.4339V42.0547C42.2231 41.9187 42.9935 41.7828 43.9452 41.6242C45.3727 38.7239 44.1491 35.5063 44.8062 32.2435C45.486 32.1755 46.2337 32.1075 46.9814 32.0396C47.1627 32.4247 47.344 32.674 47.344 32.9006C47.3667 35.3251 47.3893 37.7495 47.3666 40.174C47.3666 43.029 46.0071 44.4112 43.1748 44.5245C42.6537 44.5472 42.1325 44.4565 41.498 44.4112V44.4339Z" fill="#C39D70"/>
<path d="M88.2191 29.2517C88.0605 27.9828 87.6979 26.8272 89.2387 26.0795C89.8505 26.578 90.4623 27.0538 91.0741 27.5523C91.7085 27.0538 92.3203 26.5553 93 26.0342C93.3626 26.3514 93.6571 26.5327 93.8611 26.8046C94.3822 27.507 94.6768 28.3907 93.929 28.9571C93.4759 29.297 92.4109 29.3877 92.0257 29.0931C91.278 28.4587 91.0061 28.6852 90.349 29.2064C89.9184 29.5463 89.0121 29.2744 88.2191 29.2744V29.2517Z" fill="#C39D70"/>
<path d="M130.523 42.2128C131.158 41.1478 131.951 40.4001 133.514 40.9666V43.6629C132.094 44.0104 131.097 43.5345 130.523 42.2354V42.2128Z" fill="#C39D70"/>
</svg>
