<svg width="101" height="64" viewBox="0 0 101 64" fill="none" xmlns="http://www.w3.org/2000/svg">
<path d="M0 0H100.228V63.1981H0.00305477V0H0ZM92.857 7.83797C91.4389 7.64025 90.923 9.81832 89.6687 9.80905C88.9395 9.80287 88.2351 8.83896 87.4535 8.57018C74.2028 4.03793 64.7552 18.268 68.6479 30.2644C71.0392 37.6359 80.1747 44.3029 87.8026 39.783C88.5379 39.3474 89.9992 37.7286 90.1568 37.7286C90.407 37.7286 93.8425 42.1403 93.8425 39.9252V31.1078C93.8425 31.0182 93.0516 30.2335 92.8662 30.3725C92.6407 30.5425 91.1763 34.2684 90.3205 35.43C87.3948 39.3907 82.7019 42.0013 77.9503 39.1157C72.7662 35.9676 73.072 20.857 74.4098 15.645C76.5384 7.34056 85.6245 6.48787 90.4039 12.9819C91.4482 14.4 91.5439 16.1394 92.8632 17.1434V7.83488L92.857 7.83797ZM20.1433 8.32919C19.6583 7.9152 9.07684 8.64122 7.36837 8.32919C6.8308 10.3064 10.8378 8.84514 11.3013 9.30547C11.7585 16.8654 10.6833 25.1173 11.2796 32.5969C12.1817 43.9106 30.7495 44.479 31.9358 33.5609C32.7576 25.9855 31.321 17.0291 31.9296 9.30547C32.393 8.84205 36.4001 10.3064 35.8625 8.32919H27.0205C26.4829 10.3064 30.4899 8.84514 30.9533 9.30547C31.8122 10.1613 30.3262 30.5672 30.9101 33.5176C29.7392 42.2361 17.2269 42.8633 16.2104 33.5609C15.3824 25.9917 16.8345 17.026 16.2104 9.30547C16.368 9.14791 21.8456 9.78124 20.1433 8.32919ZM49.1287 9.30856V39.193C49.1287 39.4865 44.3091 38.3742 45.1989 40.1723H58.465C58.3662 38.5411 54.044 39.4308 54.044 39.193V9.30856C59.6823 8.63815 62.2496 10.1613 63.7511 15.5616C63.9241 16.1857 63.7635 17.4617 63.8716 17.6408C63.9149 17.7119 65.7346 18.0085 65.3638 16.8994C64.7737 15.5678 65.0394 8.46822 64.0632 8.2983L39.6193 8.39407C39.2053 8.48985 39.0076 8.7401 38.884 9.13246C38.5936 10.0562 38.0375 17.3195 38.3248 17.6347C39.4525 18.8581 39.9931 14.3413 40.1847 13.8593C40.9447 11.9408 42.2639 9.68547 44.4914 9.33636C45.1432 9.2344 48.968 9.14482 49.1317 9.30856H49.1287ZM6.37972 44.0928V46.5675H94.3337V44.0928H6.37972ZM9.82448 50.4664H7.36837C8.13456 52.1409 8.13456 54.1707 7.36837 55.8452C11.0294 56.0831 9.29001 55.8823 9.29001 53.1543C9.29001 52.144 9.92952 50.5529 9.82448 50.4633V50.4664ZM14.7336 53.4014C13.8006 52.7001 11.7863 49.2708 10.3157 50.4664C10.084 50.6549 12.8676 54.0193 10.3157 55.8452H12.2806L11.7956 52.419C12.8274 52.4499 14.8757 56.7597 15.7192 55.8452C16.0158 55.5239 15.2527 51.4334 16.2135 50.4633H14.2486L14.7336 53.3983V53.4014ZM21.6201 50.4633C21.4347 50.3088 16.9704 50.3861 16.7851 50.5406C16.7264 50.59 16.1579 51.8752 16.2135 51.9277C17.2176 52.8484 17.2299 49.9443 18.1753 50.9546C18.3885 51.1832 18.2526 55.1439 17.6872 55.8483C21.2061 55.9008 19.7942 56.185 19.6366 54.1552C19.5965 53.6486 19.544 51.0751 19.6552 50.9576C20.5882 49.9598 20.6871 52.938 21.617 51.9339C21.6664 51.8814 21.6788 50.5159 21.6232 50.4695L21.6201 50.4633ZM26.0411 50.4633H22.1082C22.6025 51.4705 22.7601 52.5518 22.6365 53.664C22.5253 54.6835 21.5243 55.7679 21.617 55.8452C21.7838 55.9842 25.7908 55.91 25.9577 55.771C26.0164 55.7216 26.5849 54.4364 26.5292 54.3839C25.9979 53.8895 25.1513 55.2211 24.7466 55.3107C23.6004 55.5609 23.1617 53.4168 23.8352 53.3921L25.3089 53.8834C26.8042 51.3438 23.2791 53.6918 23.5819 51.6929C23.8445 49.969 25.9515 52.0266 26.0318 51.9308L26.038 50.4633H26.0411ZM32.4239 55.357C32.0656 55.771 30.6846 54.665 30.5332 54.0378C30.3076 53.0986 31.6361 51.418 30.4837 50.6765C30.0049 50.3675 26.6806 50.3336 26.5292 50.4633C26.3192 50.6394 27.9349 54.5569 26.5292 55.8421H28.9854L28.5003 53.8865C29.3499 55.2922 33.3322 56.738 34.3919 55.8421C34.602 55.666 32.9862 51.7485 34.3919 50.4633C30.873 50.4108 32.2849 50.1266 32.4424 52.1563C32.4857 52.7279 32.529 55.2335 32.4239 55.354V55.357ZM40.713 53.1573C40.713 51.5694 39.4216 50.2841 37.8305 50.2841C36.2394 50.2841 34.948 51.5694 34.948 53.1573C34.948 54.7453 36.2394 56.0305 37.8305 56.0305C39.4216 56.0305 40.713 54.7453 40.713 53.1573ZM46.1813 55.8483C46.793 55.2304 44.8436 54.1027 44.7478 53.5806C44.6459 53.0338 47.0742 51.072 43.9631 50.4726C40.1229 49.7311 41.8066 50.8001 41.8066 53.1543C41.8066 54.1552 41.7449 54.9492 41.2722 55.8452H43.7283C42.1743 51.1245 44.9672 57.0748 46.1844 55.8452L46.1813 55.8483ZM52.0791 50.4633C50.1945 49.8516 47.4943 51.5817 49.2522 53.2871C49.7404 53.7598 51.0132 53.664 51.1028 54.1367C51.5941 56.6948 49.1565 54.8504 48.6436 53.8926C48.2327 55.6475 49.796 56.287 51.2666 55.7865C52.0667 55.5146 52.2212 54.2294 52.8175 53.8957C53.0554 53.7629 53.3149 55.4435 54.3838 55.771C59.8769 57.4424 60.1704 48.449 54.0409 50.7105L52.0853 53.8895C52.4097 52.4777 50.3027 52.7557 50.1049 52.178C50.0184 51.9215 49.9566 50.9391 50.3644 50.9484C51.6713 50.9762 52.2274 53.3612 52.0791 50.4664V50.4633ZM61.4124 50.4664H58.9563C60.362 51.7516 58.7462 55.6691 58.9563 55.8452C59.1385 55.9996 63.0034 56.1263 63.3742 55.1068C63.2691 52.9905 61.5174 56.4414 60.9891 54.56C60.5164 52.8762 61.573 50.5993 61.4124 50.4633V50.4664ZM65.8334 50.4664L63.3865 50.6981C64.3906 52.7403 62.9695 56.3611 66.544 55.8637C69.2133 55.493 67.7489 52.1749 68.7838 50.4664C65.2155 50.2872 67.8045 50.6765 67.8385 52.6476C67.8848 55.3385 65.4472 55.3941 65.3391 54.5878C65.1383 53.0863 65.9972 50.6024 65.8365 50.4664H65.8334ZM74.1873 50.4633H69.2689C68.7839 53.5837 70.5943 50.2625 71.2338 50.9546C71.62 51.3716 71.2492 55.2396 70.2544 55.8483C74.8917 55.9008 72.5839 56.0429 72.2286 54.1305C71.206 48.6344 74.0081 52.1409 74.1812 51.9339L74.1873 50.4664V50.4633ZM77.1347 50.4664H74.6786C75.4447 52.1409 75.4447 54.1707 74.6786 55.8452C78.3396 56.0831 76.6002 55.8823 76.6002 53.1543C76.6002 52.144 77.2397 50.5529 77.1347 50.4633V50.4664ZM83.4557 53.1573C83.4557 51.5694 82.1643 50.2841 80.5732 50.2841C78.9822 50.2841 77.6908 51.5694 77.6908 53.1573C77.6908 54.7453 78.9822 56.0305 80.5732 56.0305C82.1643 56.0305 83.4557 54.7453 83.4557 53.1573ZM88.4298 53.4014C86.675 52.4529 85.9026 49.9443 83.5237 50.4664C83.3136 51.2759 84.3733 50.6858 84.5154 51.2635C84.8614 52.6569 84.2868 54.4642 84.0149 55.8483C87.7439 56.2468 84.3238 55.0512 85.0004 52.4221L88.921 55.8514C89.0199 54.0471 88.5595 52.1409 89.4153 50.4664C85.7512 50.1853 88.8221 50.9082 88.4298 53.4014ZM93.3482 50.4633C86.2022 50.9762 92.1958 53.596 92.375 54.1336C93.1721 56.5249 90.6016 54.6094 89.9127 53.8895C89.4894 57.5784 95.0258 55.6042 93.3945 53.2469C92.8477 52.456 91.5532 52.7094 91.374 52.1749C91.2875 51.9154 91.2257 50.936 91.6335 50.9453C92.9404 50.9731 93.4965 53.3582 93.3482 50.4633Z" fill="#C39D70"/>
<path d="M28.4904 50.9433L28.4863 52.9082L29.4719 52.9103L29.476 50.9453L28.4904 50.9433Z" fill="#C39D70"/>
<path d="M44.2132 52.9074C43.2369 53.8713 42.8754 51.4059 43.2369 50.9486C43.5458 50.5624 44.7322 52.3914 44.2132 52.9074Z" fill="#C39D70"/>
<path d="M36.8534 50.9546C38.8059 49.6539 40.6287 54.7855 38.015 55.3324C36.115 55.7309 36.0934 51.4613 36.8534 50.9546Z" fill="#C39D70"/>
<path d="M55.3467 51.0163C57.7133 50.3984 57.3364 55.0604 56.2489 55.357C54.1635 55.9255 53.0574 51.6126 55.3467 51.0163Z" fill="#C39D70"/>
<path d="M79.5966 50.9546C81.5491 49.6539 83.3719 54.7855 80.7582 55.3324C78.8582 55.7309 78.8366 51.4613 79.5966 50.9546Z" fill="#C39D70"/>
</svg>
