<svg width="156" height="72" viewBox="0 0 156 72" fill="none" xmlns="http://www.w3.org/2000/svg">
<g clip-path="url(#clip0_871_6176)">
<path d="M107.202 10.0647C107.011 10.5675 106.803 11.0616 106.63 11.573C106.101 13.1333 105.59 14.7023 105.078 16.2712C104.61 17.7015 104.151 19.1405 103.674 20.5707C103.284 21.7496 102.868 22.9199 102.478 24.1074C101.767 26.3005 101.065 28.4936 100.363 30.6867C99.4003 33.6686 98.4295 36.6592 97.45 39.6411C97.2246 40.3346 96.9559 41.0194 96.7218 41.7215C96.6005 42.0856 96.3837 42.2503 96.0023 42.2416C95.1268 42.233 94.2513 42.2416 93.3672 42.2416C91.4515 42.2416 89.5357 42.2416 87.6114 42.2416C86.8226 42.2416 86.7879 42.233 86.5452 41.5135C85.5223 38.4362 84.5254 35.3503 83.5026 32.2817C82.5664 29.4558 81.5869 26.6386 80.6507 23.8127C79.8445 21.3769 79.073 18.9237 78.2756 16.4879C77.6341 14.5289 76.9753 12.5785 76.3252 10.6281C76.2645 10.4461 76.1778 10.2727 76.0998 10.0907C76.0565 10.0907 76.0218 10.0994 75.9784 10.108C75.9524 10.2294 75.8918 10.3594 75.8918 10.4808C75.9091 11.2783 75.9524 12.0671 75.9698 12.8646C75.9958 13.7834 75.9871 14.7023 76.0131 15.6211C76.0911 18.3256 76.1691 21.0388 76.2645 23.7434C76.3338 25.8584 76.4292 27.9735 76.5072 30.0973C76.5592 31.5449 76.5852 32.9925 76.6286 34.4314C76.7066 36.6332 76.7933 38.8263 76.88 41.0281C76.88 41.2101 76.9406 41.3921 76.9493 41.5742C76.9926 42.0769 76.8453 42.2416 76.3338 42.2503C75.4323 42.259 74.5395 42.2503 73.638 42.2503C71.2108 42.2503 68.7837 42.2503 66.3566 42.2503C65.6458 42.2503 65.5938 42.1983 65.5938 41.4875C65.5938 34.8995 65.5938 28.3116 65.6024 21.7236C65.6198 14.8149 65.6631 7.8976 65.6891 0.988922C65.6891 0.347464 66.0012 0.0267348 66.6253 0.0267348C71.9477 0.0267348 77.2787 0.0267348 82.6011 0.0267348C82.7398 0.0267348 82.8871 0.0267348 83.0258 0.0267348C83.3725 0.0267348 83.5979 0.200102 83.6933 0.546836C84.04 1.80375 84.3954 3.06066 84.7508 4.3089C84.8548 4.6643 84.9589 5.01104 85.0715 5.36644C86.1031 8.73843 87.1259 12.1104 88.1661 15.4824C88.6082 16.9214 89.0677 18.3603 89.5097 19.7993C89.8218 20.8308 90.1079 21.871 90.4286 22.9025C90.7493 23.9341 91.0787 24.9569 91.4168 25.9885C91.4515 26.0925 91.5381 26.1792 91.6682 26.3785C91.8069 26.0578 91.9282 25.8324 91.9976 25.5897C92.743 23.0499 93.4972 20.5014 94.2253 17.9616C94.8668 15.7251 95.4649 13.48 96.1064 11.2523C96.6005 9.52725 97.1292 7.81092 97.6233 6.08591C98.0914 4.43893 98.5422 2.79194 99.0016 1.13628C99.0363 0.99759 99.0709 0.858897 99.1229 0.728871C99.3223 0.10475 99.435 0.0180664 100.085 0.0180664C105.659 0.0180664 111.224 0.0180664 116.798 0.0180664C117.543 0.0180664 117.639 0.122087 117.639 0.936912C117.639 9.93466 117.639 18.9237 117.639 27.9215C117.639 32.3077 117.639 36.6939 117.639 41.0801C117.639 41.2448 117.639 41.4095 117.639 41.5655C117.621 42.1723 117.569 42.2416 116.971 42.2416C113.668 42.2416 110.357 42.2416 107.054 42.2416C106.448 42.2416 106.361 42.1723 106.378 41.5828C106.43 40.0139 106.508 38.4535 106.578 36.8846C106.578 36.8066 106.586 36.7199 106.586 36.6419C106.63 34.8302 106.673 33.0185 106.725 31.1981C106.803 28.7537 106.898 26.3092 106.985 23.8647C107.02 22.9892 107.063 22.1137 107.089 21.2382C107.141 19.6085 107.185 17.9789 107.228 16.3492C107.263 15.205 107.297 14.0695 107.349 12.9252C107.375 12.1711 107.427 11.417 107.462 10.6715C107.462 10.4808 107.436 10.2901 107.419 10.0994C107.349 10.0907 107.28 10.082 107.211 10.0647H107.202Z" fill="#C39D70"/>
<path d="M45.0494 32.359C45.1274 32.1423 45.2401 31.9342 45.2835 31.7088C45.5609 30.3306 45.8122 28.9523 46.0896 27.574C46.5924 24.9909 47.1212 22.4164 47.6153 19.8419C48.0747 17.4581 48.4908 15.0743 48.9589 12.6991C49.2623 11.1388 49.6437 9.59587 49.9557 8.03557C50.4498 5.55642 50.9092 3.07727 51.386 0.598118C51.4813 0.0953531 51.5854 0.0086696 52.2008 0.0086696C54.3419 0.0086696 56.483 0.0086696 58.6241 0.0086696C59.8116 0.0086696 60.9905 0.0086696 62.1781 0.0086696C62.7589 0.0086696 62.8802 0.130027 62.7676 0.702138C62.6202 1.48229 62.4121 2.25377 62.2388 3.02526C61.6407 5.68644 61.0512 8.3563 60.4618 11.0175C59.933 13.4013 59.4129 15.7937 58.9015 18.1862C58.2773 21.0554 57.6706 23.9247 57.0378 26.7852C56.6044 28.7529 56.1449 30.7206 55.7028 32.6884C55.5468 33.4078 55.4168 34.1273 55.2521 34.8381C55.0094 35.9303 54.7407 37.0225 54.4979 38.1148C54.2379 39.2677 53.9865 40.4205 53.7265 41.5734C53.5878 42.1715 53.5184 42.2322 52.8943 42.2322C47.936 42.2322 42.9777 42.2322 38.0194 42.2322C37.3693 42.2322 37.3086 42.1889 37.1612 41.5301C36.5458 38.7215 35.9477 35.913 35.3322 33.1044C34.9075 31.1714 34.474 29.247 34.058 27.314C33.2951 23.7513 32.5497 20.1799 31.7868 16.6086C31.7348 16.3398 31.6308 16.0885 31.5528 15.8284H31.4054C31.3361 15.9238 31.2234 16.0191 31.1974 16.1318C30.4346 19.3218 29.6718 22.5117 28.9176 25.7103C28.3715 28.0508 27.8428 30.3999 27.3053 32.7404C26.8719 34.6041 26.4385 36.4678 26.0051 38.3401C25.7623 39.389 25.5456 40.4465 25.3116 41.5041C25.1642 42.1715 25.1036 42.2322 24.4188 42.2322C21.3762 42.2322 18.3422 42.2322 15.2996 42.2322C13.4186 42.2322 11.5462 42.2322 9.66521 42.2322C8.98041 42.2322 8.98908 42.2322 8.83305 41.5388C8.01823 37.82 7.19473 34.1013 6.38858 30.3739C5.58242 26.6465 4.80227 22.9191 4.01345 19.1917C3.44134 16.5045 2.86923 13.8087 2.29711 11.1215C1.66432 7.98356 0.996861 4.82828 0.329397 1.68166C0.225377 1.2049 0.121357 0.736811 0 0.182037C0.268719 0.147363 0.459423 0.104022 0.650127 0.104022C4.03945 0.104022 7.42011 0.104022 10.8094 0.121358C11.4596 0.121358 11.5029 0.199373 11.6329 0.840832C12.1097 3.34599 12.6125 5.84247 13.0719 8.33896C13.5746 11.0261 14.0254 13.7133 14.5282 16.4005C15.0656 19.2437 15.6377 22.0783 16.1838 24.9215C16.6259 27.2186 17.0507 29.5244 17.4841 31.8302C17.5187 32.0036 17.5708 32.1683 17.6141 32.333C17.6661 32.333 17.7094 32.333 17.7615 32.3416C17.8308 32.1163 17.9175 31.8995 17.9695 31.6742C18.949 27.6781 19.9112 23.6733 20.8907 19.6772C21.7662 16.1145 22.6417 12.5518 23.5259 8.98909C24.1674 6.39725 24.7915 3.80541 25.4503 1.21357C25.7884 -0.130024 25.7277 1.2496e-06 26.9846 1.2496e-06C30.1485 1.2496e-06 33.3125 1.2496e-06 36.4678 1.2496e-06C37.3086 1.2496e-06 37.3433 0.043343 37.534 0.840832C38.1408 3.398 38.7649 5.95516 39.3543 8.51233C40.0911 11.6936 40.7846 14.8749 41.5127 18.0562C41.9895 20.1453 42.5096 22.217 42.995 24.3061C43.5758 26.7852 44.1393 29.273 44.7114 31.7522C44.7547 31.9602 44.8327 32.1509 44.8934 32.359C44.9454 32.359 44.9974 32.359 45.0581 32.359H45.0494Z" fill="#C39D70"/>
<path d="M124.469 21.1431C124.469 14.4511 124.469 7.75914 124.469 1.07584C124.469 0.428599 124.798 0.10498 125.457 0.10498C134.923 0.10498 144.389 0.10498 153.854 0.10498C154.513 0.10498 154.843 0.431488 154.843 1.0845C154.843 3.55499 154.843 6.0168 154.843 8.48728C154.843 9.38012 154.799 9.42346 153.915 9.42346C148.22 9.42346 142.534 9.42346 136.838 9.42346C135.781 9.42346 135.85 9.34545 135.85 10.4203C135.85 12.362 135.85 14.2951 135.85 16.2368C135.85 16.9996 135.85 16.9996 136.639 16.9996C141.988 16.9996 147.327 16.9996 152.676 16.9996C153.305 16.9996 153.623 17.3174 153.629 17.9531C153.629 19.9555 153.629 21.9492 153.629 23.9516C153.629 24.7318 153.629 24.7404 152.849 24.7404C147.466 24.7404 142.074 24.7404 136.691 24.7404C136.061 24.7404 135.746 25.0525 135.746 25.6766C135.746 27.7744 135.746 29.8808 135.746 31.9785C135.746 32.5911 136.047 32.8974 136.648 32.8974C142.525 32.8974 148.402 32.8974 154.271 32.8974C155.311 32.8974 155.328 32.9147 155.328 33.9549C155.328 36.4427 155.328 38.9305 155.328 41.4184C155.328 42.1812 155.285 42.2245 154.539 42.2245C144.787 42.2245 135.035 42.2245 125.284 42.2245C125.223 42.2245 125.162 42.2245 125.102 42.2245C124.555 42.2072 124.486 42.1378 124.477 41.5657C124.477 41.427 124.477 41.2797 124.477 41.141C124.477 34.475 124.477 27.8004 124.477 21.1344L124.469 21.1431Z" fill="#C39D70"/>
<path d="M106.265 61.2419C105.563 61.372 104.895 61.4933 104.236 61.6147C103.95 61.6667 103.76 61.554 103.708 61.3113C103.656 61.0772 103.786 60.8779 104.054 60.7999C104.54 60.6698 105.025 60.5571 105.502 60.4271C105.589 60.4011 105.675 60.3751 105.779 60.3404C104.427 57.0898 104.592 53.9519 106.464 50.9699C107.721 48.9589 109.533 47.598 111.795 46.9045C116.71 45.4049 121.634 47.8493 123.61 52.2269C125.621 56.6737 124.087 61.9528 119.805 64.5879C117.49 66.0095 114.976 66.3996 112.341 65.7408C109.706 65.082 107.695 63.5477 106.273 61.2419H106.265ZM108.033 60.7132C109.68 63.4784 113.98 65.4808 118.088 63.5564C122.371 61.554 124.096 56.3097 121.608 52.1315C119.233 48.1441 113.91 46.8611 109.931 49.765C106.343 52.3742 105.927 57.0291 107.496 59.7683C108.432 59.4043 109.325 58.9622 110.2 58.4421C110.183 58.3727 110.174 58.312 110.165 58.26C109.931 57.4279 109.905 56.587 110.07 55.7375C110.374 54.1512 111.084 52.7903 112.35 51.7501C113.191 51.0566 114.136 50.6319 115.254 50.7186C115.956 50.7706 116.476 51.1 116.805 51.7241C117.118 52.3049 117.118 52.9117 116.979 53.5271C116.727 54.6107 116.086 55.4688 115.332 56.2403C114.621 56.9684 113.815 57.5926 112.974 58.1733C112.749 58.3294 112.523 58.4941 112.289 58.6588C112.35 58.7455 112.393 58.8235 112.445 58.8842C112.705 59.1702 113.009 59.3956 113.364 59.5429C114.11 59.855 114.89 59.881 115.679 59.751C116.58 59.595 117.395 59.2482 118.175 58.7888C118.47 58.6154 118.73 58.6328 119.007 58.7975C119.267 58.9535 119.397 59.1702 119.406 59.4823C119.415 59.8117 119.241 60.0457 119.007 60.2364C118.6 60.5831 118.158 60.8779 117.655 61.0946C116.961 61.398 116.242 61.5973 115.488 61.6494C114.569 61.7187 113.659 61.632 112.792 61.2766C112.125 61.0079 111.535 60.6178 111.076 60.0457C110.954 59.8897 110.824 59.7337 110.703 59.5776C110.252 59.7857 109.836 59.9937 109.403 60.1844C108.961 60.3751 108.51 60.5311 108.042 60.7132H108.033ZM111.804 57.3412C111.934 57.2545 112.021 57.1938 112.107 57.1245C112.376 56.9078 112.636 56.6997 112.905 56.483C113.754 55.7982 114.508 55.0267 115.072 54.0992C115.306 53.7091 115.471 53.2931 115.445 52.8163C115.427 52.4436 115.271 52.2962 114.898 52.3482C114.196 52.4436 113.633 52.799 113.147 53.2931C112.731 53.7178 112.411 54.2119 112.168 54.758C111.847 55.4775 111.682 56.2316 111.726 57.0205C111.726 57.1158 111.769 57.2112 111.795 57.3412H111.804Z" fill="#C39D70"/>
<path d="M142.915 53.1719C142.915 52.7645 142.915 52.3917 142.915 52.019C142.915 51.785 142.932 51.7676 143.167 51.759C143.392 51.759 143.609 51.759 143.834 51.759C143.99 51.759 144.059 51.8283 144.051 51.9757C144.051 52.0277 144.051 52.0884 144.051 52.1404C144.051 54.7062 144.051 57.2634 144.051 59.8292C144.051 60.488 143.99 61.1381 143.799 61.7709C143.427 63.0018 142.612 63.7386 141.355 64.0073C140.271 64.2327 139.196 64.1894 138.174 63.756C137.263 63.3746 136.657 62.7158 136.466 61.7189C136.414 61.4415 136.431 61.4155 136.717 61.4068C136.934 61.4068 137.142 61.4068 137.359 61.4068C137.497 61.4068 137.584 61.4502 137.619 61.5975C137.844 62.421 138.425 62.8718 139.24 63.0538C139.812 63.1838 140.375 63.1838 140.947 63.0712C141.788 62.8978 142.36 62.395 142.638 61.5975C142.75 61.2681 142.828 60.9214 142.863 60.5747C142.915 60.0026 142.915 59.4304 142.898 58.841C142.854 58.9017 142.802 58.9624 142.768 59.0317C142.308 59.7685 141.667 60.2799 140.826 60.436C139.578 60.6614 138.408 60.4533 137.419 59.5865C136.865 59.0924 136.535 58.4509 136.345 57.7401C136.05 56.6392 136.006 55.5297 136.327 54.4288C136.769 52.9292 137.714 51.915 139.283 51.5856C140.505 51.3255 141.572 51.6289 142.447 52.5391C142.62 52.7211 142.75 52.9378 142.924 53.1806L142.915 53.1719ZM137.263 56.0498C137.237 56.9513 137.445 57.7661 137.948 58.4856C138.754 59.6385 140.41 59.8119 141.424 59.1877C141.97 58.8583 142.326 58.3729 142.568 57.7921C142.854 57.1247 142.915 56.4225 142.872 55.7031C142.837 55.0183 142.672 54.3681 142.334 53.77C141.502 52.2964 139.812 52.2357 138.763 52.8078C138.243 53.0939 137.887 53.5446 137.645 54.0734C137.359 54.7062 137.237 55.3737 137.255 56.0411L137.263 56.0498Z" fill="#C39D70"/>
<path d="M128.396 56.5087C128.431 57.1328 128.526 57.6876 128.769 58.2164C129.064 58.8752 129.506 59.3866 130.173 59.6813C130.442 59.8027 130.728 59.872 131.031 59.872C131.491 59.872 131.95 59.8807 132.392 59.6987C132.964 59.4559 133.389 59.0659 133.667 58.5198C133.771 58.3031 133.849 58.0777 133.935 57.8523C133.97 57.7569 133.996 57.6529 134.126 57.6529C134.421 57.6529 134.716 57.6529 135.01 57.6616C135.036 57.6616 135.054 57.6876 135.123 57.7223C135.045 57.965 134.984 58.225 134.889 58.4677C134.481 59.56 133.771 60.3748 132.618 60.6782C131.344 61.0162 130.104 60.9642 128.968 60.2014C128.379 59.8027 127.963 59.2479 127.694 58.5891C127.2 57.3669 127.131 56.11 127.391 54.8357C127.555 54.0035 127.885 53.2494 128.474 52.6253C128.994 52.0618 129.636 51.7238 130.381 51.5677C131.023 51.4377 131.664 51.4464 132.306 51.6111C133.346 51.8885 134.074 52.5386 134.568 53.4748C134.863 54.0382 135.028 54.645 135.106 55.2691C135.14 55.5552 135.158 55.8412 135.166 56.1273C135.175 56.4827 135.166 56.4827 134.82 56.4914C134.568 56.4914 134.317 56.4914 134.074 56.4914H128.405L128.396 56.5087ZM133.996 55.5205C133.996 54.749 133.753 54.0729 133.303 53.4748C132.496 52.3826 131.023 52.2699 130.113 52.7466C129.003 53.3274 128.596 54.3416 128.405 55.5205H133.996Z" fill="#C39D70"/>
<path d="M148.722 57.714C149.06 57.714 149.372 57.714 149.684 57.714C149.736 57.714 149.797 57.792 149.823 57.8527C149.858 57.9481 149.867 58.0521 149.884 58.1474C150.023 58.8409 150.421 59.3523 151.063 59.6297C152.025 60.0371 152.996 60.0025 153.932 59.5344C154.383 59.309 154.686 58.9363 154.747 58.4162C154.807 57.8267 154.495 57.3326 153.906 57.0552C153.369 56.7952 152.788 56.6912 152.207 56.5611C151.566 56.4224 150.924 56.2751 150.326 56.0064C149.953 55.833 149.624 55.6076 149.364 55.2695C148.783 54.5067 148.818 52.9811 149.867 52.2183C150.361 51.8629 150.915 51.6722 151.505 51.5682C152.25 51.4295 152.996 51.4728 153.715 51.7329C154.755 52.1056 155.371 52.8424 155.544 53.9346C155.614 54.368 155.7 54.4114 155.137 54.4027C154.964 54.4027 154.781 54.4027 154.608 54.4027C154.495 54.4027 154.435 54.3507 154.426 54.238C154.426 54.1947 154.426 54.1427 154.409 54.0993C154.287 53.3278 153.837 52.8337 153.091 52.617C152.415 52.4177 151.739 52.435 151.071 52.669C150.473 52.8771 150.17 53.3105 150.144 53.8826C150.118 54.3767 150.352 54.7148 150.751 54.9575C151.123 55.1829 151.54 55.3216 151.964 55.4169C152.519 55.5469 153.082 55.6596 153.646 55.781C154.253 55.9197 154.807 56.1624 155.25 56.6045C155.978 57.3326 156.108 58.5722 155.553 59.4477C155.094 60.1672 154.4 60.5226 153.611 60.7219C152.805 60.93 151.982 60.93 151.167 60.7566C149.884 60.4879 149.017 59.6037 148.757 58.3035C148.731 58.1648 148.714 58.0261 148.696 57.8961C148.696 57.8527 148.705 57.8094 148.722 57.714Z" fill="#C39D70"/>
<path d="M146.034 56.188C146.034 54.8444 146.034 53.5094 146.034 52.1658C146.034 52.0878 146.034 52.0185 146.034 51.9405C146.034 51.8278 146.086 51.7671 146.199 51.7671C146.468 51.7671 146.736 51.7671 147.005 51.7671C147.118 51.7671 147.17 51.8364 147.17 51.9491C147.17 52.0271 147.17 52.0965 147.17 52.1745C147.17 54.853 147.17 57.5402 147.17 60.2187C147.17 60.4846 147.04 60.6175 146.78 60.6175C146.615 60.6175 146.45 60.6175 146.277 60.6175C146.06 60.6175 146.034 60.5915 146.034 60.3834C146.034 60.2101 146.034 60.028 146.034 59.8547C146.034 58.6324 146.034 57.4102 146.034 56.1966V56.188Z" fill="#C39D70"/>
<path d="M143.131 69.4426C143.434 70.032 143.746 70.6301 144.049 71.2282C143.694 71.3929 143.529 71.3323 143.373 71.0289C143.139 70.5608 142.888 70.0927 142.654 69.6159C142.585 69.4859 142.506 69.4252 142.35 69.4252C142.116 69.4339 141.874 69.4252 141.614 69.4252C141.614 69.5552 141.596 69.6593 141.596 69.7546C141.596 70.1794 141.596 70.6041 141.596 71.0289C141.596 71.2456 141.544 71.3236 141.258 71.2889C141.198 71.2889 141.137 71.2022 141.102 71.1329C141.076 71.0809 141.094 71.0029 141.094 70.9422C141.094 69.7633 141.094 68.5931 141.094 67.4142C141.094 67.3621 141.094 67.3015 141.094 67.2495C141.094 67.1368 141.146 67.0761 141.267 67.0761C141.839 67.0761 142.42 67.0501 142.983 67.0934C143.417 67.1281 143.772 67.3622 143.919 67.8129C144.058 68.2637 144.032 68.7058 143.685 69.0525C143.538 69.1998 143.339 69.2865 143.131 69.4252V69.4426ZM141.622 68.9831C142.056 68.9831 142.446 68.9918 142.845 68.9831C143.278 68.9658 143.495 68.7057 143.495 68.255C143.495 67.8129 143.252 67.5615 142.819 67.5442C142.489 67.5442 142.151 67.5442 141.822 67.5442C141.761 67.5442 141.7 67.5702 141.631 67.5789V68.9831H141.622Z" fill="#C39D70"/>
<path d="M139.665 69.4946C139.344 69.4946 139.075 69.4946 138.807 69.4946C138.642 69.4946 138.598 69.434 138.607 69.2693C138.607 69.1566 138.659 69.0959 138.772 69.0959C139.179 69.0959 139.587 69.0959 139.994 69.0959C140.098 69.0959 140.15 69.1566 140.15 69.2519C140.124 69.616 140.15 69.9974 140.046 70.3528C139.855 71.0463 139.127 71.471 138.269 71.2977C137.68 71.1763 137.203 70.6475 137.194 70.0754C137.194 69.4773 137.177 68.8792 137.194 68.2811C137.22 67.4836 138.087 66.8941 138.919 67.0762C139.491 67.1975 139.881 67.5269 140.055 68.099C140.072 68.1597 140.072 68.2204 140.081 68.3071C139.994 68.3158 139.925 68.3331 139.855 68.3418C139.708 68.3591 139.621 68.3157 139.569 68.1597C139.431 67.7696 139.136 67.5443 138.72 67.5096C138.139 67.4662 137.706 67.839 137.671 68.4458C137.645 68.9485 137.645 69.46 137.671 69.9714C137.697 70.4915 138.044 70.8556 138.512 70.8816C139.11 70.9249 139.491 70.6649 139.613 70.1014C139.647 69.9281 139.647 69.7374 139.665 69.5033V69.4946Z" fill="#C39D70"/>
<path d="M147.779 69.1737C147.753 69.503 147.745 69.8151 147.71 70.1272C147.649 70.7079 147.181 71.2107 146.583 71.2974C146.02 71.3841 145.525 71.2714 145.127 70.8206C144.945 70.6126 144.858 70.3786 144.832 70.1185C144.754 69.503 144.754 68.8876 144.832 68.2721C144.945 67.2926 145.872 66.9546 146.514 67.0586C147.233 67.1799 147.727 67.726 147.727 68.4195C147.727 68.6796 147.762 68.9309 147.788 69.1737H147.779ZM147.285 69.1823C147.285 69.1823 147.268 69.1823 147.25 69.1823C147.25 68.9569 147.25 68.7402 147.25 68.5149C147.25 68.4022 147.216 68.2981 147.19 68.1855C147.086 67.752 146.713 67.4833 146.245 67.4833C145.803 67.4833 145.413 67.778 145.335 68.1941C145.222 68.8443 145.231 69.4944 145.335 70.1532C145.395 70.5086 145.742 70.916 146.34 70.8726C146.782 70.838 147.146 70.5432 147.207 70.0838C147.25 69.7804 147.259 69.477 147.285 69.1737V69.1823Z" fill="#C39D70"/>
<path d="M152.754 69.1828C152.754 68.5847 152.754 67.9779 152.754 67.3798C152.754 67.1024 152.771 67.0938 153.031 67.0938C153.491 67.0938 153.959 67.0938 154.418 67.0938C155.094 67.1024 155.588 67.5792 155.64 68.2466C155.692 68.8881 155.268 69.4429 154.609 69.5469C154.314 69.5989 154.002 69.5816 153.699 69.5989C153.621 69.5989 153.551 69.5989 153.473 69.5989C153.265 69.6076 153.248 69.6249 153.248 69.8243C153.248 70.1537 153.248 70.4917 153.248 70.8211C153.248 70.8992 153.248 70.9685 153.248 71.0465C153.239 71.2892 153.075 71.3846 152.858 71.2979C152.745 71.2546 152.745 71.1592 152.745 71.0639C152.745 70.7258 152.745 70.3791 152.745 70.041C152.745 69.7549 152.745 69.4689 152.745 69.1828H152.754ZM153.265 69.1221C153.699 69.1221 154.089 69.1568 154.47 69.1221C155.094 69.0528 155.242 68.4894 155.103 68.0299C155.016 67.7525 154.817 67.5878 154.539 67.5618C154.175 67.5272 153.803 67.5532 153.43 67.5532C153.335 67.5532 153.265 67.5878 153.265 67.6919C153.265 68.16 153.265 68.628 153.265 69.1308V69.1221Z" fill="#C39D70"/>
<path d="M148.697 68.6883C148.697 68.2376 148.697 67.7868 148.697 67.3274C148.697 67.1107 148.749 67.076 148.966 67.0847C149.113 67.0847 149.165 67.154 149.165 67.2927C149.165 67.4748 149.165 67.6655 149.165 67.8475C149.165 68.4456 149.165 69.0524 149.165 69.6505C149.165 69.7979 149.183 69.9452 149.209 70.0926C149.313 70.6474 149.685 70.9161 150.292 70.8728C150.778 70.8468 151.133 70.4653 151.142 69.9539C151.15 69.3298 151.142 68.697 151.142 68.0729C151.142 67.8215 151.142 67.5701 151.142 67.3274C151.142 67.128 151.185 67.102 151.393 67.102C151.601 67.102 151.636 67.128 151.636 67.3361C151.636 68.2116 151.653 69.0957 151.636 69.9712C151.618 70.7687 151.012 71.3148 150.214 71.3408C149.755 71.3495 149.365 71.2282 149.044 70.8814C148.819 70.6387 148.697 70.3613 148.688 70.0319C148.688 69.5898 148.688 69.1478 148.688 68.697L148.697 68.6883Z" fill="#C39D70"/>
<path d="M146.034 49.2538C146.034 49.0284 146.034 48.8117 146.034 48.5863C146.034 48.4303 146.104 48.3696 146.251 48.3696C146.494 48.3696 146.728 48.3696 146.97 48.3696C147.109 48.3696 147.17 48.4303 147.17 48.569C147.17 49.0284 147.17 49.4878 147.17 49.9559C147.17 50.112 147.1 50.1726 146.953 50.164C146.71 50.164 146.476 50.164 146.234 50.164C146.095 50.164 146.034 50.1033 146.034 49.9646C146.034 49.7219 146.034 49.4878 146.034 49.2451V49.2538Z" fill="#C39D70"/>
</g>
<defs>
<clipPath id="clip0_871_6176">
<rect width="155.9" height="71.3319" fill="white"/>
</clipPath>
</defs>
</svg>
