<svg width="181" height="60" viewBox="0 0 181 60" fill="none" xmlns="http://www.w3.org/2000/svg">
<path d="M164.988 41.1396L165.762 36.1356C165.837 30.2625 165.97 24.6928 164.402 18.9919C164.093 17.8682 163.147 14.7336 162.543 13.9159C162.021 13.2062 159.457 11.8433 158.562 11.4731C153.599 9.42106 147.821 10.4856 143.923 14.1679C146.335 6.71334 153.242 0.817056 159.724 8.51077C161.272 10.3468 161.694 12.0851 162.818 13.8953C163.455 14.9213 165.237 16.3048 166.122 17.5262C169.802 22.6048 172.35 33.1502 168.441 38.5579C168.066 39.0773 165.484 41.5896 164.985 41.1371L164.988 41.1396Z" fill="#C39D70"/>
<path d="M162.676 20.3316C162.471 20.5013 158.184 19.6142 157.413 19.5602C151.701 19.1462 144.584 19.6528 139.102 21.2933C138.508 21.4708 135.512 22.4865 135.255 22.7153C134.884 23.0419 133.9 24.5333 133.601 25.0425C130.6 30.157 131.418 37.0999 135.445 41.3993C134.583 41.3736 133.714 40.8207 132.958 40.4196C125.581 36.5033 123.236 30.0002 130.996 24.7493C132.321 23.8544 133.992 23.3479 135.175 22.507C136.258 21.7382 137.338 20.3419 138.546 19.4573C141.2 17.5159 144.491 16.1813 147.716 15.5256C153.406 14.3659 159.717 14.5716 162.674 20.3367L162.676 20.3316Z" fill="#C39D70"/>
<path d="M141.611 22.903L140.83 29.4395C140.771 35.1944 140.95 41.0264 142.774 46.5318C143.059 47.3958 143.712 49.3372 144.178 50.0084C145.309 51.6464 149.333 53.1558 151.272 53.4464C155.548 54.0867 159.295 52.6827 162.676 50.1318C163.039 50.5561 160.354 54.7758 159.85 55.3955C154.813 61.5798 148.909 59.4635 145.358 53.1944C144.167 51.0935 144.317 50.8518 142.63 48.9849C138.23 44.1121 135.414 36.5701 136.505 29.9949C136.991 27.0712 138.598 23.8287 141.611 22.9004V22.903Z" fill="#C39D70"/>
<path d="M144.184 43.7113L150.216 44.4853C156.089 44.5907 162.063 44.4621 167.699 42.693C168.35 42.4898 171.063 41.5513 171.405 41.2607C171.958 40.7927 173.331 38.6044 173.67 37.8741C176.116 32.577 174.992 26.6524 171.158 22.389C171.325 22.2476 173.04 23.1836 173.387 23.3687C183.066 28.5193 182.655 35.3953 173.39 40.677C171.209 41.919 171.214 42.0527 169.363 43.5853C164.395 47.6944 155.179 50.5564 148.992 48.2755C147.125 47.5864 144.718 45.699 144.184 43.7087V43.7113Z" fill="#C39D70"/>
<path d="M73.0957 3.30604C72.6097 2.87404 72.3654 1.87632 72.5583 1.24118C73.2088 -0.895678 79.6605 -0.0830975 79.9717 2.23119C80.3677 5.17547 74.7003 4.72547 73.0957 3.30604Z" fill="#C39D70"/>
<path d="M82.4614 0.0998822C84.0506 -0.180403 88.1725 0.333885 88.1725 2.48103C88.17 5.22731 81.8057 4.70017 80.8568 2.87189C80.1728 1.55275 81.1217 0.336453 82.4614 0.0998822Z" fill="#C39D70"/>
<path d="M16.0671 12.1805C17.6408 10.3985 24.5759 11.391 23.9151 14.4973C23.6322 15.8216 21.1585 16.3179 20.0039 16.2047C18.8494 16.0916 16.3911 15.2019 15.8691 14.1682C15.6094 13.6539 15.6865 12.6099 16.0645 12.1805H16.0671Z" fill="#C39D70"/>
<path d="M55.8136 22.9032C58.4313 23.744 61.0567 24.5797 63.7722 25.0914C69.0153 26.084 78.815 26.9506 83.6441 24.6569C91.2633 21.0363 88.8487 11.6094 80.6073 11.0823C76.9687 10.8509 71.9776 13.088 73.4665 17.4517C74.6905 21.0389 80.1959 21.8592 83.297 20.3317C83.5516 21.4709 82.4047 22.0777 81.5099 22.5252C78.221 24.176 72.695 24.2634 69.7019 21.98C66.143 19.2646 67.3542 15.0114 70.4476 12.4914C74.3485 9.31316 82.1836 8.78603 86.8379 10.2389C93.2253 12.2343 95.8661 18.3312 92.2867 24.1812C94.0327 24.5026 95.8301 25.166 97.5813 25.4412C99.5201 25.7446 103.105 26.0969 104.948 25.6726C105.828 25.4695 106.666 24.7391 107.07 23.942C107.201 23.6823 107.7 22.4043 107.7 22.2603V9.80174H112.066V23.546C112.066 23.6283 111.691 24.9217 111.608 25.1429C109.693 30.278 103.982 29.2751 99.6796 28.226C96.8947 27.5471 94.1844 26.4672 91.6002 25.2483C90.083 26.2177 88.6636 27.3234 86.9613 27.9817C79.3499 30.926 67.6422 28.4009 59.9793 26.0557C58.5187 25.6083 57.071 25.0889 55.6747 24.4692C55.1527 25.0426 55.0987 25.8191 54.6384 26.4851C52.2547 29.936 48.035 29.2391 44.453 28.478C41.915 27.9406 39.5159 26.9223 37.0602 26.246C35.849 31.4917 31.8093 35.4517 26.5816 36.704C18.6488 38.6043 8.15221 35.894 3.04022 29.306C-0.721781 24.4589 -0.852929 17.7423 1.87793 12.3834C2.20964 12.1469 6.89479 14.3017 7.51193 14.8109C5.07165 18.4134 4.21022 23.5795 5.64507 27.7272C9.28878 38.2674 26.5971 37.7711 31.4571 28.4754C32.2902 26.8837 33.4628 22.9134 33.4628 21.2317V9.79916H37.829L37.5796 24.6903C39.5082 24.95 41.4059 25.5337 43.3499 25.7292C44.8285 25.8757 47.2765 25.9966 48.6933 25.6726C49.7193 25.4386 50.7608 24.4229 51.0693 23.4252C51.1336 23.2169 51.4448 21.8309 51.4448 21.746V9.80174H55.811V22.9032H55.8136Z" fill="#C39D70"/>
</svg>
